<mxfile host="65bd71144e">
    <diagram id="JF6ep9cwE07oGfEwCiLS" name="Page-1">
        <mxGraphModel dx="901" dy="809" grid="1" gridSize="10" guides="1" tooltips="1" connect="1" arrows="1" fold="1" page="1" pageScale="1" pageWidth="850" pageHeight="1100" background="#ffffff" math="0" shadow="0">
            <root>
                <mxCell id="0"/>
                <mxCell id="1" parent="0"/>
                <mxCell id="25" value="Kubernetes" style="rounded=1;whiteSpace=wrap;html=1;align=right;fillColor=none;arcSize=5;strokeColor=#666666;labelPosition=left;verticalLabelPosition=top;verticalAlign=bottom;dashed=1;fontColor=#666666;" parent="1" vertex="1">
                    <mxGeometry x="69.06" y="30" width="670" height="440" as="geometry"/>
                </mxCell>
                <mxCell id="9" value="" style="rounded=1;whiteSpace=wrap;html=1;dashed=1;fillColor=none;strokeColor=#000000;" parent="1" vertex="1">
                    <mxGeometry x="425" y="188.5" width="245" height="103" as="geometry"/>
                </mxCell>
                <mxCell id="5" style="edgeStyle=orthogonalEdgeStyle;rounded=0;orthogonalLoop=1;jettySize=auto;html=1;exitX=1;exitY=0.5;exitDx=0;exitDy=0;exitPerimeter=0;entryX=0;entryY=0.5;entryDx=0;entryDy=0;strokeColor=#000000;" parent="1" source="2" target="3" edge="1">
                    <mxGeometry relative="1" as="geometry"/>
                </mxCell>
                <mxCell id="6" style="edgeStyle=orthogonalEdgeStyle;rounded=0;orthogonalLoop=1;jettySize=auto;html=1;exitX=1;exitY=0.5;exitDx=0;exitDy=0;exitPerimeter=0;entryX=0;entryY=0.5;entryDx=0;entryDy=0;strokeColor=#000000;" parent="1" source="2" target="4" edge="1">
                    <mxGeometry relative="1" as="geometry"/>
                </mxCell>
                <mxCell id="2" value="&lt;font color=&quot;#000000&quot;&gt;Load balancer&lt;/font&gt;" style="points=[[0.015,0.015,0],[0.985,0.015,0],[0.985,0.985,0],[0.015,0.985,0],[0.25,0,0],[0.5,0,0],[0.75,0,0],[1,0.25,0],[1,0.5,0],[1,0.75,0],[0.75,1,0],[0.5,1,0],[0.25,1,0],[0,0.75,0],[0,0.5,0],[0,0.25,0]];verticalLabelPosition=bottom;html=1;verticalAlign=top;aspect=fixed;align=center;pointerEvents=1;shape=mxgraph.cisco19.rect;prIcon=load_balancer;fillColor=none;strokeColor=#000000;" parent="1" vertex="1">
                    <mxGeometry x="100" y="220" width="64" height="50" as="geometry"/>
                </mxCell>
                <mxCell id="10" style="edgeStyle=orthogonalEdgeStyle;rounded=0;orthogonalLoop=1;jettySize=auto;html=1;exitX=1;exitY=0.5;exitDx=0;exitDy=0;strokeColor=#000000;" parent="1" source="3" target="14" edge="1">
                    <mxGeometry relative="1" as="geometry">
                        <mxPoint x="488.99199999999996" y="218" as="targetPoint"/>
                    </mxGeometry>
                </mxCell>
                <mxCell id="3" value="&amp;nbsp; &amp;nbsp; &amp;nbsp;Person Service" style="rounded=1;whiteSpace=wrap;html=1;fillColor=none;strokeColor=#000000;fontColor=#000000;align=left;labelPosition=center;verticalLabelPosition=middle;verticalAlign=middle;" parent="1" vertex="1">
                    <mxGeometry x="270" y="110" width="170" height="60" as="geometry"/>
                </mxCell>
                <mxCell id="11" style="edgeStyle=orthogonalEdgeStyle;rounded=0;orthogonalLoop=1;jettySize=auto;html=1;exitX=1;exitY=0.5;exitDx=0;exitDy=0;strokeColor=#000000;" parent="1" source="4" target="14" edge="1">
                    <mxGeometry relative="1" as="geometry">
                        <mxPoint x="492" y="270.98799999999994" as="targetPoint"/>
                        <Array as="points">
                            <mxPoint x="490" y="350"/>
                        </Array>
                    </mxGeometry>
                </mxCell>
                <mxCell id="4" value="&amp;nbsp; &amp;nbsp; &amp;nbsp; Person Service" style="rounded=1;whiteSpace=wrap;html=1;fillColor=none;strokeColor=#000000;fontColor=#000000;align=left;" parent="1" vertex="1">
                    <mxGeometry x="270" y="320" width="170" height="60" as="geometry"/>
                </mxCell>
                <mxCell id="17" style="edgeStyle=orthogonalEdgeStyle;rounded=0;orthogonalLoop=1;jettySize=auto;html=1;startArrow=open;startFill=0;dashed=1;strokeColor=#000000;" parent="1" source="14" target="15" edge="1">
                    <mxGeometry relative="1" as="geometry"/>
                </mxCell>
                <mxCell id="14" value="primary" style="outlineConnect=0;gradientColor=none;fillColor=#3334B9;dashed=0;verticalLabelPosition=bottom;verticalAlign=top;align=center;html=1;fontSize=12;fontStyle=0;aspect=fixed;pointerEvents=1;shape=mxgraph.aws4.elasticache_for_redis;strokeColor=#000000;fontColor=#000000;" parent="1" vertex="1">
                    <mxGeometry x="460" y="210" width="67.83" height="60" as="geometry"/>
                </mxCell>
                <mxCell id="15" value="secondary" style="outlineConnect=0;gradientColor=none;fillColor=#3334B9;dashed=0;verticalLabelPosition=bottom;verticalAlign=top;align=center;html=1;fontSize=12;fontStyle=0;aspect=fixed;pointerEvents=1;shape=mxgraph.aws4.elasticache_for_redis;strokeColor=#000000;fontColor=#000000;" parent="1" vertex="1">
                    <mxGeometry x="580" y="210" width="67.83" height="60" as="geometry"/>
                </mxCell>
                <mxCell id="19" style="edgeStyle=orthogonalEdgeStyle;rounded=0;orthogonalLoop=1;jettySize=auto;html=1;exitX=0;exitY=0.5;exitDx=0;exitDy=0;strokeColor=#000000;startArrow=classic;startFill=1;" parent="1" source="18" target="14" edge="1">
                    <mxGeometry relative="1" as="geometry">
                        <Array as="points">
                            <mxPoint x="500" y="380"/>
                        </Array>
                    </mxGeometry>
                </mxCell>
                <mxCell id="21" style="edgeStyle=orthogonalEdgeStyle;rounded=0;orthogonalLoop=1;jettySize=auto;html=1;exitX=1;exitY=0.5;exitDx=0;exitDy=0;startArrow=none;startFill=0;strokeColor=#000000;" parent="1" source="18" target="20" edge="1">
                    <mxGeometry relative="1" as="geometry"/>
                </mxCell>
                <mxCell id="18" value="&amp;nbsp; &amp;nbsp; Backup Service" style="rounded=1;whiteSpace=wrap;html=1;fillColor=none;fontColor=#000000;strokeColor=#000000;align=left;" parent="1" vertex="1">
                    <mxGeometry x="560" y="350" width="160" height="60" as="geometry"/>
                </mxCell>
                <mxCell id="20" value="S3" style="outlineConnect=0;fontColor=#232F3E;gradientColor=none;fillColor=#277116;strokeColor=none;dashed=0;verticalLabelPosition=bottom;verticalAlign=top;align=center;html=1;fontSize=12;fontStyle=0;aspect=fixed;pointerEvents=1;shape=mxgraph.aws4.bucket_with_objects;" parent="1" vertex="1">
                    <mxGeometry x="770" y="355" width="48.08" height="50" as="geometry"/>
                </mxCell>
                <mxCell id="22" value="" style="shape=image;verticalLabelPosition=bottom;labelBackgroundColor=#ffffff;verticalAlign=top;aspect=fixed;imageAspect=0;image=data:image/png,iVBORw0KGgoAAAANSUhEUgAAAX4AAAIICAYAAABpSYW9AAAgAElEQVR4XuxdBXgUVxc9IQEiSAJBAwSCu7sUKV68tEiRIm2x8kOhFCqU0lKsBVqgSJECRYq1uLu7uwcIEIMYxP/v3N0NSUjIbjKz2WzmfF9aICNv7szcee/KOTbQoFnAsi1gAyCD/scWAP8eH/kBVAZQAUBVAKUBFALA7ZXAKwBPAQQBeAzAH4AXgLv6f/fV//s9AFGJnDAaAH/4e8MP/65Bs4DZLZDQS2T2QWgnTNcWoFPPHOvHLp41iuideQ0A/CmWRq31HMAFAFcAXNT/eAIIj3U9/BCEAQjV//B32schjd5wSx625vgt+e5Y19gcAGTT/9DRG5AdQHUAdQDUAuCmn92bdPU2GWxhmykjbDPbwy5zZthmygxbe3vY2CTvEY8K1/njqIgIREdHISoiEtFR/H84oiMjEcWf8DDd76MSm+SbdAncOBLAOQBHARwDcFX/IZChAAgB8AJAgH5bk0+g7aBZgBZI3luh2U6zQOIWcASQW/9DB294xhh+aQCgPoCCphgwg11GZMqSBZmcsiBT1mzI6OgImwxcKLxGRqcscMqTF86FPZDd3QPZChRE9sIesMsU+xtj/FlDvJ+JQw/x8xUHH/riOSJevUSItzfCgoMQFhiA4GdPEOLrjcjQUCA64Yk5jxER+grhISHyE/EyBOHBwYiKjDB+MLotX+pXCXsBHNCHnQwfhCcA+MNQlAbNAklaQHP8SZpI2yARC/DZcQbAUEw+ABn129Gp08HXA5DHmMlFhowZkTlbdjjkyAmHHK7I6OgUx7HT6bt4FIdz4SJwKV4S2dwKyow+LSAyLAwh3k8R8OghAj0fIPCxJ1543pePQGxwBfHquR9e+fnipZ8vwoICjb08fkF2AtgF4I5+Jx6c+QaGkvjB0KBZII4FNMevPRDGWiArgBL6xCmdPJ+dwgAa6WPwDOW8FfbOLsiSzw1Z87khc3Z+M3TI6OCAbAXd4VKsBHIUKwFH19zIYBc/1J/U0dP27/mBeH7vNvxu3YD/7RsI8mLuWIfI8FC89PVF4OOHCPJ6BG6bBJhs3g/gCAA/fbiIH4Xz+nBRUvtrv7dyC2iO38pvcAouj7N4JlNZHUNHn1Mfg6+rT8Qmemh7lxxwKVIUzkWKIVPWrDFxdqc8+ZCjOJ17KTjl5mJAgzEWiHj5UlYKvjeuwe/WdfDvug9COPzv3ILfzWtgaOotYFXSGf2qgDkCrhL4UThlzPm1bazPAprjt757mpwr4nNAT9wEQCn9bJ5JViZcGcoxhHHiHNvG1hZZ8uZD7nKV4OJRDLaZdeEXhmxciupm74zJJzfBmpwLSU/70PHzQ+B77YrkGwjmD55dPg/vyxclL5EImLlmnoAJZCaUb+vDRa+XGenJkOnwWjXHnw5vuv6SWePeTu/s+ecc+uoa98Ti8o6uuZCvak3kr14TGWztgAwZ4JjTVZx8VrcCsM2YKf1a00KunAlo/9s34X/3NsKDAiUs5HP1Mu4f2C25gwTAaqGHAI4D8NF/BP7V/99CrkobhtIW0By/0ha17OOVAdBdH5tnEJ0NTyUTc/Q5ipVE4cbNdLP5jBmRMUtWZC/kjuyFirxRVWPZl51+R8dy0+CnXvC7eR3hIcGIiorGvb3bcWvrxsQqkbz1/QaG/y/VfxjSrxGt8Mo1x2+FNzXWJbHmsTaAXgA4k+esnglaJmrj3HvO4J09iqLEex2Qq0x5wMZGErDZChSSipv45ZPWbTYrvrroaAQ88sSLB/ekXPX53du4svpv+TAkAK4AbujLRP8DsBAA8wUa0rgFNMefxm9gAsNnoJ0J2IH6mT3LZ0hp8EbVjZ2DIyr27IciTZqDDVB2jg5wypUHmbLwu6AhPViAZaVBTx9LbiDA8wEu/r0IXqcZ9XkDzB4zJMTE8DB9cjg9mMgqr1Fz/NZxW3kfywKYog/dsImKs/s3krIFatdDtQHDJCnLWXxmZxdpjNKgWYDdyq/YqPYyBM8uX8CZeb9LfiABMJPMMtFVAH7QLJf2LKA5/rR3z2KPmNnURQBa6gnJnOITk7E5qnjLdqj08afIkt9N6uPt7B200E3avu+qj56dxRGvXgk9xZ0dm3Fs2sT4yWEDrxCbxQ7qVwGGBjLVx6edIGUW0Bx/yuxn7r0N96sfgPH6Esy4Y7CxQSYnJxRr3R5VP/1cmqU0aBZQwgLMCWwb2h93d2/XHe5NmopDAL7Sh4E0cjkljK7SMTTHr5JhFTwsq284k2cjFZ19mzgkZuLos0gNfb5qNVF35LfI6mYSFY6CQ9UOlR4sIKuAXduw//tRwjnEPAH/LRbIPjpCXyJK7gnFWOzSg33NcY2a4zeHlZN3Dsbp8+q7Z0frSy9jjsRKG1bdkNem0fipyF2+YvLOou2lWSAFFvC9cRVHJo+X3gFyDTE8FAukoB4M4CaARxrFdAoMrfCumuNX2KAKHM5QclkNwET9bF8Oy1l91vwFhamyZNtOKN2pK+wckqTIUWBI2iE0C7zdAv53buLi34vx+ORRBD1+JAym8VYAn+kZRLU8gAU8TJrjt4CboB8C4zPl9LTFjJPG3Bty3zgXLgqXosVQvtvHyFmqjEaDYDn3TRtJLAsEeN7H5X+W4cmZk/C5fhXhcT8AZBDlZOaafgWg2S6VLKA5/lQyfKzTFgVQBUBzAH0N/05+G6e8+ZG3YhVpqGKyNmt+LVGb+rdLG4ExFgh64oVLyxfj2cVz8Dp9ApHhMYyirAJaBmA9ACaDNQ0BYwyq8Daa41fYoCYcjhKC7KptAaAjAHvuy0Yq5yJFUaBWXbiWKosSbTvBNpPGgWOCXbVNLcgCpJq+umYFnpw/A69TcRrDHgBYoKePJoW0BjNaQHP8ZjS2/lSkO24KoDWAZnoxE/lVrrIVULhRU3H47KbVoFnAWizw9PwZ3N2zA3d3b5NEsB4s+SQ19FwAu/XiMdZyyRZ9HZrjN9/tod4sZ/dkxKRCVQHDqXOXr4RiLdrAtUw5FKhF4SoNmgWszwLRUZF4cHAfHp86hgt//Rk7/PNU3wQ2Q98DYM7yT1KaML/G95HvKHUn6Bc5BtKZkqqCX6rH1lSVpDl+9d8v2piCJsMBVNKTpOlm+GXKSygnd7mKyFu5mtZNq/690M5gARYIDXghfQCPjh/GjQ1rY4+IsaANABbrHa3So6Vj58yqIV8//cHZI+OqpzhhCTX5S/jOcjXCHgQK1xgoKvhvoXpRm40A0qx+geb4lX604h6P5Ghj9dKEVQ2/IuNl2S494VajNnKWKB0jYKLuULSjaxawHAtw9h/4+DFubv4XV9euAKuB9OAs+wIAdqcrUfrJemcWTTC8SgJDzu4pGUonnxyQpI4fAgNr6TkAv+u1DJJzvFTZR3P86pidwibvAxipJ0+TxG1GR0dx+KQ+zlaosEaOpo7ttaOmIQuEBQbixYO7OLdornwEYoEO9Q89FTSdralgOPVHAOx890iQ3kR/RMqDZsmTD5QGpSQoK+qio6LByiT/u7dEz+AtoMwZQ0FcCXyjT1abOlazb685fnVMzo5FNmLFCMt6NG2FGp+PgFPuvMJvr0GzgGYBvQWioxHi54Nr61YJLXTwU52MpH4WzY5fhkiNxSf61QK73t/gLnHMlQfFWraFR5PmcMjJcL6uki5DpkywtcsIkhoaEBUehojQUPD/BEVtnl44h4vLF8H3+tWEuIo8AVDAZgKAODEsYwdvru00x6+spb8GwA7FmMStc2EP1B75Ddyq1xb9WQ2aBdSwADlzgh49RMDjR3jlH1dikdrIbALMmr+A0HGLbKYFgnQP1Ane9r9P8PTcacMIGVdn6SfV49gDkBgYGhqi14g2xOllW4ecuVDny29RsHZ9yaOx2z1ZDLXR0SJwL0pm1Du+eQ2Hfh4rVUrRrwnrON4AfbiKHyE2q1kcNMevzC1haIdlaeUNtMjUn/Vo3hpNJkyDjZ0tbGwohqVBs0DyLUDnwo7YG5vW4/bWDQh/GdcPivN5kzFTf0IbSVnGFr6nE6S8Zun3u8GjWSs4uHCRmvqIigjH1sF94Xlov5DA6UE1MBZIUAoyNuoD+EnfE8P3MMansXCi4bjJsLHNIB87pVXkaO/oiAhx+nu/G4kb/62JPS5+AEhc9DcAfgAsiq00LTh+Tk/YwWQYK7/mzMqzUqYIANbFsySLRvYHcFf/tT0A4FYsZkA+QeEKMwUyWfQxgG/1KleQ2VU2Z3TfcVhTskp9H5IGRxCNqIhImVGy2/XhsUM4Pec3+Fy9lOS1ZMiQQRx7bOfOncRBRUcjKirpKknSeJf/6GMUb91BQpIMfWSwi+NPkxyHUhvc27sDu0cPk1WAHoyjr9OHcpicJQPoKMMvqTWRwS4jqg8ejoo9+8cJ2yg1pqSOs/ebEZKriAh9FfsjzAa1MQBO6BXMkjqM6r+3VMdP7T/+8InrrBd5iAmfJMMqdPj8HM8DcBsAg3Ys00qufijHxY8Nk08cn4DxwyJNmuGdsaQj0aBZwHgLcJb70s9Pwgh3dmzBuUVz8Oo55zFxYWdnB0dHRzg5OYF/NoB/LlSokPy4urI68TX8/f3x4MED3L9/H2FhMdQJ8jF4+fIlgoOD8Souq6bszJBIlX6DULRFG9g7O8PeOYfis2ZjLLSkUTWJ+8cKpzCUwlJL4TDh6jpTtmwo16UnyvfoC/vsfDVTD0wGbx7QG4GPPRH6gm5GwPFSrYw+Izj1Rqc7syU5fla+GGbvPfQC4QmuPSVOZ28P20yZRVGKs2xERSMyIhyRYWGIZEImgr4+UVwF8KueL9zQpGFs5QAD9ZX1ghNsyJKxMH7aduEqOOVhTkmDZgHjLPDS1wchvj5S2bL/+6/Av8dG5syZkStXLmTPnh22trZwd3dHy5Yt8d5776FAgQIpIuuLiIjArl27sG7dOhw/flwca1BQEJ4+fYqQkLhhJHaV1xszDpmzZoNL0eKSEDUXuPpZ160dSP8QFhSX2sfRNRcK1K6Pyv0GIWeJUuYaUpLniQwLxb29O3FkynipDoqlV8DowGx9dCLVwj+W4PjZQEHeGta5MxZWM45VSVaWOy+yuhUQJy+ONrO98NlkcysIe2cXZHTKIstivjRBT71ENJrc4FQMIl76+QpVLGdT8cANuHRkHI5JGIaJuJxMDGz6YBJpkGG2kb2gO/LXrIuaQ78EH8LUBh+w0KBAhAUGCDNiWHCwVCMkBhsb0j3bS7Irc7ZssrzP6ODIYHBqX4r1nj86Gi887yPE+ymurvtHmphiT1Ts7e1RrFgxmbkXLFgQXbp0QcOGDWWmryYiIyNx9uxZLFy4EFevXoWvry9u374d5yNAavDmM+bDwdkFuStUMlvuiu/uqVnTcGvbRgQ+pua7DlU/G4pqnw212F4YrzMncXz6JPhevwI2runxs975sxs46fibCjc9Nd9uxu0NNMSMk8coiXBGz1kFG51IUFaofmMUa/keMjomTxTc6+wp3N25FQEP74takN+t67FLxgxm3QdguT5JSwWh2N6SduJU/gv9jyyWcpUtj2oDh6Fg3QbyMTI3WGHAxpcXD+5JTJiIDH0Fv9s34X/nFgIe3BUHEx6c+MqS8WCHnK7CBJqzWAnkKFla5BoNMzqhhHYvDIccrrqVlYYUWeD53dvwv3sbV1b/jYdHD8rq1IBSpUqhTJkyyJMnDz7++GNUr149RedK6c6nTp3CkiVLJEx04sQJPHnyOtzikCMn6n83QVa6ecqbUm2Z/FFFvHyJO7u24vziefC+wlcUKFCnASr3HYh8latZrDbFi/t3cWX1con9Bz2hrxf8BuAXACwBNfvMP7UcP4OQ3QF00vPPiyX4MJG3Jkve/EJSlr96bQmjKAmuCu7s3IJnF8/L8tr78sX41RFMCq8CsEe/CuAygx+oPvpyMUna5q5QGTUGDUfeKuZ7OaOjo/Di3l1J9LGigx+xR8cOw/PYQUTEW5orZTOurPhhy1G0hCTLshcqIvQShtWXUuex9uPwhX924RxubFonfDURr17KJTN8w9ANnX2bNm3Qrh2pnCwL4eHhmDNnDi5evIgdO3ZIroDgRIC0I1X6D9a/t4zUqguuXp+cO41j036WCieCz2OFnv3gXr+RrP4tEVyB39j8L84tnBO7S3mmPu7P2n+zIjUcP+P3DOsMNVypY67ccKtRB3krVYX7O02QraC7+kaIjsazyxfheWgfnl44C6/Tx2MvxXh+hoAO6/k4PgLQiv/IsZFQrUSbjshRvKTq42Rru9+tm3hy5oSEcLwvnYfnkYMSykkIjAkzDswfNzc3ODs7I2OsppSE9mGs99mzZ3j06BHu3r2Lx48fgy97QmCs16NpS9hlzgyXYiV1tdHaSiDR54AfaDJT3ty4Hvf274qJ4TOc06lTJ0nGfvLJJyhcmCwClo/Fixfj/PnzWLlypawACIY43d95FyXbd0b+anEjtWpcEXMRzy6cxdFfJ+DxiaNyipwly6By3wEo0qSFdMhbIvjR4of/5MxfEfiIE33BdH1l0uusuxkGb07Hz6k7laU+1YdNRC/WrWZdqSEm/zxn+qkBhkUoGed5+AAeHNqHiNf10VSQ5vSGLd/Cq1Nt4P8kmaR29y0rOu7v3w2/m9elUeTx6RPx1Yxktli3bl35yZqVRVAAHT+dCH8YH3ZxcYlT/ZGQfRnb5UtMx8+YLh2/ofrj1q1b2Lt3ryz3uZ0BUgNeohQK1W0Ipzx5ULhRMwnNaXhtAcaiLyz9E16nTuDZpfPyC1bf0OHXqFFDYvf58uVLUYI2NezNicKyZcvAUNCsWbNihsCJW8Xen5jl/eBJOWE79ssEPDpxRMaQo3gpVOk3UPpnUiP0asy9oPO/ueU/HJ82MXbYhyEflqaaDeZy/FSYYhyfTl96otlBWPN/X8lS0RwzZ2Msyg8AZxIX/l4E78sX4jTDMOdQ/+vx8lCrCVZ4nJ03EyG+3nhy9lScRBbPW7ZsWbz//vviMOj4y5cvj3Llykl5nxp4+PChJPxY6UHH/99//2Hr1q1xTkXR93xVqouegMe7LWT2lZ7BRC1XZVdWLZNZvqGigwna9u3bo1WrVpK8jV9vn9Zs5u3tjUWLFmHTpk04ePCgDJ+d6u4N30W5rj0lLKg2qPDFypnHJ4/JqfieVv10CIq1bGex4Ug6/2vrVuLY9El45e9nMBFpHtj5bxaYw/Gzzp3VOiRNysSHvWS791H8vQ4oWPcds1ykKSfhMnJVuyYy0yY4s6Ujqzd6HPJXr2XKoUza9pW/Pw6MHy0i1Q+PHIpT5cGkX/fu3VGiRAnkzZsXlSpVQrZsqUP/cOnSJVy5cgWhoaGYN28eDh2iep4OzH1wVeRWs47c4+zu6r/4JhnZDBszNHfgh6/hdfYk/G7ouvUZcuvatav88MPNVZm1gH0Aly9fxty5c/Hnn3/KZTHOTqrxBt/+CJeiJVS/VObpDv70jUyUDB+fOl9+J6JGlgpWKZ2c9atwE+kT/OxS6wJguznGrLbjJ3fGQH25ptRitpy5ELnKlEOWfJanH8vyz73fjsCNjeukSoaxa4Yyav5vFFxLl1XlfvDrv/urobLsozapAYwBM+k3YMAACdcUL15carktBZz9s+Tv3r17kvDjkt/QGUpOIs78SnXsguKt20ntd3oAe0g2f9pDnL6hWqdWrVqYMmUKSpYsKfX41gquDGfPni3OnysBgivA5tPnmiUE6HvjGvaM/l9MtQ+fvxa/L0COYup/eJJ7T4OfPcWm/t3AsevLOjmLoirf20rKk3u6OPup6fjJq8G4FRkqMzDm1mbBCkngWmIyUJz+N19I/M3w0pbv/jEq9Rmgmsg563s9jxyAz7XLMeWYDg4O6NOnD/r16yd13GzSsWTQ2bPem5Ueq1evxvTp02PyAywTZeKPdd8sCbWsfkFlrRrw8AF2jhwcQy7G0Btn+F999RU8PDzSfFjHGGv5+flh8+bNmDx5MrgyJBh6ab9krVTsqQ2WTW4Z2FtKmWPOvXSdxXAQJXT9LO9d0aaRIRzIBC9ZPbupbSu1HD9n+t8ZZMwcXXOj5ayFyF2+otkaPkwxnG6mPxI3N60HO+6ImsNGo3zXnqowarLK49Ts6Xh86ijCX76MySUMHToUw4YNk0ocS5rdG2vLgIAASRD/9NNPWLFiRcwKgA14Zbv2RLVPP7fKxjAm4Y9O/TGGpZErtPXr16NixYpyL9MTSP3A0M+QIUNw9Kiu4oZFG923H5aeHLXBWfTaD1tLtyzBlXqnlRuly99S4X31ElZ3jNHYvqcPje9Uc7xqOP5eAKYYpM2cPYqh6ZSZcgMskaGSTn//D6Nxbe3KmA7XxhOmoXjr9qo8qCd+n4rzi+YKzzfjwUSzZs2kSoKVOQzxpGUwR8KX/8iRIxg+fDguXKCYEsSWmbM5o/fBs2n58t4Y+6Xli3Fm/kwEkUM+OlpKZ318fJAlSxaQNC09gqtALy8vdOzYURq/COZ/+p00D0MxO9YXv1NVquCYU2TIqdM/myzS/9A2fGf+7dEBXqelL4GdvKyeeE/NZ0dpx99YX5dKemLJ6jed8rs0O1ki6PQPT/weF5YukOHxIWk4fgpKtH0ftknUvpt0PdHRCPR6hJMzf8G19f/EnItJPnKkVKhQwaTDpaWNO3fujI0bN0oy2OAAum7eB6dcedL27D86GhdX/oXTf/wm1Asyu3R1jYlvp6V7pNZYGfpp0KCBrAAIfvj7HL1oFqI3lkMvqlshhraFTV4dlq03y7mTY09yEC2oUcpAREf+MJZ4ktpBFSjp+Kl2Q+kxVvBIuWajH3+xyModjo+0qeT+4GyNYIcwKwFKtf9A0dZvJokZCqBgg4FjhDP7//3vf/j888/fYFJU5S6n8kH37NkjOQs2hxGM95InvVCDRha9BE/MbEzIX123CqfnzECQ1yMpq2XylrNbtcpqU/kWJvv07AN59913JQfECjlW2rSYMd8seb67u7dhx7ABwuNFjiFKnjYY+7OweXJ1xvvIhDzLbznrFiWujHY6kRYzc1VxDBeXLcbhSd8bbM0GUjaO6lq8FYZSjp9F5BQ0niEvtmsu1B8zHsVatlF4uMocjktAanyynIrI6OQkfB/luvVWlNKVD9WtbRuwe5SuSZkzfM4Kp02bBs6E0xPYCcyVzY0bNyT2z8Rvlf6DULpjF1XyKGrZNioyEp6H9wvxFqkz6PTr1auHf/75B7lz51brtGn6uAxj9u/fX0KAJFVsPn2elPyqDa7o9333Ja6tXyUzf3bdV+43EAVq1hWH//TiOTw4uBc+1y6BPEAsRGBYqEzn7lKJRp4qtRs1Y9uAk4jVnVripU5BjaVR5HfXOSmFoYTjZ8aGwuJkuJQXutaw0SjdiSWplgfWz7Kx5sjUnyTGzvZulh3S8XOVohQ4y7i9dSN2jfpcDpkjRw40adJEZvp16qj/0Ct1HUofhzZg0o/135z5l+3aCxU+6iMOweIRHQ2fG1el65KrODp9lmuSyIyVOxoSt0CHDh3w7786MfXshQqj1exFZqnxJyPmlgG9QJZMwqDExffzbeAKoVzXXijd8UMZp9LqXQmdm9WE1zeskY+VHksADNZz+Sv6eCnh+Fkoy2VJWTsHR1Ts2Q9VBwy1yJZpfuXv79+FQxPGSt08SceKNG6G6oNHKFrvy05N9gLsHv0/uVlsuho8eLDU5PMDkJ5Bh087sAP4+fPnQrldoVc/lO3c3eJn/oGPHoLJ+ev/rZZQQO3ataVxiZ3TGpK2QIsWLbB9u64/iWXdreYsUXSFndgI+K7vGPaZkLuZCvYDNPxhCvJUqqILEakM1vRv6NMFL32lF4K6IVTu0n0xFURKHT/ZkCh9xtJNaduv8+VY5KloeclcMlv637qJgxO+FUZLvrhM+NQaPhr5qipLLHV17QpQgo0g6+KYMWMknq9BZwE6/HHjxgnvO0tAXTyKCb01yd8stewu2Pspzsz9DRf/XizXwJn+jBkzhHNHg3EWYKiHFCOM+/ODX23QcJT9gCS96oOd+DtHDoLvdfpS0+DiUVzE2gvVb6T6zJ9J6bN/zsbZBdRqETDBy9yporz9KXH83JecxMc5uqxuBVHj8xEo2ZZRH8sDOTGOTZsoPOiEa6my4vR5M5XEpRV/4cAP/Ejrqjy+++47qWnWENcCJIWj8yfbIx2CfISHjdaxO5o5sZbUvWH8l0vww5PGSSyYlBm//PILGjdmEZsGYy3Abu8FCxbg009J2cXO3vKoN2a8TBjVRsSrV7i5eT0OTxyHsCCqIJoGcorVGfkt3GrVNW3HZGxNneVN/bsbystZBjgawJ1kHCrRXVLi+EnBwEF14BKoWOv2aPTjVGSwQIpexs5I5EReDIKkcLW/+FoooJXE+cVzdbmDyEjh0pk4caKENTQkbAFWevDDyOQfE74F6zRA7RHfqEaPkdz74HvzGvZ9M0LYIPkx/+abb8R5pfWei+TaIyX7cYU3atQo4fenpkPZD3ug3tfjzVJFw6o6UiJf+/efOASMxl4PyefqjvwW7E1SE363buDg+DF4pKOcfgZgJADG+xVDShw/GdaoWiVLdcbB8lW1zGUvRRvOzNOVbTKxRKdPKmglcXbBHzg161cRSMmUKRP++OMPoV7Q8HYL3Lx5Uxwpq2IIkrvVGDJCVpCWgBAfbynFvbXlP3FOpFSeNGmSlsxNwc2hoEvlypWF7ZVcOmTppfCSOeB/5yaOT5skSl6mgiy0NT8fKdV/aoKrk6trluPgT5TnFVD5T9HqnpQ4fvKg1mT9O8M774ybpKYt5Ngh3s+EvZIygNSHNQbM5m/s10049tk9WK5LT1QfMkLRrlzy7TCmz3IsguGLXr3YwKzBGAuQ9pmcNiR7Yxldwx8mi6AGk++piajICHge2o8tgz6WVVz9+vXx66+/olq1aqk5rDR/buZ4pk6dKtQeRKWPP0PtEV+rHj83GM5AscGZtalglIAhYrLQqolbWxZY5OwAACAASURBVDdgx/CYaAGdPo0Vw+Gc0nMn1/FTzl6yJKyNfW/eMmFjVBq8MWfnz8QrvUgx5QVZhmXn4BCTBCQPCNWwhPwtXos8q3jWdW0D7yuX5Hekim02bY7ohCoFOoedXwzC3T3bhWiN8XwSlaXXdv3k2JU1/oz9fv/998L7z5eq6dRZqa7TwLwQKyxIopczZ0588cUX8oEyd3NPcmxq6fuQv7958+ZS1pvdvTBqD1d+FZ6YDahed2LmLxL6NWglGGsvUk6Tol3tcnXG+VnWSU1tvQ44SS91ogcKILmOnwndGozRuTdsipa/63i4lQK7ao9O/QmPjh/B83u3Y5grEzo+VxykeLbP7oz8NeugXJdeMfX4G/t3F2lFwilPPrT5c7miZZs8Lsm5Lq1cKrwg7Nq8du2axTNqKnWflDwO+W1GjBiBv/76Sw5LZtTqg79Itfp+9nhcXrkUB8brtDHYfbp06VIpzdWQcgsEBgZKOJTxfibzmdhnQ5+5QBK3wz+Pxe0dm00+Za3hY1Cxd39VyztZgnpy9jRcXb2c4yPfST8Ay0webCI7JNfxMy2ehQ04H6zfCafcZF5WBv53b0usnDNoVlCYAn6NOSbKOdpksMH1/9YIxTI7czuu2ICcxblQUQ6XVy3DqT+mI/ipjgmQoiRsztJmhMmzMcv8Bg0aJCEf3svOa7aqspI0ZnRkaf3rnWp49dxP1LJ+//13sA5dg3IWYEMXO9gp5UjNbSb2yeBrLkjI55cJIm1qCqgyR/Ze5jbVAlciF5cvxqEJUilPMGGoq05RAMlx/D0BzCMDAR1+r/1nFBiG7hDBT5/g2PSJuLn537fO8pM6oTRa2EDasolSHT9E4x9/UbRMUNcOPhLX1q0Sno+dO3eiUaNG0s2pIXkWYGUPaamp7MUST9cy5dFu4UowqWZukLjP8NKRkoF8Q0mJ1pt7jGn9fCEhIZg5c6bM+hk9IH8T31VzgaHZPV8PF3/D99lYUFukycQZKNpCVQJNXF65BPvHsZLTMhw/mbYKU0yl3pgfUF6hDDcJk8heeWbe7waGOmPvw1u3Ix3wJ2duKU4KdfSXn3Bu4Rx5YKh/u3//flHJ0pAyC7DSo127diLowRBAr32npNnH3PijbEG5txStX7VqldaopdINoGIXeXyI+t/+JOWd5iwJ58x60ycfiSCSKXh3ykwhfVMT8Rw/udA4449W4pymzvg5nWUjQSFWXHx2gZoBKQdnzBf+mi8NMkqCY/z03B3FqwVCAwNxdOp4XPnnb5kF7t27F3Xrqt/YoaRtLPlYrO1naIXVH86Fi6LLxj1mFc5+cHg/NvXrJiE7NmudOaPcqtaS7Z4aY+NKmfxV1HEmP06zX+cIjYo5QYZeTuLYNWsMWCjy7uTfRbNDTcRz/Iz5kAQzQIlzmur4WfzORoKcSgorMHNNDhTy2ygGGxtUH/QFqg/8n6IhHtK5np73u7AzEmzkGTt2rMz6NShngXfeeQes/OCk4OPDF8wi3WcY/fxqJRAeHCwqaOTi+fBD84UflLNg2jkSpRolyQug+Yx5KNqstdkHv+nTHsK6akyVD7t42XSmdsfx1bUrhQVArwo4Xc/WqRN/SCFMdfyrAbQjk3HpTl2lUzel4HKa4iTUu1USOUqUEuEFpYW+2dDDkNTlVUtFVm/lypVSlqZBWQtQvYux/uDgYJRs3xlNfuZzrz5e+vpg6bs1wSYahnkMGgLqnzn9noG9EXT8TPKSwqHM+10V1cQwxrJBT72wvnsHBD7yTHJzklCSzTeTU5Ykt03JBixOOfjj16BIC4BZACYAeJySYxr2NdXxUzevEnfuunm/IlltNmWdFvIrxRLW0qjVee026dJVGrGXX5zts+vU0gXRlbaBOY7H+m52d16/fl1O9+mFu6qWzxmuid2S5FuiaGLv3r3BGHRKwBULP17sTyBdAf/Ozm7q8pK/X0sYA9u2bRPHT5lOirO/O3kmcpUxP+PpvrGjcG3dawnWhO57RkcnXR3/+11T8lgYta9FOv6BV3VdqikFkyrbP+8vHblKgQmimsO+UpzylbN9Jp9Z8UGeFjqF7t3Nwy6olG3S0nFat24tpZ2cCZLCt7DC3EoJ2WJJo2oi1E3RHM72kxvC44eLspre3t7w9PTEgQMHcOfOHbBZjU6/bNmykheiNm+ZMmXkJz1j9OjRwm1FtFu82ixCLQnZe2mTmjFKeQn93r1BY13nbkn17xcrBg+MHyOrT72kLQ1k9lAPVcDZuCUCsUo5/vv7dmHzAOXoDdjB2/jnaZIUVBrk8t/91f8kCUSBdHK2MPmnQR0L7Nq1S+q8meSlMhLr+tVEkNdjrPmgNUJ8niVbP5czes5gyUczf/58oSBOCm3btkWbNm3QtGlTuLu7J7W5Vf6ejp/vE+3XduFKFKhVT9ncnJFWI+cWmzITgnORoqg17Ct4NFWW5yuxoVlKcpecDFvIo8Uyu4FXHhppyrdvpqTjp2YmnT4lH5UWTeADSaKunSN03YXkGmELvwZ1LcBOWYZJ2ITX99gVVat7Tvw2BecWz5XGQWoE03GbAq5MpkyZgkWLFoHkc6aAFUTkd6Lz79atmym7WsW25O3hD1dK9b/5UZSvKOyUGljeqgGe370d59RZ8uVHlU+GiFQoS8TNgXiOn46HD2S4Euc2JcZfX1/RU5gNNX2PXVbi/FDS8bOutsbQL5GtQCFFxhb7IAGPPEVyj80eRYoUASsR3n9fGe0B0hPfvn1bqIlJ+8vjs6JEA9CqVSuZQbPUr/UfS1TlQ+ds/9ml80LZS+oNCqgbCzqs8ePH4+efqZuRPND5M19E4Z7PPvsseQdJo3sdO3ZMKDsOHz4M1zLl0GL6POEBSw3c2bUN24awbF4H0r1U7NUPJdt1Nmt1maU0cLXVZ5YLOBcphm5b9ityT5Ry/CRuazxhGoq1UEfgndzYmz/tgYhXL/Hxxx/LC051reQgKCgIK1askPpwNixxRvv48WNx/HT4jCuT94fJv/bt26drNkg2xpEnJzIqCoXqNULruYrSkse5favaN4Xv9Svyb1zhGQvO9EeOHIlZs2ZJDD+l4P3/+uuvhb4ivYDvwSeffCKqbASpYFxLqR9HT8i+vPcbenc28OFLvoEC8ebUhSZf2YUlC3DsVxbyCFKNsqEjgN8AuOUoURpd/tulyDOplONnQrfagP/BKY86XZ5MQm/sq8vkc0ZmoJQ1xQh8uCk6snbtWpw7dw6PHj0SZ58YmPijnitl/phETo90wHSqjo6O4lDJqtpjtwi+KQ7ShWzo8yH879ySjy4/zsaCIT8Ki5CCQClQvJ1spT169FDqkBZ/HDp+Q3gtNR0/DfX45DH827OT2KxA7fpoOXMBWNFjLpCZmE7/3t6dPCW50djevEqp85sS6lHF8XMmTS3MkGfJT1bzS1z3q+9FxEMNkNODLH6M77MUjyWc334bI5Jg1CnPnz+P2bNnY+vWrVLlYQroiIoWLSpShUwEpjfKZ9pcbcd/e/sm4eYJfvZUbEwxeGMwbdo0TJgwAWQXVRLkfKLoC1cRDP+lB8Rx/Ot2pKoS26sXz7G8RX0h6bN3yYnKfQfIj7lAksrdoz431PCzqoGkPeeVOr8pjp/itCy2d+esutc+0xXrExo0mxMuLluI4zOSL+RCCt8an49E5mzqxMVJDb1tSH/43bqO9957D3zZydhoLEjpMHDgQDCWz1hwcsH4Lz84Xbt2RdasWZN7mDS3X8OGDYULydE1F1rPWSparUpj79df4Mbm9cLmStZI8gUlBc7wO3ToAFYfvW3lltRxEvs95Tu//PJLCfukB/AdYac0bdlp1WZh6kwtpltyh93bswPbhvaX6qKSbTsJMZu5EE+IhbPMyQB0rJMKwBTHT8kZToOKk6tiwGXTZq1vGyuTKfvHfomXfr4mXxIZQmt8/qWqwggUclnTuaWQdnFWQh5xY2fdrOXu2LEjvLy8TIobJ2YIdgvz5aBjYq15egA5+tlMxaU2Z13VBg5T/LIZ5nl49LBwYPn7+0tXdlIYOnSo9HIoGeKJf05W+bBSqGJF89EVJ3Xdav3+888/l5AZV3es5c9fvZbiPFumjJ2VPazwIUj1zmojSkWqDa46T8+ZIY2EeqSq9CKbGclWJU+gUnX8PBZVrM4vnifiK6aiXNdewhJKWle14H3lIlZ30nGxs9qCjt8YsFKHdeiUFlQSbB4jj03VqlVTbUak5PUkdSzG+Q0drlRRe381q4qVxX9M5h0/Igdlpy3zCknhgw8+wOrVZDFRDwz5MMSXHmb9TOzyWh88eCCiLFU/G2rWuHr8u8h+jj1jhuHBwX3C7luxRz/UGRXDj6/aTaf61qb+3cFVBwCGVkhktFvJE5oy4+d5YygblHT8PDC588mBc3bBbKO5se2dc6DKp0NQqfcnStrkjWM9u3wBa95vKU6Wjp+x+qTARO7u3btV5fFhZyn5ZNIDDEt+19Ll8MG67YpfsqmOnzkAyjCy7FNtkASQP6kV9lD7+gzHZ5UbK5lY2ulaqqwo5jnkTN38xtPzZ7C2i65SsGyXnjLJtFVRC5okcXf37cS2wTHlpJwNf6P0PTDV8XPGX5mD6Ln3VIzEoVKDYmvy8ekTcWnlEom1vhWMu7XpiCaTWGikHlja9fTcaazr1k5mnXwwGeNPCmzgKVFC3WUh6WzZ7cjkp7XD0hz/gAEDJCxhDlSoUEHCPewWt2aQ3oJVTNu3b0fmrNmFjlutKj1j7cjVPqv52K3PvgJ27hZrycp2deBz7Qo4CQl98ZwnYGnZeH18X9ETmur41wMgZ2pGj3dbooXCWru8MmqdHpk8HqQkFf6eROqpKbFYqc9nwpKnJhiG8jy0H5s/6yl19Wwtp8N9GxijZBKWTlltsP4/uXwyao9NyeOnZ8fP0N6MGTMkv2TtYFMky52JnntPIkve/Kl6yfRB1F420Dgwv1R98HDY2DDyrSwiw8NwZ8eWGHYAfcPsEKU4+GOP1lTHz+5d3pVcSgqxJGQ+Cg3f3bVNKmlYThkHNjZwb9AErefEJD+UvQOxjhYaGIDj037GpRVLUL16dXkBa9eu/dbzMUbMGnxzgKWl7Bi1djCRHRYWBgn1rN2mOI+LKaEe5hw4408pc6cp9+y3337DkCH0AdYNS3P8tPaDg3uxZWBvibmzZLzm0FEghYOiiI6Gz/UrWPvhewbJWFa6cOY4RdHz6A9mquPnbvdFgcsuI7pu3qcK9bHhQtnEcHb+THgeOSjEWQawbLNir/6qVHfENzJpozf26wrfG9eESGvJkiVJVnyQYqBly5Zq3K8Ej2lKl6nZBqXwidjHQHZLsiJ2WrUR1D1VEqY4/mfPnoEVKJRkVAo5c+YUnWFOGhJCenD8fI7p+Net0wkyWcKMn+PwuXpJtG8Z7yflO2mZldYGZo6TCoSXli/mKSP1zVr9ACS//vstD2dyHP9GAK1sMmTIUKINa1vVF8i4uHQBrm9Yq+NR4XKjbAW0X7IWGY2ovEjpixnk9Qgr2zVBWGAgWMVhzMvO0MuTJ09Semqj92eXKZu8rBmGWn7ytbf5c4Xi+SVTHD/7MRjuY71/SsF+kBo1akiHNstIb9y4kWDzWHpw/GRhZYf6li1bQD6wLht2p4recvx7yogDQ8/7x30lv6o98htU7Nlf0UrCq+tWgr0kelDTdgyAFSl9vhLbPzmOn3EOlhY5MOPebctBZM6WTa3xxRx365B+uLtrq5B1Ueuy8U+/qn5OnoCKPEvfrSXnMtbxm7v6Yvny5dLUZc0gZxEraZwLe6DFzIXIUVRZYfvUcPwMX9Ghk/vJUK7KCQMLCAyzXsM9TQ+On9U8XEmdPHkSBes2QNOps83Kj/O29+fWto3YM3qYcHUVbtxcOPmVegbv7duF7UM/MUgs+gH4Ra+2pdornRzHz8Hwi+RuZ++AKp8MFo4cNREeEoz5VXUVMmTKazVrocz6zYG04PjZ3EPuH2uGJTn+wMBAcc5Lly5Nkcn79u0r1ToUZjGA4Q72aFBzODbSg+OnBCMLIhhKY/VMhR79zC7BmNgN9bt9Q9h57+7eDtvM9hLpUIIQklVDu0YOFo4oPeUya5V7AzC9m9WEpzG5jp+yU8t4nuzuRUQ4gQRaauHYtJ9xZt5MSejlKl1OZBXNhbTg+FnOGZpU+au5DKbSecifs3HjRouY8dM5M7nLDuqUgKpcVOGK3wV++vRp6f/w9dW9+/w9Hb+1s3UOHjxYbMrkedsFK4UVk41TlgBWG55f8ieOTPpBhtNg7M/CFpAS3Y8XD+4JP9T9A3sM1YsUOaEYw0G1rzm5jp+1TEzyFsjo4IjSnbtJwkMtLG5QGUyysmW/yeTf4NFE10VrDpC1cV23tgh8/MjsoR7Wb5O/xBC/37Nnj4Q7/Py4GnyN9OD4GzRoIDNhS4jx0/JK1PEzpJEQ4ypXbywkePhQJ3bEMmL2jli7QAs1rMnOKUne1VuQm6t6m+S6KOW9w5XVy3Ho57GIeBmCgnXfEZ/H5zE58LlyCafn/y4rCH3VIpO4HwJgDlV1pMSqJG3bwxGyyaLGkBEo3Un5OLP/nZtS4kQyN7Jw9j54TtGkSlIWJn/Qri8Hw/PwAanUWbx4sbyIb4MSMf5SpUoJM2P9+vVj4r9sZeeHgFVD7Aw2ID04fkNVDznaO/2zRfHuya2D+uDe/l1g5+S+ffveCLXEv99UYGNYIiWsnAbNZtbpxwb5nRjqMaziGBJiya6192vEpWXeId27loQX9+/i2LSJIJOrnb09Ws5ahIJ1dFw+psDz8H6cWzQXj08eNZRucvfmAHaYcpyUbJsSx881GNtmB1LykMmYhuMmK17furFfNzw8elBoHArUaYC2C1RLdCdox/DgYKGROPXHdFSpUgWMQ8aPv8bfUQnHT4fPGb5dPA4i8v8wkcvZogGMEcdfBaTkobDEfePU8atA2XB17Qp5qV/6+khJYVIcPKTW7tOnjzBzJhfU1+UqpmDBgjGHYPMfq4VYSGAAefm/++47q6dssCQ+/oTuKcM9J2f+Kr5APPWM+fBo0tykcNSlFYulJ+j5vTux+5P49VA9vBP7mlLi+HkcZlypwWjHLyDFUOp8+Z2ijHrLmtVBgOd9WfKRCppsnOYEZ4CeRw8KaRJ50UmTS7Wlt0EJx8+PC2eeCYGKVOQBMoDEVnQM1gy1O3dDA15gfff2YO+Ig4NDkoybDEfQOa9ZsyZFZq9cuTIY62fDH1dxvOcfffRRTDkwPw4//vij/Js1gz0arOjZvHmzrOg7r9mGnCVJCGxZOPvnbJyYOVUoZTyatkTdr8Yha363JAfJievpub/h/F/zERYQgOjoGAEmVklSXch4ybckz5b0Bil1/Iz11zF8rVhqSQoFhn2UAGf6u74cghAfb3H8Sgm8mzK22Fw9nH0zwTZ9+tt7F8zt+FkCmFwZSFNskZrbqu34+d6tat/MJOnFy5cvo2fPniKhmVwwcZsjR46Y2Ty7k1+8eBFzOJIC8nmzdgru2GLr9UZ/j9LvdzdLn46p98378gUcmfIjHh0/DLIXdPz7X+QuX+mth2H/0alZ0/Dw2EGQj0wPbz39Ddk3E5fhM3WARm6fUsfP05AhrAOAlfwLufpr/m8UqvQfbOQQEt+Msf2nF3SUxuW69ECDsRNTfMzkHMBUdk7W1bMRJSUwZcafHjp31Xf8wH+9OuPxqWMSVmT8nbH1pNC6dWvJuaghxFK2bFnRdmai19pBDqyJE3Xvd9tFq1CgVl16Ewu87Ggc/Ok7EY8iOq3ahDwVhLfyDZB75/r6f3DghzG65+M17xg5zzg7vpNaF6iUZcmdyrYz/mTk7LzuqLEo3623fBWTA4ZYSIdq6NZVmgbalDGZysevBFcP+YDYwRhbEITxXyZ3WT9uSPzlz59ftHutGQx/NGrUSJr3qITU8AdV6EvgdeYktg7ug1f+fqD6VeyZd2L25QvNfMzRo0cVEdoxnIcz/P79++P333+35lsr18ZVDh0/82ckP2u7eBXcajCQYJk4PPF7XFi6QCYI1QcNR8XenyKTgZsrOhphIcHwvXZF+H0YQtSDs3pO96kiRJKxJOiH1b12pRw/R+kBgBJhLEly4D/UJadFhw+E38LU8AeJkciPwTp6OwdHfHLmprqWeMvRTXX8VGQqWbJkTDlecgdO9SVS/xoSvDt27JBKklu3pNlDQGWvvHnVEZhP7riV3o/yhkx4kpG16dRZIn6tFpY0qo6gJ4/BShs2EhkjcUmaBaqsXblyRRHnT6fP0k0Kk6QHLFq0CKNGjQJpmcnFRIlDVm9ZKljVc3z6JEnQss+g2+b9yOpWEMHPniAsKBCbPvkILAOPhQC9iNUEAKKentpQ0vHzWkoC+JIrIPZ28R9InVyy7ftS72qKStbG/t3heUiX3Kz08aeSNE4tkKDt356dhCObSbaZM2cie/a36/uy6qNIkSJxyi6TO34D0yc5eWKjTJkyUt1jjFpUcs9tCfu9Flt3w0c7j4JVZGrhv48/xOPjR5Ahg42oXjFxbgxY3TN8+HBcvHjRmM0T3YYfHCaN6fSpvmXtYJiS3ct0/ETTX2ZLRyxDxpYMdtve2MSIDdBy5kLY2GbAzi8GgSwDscC/MJzzt56GQSS1LAFKO35ekzv7WwD0AiBTUdfSZUVGrXDDprA1QjQkIjQUWwb0xMOjh8RGfY9fUU1I3ZibQBEGdg6fWzRHFK9++OEHEYx4G1jfzReYQutqgAlBOn0PDy60rBcUp+dHlmGubAUKieNXE343r2N155ZStcEwGnsnjHXAnPGTOpn3PDl5F1aNMZ6fXmb6vI9sUmO56oIFC+Qdf3fKTLg3aKzmLVbk2Hu+Ho7r/65OTC2QYRxm/E/pOXfMx9ho5NWp4fh56qwA+uhj/lKkzFBPg+8nwsWjOPJXq/nW4T04tA+Hfx4r/BUME/XYcwKZs6pPBJfYoPgSc/XBJRyvY8yYMVJilxTu3buHXr16SbmekmAlCNkh+cIYE4pQ8tzmPhbJyvgBjYoGCjdpjpa/zVd9CH83rwu207M/YuXKlSYpX/EDxUkBGTxJOmYMuGJr1aqVdPEaZr7G7GcN2/Ajx/p9lrKS6776kBHI5va6r8FSr5Ex/jPzftdVHL4GZ/hswnoKgA7CYpNvajl+8fUAyCf9sV6uUdoTcxQviYq9PkGeilUSVawnPen1/1YjKjIS5br3Rp2R3yrOv27qA8XS0g19ushuXNJPmDAhyRI7fjAuXLggOr3GOgFjxtWuXTsJNxUooB4/kjHjMMc2tWrVwokTJ4QYq/3StaDYutpga/6+70YKRw6T7IcO6VaexoJOjCWenMUGBATIM0B9ZOZ+DMiVK5dQMXPFxk5wriLjN+sZe760uh0/jgylMcbPWHnDcZNU6f5Xwz6ka985YpAUBOjBhC0dPVWRYmo21Ti3EsdU0/Ebxse6rKb6bLZM21npw+Uc253dataNw3fBap6dIwfj1tYNsj91N3MULZHqnB3+d28JoRJlGOmMmGQlf0xSYMXCkSNHpOWenbgpAR0DnT7PTQoDawedJvnqmfTL6JQF/U9dN9slkw2W8VqGe5hgT25JJTuq2Z3Lmv/YORo3NzfUqVNHnL+BktlsF2chJyLvFFdzfEcK1KqH2iO+NhvrrhImYASARSh6sNvsmhLHNccxzOH4eR12DNUDYPAuphc9k1MW5K9eW2b/BerUl3pYhncOjBuNRyeOSD6g6+b9EttNbXD1cWPjOuwZ/T+ZCTIhxZm/MSDb4NmzZyU0wxLN5KB48eIgQyWJrPjn9AB+4DgT5ky5RNv38e6kGWa77PN/zcPhieMkvt+iRQts2LDhDRZNsw3GCk/ETl12wDOUx/Ap+e1FP9uCSNmSMvvur4bi1pYNYL0+ADYhjE5qH0v5vbkcv+F66bFINN4TQExNHhk+XcuUg3ORogh+9hTPzp/Fqxf+woDXZNJvcMzJNoHUB8UYdgz7TAbC5h46clPCLVzy0/GvWLFClv/GgPXknG2ymogxYCYA0wvIjUSmSobMum87JBTg5kLEy5cgKyzL8zg7573u14+RSw0ptQBDYdu3b5fnmn0Qheo3Qu0vvrZIioa3Xeu9/btxcPzXUnIOgAlcCvGalXohuffC3I6f4+Q52epGJRXG/xONlzSfMQ9FGjcD9X0tAYFej3Bq1q8iw8ba+T/++AMUCDEFbO46f/68cLFs2rRJuF4o7BEbXPqza/PDDz8EqZnJ1Gnt1Tvxbcj4+FdffSXsl6yR7rHLuESpKffibduyOefGxrXY/ZVuhcdZP5lZGZvXkDILMN9BokGykGbKmk0q/ir3+dRCO3UTv1ZODtb37AjvSzGTONagao4/iceD3rwYgFJ68YH342///j9bkLu8+sk8ox/j6GhcWrlEWrAJOn52Vxpb7hf/PCxlY4KLlSCxQUfDjl2WjnLGnx5BR8vaeM4OOyxbh3xV314JpoaNXvr7YfMnH0n3OO/HsGHDrJ4MTw07xj4mcx6kMyHNBVHk3RZo8O1PFqGtm5xrj00rA4ARjdfdlck5oJn2SY0Zf/xLY/yfBPecSpHghrGUrPY5coqyl2tJy+rgI0nT0V9+kh4D0ukuWbIEFALXoJwFWLHEctmnT59KUrfP0YspUjpK7shYaPDw+GFs7KvTmeCqizmHlPIwJXc8aX0/huxY3UYeKk528lauhne+n4icJSyPhdNYW7MQ5c72zYY4/58A+hu7b2puZwmOP/b1f6+nfchQsVd/VPl0CBxccqamfd44d1REhNCrnpxJPWQIbzvb9ePL51nUoNPYYDp16iQUDYz/dvj7X+SrXC3Vkn7UY+Aq7+jUH+Ues0afxGnWLoqixiPDZjyuYkmFwcKNEm06Cu+SpXfpvs0Wj04clbLOEG+W7oMqWo5q2E7pY1qa42d/vHAztJ67FO71G6XaC/82Q3O2f+yXn0DWTjbf5Rt56QAAIABJREFUMCTBem8NKbfAF198ISE0OgnG9juv3gJ7lxwpP3AKjsBV3vbhAxDw4J7U2pNCmLoMGkyzAKlHmOMi8lWrKbq6xnTym3YW827NXNDyVg1AdS49LM2nJmgQSxokg9nsdhvCkbb5c7lU9Vgqjk79CecW/iEVJ3/99ZckYq2dM13te0HKA4pxUGSGfDzs4XDxYBoo9XFv7w5sG9IfUZERMvMnayYb87SVXtL3hnX6pN14RS56GxvkKlMenddsTXrHNLLF8pb1hbBND6qyPLb0oVuS42egfBKAGo65cqP5tLnIV7WGxdrP5+plEV6mbiZx+PBhaezSHEHybhlngpztz507Vw5Qqe8AVP1kSKpyNMW+EsruXf9vLQ6MHwNWczDZO3v2bJFpTK8NWMbcaV9fX4npG5hLWZLLZL2j69t1q405tqVss7FfVzw8ehh8RvQklerwhit4wZbk+P8HYBqvrUznbqg2cDiy5M2n4KUqfyhqtFKQgR2eLLtkyEcr9zPdzmzQYkMchTg4K+R9bzlrMXKVKWf6wVTcg2R9FMm+sGS+KCkxXv3bb7+hefPmIIOohrgWIENt586dhUyQ+RqHnK5o8N3PKNqslVWZ6vp/a4RCPuKlUHI8A2BefdhkWNMiHT8514u3Nq0+PhnXnuJdyOC4Y8RA3NuzQ1j6tESv6SZlVzObeSjEQUpjR9dcaDJxOgrUaSCiHJYGn2uXcXLWr3hwYA8iw8JQokQJTJs2DdRO0Gb+r+/W1atXJRTGlTBLcjNnd0b1gcNQoad1NsEtrF0OnBgA4H9SNyllxEtjKY4/s16KTCgv04rj51hZ8XFq9jSEePNDD6xfv97kpi4j7pPVbkIRk2+//Rb//PMPbDNlFv2Gij37KZfQjY7Gy+f+CH3uLyszOmsDqA9BkR8yv1LkxVi1uIfHDuHkzF/x9PxpsMqLzp+VPuRRSm5PhzXdYHZbDxgwIIaYkGLkpTt1RbWBFJ+yTsRy/M8BkF40rniGhV22pTh+Crj8RAEXvojkZPFomnaWg6fmzMC5hXMQFhggsz52JFaunLAOp4Xd/1QdDiUjWRc/b948GQf5muqM+AaupZMf4mH5JWflAY88wTp86pyS/4nJN5bchQa97pLOaO8gDj9rgULIWbykfAQIp9x5kLdSNWR0ckrUPvf27sTpOTPgfeUSoiLCpZOb1T59+pCNPH2CIbtTp07Jh9xARZ6jeClU6NEHpTt1UVVAJ7Ut/neLunhx/x6HwbIl8pElj5TLTBdiKY6/HQBm9fLkr15L9HpzlSWjQ9oACdxI3kYun6jwcOFWZ2NXzpyW1YNgSdZkc9bYsWNjkrkk6CNfS/4appfFRoaFwuvsKfjfuiH86J6H98OHDjkyeYJH5Iwq2vw9iUlTOa5gIlKP9/btwoUlf8LrzAkRbmGcf/LkyTLbTW8xf5KukW3z77//xunTp+VRI/tu2a694P5O41RpwDPn886k/6XlZGYGHzpKc8WQUZpzHMaey1IcP0nbxGoUL+ZyP6Nj4rMtYy/OnNvR0VCom3w+rPU2cPZrS/8374K/v78wM5KPhyDHfq0vxgg1rykggdqjY4fhdfYk2EhDgWvOvpUCOeLZVVqkSXNZhZA3Kj74wbm6+m+hEWfCl1VdFOp57733ULOm+WkmlLp2Y4/D+D1DO0zOM1fz/DkjHZAcHdk2qb9hiuSqsee1tO24yvynY3NZYQK4raejsbRhxozH4hx//W9+RPnu5G5LeyBF665RQyTuy2YVNvnQCWjO//W9fPHiBQYPHoxly5bJP1JUmzN9SeYaqbPKsrlnF8/j8qqleHr+LPzv3FT1YeEHwKVIURR/rwMKN24uYaHYoFrX3d3bcXz6RMkhMNxHrn2KxA8dOlTVsaXmwdmBy/JbSk0aJEY5YSvWqh2qfjrEIujUzWmf2WUKaI7fBIM76DV6hQMhLTt+jp/Of8cXlByG1HqzIYkfAKe3xItNsFWa3pRSlFwJMQFOuBQtgXpjxsGtZh1ksCVlU9J45e8HKmTd3bNdnL45yRDJJJm7XAVRkHN/p0mcwXK2f2/fTgn58c9Enjx5pLGPtf7168ewkCd9kRa+BSuxyKPPjzdFZgyz/LyVq6NUh84oVK8RsuQjQ3H6QizHz2B/dQA+lmoBS5jxUy2c1Txdqa9bb8wPKNXBosNjSd5Lzv4Y9jE4f3L3U0s1Pdf4s7uZSVyqkRHZCxWWss08FaqI7J4xIFsmHevTC2fBD0BqgKsS58IeqDNqbIKi4J6HD+DKmuW4vW2jDM/BwUFUxEjfTT7/QoVSX1QoJXZjeSYT8rdu3QLj+oRdZnth2azSfxCyFy4Ku8ws0kt/WNKoOoKeSNMuhXhJ1vafpVrBEhz/uwDW0BdQiav2iG+SFGO3VGMaxsWa/vv7d2PLwN7yT6RWZpMPaX3TI6cPP3yM/7KKh8iSzw3vzV0Kl2IlRH3JGAj3+Ucd4HP9iq5aJ5WRvVARNPxhsqxW4iIaQU+8JNm8e9Tnkuw3TADI5kpmT1b+pLVJwMaNG/Hrr7+CVOJ0+ga4liqLumPGwblQYTjlseyGS7UfGdK1X1ohqUredH75O6l9zuQe37i3LrlHN26/9/RGkmRQ9cHDYWfP6E/aBitKHhzchy0DesmFkMeHal1UcqKaVnoAQzuM55N7R3haGNMvXR4tZ/6JrPlNE4r/p0MzKdO0GNjYIF+VGkIrnKNYiTeGFRkejud3buHGpvU4++esmN+Ts8bFxUUYXRkCZDjIUkEeqhkzZmDp0qXi8CmKww5ceZ6zZUedkd+iUP2GcMyVx+j8jKVeqxLj4gd/SaNqhkOdAGCx2X2Lcvw1hoywqiYPzkypHbz36y+k2oezW7J5stOzd+/eVt3pyQ/c/PnzhVOflR8EdVXLde0FhvRMwaEJY3Fh2QJD4syUXVXdliGq9+Yuk/6DBFcu0dGICAuF9+WLOP3HdDw4tC9mPJwI8FmglOby5ctFVtNScPToUQnnkGqBtfn8aPMjYECdUd+hdIcPpfLO2KY3S7k2VccRHQ2J8+twkrxjqp4vBQfXHH8KjGfsrs/v38Xx6ZNi4r50EpUqVRIpP3L8WBPoLDiT3bfvtZPj9fXcewpZ8uY1WV6PFVLzKhdTtExTSXuTiqD90rXIWZxCcm9BdDSenDstvP5eZ+gTXsPw0eCzMGvWLNStW1fJISZ5LENJJu+boTontqM3HKDJxBko0aaDVTdiJWmsJDaYXZrknIJTANiUkrxmkpQOJIn9U9vxZwFA8o5ppGuVGf8AcrVZH9jkdeGv+TgxcyoiY82gGDel/mju3LnTJLMnHURoaChIyMWVDLn0Dcjo6IjCjZqh3uhx0gyVHCxv/Y6ETCwZ7/+zWXoR+Awbg8DHD3Fg/Nd4eu40Il69jKkCir0vm/8oSPPxxx+jZEld+Sg/ECwNZp8If/jnxNhgeV8YlqFTZxUOfwwrLx6Lus9z5szBqlWr3hwyz5Mpk1BouBQphkY/TUWOYnFLWI25zvS4zdyKHmBDIYBrACgna0Hxydd3xLgnVb07yHXRREousnW+5tBRKPMB1RetFzc3/4vzS+bD7+Z1ofc1gGVxbm5ukgdIC2RfdCws42Psd8WKFcJVYwBDOfbOLnhn3CQUqJ1IGMSIWxwa8ALkOn/p52vE1qm3CZXiqvYf8laKh8RGd+Wfv3H+r3lS/x8aGABes74J6I1dWBJcvnx5VK1aVUJDZAdNrEooKChIPsZMxNLJk0aEfyY3fkJg2IqcRZS6zJQlC0p1+BCl2ncWcjUNxltgfY+O8Dp1nDuwlJO+TSfVZ2FIbcdfVc9pkTtXmQqo/cVoaeSxdrC9/9i0n6Xyh5wyhsoPOnw6UZb/sQIkRw7LI/njrPH69evi9BcuXBjTfct7lskpC5zy5kPpjl1QqlMX2KfAaTDEw7AISfBoL0uGs0cxtF+8GtSRSDaio3F13SpcXbdSrpcfgpe+PggNeC4NgUqDjp6TLYccrrDNmFE+1JRC9GjWyiqKK5S2l7HHu7xqCfZ/P9qw+XYALYzd15zbpbbjZy3cYV5wibadhKOHD2N6AZN+nO09u3QBL+7djkmg0eGT0rZRo0aS/CtevHiqNoAxTHD79m2Z3bPzlj0JsUv6mOSjUpZbzbqipUCxjZTipZ8P1nVrH1vSLqWHVG1/Os0P1u9UTD+CqykSyt3ZuRVep0/oVgGAfAxIBMi/k2k0sTARt6VjZ3Wcnb29zOTZfMYPs6FnggR07g2aoEiTFrB31mb1Sj0cXJ0uqhuTt9McfyKGjXH85OlmLDg94sHBvbixcR38bt2Az9VLMSZgDJcsn8wB5M+fXwS+K1asKB3BasPPzw+XLl3CkydPpLJjzZo1IjTDeL4BDAnkr14HLh5FJTRAQjOlEPz0Cf7t2QmkQ7B0sDS144r/4JSbyWv1QKf//N5doahgo9BLX2+E+CYcBmMTFfMqVLrKXsgd2d09hEIhrWvcqmddZY7Mj/KCmmW0GX8S5tQcfywDkef99rZNCH72FJ5H9r8R4ihbtqx0gDIXQPBDQC54/jDZlxxwdsl4MLswyY3PWm3i/v372Lx5M65duyaJwdjIXb6SUBc45MyFCj36qiKPGPDwATb0+RABng+Sc1lm3adg1Zp497d5EjbRkL4tEM/x7wbQFoBIc1kSUjPUQ3mlxgB20iDpecYf+4GIjo5C4MOHuLnlX4nxkp7A+/KFBOO87u7uUhbKn/gJYf6ddeKx68s5W+ePoQnHcF7G6y9fviwsi15eXgk+n66ly0ooh+35brXroUBNdUoOgx95wu/CGQR5PsDxxfMR4m/ZiV0ay6NcBXi0aoeshT2Qr9GbDJ6W9MJrY1HXAqEBAVjSuDrCg0WHhXW7ZB5mhY9FITUdPwk9PiQds00GW1Ts3V86ATW8tkD4yxB4X7ogHav8s8+Vi3h47DBCX+iob98GOn57e/s4jp8VHXT8CdVoxz8WQwT5q9UUWmJbe3vkLFEK+avVgq0KPCzUKvU9fQLPr11CyKOH8L98AeEBL+D5+BHC9JQHSV1vav3ePrM9cru6IqOdHRxy50Ge+o3hUqEycqv0YUyt69TOa5wFwoKD8G+PToaQ7X0A3wFYYtze5tsqNR0/A9WjAHzFErIq/Qai6mfWS2Gb0lvKyo4Az/vwvXEVVJkimBN4dumcJIf1Qs8mn4YrAgfXXMhVpjwYwsmaTxdGykxqgaIlhFpBrbgwr8n/0nk83LYBgbdvIvjhgziljA+9HiM0kfJDky9UhR0c7TOh3bs1cf2eD14E6ktzbWyQxb0IXKvUQIFW7eBUIG2TsqlgNqs+JCuyTvw+FWcXzOZ1MiFG0YlBlnbRqen46WFWkIk5S958qDZoOMq8383S7GPR42EFAZOgwc+epKCz1QZstHLMnQdZcueV6g9z4JXPM9xZuQTPL19E4N24DVq1KxdFywblERERjiE/LERA0Ot+B3OMzZhz2NpmwMi+bdC9bX089Q3AqUv3sHjdYYRH6OgpMmTKjOwlSiNXzToo0tm6e1OMsVd62YahWtKFr+vK0L5gOfuULO36U9Pxk9mKhOqOuStURt0vv0O+qhZLbWFp9y1NjyfU1wdnvh+F4Af3EBmqI29zyeaID1pWR61KRZErR1bkz+0sjbDv9Z+Eg6evGxWeMpdRnBwzY0iPFhjUvRlyOut4h54HhuCOpzfW7TyD/3bxsdYhY3Zn5K5VDwVbd0D2EknQOpjrArTzqGqBF5738XezGNZWzfHHszbfgqv8N49mrdFo/BRVqkNUvcPawU22wCs/H5waORhM4hIMNbWoVw6fdmmI3DmzIquTfZxjenr5om6X7+Dj/1ok3eSTKrhDjQpFMbR3KzSuWRbZs+rE2WPD73kw7j/2wZdT1+CJt67+nrN/e9dc8OjSE27NWis4Gu1QlmgBzfG//a7EOP6SbTuBBFDGcp1Y4s3WxpS0BSJCgnGobxeE6kVU8rhmQ59O9dCmUaU3HH7soz31eYEeI2fi0OnrSZ9EpS2cHDKjZ4cGGPNZe2TL4oiMdomLx0RFR8PbNxAHTt3AD7M2xIzIztEJRXv0RcFW7WCbOe4HTqVha4dNBQvEc/xrAZCbXZeYsxCkZqjnteNv977O8WuwagvsatckJrRTpIArfhn1ITwK5YKtEVq7r0LDcfrSbTT9eIJZbUSH36tDA/w4rAsY13+bw48/sMioKJy8cBff/f4fvJ7pKrHYOctZf9FuH8M+JRQPZrWCdjJTLMAelJVtGhnI93YB+EwvwG7KYVTdVnP8qppXOzgtQC6ifd3bSYkmUShfDiyZ3A85nUnOahr4AVi/8wRGTFyGkFdhiIiMRGSkThwkpeAHyM7OFhlsbOCS3QkLJ3yKBjViujCTfXhvv0DMX30A/2w9GTNWl3IVUXboKF3Vj5GsnskegLajWS0Q9NQLG/t1g/+tGzzvRX314lazDiKJk6Wm4y8N4ArHV1Kb8VvSM6HoWChDeXbsl/A5fRz8s6tLFiz46WN4FMyV4vMwlj5/1W5s3HsawSG6/oSw8AiEhkVIdU38jwIdegbO2m1tkTGjLTJnsoOdrW1Mr0Pz+hUxtGcLFC+cz2hJSGMvgrP/RWsPYd4/B/DylY4h08m9CCqO/gFZyW2kOX9jTWnx21EPmrTbt7ZKmC8AwFQA4y1p4Knl+Nm1S1kyUd7WHL8lPRLKjuXFzWs498NovPJ+Jr5tVL+W6N6W+hTK42VoGM5dvY+TF27j2p1HePTED4+e+cuJ6PSzOGaGa45sKFIgN8qVKIiqZYugaKE8yJwpo/KDSeSIf64+gMXrD0uJKkWtnAp7oMrYiXDU90+YbSDaiVSzAGv5r29ci33fjjScYyaAIaqdMBkHTi3HT2KZlgA2sKqjZPsP0HjCr8kYvraLJVsg8tVLnBz1OV5cl4UdqpUrjEU/97HkIZtlbAvWHMRf/x6B/wtdvi/PO01QftgY6ZDWYB0WeHbxPNZ80Epz/PFuZyYAXQEspspP2Q+6o97XFrUSso6nL5WvwmvfLtxYMEtm+85ZHbBr8UgJr2gA5q7chyX/HY1pTis1YBjc21GwSYM1WEBz/AnfRU5thgGYQGrf8h/1Rc2hX1rD/dauIZYFznw3Et4nJJondfqDujVSPHaelg3+x4q9EvYJeRkmMf5K3/yIPHUbpuVL0saut4Dm+BN+FFjOwbhXL3uXHKjcZwAq9xuoPTRWZIEXN67hym+TEXDrupRB7vlrJHJkd7KiK0z5pTAZ/fPczVi9/TQiIiKlvLPenytVIcJL+Wi1I5higXiOfx6Az/XcPaYcRrVtUyvGT4K2bUzwZs3vhuqDvkCpjiTq1GAtFrg+fyY8N62Xuv3WDSvgu0FtQVIzDXEtQJ6fTkNm40VgiHT4FvuoD4p88JFmpjRuAVKpr+3S1sChRU4yRjieWsplpZbjp2IFmbmy5yhWAnVGjUWhetoS11IeCiXGcXHKeDzezW87sGRSP1QsXVAqazS8aYG120/j+5n/yS+yFCqMuvP+1syUxi3ge/0qNvTtKippACjBOALAa3m9VL6+1HoTqUotX79cZcvjnbEThRJYg/VYILbj3zjncxR209SpEru7bECr2nEcIqOikTFbdpToMwAFWrSxnochHV7J87u3sWP4ANHSAHABABXYt1iKKVLd8eerUkPoGrIV1HjLLeWhSOk4Qv18cXnGJHgfPyyH0hx/0hb9a/1hTF24HTYZMiBHpWqoNmFa0jtpW1isBaiJfGTSD7i1bSPHyCau7wFYzE1NdcdfqEFjtJq5EBkymq+JxmKfFisZmP+lc7g+byZe3LiKnC5ZsGxyPxTIm8NKrk6dywgKCUXtD3+SgzuXLoea0+aqcyLtqGaxAJW4Lq9ciqNTf+T5ogH8oHf+Zjl/UidJdcfv3vBdtP7jr6TGqf0+DVnA++RR3Fj4B4Lu3oZbHhcs+Km3/F9D4hYgo2fFtmM1x28lDwkrth7s343NA0jMKaDj191gC4Dm+C3gJljbEJ5fuYRr837Di2uXkSGDDf6bPUSL8SdxkzXHb21vAeB5aB829o8R39IcP4CY5K4247e+Bz7sub/E+J8dPSgXp8X4k77HmuNP2kZpbQvN8b95xzTHn9aeYhPHG7uqZ8Mfn4P8+xoStwDZRKt0GKeFeqzoIdEcv+b4rehxNu5SLk79UVfHHx2N2WM/Qp0qxYwSXDHu6Na31c7DVzB84kqhbiBXf40ps6zvItPZFcVz/MzyfqdP9Ka6JbQYf6rfAuscwO3li3B/3SqEBwWiZJG8wsoZX083Na48KioaDKvY2ZIZ3DIQFRWF6u//KFoClGd079hFOng1pG0LxHP8lBj8FoBFiEdrjj9tP1sWO/pXPs9wYdI4+F88J2NcNqU/KpYqaNbxPvUJwAMvX3GoBoSGRSI8IkK4+WODgiy5c2ZDwbwuosJlTlCbd9C4ZXJKp4LuqDtnqUg0akjbFvA8cgCbPvkI0ZGRvJBFAL4G4GUJV6U5fku4C1Y6hiuzfsHjHVuEr6dmRQ/M+b6Hqk6VilvX7z7Bwyf+InF44sJd7DxyJYb6+G1mdnTIhKplCqNx7VLCKURCucpl3FWnkb7z0BsfjZiPwOBX0stSqE0nlPzEojQ7rPTpVP+yHp84iq1D+iJUJzn6r75795r6Z076DJrjT9pG2hbJtAAbuJjkDfa8L0cY2bcFeravk8yjJbwbnf2t+89w7c4TITrbd+I6Llz3RFi4zLKSDeoCd2haRT4ApYvmR+mi+ZJ9rMR2pLMnO+fWAxcRERklKlx15i4FNSo0pH0LPDl3GjtHDELgI09eDNvYR+n/n+oXpzn+VL8F1j2Ae2uW4/bKvxARFCQX+tUnrdC9Ta0UXTSbYx4/e4EjZ2+B7JaXbjzC2av3dbz28VC5SmV4eBTFnwv+jPlN5cqV0br1ezF/DwsNxc2bN3Hq1CkEBcYNwVI4pmrZwqhazh0eBXKhTuVi4OogpWCn7opNx7Bw7SHwz0zqlv38SxRo2Talh9b2txAL+Fy9JPKLzy6Tqgd39URt6yxheJrjt4S7YMVjiAgJkVm/94nDEut0csiEPp3qo/8HDUwSZaE+rd+LIOw4dBkPvPzA+P3JS3fxPCAkjvWcsmRB02ZNUapUadja2qJc+XLInj07SpYqFbNd//79MW8eKdJ1CAsLw907d3D+3HkEBwfD2/sZVi5fgYAAUqzoQIlQ9/w5RT6yVNF8eKd6CeR1zZ6sO/fMNwBrtp/Gik3H8TxQN/5Snw2Fe/sPknU8bSfLtMCL+3dxZMqPuKtjqeWNHg7AIrg4NMdvmc+MVY0q4MY1XJg8DsEPH8h1ccbcqkEFVCvnjhb1y4tQS0JgtcuZKw+w++gViYEHBofi/DVP+D7XrR4McHBwQOMmTVCjZk04uzijQsWKcHNzQ4YMuuN6enqiUKHXJIDxHX/8c9PhHz54CC8CXuDQgYPYtnVrnE1y5ciKMsXywy23M9o2roRSHvkSvYb4xz585hY27j2HQ6dvSWiKKNl/MAp3ohKpBmuyQIivN87Mm4kLS2JWm+Tkn24J16g5fku4C+lgDP6XzuPOyiXwOXVMrpbOPp9rdhQtlDvRmT9DOk98XuDuQ584lTnc387ODlWqVkHb9u2RL18+FC5SRJw9/z0+THX8hv2jIiPxwNMTN2/cwNUrV/D30mXw9fWNOXxGO1uUKJIXrs5ZUDBfDrR/t7KUrsYHr+PqHS9s2H0Ox8/fwX0vX4TrcxClBg5DgebvwTazJrRuba9B+MsQXF6xFEemkK1BoDl+Ax+/RtlgbY974tcT8vgh/K9cxCUdY6HJ4Ay+RIkS6N23Dzw8PODi4oL8bm7InPntydDkOn7DAOm4AwMCcP/+fVy+dBnL/16GK5evxBm/g30muOVxTrRXISDoFR4/e46Xr3R5CBs7O5QdMhJ5G76rOX2Tn4S0sUN0VBRubFyH3V8N1Ry/3gIaZUPaeHYVH2VUeJhU+ficOYFbSxYgKiz0reegs2/Trh169e4FRycn2NvbI1euXEk6+9gHTanjj32sV69ewdfHB2PGjMH2rVvh5OhkUq6Cx8pTryEKte0E51LlkCFTyhPFit8k7YCKWeDmpvXYOXKw5vg1x6/YM5V2DxQdjcjwMEQEBwlTeURQIF4+fYLLq5bg7p4dCA8Px8xZs9C6VStkypQJDo6OcHIy3cEaDKSk4zccc8CAAZIgZtK36c/T8PzUcficPArO8hKEjQ1y166PIp27i7yirYOjiK5osG4LaI4/7v3VZvzW/bybfnXR0Tg8aRzO/zVf9j148CDq1atn+nHi7cEwzbFjx1Cnzuv+gaSSu8aclI5/zpw5smnntdvgWrI0oqOotxEtzp+dy4RtJntkcnZmcAc2GfhjK6WbGtKHBTTHrzn+9PGkp+AqD0+k49eVWR46dAh169ZNwdF0u0ZGRmLNmjXo0qWL/J2lncOGDcPYsSnTxIjt+D9Ytx2upculeKzaAazPAprj1xy/9T3VCl4RKyCoUXp51VJFHX9ERAQmT56Mr78mTQr+395ZQEd1fGH8ixEhaNDg7u7uRYvDvwWKFYpTpGhxd3eXokWLa3F3d3fXJEDkf77J2zQEApHN7tvde8/JKU32vZn5zdtvZ+/cuRfJkiVD7969wVV/ZEyEPzL0bOdaEX4Rftt52iMw0hfXr+DgyEG4vXuHCsncs2cPChUqFIE7fX4JD2e1bNkSc+cyRxaQJUsW9UFQqVKlSN07uPDXWrYeCbPlFBdOpIha58VfEX5m6aRP0KxmLmej+PjNOu36a/zRyWM4OHowHh4/ouLy169fj9y5c0e6ox8+fECVKlWwfft2da/8+fNj0qRJyJcvX6TuHVz4y46YiDQVqsDBSSJ0IgXVCi8OIfzdAYwB8MncQxXhN/cMSPuKQHDhT5o0KdauXWsU4WexJygyAAAgAElEQVT4Zd68eXH+/HnVTqlSpTB79mykSpUqUuS5TzB58mQVgZS7eVvkadEOTtHdI3VPudj6CIQQfp7kGgng86PnZhi2CL8ZoEuTXxKIKuH39vZWJ3pfvnypGuXqf/HixYgRI0akpmHMmDEYNmwYnj59itRlK6LkwJFwiR0nUveUi62PwNUNa1SGTs3GAhgC4Jm5R2p+4S9RBpWmzoOdncQ0m/thMGf7TGGrXD3HDsPT0xPr1q0zyorfy8tLnQEwWM2aNVWUD+PvI2MrV65Uh7iuXLmCBFlzoNLU+XCLFz8yt5RrrZDAtU3rsL1bO/h/Ut6dKQAG8guuuYcauac/4r0P8vEnLVQM5cdNh3PMiGU6jHgX5Eo9EXh+9ZLa3L2z91+4u7srn3yBAgUi3cWQwl+rVi0l/JG1/fv3o0OHDiqVc4zESVBz6T+InuDLPD2RbUeut2wCN3dswc6eHQ3FWOYB6AcgsECFGc3swp8oZx6UGjwGcVKnNSMGadrcBFilaP+IAbi0cqnqirHi+KNK+M+dOwdu8LKf0dxj4Kd1O+GeyNPcGKV9nRG4tWs7/u3VGd7PlXdnmVZ396q5u2l24Y+fJTtK9B2KBAyHE7NZAjztypO7hhS2ehf+W7duoVmzZtixY4eqj9tg60HE8Exis/MnA/86gTv7dmF33654++A+X8D83ozsUZVZzGnmEn4PAKcBJOFKv1CXXkhZspw5OUjbOiCgUjbMM+7J3aha8b948QINGzbEhg0bFLlfdhxGDM+kOqAoXdATgXsH92JXv254c0d5dw5rxVgOmLuP5hJ+hj9sBZCXX4/ztu6IzHXqmZuFtG9mAsGFf82aNahcufJX8+uHp5tRJfws1tKgQQO1CS3CH54Zsa3XPjh6EHsG/okXVy9z4FzpM0fzLnNTMJfwcyeXztwKjITI/Vs7ZP/lV3OzkPbNTODYlLE4MWsyfL291cYpUyvEjRs3Ur0S4Y8UPrk4kgQenTyKvYP74Glg3d17AFoCCPyaaEYzl/Azvm4ogHYusWIjR+PfkKdlULECM+KQps1J4Pau7Tg4ZiheXL2k0jGfPn0aGYPVyo1I30T4I0JNrjEWgWeXLuDgqEG4u383b/kYQAsAa411/4jex1zCz5JJXOJPdnJzQ9Z6jVGoc2ASLTHbJrCjRwdcXvO3gnDhwgVkypQpUkB4gCtDhgyq7i6NB7iWLFmiQkYjY+LqiQw927n2+ZVLODRmiMpBBYDl15oAWGxuAuYSficAzJO7wN7RCZnr/IziffgFQMzWCez8sxMur14O5tFnagX60bn6j6gxV0/58uWxe7dacaFEiRKYNWsW0qaNXPjwnTt38OuvvwbmALKzwy/bD8nmbkQnyYqve/vgHo5OGoNLqxnJqawRdc/cQzaX8LMidlUAK1mFKGP1OiqWX0wIMJzzxMxJ8Hr2FLFjx1YnY1lqMaLG7JyMt58zZ466Ra5cucB0CyVLlozoLdV1Z8+eRevWrVUcv3Os2Pjfmu1wT5Q4UveUi62PwLtHD3B0ylhc/DtokW/Twu/AfFkAtnGqM1SrjTLDmK1UzNYJ+Pp4Y3P75uoEL+3IkSMqyVpEUyxwZV6hQgVcvHhR3Y+ZP5lqoW3boDqoEUK+c+dOdO7cGadOnULcdBlRdfYSuMXngXQxIfAfgY9v3+DkrCk4PmOi4Zc2Lfz8ppEHwFERfnmbhCSwu38PXF6zHL4+PihXrhw2btwYobBOJmbr0aMHpk+f/lkTdevWVZk148WLF2H4Y8eOxdChQ1WStlRlK6DUwFGSpC3CNK33wk/v3+HUnGlq1a+ZTQs/GWQEoJZhsuK33gc/IiN7cu4UdnTvgJfXA0+2M0Vz1ar0DIbd3r59q1w6/foxNQpUrnzn2HHg9fQxUqZMqX7/yy+/wD6CBc/p5mHNXe5FFO05AJnr1Ieji0vYOyivtAkC/n5+OLtwtjqVLsIfSECE3yYe/YgNct/Qvrjw92L4enuB+fnp8qGbJiz28OFDzJs3D3369AFLLzq5RUfWnxvCztEJJ6ZPULegj3/48OGqMEt4jf59unm2bVOeStRcug4Js+eKsDsqvO3L6y2LwNlFc7F3UC8Rfo2ACL9lPb8m7e2r2zexsVUjvLp5Q1Wq4wbt6NGj4erq+s1+cLN16dKlajOXoZz2jo7I374rcv3aCm/u3cH+4QNwa+cWdQ+6keiuYaWvsO4h0Kc/ZMgQ5X56//49YqdKjUqT5yF2qjQm5SONWQ4BEf7P50qE33KeXbP09OrGtdjdpys+vn8HJycntSHbtGlTZM2a9Yv+UOTnz5+PhQsX4vjx42AYJ61I977IVr+p+gBgIrjHZ06q9M8PTxxRfy9dujRatGihQj5jxQo9NTh9+SwHySIu/HBhZS+HaNFQsHNPZK5VD07Bcv6bBZY0qlsCIvwi/Lp9OPXasctrV4Cx/QF+fnB2dkbhwoWRJ08esKBKunTpwKgdCjIPe+3duxcPHjxQQ2GYcMkBI5ChWh0l+gZj1ND9Q/tVlAWrftHSp0+P7NmzqzQRrAHAYu80P/pnz55V5wnu3buHkydP4vbtwFTqTq5uyFq/sTp17uYR8XBTvXKXfhmPgAh/KMKfvkoNlB467rM3qPGwy50smYC/ny9ubt+MLR140j3QWFGLYh0nThzwBO3169eDSivy7x4ZMiHPb+2QpsKP6gMgpFH8n108j+PTJuD2HnWiUlnOnDlV9S+WakydOrX6IOFK/8yZM0HfIPg6+vMz1f4ZqUqXh6tHxCODLHlepO9hJyDCH4rwpyhZFiX6DpMDMGF/lmzqlVztPzh6CDt7dcbb+4GpF75mDvxG0KU3kuQvhNip08Le4b+VfsjX857MkX5yzhRcXb8GH9+9DXqJi4uL+nB5/vz5Z5fFSpFKbRInL1Za5d53dPn2foNNTZIMNlQCIvyfo0mvpSl15gqqcNc+SJwn/BEW8rzZBoGAAH+8vX8P7x8/xKl5M3Bnz7/w+/hBia9nvoLI+lNDJfbuCRPD8TsbwMGJ+bx6Ce+Xz3Fsyjjc3L5JnR0Ibvww4cIk96+t4RLXA65xPZSbR0wIhJWACP/npJID+AdAjpjJUiB/+y6gy0dMCHyLADdoP3m9h9+HDwhAAOxgpzZZHd3cvrnC/x5VbiD7+fjg/dMnOL90Aa5v3YhivQYiaYEioPg7RXcPc+TP99qSv9sWARH+z+ebO2KjWbyIftK8Ldojm+Tkt613hC5HG6CifwL8A1RJxbCGeepyKNIpXRAQ4f98GpgXtzWA4SxWnatZa+Rp0V4XEyWdEAJCQAgYi4AI/+ckuTP2C4DpDk5OyNGkJQp2ZB1iMSEgBISA9RAQ4f98LplkvRqA5fx19obNULRHUD4L65l1GYkQEAI2TUCE//PpZ4A1k6KrQGoRfpt+b8jghYDVEhDh/3JqCwPYL8Jvtc+8DEwI2DwBEX4Rfpt/EwgAIWBrBET4Rfht7ZmX8QoBmycgwi/Cb/NvAgEgBGyNgAj/N4Q/c+16KoUuT0iKCQEhIASshYAI/zeEP0WJMijcpRfipGEKHzEhIASEgHUQEOH/ch5zAlgNIGXcdBlRsFMPpCxZ1jpmW0YhBISAEAAgwv/lY5ASAMvPV3dPlBgFOnRThTPEhIAQEALWQkCE/8uZ9ADwB4DuzjFjIf/vXZGtXmNrmW8ZhxAQAkJAVvxfeQa4k9scwBhWSmJqZknUJu8UISAErImArPi/nE0nAHUB/MU/5W/3B/K27mhNcy5jEQJCwMYJiPB//QGoAmCdCL+Nvztk+ELASgmI8IvwW+mjLcMSAkIgNAIi/CL88u4QAkLAxgiI8Ivw29gjL8MVAkJAhP87wp+7eVvka9sJDtGc5WkRAkJACFgFARH+7wh/uio11CGumEmSWcWEyyCEgBAQAiL8X38GSgNYCiB+gmw5UfiPXvDMX0ieFiEgBISAVRAQ4f/6NGYDMA5AafdEnijSvR/SlK9sFRMugxACQkAIiPB//RlICqAPT/AybUPRngOQoVpteVqEgBAQAlZBQIT/69MYBwCP6/a2c3BAsV6DkPWnhlYx4TIIISAEhIAI/9efARcAvwEYzz9T+LPVbyJPixAQAkLAKgiI8H99Gu0ANAIwV4TfKp5zGYQQEALBCIjwh/440LczX4Rf3i9CQAhYGwERfhF+a3umZTxCQAh8h4AIvwi/vEmEgBCwMQIhhJ+VppR3w5xG/7oeLMjVU7RHf2Rr0BQszCImBISAELB0AiGEvz2AGQA+mHNcuhP+HA2bI3eLdnCNy6qMYkJACAgByyYgwh/6/P0EYA4A12RFS6q0DR4ZMln2bEvvhYAQEAJAyJq7suIP9lSU0OL4c8ROmRol+g5DkoJF5KERAkJACFg8AVnxhz6FGQEMBlDTLV58lBo0GilKlLH4CZcBCAEhIARE+EN/BhIzZQOAVo6ubig7fDxSl6skT4wQEAJCwOIJiPCHPoWxAXQD0J3RPOVGTkLaStUsfsJlAEJACAgBEf7QnwEnAJ0ADONLyo2ajHSVq8sTIwSEgBCweAIhhJ8L3MkA3ptzYHoJ5ySDDgDGivCb83GQtoWAEDA2gRDCT5f2BABvjN1OeO4nwh8eWvJaISAEhEA4CYjwfxuYrPjD+UDJy4WAENA/ARF+EX79P6XSQyEgBIxKQIRfhN+oD5TcTAgIAf0TuLBiMfYN7g1fHx92tp92WPWVOXuuSx9/wY49kLVeY0RzdzcnG2lbCAgBIRBpAhdXLMbewX3g6+PNe43Ufp5G+saRuIGehJ85LBjVY5+5Tj3kbd0J7ol4rktMCAgBIWC5BET4vz13PwMYDSBxkvyFUKzXYMRNl8FyZ1t6LgSEgBAAcHHFEuwd0hu+3rLi/9oDURbACAC5YiVPibIjJiJhjtzy4AgBISAELJrApTV/Y9+Q3vj49i3HQa/GcACPzTkoPbl6sgMYCqASE7WVHzcdifMUMCcbaVsICAEhEGkCV9atwr6hfeHz8gXvNRPAAAD3In3jSNxAT8KfXMvQ2cDJzQ2VJs+T1MyRmFi5VAgIAX0QEOH/9jzEAzAIQAs7ewdUmbEQyYowTb+YEBACQsByCVzbuBb7hvWD19MnHMRcLaTzjjlHpKcVf3QAAwF0JJAfZy4Cq3GJCQEhIAQsmcCNrRuxf1g/vH14n8NYAaAHgGvmHJOehN9B8331FOE35yMhbQsBIWBMAiGEfz2ALgAuGbON8N5LT8LPvvcH0EeEP7zTKK8XAkJArwRu/bsN+4f3x+vbN9nFrVoK+vPm7K8IvznpS9tCQAhYPYHbe3bgwPABeHlDeXcOA2gN4IQ5By7Cb0760rYQEAJWTyCE8B8H0BLAMXMOXITfnPSlbSEgBKyewKOTR3Fw1GA8PHGUY70LoAGAPeYcuAi/OelL20JACFg9gcenT+Dg6MF4cPQQx/oQQD0Au8w5cBF+c9KXtoWAELB6Ai+vX8GhscNwc8cWjpXpmOsA2G7OgetW+KtMX4jkxUoBdnrrojmnS9oWAkLA0ggwmufQuOG4vnmdoes/AmBYp9lMb6oaFM5ZtOcAZKr1M5i+QUwICAEhYKkE3j16gMPjR+Dymr9F+EOZRAo/q9Db5WjUHLl/awfXuB6WOt/SbyEgBIQAPrx+hSMTR4ElGDWTFX+I54JHmfsCcM5Yoy4KdOyO6PETyqMjBISAELBYAr4ffHB00hicnDVZhD+UWWyi5etJkrRwcZTsPxwxkzJpp5gQEAJCwHIJHJsyVq36ZcX/9TmsoaVmzuSRPhN+GDsNcVKntdzZlp4LASEgBHhaS4T/m89BOQDDAOSm4FeYMAtx0qSTB0cICAEhYNEERPi/PX0FtfKLxWImS4FKU+Yiblqpu2vRT7x0XggIgZAr/qkATmox/Q8A8EdlcDOV6S2cM5NWcL1i9ISJUGXGInikz2gqFtKOEBACQiBKCIRY8b8E4AXgPQDWY+RP8Bq8bwDs1tI6PI+KDplD+J0AUOAZrsOfOMEG5g6gFoA8rvHioeqsJfDIkDkqxi33FAJCQAiYjEAI4f9eux8A3AJwW/uAuApgIQCmcvb/3sVh+XtUCj8Lq7BaOoWchdSjaR2yBxATgAsA12C/N/SXf3ONFiMmqs//G/EyZQ3LOOQ1QkAICAHdEggu/KUKZkHsmNHx5Nlr3Lz3BA+e8AvAN+2t5gp6DWCf5hWJ1DcBYwt/CgCtAJQHwJU9V/A8gcWyiuFqy9HNDTUWrkb8zCL833sq5O9CQAjom0Bw4Z8ztCVKFsiMT5/88OHjJ3z85BvU+TfvvLFm+zGs3X4Utx88+9qg+CHAGo50B9XVvhWEe/DhEuNQ7s4VOvNLtwfgCCCGtpIP9d729vZIntgDyRJ7IL5HrKDbPn/5Bueu3MXzV+/g6OqGGn+tQvzM2cI9KLlACAgBIaAnAsGFf+WkTqhYPOdXu+fvHwAvnw/w8v4AXz9/XLv9COPnb8L2g+fwKdgHBIAAAKzezg+CUgDuhWe8kRF+ZwBMN0d3DgWfP5+Zk6MDKhTPieZ1SyN/9rRwcqL3J9Ds7exgx59gV7x4/R7dRy3Gso0HYWdvj1rL1iNB1hzhGY+8VggIASGgOwLBhX/hyDaoXjYfHBzo9f62BQQE4JOvH/z8/XHgxBV0HLJAfRiEMG8ALPBSBsDH792Tfw+v8NNPT9/8EQBBcZYUcEcHezg6OCB7xuTo1aoG6Mfiyj489urNe3QZ/hcWrduvLqu9fCMSZBPhDw9Dea0QEAL6IxBc+GcMbI66lQohmtMXa+Uwdfy99wdUbTECpy7dhs+HT+CHg2ZPAYzRfr75ARBW4efqPjYAxp9W0fz3sLe3g0fsGPBMEAdt6v+ABtWKhanjob1IhD9S+ORiISAEdErg2NRxgSkbAgIwomt9NKlZEtHdKKsRN19fPxSv3w/3Hr3As5f0+AQZ04B21FxBn77WQliEPzGAigD+BJDacJM0yRMiYbxYmNi7MTKlSRrx3ge7UoTfKBjlJkJACOiMwOkFM3Fk/Eh88nqPni2ro02D8ogTkzEvkTOu9i9cu4f6nSfh0bNX4OawZiztOBjAXgBBvzT88VvCz+8hqQAMBVAdgHLQp02eCIkSxMLMgb8hRZL4ket1iKtF+I2KU24mBISATghcWLEEh8cPh/ezp2het4wSfy6cjWXPX73FlMXbsHLLYVy5yeqOys4AGKIVfeFhsSALTfjpx8+j5cZnaKb6WsIN2o6NKyn/vUM4/fdhGaAIf1goyWuEgBCwNALXNq5V5Rff3LujAl7GdP8FKZMad+Hs7++P/SeuoOuIRTh9iWe/lJ3WdHwbAJ9vrfgp+sU11w7/i+wZU6Bkvkzo2KSyUT+lQk6eCL+lPc7SXyEgBMJC4Nau7Tg0ZiheXL2ELOmSYv7w1sic1jgu8pDt7zt+CT1GL8WJ8ze4pUDbCaATgLOGk78hV/x07+TXvh6U4BU8aNChcSUUy5MRri6Gw7dhGWr4XyPCH35mcoUQEAL6J/Do5DEcHD0YD48fUad2103vijxZ6EmPGtt99CJ6j12GY+duGBpYAKCrISdQSOFPD2CctpmL0oWyon/7OsidOaWKuY9qE+GPasJyfyEgBMxB4NWtGzgwciBu7dyqtHTngt4okCNqa43sPHQevcYuw6mLTPujbIRW6OpdcDX3BMDaYNzIVX78gR3qIlcm04g+2xThN8cjKW0KASEQ1QR8Xr/CgWH9cWnNctUUhb9gzqitNcJTwH/9sxdDpq3BncD0D0zzwAO3lw3C76bFfQ7koS5+BRnU8X8oni+TSVb6BuhM1dBlxF9Yuv6A+pUc4Irqx1HuLwSEgCkI+Pv5Yf/QvkEF100h/BzXi1fv0KLPLGzacwrc/AWwGUA1g/BztX8MQOK4sdzRtkF5dGxSCc7RmGfNdHbv8Qt0G7EIq7cdhb2DI2ouXYcEWZnYU0wICAEhYNkE9g3tizMLZplsxW+gxQif5n/OwLmrd/krbvd6UPi5Y7sKQGX+tkyhrGD2uPhxmXvNtHbi/E30HLMUe45ehKOLK2osYnZOSdJm2lmQ1oSAEIgKAuYSfh7yqt56NHYcPAu6fwBMp/AzJz7zPDtlSpMEU/s3Q/7saaJi3N+954ZdJ9Bn/N+4eP2+ZOf8Li15gRAQApZEwFzCT0Z7j11Csz+n4+5Dlcbfm8L/uxbJg6J5MmDz7B7hTq5mLPjTl27HwCmrlF/KJU5cVJ2zDPEySgUuY/GV+wgBIWA+AuYUfj8/fxSs0wvnrwVmb6bwM4ubE107/drVRpNaJc1GZuDkVRg6fY1qX0ovmm0apGEhIASigEBUCT9F/f7j53jzzgdZ0icLNeVyvlo9cf7qf8KvnD48TXZ0JdM6fN0MqT+jMp4/uPC7eyZBlWkLEDedFFuPgmdQbikEhICJCQQX/tVTOqNsoWxhysn/rW76BwTg4MkrKNd4MGK5u6FpnVL4s1UNuIU4bMvCLsXq9VNudMOKP0j4j6wY/NXwTV5099EL+Pr6IoVnfLhHZ1YH41tw4Y+VPCUqTp6LuGl5pkxMCAgBIWDZBPYP64fTjOoJCMCMQc1Rp0LBSEdOcrX/9+ZDaNZzOvgh4OIcDQ2qFkXnppURJ5Y7YkR3wdv3Pug1bhkWr9uvKnsBeERXjx8LYqVJlhCrJndGupSJPqPLPM+rthzGqDkbcO/Rc0zp+ysaVC+mCq8Y24ILv0eGzCg/dipip4ra023GHoPcTwgIASHwNQKHxw3HqbnT4PfxI4Z0/gnN65SJdE5+tvP0xRvUbjdWndBltS5a3NjuaFqrJCqWyIXNe05h7spdhpz9DOavQOFn3uZirAbzQ9HsGNuzIZIkjKs2WK/efoQ1249iyfr9ePKch76A3m1q4Y9fq4BlFY1p3h8+YsCklaq+JC1RrnwoM2wcuPIXEwJCQAhYOoGTs6fixIyJ+PDmNdo3rIjuv1VVeXuMYYzW6TZqscrKefMuS/GGakEHuLIAOMWauXFiRUeNcvlRLG9G5Qtavukgbt1jNS8oF1C5Itkwe0hLeMR2N0Zfg+7B/YMDJ6+g97jlOHTqqvp9+qq1UKhzT0RP8Pk3EKM2LDcTAkJACJiIwIXlf+HolLF4//gRCudKj4bVi6PGD/mVO8YY9s7LB1v2ncbKLUdw+cYDXLn1EHQFafZKW+Q3BvCSK34ez50IoEVojafwjIfCuTNgwO911LcBYxlX+acv3lafUrsOX8DaHTw8HGh5W3dEjkbN4RzTeMUKjNVvuY8QEAJCILwErm/ZoIqxvLp5XV3KbMfMkEA3+89VioT3dqG+3svnA/49dB7DZ/6DY2eDsnMyD1s/ACppjyFlA4/pMqTnfwDiGe6YNkUilMifCUVyZ1BuIKZzMIb5fPyEvzcdUp9IrBx/+NRVtTER3Ir3GYKM1evC0ZXny8SEgBAQApZN4OGJozgwvD8enzn52UBYgpG1TupWLIjknkHyG6nB0ovy59hlGDdvo+E+jNPfbfif4Nk5WUydyfp7848l8mdWBdQL5UqnCqoby1ZsOYx9xy5h3c7jePiU3z6CzKD8qk8Vxs9EqjLlYedg3L0EY41D7iMEhIAQCA+BN3fvYM+AHrizb5fhMnWGigtwR0cHVCuTB8XyZkLzuqUjnRyTLnpG8qzaeoRt0d9TSnP1qLZDJtln8RXVq9b1ymFQx5/g4mycRG3ePh/QbeQS7DpyAdduPwrO6wWAtdqnUQ1mjuMff5y5CMmKmu8wWXgmVF4rBISAEPgeAd8PPvi3Zydc3Ui5U8bCKHEAdGNkJfdRE3rEQs3y+VG5ZC6UKsDt14jZwjV70Xv8MkNQDtMdNwdwwXC3kMJfCADDamJx82Fgh/+pFX9kbf7qPdi464RKDer732YDfU0jAfB7z2UAdwD0B9BHhD+yxOV6ISAE9EhgR/ffcXntCkPXMjEaE0BhALMBqCK8zIqcNkVClMyfGfV+LIpcmcMX2fj6rReGzVgbFCEJoA2AuczRE5rwswjkAABNuPEw8Pe6aF3/hwjzO3PpDiYs2KRW+Y+evTJkhqNLZz6AKZrgB8aJBpoIf4Rpy4VCQAjoncBXhP+S1meWvC0KYLRhDNFdnZXPn7V56YEpkDMdvxZ8c4iM4lm59Qi6j1ysNJcRPADqaXn4g64NeRc61LnBu4ivaFyzBHq1rgnPBPw2EnZjtZfRc9Zjy74zePzsNT58/GS4mL6mXAAeap90IW8qwh92zPJKISAELIzAN4SfI2H0DPWRK3TqsDKesUrgERPubi4oWzgrfm9USWlyyPQ5FPrJf21VVbeou5r1BDABwPvgqL728UHHOr8WpHR1joYR3eqjUY3icAzDJisTAA2fuVaFZvKYcDDBZ5us5TtWc+mENl0i/Bb2IEt3hYAQCDuB7wg/b8SUCIymYSGS7oY6KYYWuOcaI7orHOy/zJzg5+8PxvJ7+3DPWNl0zYvChfZn9jXh5x25ETCNr6TgN6tbCl2bVUWi+Az8+dzevPPGjGXbMWbuBrz3/gg/Pz+DS8fwwuMAGmluHd/vIBLhD/szJK8UAkLAwgiEQfgNI6I2OwJIpRVIrwUgPCGOLPXVwxC3Hxbh52v4icMdZ37isPEg41cM5um5E5jQ/2vGZBH07ZwD0AHA/jDODQP2WfO3M18vUT1hpCYvEwJCwGIIhBB+Fhu5GI7OlwEwiMmUtW8G/HAw/NCNzv1Tng7jAppVFUO1b+0U8FAXhZ8nenl89lufNhT7twDeATgKYKj233CMCTwSzEG1gp1doPAXYXSpmBAQAkLAOgiEEH4K3D4tzj4iA2SiH+atp5fmZmir+6/d+NtbxIFXMLa+JfOmAXDTavQaCrgYNgwYiz8HwFJttR+RQSQBMJhuISe36Kg0ZS6SFDDeMeaIdEiuEQJCQAgYk8DOnh1xec3f0Oqb1AHAylPfc4EbswvqXmER/uCNZgCQTNs39N8AACAASURBVFv9PwBw1og94icX00bUcIsXH+XHTUfiPAWMeHu5lRAQAkLAvASYk//80oXgYS6ek9UWzCpJviktvMIflX1jNNFwAPljJkuBciMnIWGO3FHZntxbCAgBIWBSAkcnj8WZBTNVambNtc3FbtDBKlN1Rk/C/7N2eCFxwhx5UKLfMCm0bqqnQNoRAkLAJATOLJytcvJ7PVPp7uka/03bHzVJ+4ZG9CT8bQGMYdKiTLV+Qr62neGeyNOkMKQxISAEhEBUEriyfjWOjB+BN/eYoQbMQ8/UCDxda1LTk/Az9JMHvFC4ax9k+d8vcHLjXrKYEBACQsA6CDw4egh7B/fG88sqXxpzKjAZmsqRb0rTpfCXHT4B6X6sGenUpKYEKW0JASEgBL5H4PWdW9jRowMenWDUu7KEAL5ZK/F794zI33Up/OVGTUa6ytUjMh65RggIASGgWwKM5tnc9tfgOflF+A2uHhF+3T630jEhIAQiSWBDq0a4vWu7rPg1AkE+fhH+SD5ZcrkQEAK6JSDC//nUiPDr9lGVjgkBIWAsAiL8/5F01pKzMWUDZMVvrEdM7iMEhIDeCIjw/zcjzPfMhHCsPSnCr7cnVfojBISA0QiI8P+HkiUfWWu3ORO0lRk2HqnLVTQaaLmREBACQkAvBET4/5uJnACGASgfPUFClBw4CimKl9bLPEk/hIAQEAJGIxBC+Jme4IsKWUZrLJQb6SWOnyrPupBZ4qZNj+J9hsAzX6GoHrvcXwgIASFgcgIhhJ+ZKE+auhN6EX7mpZ7Nyl8pSpZFoU49ETcdM0CLCQEhIASsi8Cmdr/i1o4thpz89Glv0apnmWygehH+hgDmc9Q5m7ZE7uZt4RI7jskgSENCQAgIAVMR2NmjA65uWAu/T6ooOuuRL7R54S/aoz+yNWgKu69UkTfVxEg7QkAICIGoIrC7fw9cXrMcvj6qGEsnAOMjUX4xQt3U3Yq/WK9ByFa/SYQGIxcJASEgBPRO4OCowTi/dAE+vmeJclWfvJcIvwi/3p9b6Z8QEAKRIHBi5iScmjMNPq9UGv4lABqI8IvwR+KRkkuFgBDQO4FLq5bh8PgReP/kEbt6guVmAfiZst96cfVwg2MeBy6uHlNOv7QlBISAqQlc37oRB4b3x9sH99j0fQApAfiash96EH7m6WHdScbxi/CbcvalLSEgBExO4MGxQ9jVuwte3brBtj8BYKlBmxN+5ulhZs6+9g4OSviz/MToTjEhIASEgPUReHPvLja3a4pnl1T5RZqTLQo/K9AwOVvHaDFioGjPAchYva71zbaMSAgIASEAqE3ddc3r4em5MzYt/DyiOxLAj27xEqBoj35IW6maPCBCQAgIAaslsKpeNTw6ecymhb+wtrGbLnaqtCjSrQ9SlChjtRMuAxMCQkAIiPADVQCs46PAPD0FO/aAR/qM8mQIASEgBKyWgAh/MOHP3qAp8rX7A84xY1nthMvAhIAQEAIi/MGEP3+7P5C3dUd5KoSAEBACVk1AhF+E36ofcBmcEBACXxIQ4Rfhl/eFEBACNkZAhF+E38YeeRmuEBACti78TBnxI4C1fBTExy9vCCEgBGyBgK0LP48qs+ziIhF+W3jcZYxCQAiQgK0LP5MTNQUwkRW3uOLP0/J3eTKEgBAQAlZNwNaFnwnaqPT9nFzdkP/3rsjRqLlVT7gMTggIASEQQvhdmcLHlFTMnZbZE8AAAL+6xYuPAh26IVOtn005fmlLCAgBIWByAiGEPzEAVZXFVGZu4U8HYBqA0jGTJkfBjt0lQZupZl7aEQJCwGwEQgh/MgCqKoupzNzCnwPAagCpEmTLgYKdeiJpwaKmGru0IwSEgBAwC4EQws8F8DVTdsTcws/MnPs54OTFS6Nwl16Im5ZZmsWEgBAQAtZLIITw5wVw3JSj1Y3wZ6hWG0W69YVLnLimHL+0JQSEgBAwOQERfm3Fn71hMxTt0d/kEyANCgEhIARMTUCEX4Tf1M+ctCcEhICZCaz5pRYeHD8MBASwJ4UAHDJll3Tj6pEVvymnXdoSAkLAnAQ2tmqEO3v/hb+fH7tRGcBGU/ZHhN+UtKUtISAEhABVXoQ/MKpHVvzyfhACQsBWCNi68DNof68Iv6087jJOISAESMCWhd8eQBkAW0X45c0gBISALRGwZeFnSuZqAP4W4belR17GKgSEgC0LvwuA+gBm2Ts6ImfjFijYuac8EUJACAgBqydgy8LvDqAFgFFO0aMjV7M2yCu5+K3+gZcBCgEhYNs+fuZmYErmNq5x4iJPy/bI3lBy8cubQggIAesnYMsr/kRaSuZq0eMnQJ5WHZH154bWP+MyQiEgBGyegC0Lf1IASwAUdU/siXxtOkkRFpt/OwgAIWAbBNY0rIUHx2wzZUMqADsBpPTIkAmFOvdE8mKlbWPWZZRCQAjYNAFbTtKWEcBFzr5nvoIo2nMA4mXMYtMPgwxeCAgB2yAgwg8gWdGSKN57CGIlT2Ebsy6jFAJCwKYJhBD+nABOmxKIOZO0Ba34U5eriFIDRsI5dhxTjl3aEgJCQAiYhYAt19wNEn5W3yozbLxZJkAaFQJCQAiYmoAIPwARflM/dtKeEBAC5iQQQvg9ALwwZX904eoR4TfllEtbQkAImJtACOFn3jJfU/ZJhN+UtKUtISAEhAAAEX5x9cgbQQgIARsjIMIvwm9jj7wMVwgIARF+EX55FwgBIWBjBET4Rfht7JGX4QoBISDCL8Iv7wIhIARsjIAIvwi/jT3yMlwhIARE+EX45V0gBISAjREQ4Rfht7FHXoYrBGybwIc3r7Hu15/x5FxQXjY5wGXbj4SMXggIAWsn8OLaZWzt1Aovrl42DFWE39onXcYnBISAbRO4u3839gzoidd3bhGEN4CYkrLBtp8JGb0QEAJWTuDiisU4MnEU3j95zJGeBJAPgJ8phy25ekxJW9oSAkLA5gkcnTIGZ+bPAn39ABYCaAzA35RgRPhNSVvaEgJCwOYJ0M1zafVy+PrQy4PuAEaK8Nv8YyEAhIAQsGYCWzq0wI1tmxDgr7w7dQCsBBBgyjHLit+UtKUtISAEbJ7AhlaNcHvXdgOHggCOiPDb/GMhAISAELBmAiGEPwWAO6Yer6z4TU1c2hMCQsCmCYQQ/oQAnpgaiAi/qYlLe0JACNg0ARF+4CKfAKm5a9PvAxm8ELApAiL8Ivw29cDLYIWArRPw9/PDptZNcHvPDgMKcfXY+kMh4xcCQsC6CTy/egm7ev2Bx2d4YFeZCL91T7mMTggIAVsncG3jPzg0bhje3L1NFFcBMJzzham5yOauqYlLe0JACNgsgRMzJ+HUnGnwefWSDOYBaAfgnamBiPCbmri0JwSEgM0S2Du4Fy4sXwS/jx/JoDWAOQA+mBqICL+piUt7QkAI2CyBHd1/x+W1KwzjLwtgl6kzc7JxEX6bfQRl4EJACJiaQAjhzwTgkqn7IMJvDuLSphAQAjZLQIQfyAgtjj9tpWooPXgMHF1cbPaBkIELASFg3QSYjXNH9w64sm6VYaC2veJPWbIsSvQbjugJE1n3zMvohIAQsFkCb+7fxZ7+PXBn778i/CTgma8givYcgHgZs9jsQyEDFwJCwLoJ3Ni+GYfHDcPL6wzfxzUAPwC4aY5Rm3NzNw2A/Ty55pEhMwp17onkxUqZg4G0KQSEgBCIcgInZ0/BiRmTDCUXpwLoDeB5lDf8lQbMKfxJASwBUDSGZ1Lka9MJGWv+zxwMpE0hIASEQJQTODBiIE7Pn4EAf1Ve91cAiwH4RHnDOhP+eACGEYBLnLjI06IdcjT6zRwMpE0hIASEQJQT2De0L84smGVopySAPaauvGVo3JwrfncArQCMcHR1Ra6mrZCvbecohy8NCAEhIATMQSCE8BcBcMAc/WCb5hR+ZwB1ASxgR3I0bI4iPfqZi4O0KwSEgBCIMgL+vp+wb2g/nFvM9DzKbFb4HbRd7Y2kkL1hMxTt0T/KwMuNhYAQEALmIvDk7CkcHDUI948cZBfo5C8KQP2POcycK36Ot7AW2SPCb47ZlzaFgBAwCYGLK5fi8Ljh8HqmyuuuA/C7uUI52QERfpNMuzQiBISALRM4NnUcjkwcBQQEEAM3M2eYIx2zYQ5E+G35aZSxCwEhYBICx6aMDRT+QKsO4B9zRfToasWfrX4TFOneD/aOjiaZCGlECAgBIWAKAgF+fjg6ZSwo/pr9CGC9KdoOrQ3drPiZqK1I1z6Sr8ecT4O0LQSEgNEJvHt4H4fHjzDk4fcFUA2ACmoxl5lb+HNrABImyJZTpW1IUoBRTmJCQAgIAesgcOvfrdg/vD9e377FAZ0D0AzAYXOOztzCnxLAGAA1oidIhAIduiFjDYb2iwkBISAErIMASy2y5KJWbnGclrHgsTlHZ27hjw2gPYD+Ds7OKNC+K3I2bWlOHtK2EBACQsCoBM4umou9g3oZ7slsBbMBfDJqI+G8mbmFPxqAn7Vq88jfvgvytuoQziHIy4WAEBAC+iQQEBCAs3/Nwb4hfQwdbGTIVmDOHptb+Nl+VQBrCCF/uz+Qt3VHc/KQtoWAEBACRiPw6tZ1dXDr+pYNvCc3dhsDWGS0BiJ4I3MLP7tdRTvJJsIfwUmUy4SAENAngdu7d+Df3n/A66k6sctsnH8AOGru3upK+HO3aId8rTvBIRo9QGJCQAgIAcsmcHXDWmzv2taQg59p6Pnz2tyj0pXwJy1cXIV0xs+czdxcpH0hIASEQKQJXF2/Gtu6tDXcpxMARvWovA3mND0IP1WeMEq7ecRHkR79ka4yzzeICQEhIAQsl4DPq5c4NW8GTkyfYBgEI1fG62FEehD+uAD4SfinnYMDivUahKw/NdQDG+mDEBACQiDCBB6dPoHtXdrizd3bvMcNzb+/OsI3NOKFehB+5uVvAmAmx0XhZ94eMSEgBISAJRO4u28X1jWvbxjCHC5uATzSw5j0IPzkwCX+fBF+PTwS0gchIAQiS4Dx+4zo2diKYfvKBgDoG9n7Gut63Qk/6+7mbNICTm7RjTVGuY8QEAJCwKQEPrx5jTMLZ+HoJGakUad0WV5wsEk78Y3G9CL8zE/NwgTxE+XOh6Ld+4FJ28SEgBAQApZI4PmVS9jQ4he8e/SA3b8AoCeAtXoZi16EP6P2aVgzmrs7ygwdj1RlK+iFkfRDCAgBIRAuAk/OnsaKupUM1yzQSi2+CtdNovDFehF+NwBdAPTjWMuNmox0lfklQEwICAEhYFkE/H19cWvXdmxu96uh45MAtNPTKPQi/GTCGFdVokaEX0+PiPRFCAiB8BDwfvEcu/t2w43tm3jZSwDDtZ/w3CZKX6tL4WeGzhyNmsM5FrM2iwkBISAELIfAm3t3sKxaGXzy8mKn92qp50/paQR6Ev4aAFiNOHW8TFlQatBoSd2gpydF+iIEhECYCLy+exuLfihseO1yAL8A+Bimi030Ij0JP6txMdypnr2TE6pMX4ikhYqZCIM0IwSEgBCIPAHfDz44NGYoziyYxZsxJ89f2jmlyN/ciHfQk/DzBC8POTDsCT/OXIRkRUsacahyKyEgBIRA1BL48OYNFpTOi0/v37MhhnH+DmB71LYa/rvrSfjZex5yUKVqfhgzFanLVYK9o2P4RyVXCAEhIATMQIAHt2YXyGxoeRuAyuYus/g1DHoTfkb2MKQzVtx0GVB+3AzESZ3WDNMnTQoBISAEwk/g+IwJODyWQTzKtgDQ5YEkvQl/Ei2ksw6p1V6+EQmy5Qg/fblCCAgBIWAGAtOzp4TfJ1VH/Z6WdfhvM3Tju03qTfjZ4YkAVOWCWkvXIWH2XICdHrv5XbbyAiEgBGyIgK+3N2bkDvJQHANQEICfHhHoUVGZ1ag9AIfifQYjY42f4Ojiokd20ichIASEQBCBEzMnqYgeTez/5VlUveLRo/CzCj39/CmiJ0qMmovXIkZieoDEhIAQEAL6JTAjV1r4+nizg880r8UyvfZWj8IfB8BcAKr+Yv2tBxArWQq98pN+CQEhIATw6tYNLK5UHAhQ5XRZbSu9Xt087KAehZ/9WgzgZ/6jwsRZSFnqB9g7MMxfTAgIASGgPwLbu7XHlX9WsmO+ANYBqKm/Xv7XI70KPw9xsQ6vR8KceVB11hI4RZfCLHp+kKRvQsCWCcwpnA0+L18QwVvNt39Yzzz0KvypASzirridvT2aHjwH55ix9MxR+iYEhICNEri5YzO2d22PT17qtC6zccbVOwq9Cj/7tZkHeAmw6pxlSFqoqN5ZSv+EgBCwQQJrGtXGw2OHEeDvz9EP0Yqq65qEXoWf0BgX1RpATM98BVF9gfKfiQkBISAEdEPgw+tX+Lt2RTAVs2YJADzVTQdD6YiehT+NVqMyC/P1tDx7W+8spX9CQAjYGIH9Q/vi/N+LwMNbAG4BSGUJCPQs/OzbEQB5CbLKjL+QvFgpS2AqfRQCQsBGCKyqVw2PTvKQrrJCAA5ZwtD1LPzkN1AryejunjgJGu7k54CYEBACQsD8BM4tXYBjk8fA61mQZ4ephHWZoiEkLb0LvzuAM/z6ZGdnh1YXmPdITAgIASFgfgIbWzXGrd3bDYe2WgCYYf5eha0Hehd+juIKgHT8R9b6TVC816CwjUxeJQSEgBCIIgLPr17Cv392xpOzqpQuj+vGB/A8ipoz+m0tQfhLa5u87i6x46DpgbOSrdPoj4HcUAgIgTATCAjAju6/48q6VQgITNGwEcD/ALwL8z3M/EJLEH4iohMtXrQYMVF72QbETsXzXWJCQAgIAdMTeP/kMXb16YLbu3cYVvssuXXJ9D2JeIuWIvwM4q9JP3/8rDlQe/mGiI9YrhQCQkAIRIIAUy+fmj8D/h8/8i7cg2R5RYvagLQU4Y8J4DUpM7qn6uwliJ2KYf5iQkAICAHTEXj74B72D++PG1vp3VFWHgCX/hYRzWPotKUIP/u7G0Bxh2jOSFe5OkoPYb0WMSEgBISA6QicmjsdRyaOgq+3Fxs9CuAXAJdN1wPjtGRJws/iu2oL3SNDZlSevgDuCRMbh4LcRQgIASHwHQKvb9/E4XHDcW0zsy4rawiAxVaUz8eSzJKEn32lPy2rc6zYyNm4BfK0ZIVGMSEgBIRA1BO4tGoZ9g3ti4/vmHkZB7RcYqejvmXjt2BJws/R1wKwgv9IUqCIKtLiHIPufzEhIASEQNQReHXzulrtX98aFFjSEcB0ACpJj6WZpQk/yzLyQFc8V4/4yN28DXI0am5pzKW/QkAIWBgBCv7Onp3w6b0K1d8GoAsAi1ztcwCWJvxOAOoBmMfOpy5XEaUGj5FVv4W9iaS7QsCSCLy4dgXMwnn3wB5Dt3sAGAvggyWNI3hfLU342XfGcR4HEIu+/ty/tUWupq0slb/0WwgIAZ0TuLtvFza2aQK/wLh97uyyNOw5nXf7m92zROGPphUyXsKRMbSzcLe+iB6f9Q/EhIAQEALGI/Di6mVs+f03vLx5zXDTwQD6aUXVjdeQie9kicJPRDkBbAKQiHH9+dt1Rq5mbUyMTpoTAkLAmgkE+Pnh7v7d2NCyoSEnz1IAnQE8sPRxW6rws99VAPzDCUherDQKdeoBj4xMmSEmBISAEIg8AcbtL65SEgG+vrwZC+qOB9Ap8nc2/x0sVfhJLrcWTqUqdBXu2hvZGzaHvYOD+alKD4SAELBoAiyluH9YP5xf/hfHwRSciwA0sXQXj2FSLFn4OQbG9TPCx909kSdK9B+OFMWZxVlMCAgBIRBxAs8vX8Sy6mUNN2Al9b6GaMKI31U/V1q68DNnQ28AKqynYMfuqlhLtOgs3CUmBISAEAg/gY/v32FhmQL48PoVL/YBsBDAb+G/k36vsHThN6z6mbEtub2jI8oOn4jUP1QC/y0mBISAEAgvgdMLZqm4fc1OAPjRGjZ0g3OwBuFneOefAHiowil12Yoo0qMfYngmDe98y+uFgBCwcQKM4lnXjGdElb3RDmoxfNOqzBqEnxNSBsAwAGqjN1+bTsjRuAWiuYvLx6qeVhmMEIhCAl5Pn2DF/6rg3cP7bIWntejiYU4YVV/RmsxahJ9z0gDAAACpHJxd8OOsRUicOz/s7O2tab5kLEJACEQRgYOjB+PM/Jnw+/SJLTzhtiGAm1HUnFlva03CH0sL76wDwD5FiTL4YfQUOMlGr1kfMGlcCFgCgfNLF+LQ2KH48EYV+uMKvzWAaZbQ94j00ZqEn+MvBmASgOz8n0y1f0bJASPBWr1iQkAICIGvEbi1c6vKs//mHqM2lXFnl94DqzVrVMTqAMYBSGHn4IDivQYhy08slCMmBISAEPicgM/LF/i3Txfc3rUD/r7KxXMWQFFtY9dqcVmj8LtomzJVAUSLniAhft6wG9HcY1jtJMrAhIAQiBiBw+NH4OyiOfj4VlXVotFrsC9id7Ocq6xR+Ek/uVacPSX/J1HOPKi5RKX1ERMCQkAIKAInZk7CyVlTDH59/qoaAJbY8rN2RNYq/Jy3FABOAojDyB6Waqw6h8n1xISAELB1AucWz8eRSaNAV49mPP0/31JLKYZ3Pq1Z+MmikPa1zZ4hnul/rIlSA0eGl5G8XggIASsicHv3dhwYORgvr7OKq7JlWinFu1Y0zG8OxdqFn4OfC6Ax/0F/f8GOPZChWm1AIn1s5RmXcQqBIAIsmn5kwkhc28xCWsruAfgJwH5bwmQLws/5vMGDXfxH/Kw5UHrwGHikz2hL8yxjFQI2T8Dn1Uucnj8Tx6cxrb4y7ug2ArDa1uDYivAzpOcU67NzgpMXK4WSA0fBPWEiW5tvGa8QsEkCH9+9w/nlC3Fw5CDD+J8B+B3AYlsEYivCz7lNBmAjgKz8n9TlKqFoj35wT5zEFuddxiwEbIYAi6pcXLUMewcxl6OyRwB6AZhjjXl4wjKxtiT8HGs2zefP6l1IW6mayuEfMymjP8WEgBCwNgJ+Hz/i0qql2N2fyXuVPQQwVEvHoE5s2aLZkvBzflmXsTCACVrBdqSrUgMF2ndBzGSM/hQTAkLAWggEBATg3OJ52DuIi3tljwGwdgfTunhZyzgjMg5bE34ycgVQQcvHkYO/YJhnfoq/rPwj8gzJNUJAlwS4kcu6uZoxYH+yJvyqtJYtmy0KP+ebifqZ06cnc7nxF+kqV0Ohzn+Kz9+W3w0ydqsg4O/np07kHh7HEh3KmHKTos+VPl09Nm+2Kvyc+DhasfZOBvFP80NlFOs9GG7x4tv8gyEAhIAlEvD18cbxaRNwcs5U+Afm1acxbHMWgCEAGM1j82bLwm8Q/5raqb0M/EXKUuVQeuhYuMTi54KYEBAClkKAaZXp3rm4cgkYyRPCXgLgqS3mbdlkKWOKqn7auvCTKwu4lNPybyu3D/P6lBo0GjGTMgJUTAgIAb0TeHDsMM4snIU7e/8NEv2Zg37Dhev3MHYuo7iVsZzidS1t+wy9jykq+yfCH0iXG775tApe6kivR4ZMyN/uD6Qqw31gMSEgBPRK4Mq6VTizYBaeX7kEv48fVDdXT+6MUgWz4O17b/x76AKa9pwKX19/wxDo5+8PYDYAX72OKyr7JcIfSJeFebkCqA+A+fyVucVPiFRlK6BEH7oGxYSAENAbgTMLZ+PEjInwfvECAf6B2ZQ3zuyGYnkzwcEhsN72x0++2H3kInqPX4Yzl4KqbDHKZ5QWz083kE2ZCD+QX3PzlGLhlpCz7xAtGhLnLYSqs23yZLdNvRlksJZF4NyS+TgwcmCQa8fRwQHrpndB0bwZ4WAfKPoG8/Pzx637TzFh4SbMXLbT8GtuBPD0LsN/mKzNZszWhf8PAAMBOANQLKqVyYOp/Zsjbdn28PKhS5B/sUPSgkVRefpCODg52czDIQMVAnok4PXsKU7MmISzf80GD2nRsqZLhmkDmiFX5lTfTLzL1f/4+RvRd8IKw9B4g20AWgK4qcfxRkWfbFH4eXqX2dk6AKDwq2Lsbi7RsHhMe5QumCXoK2LtdmOw89B5+HwIDAuLnzkrCnbuCc+8hcBvAmJCQAiYjkCAvz8enz6OnX92BtMr05yjOaHej0XQtXlVpPCMF+bOjJj5D4ZOX4MPH4Nc/LsANAVwyxby99ia8HNlX17z7aXjU+Lu5oJUSeNjfK/GKJhT/SrIfP38sGzDQfQevxyPngYe9nN0dUX2Bk2Ru3k7RIshdXzD/E6TFwqBSBD4+P4dHp8+gfXN6gWt8mO6u6JHi+poVa8cojk5hvvug6euwoQFm/H2vY/h2jNa+UWKv1WbrQg/x8lVfkVtJ19NaqJ4sdH8f6XRtHYpJPRgVOeXxq+SF6/fx08dJ+DG3cfw9w/8apmtQVNkq98UMRJ7wsGZnydiQkAIRAWBZxfP4+rGtTg5i4dvAScnR3jGj412v1RA6/qMxI64jA2cvApTl2zDqzfvDV3/F8AvAO5HxVj0cs+IE9PLCMLWj5JaFS4WXYCbqzPSJk+oHpz6VYuG6Q5nL99BlxGL1IfA0xdvAj84cuRB5rr1kapsRTjHjBmm+8iLhIAQCBuBT+/f48m5U9jU9ld8fMfDt0AMd1fljm1cowTKF1OptiJtAyatxPRl2/HydZD4/w2gDYCnkb65Tm9g7cLPrf1aWp4OlYchftyYqPlDfuUXzJctTbim5eGTl1i26SAWrd2H89e0IAA7O+Rv2xmpypRHnLQZYO/ALQQxISAEIkPg4fEjeHz6JA6NG6pSL7BSatzYMdCkZkl0bloZsWK4Reb2X1w7aMoqTFy4RcX9az5+xnAPttbi69Ys/My5wHQMMwP3b+3gmSCOWuX/9r8ycHGOWHQOXT9b953BqNnrcfLCzaDIn2RFSiBlybLIWq8R7OxF/I36rpSb2QwB7xfP8eDoQRybMg4vrl0GN3Tt7e1QtnA2lMyfGR0aV4oyFnT7jJ6zXsX9a2mbO2vne4JOfkVZ4ya+sbUKfy4AdbXIHRdHB3uULJAFtSsUQMPqxY2Cx3fWHwAAFflJREFU+NjZ69i05xSWrD+g4oMNxvTOCbLmUOUdxYSAEAg7AaZbuL17B65v2QCvZ0/UhTyE1blpFfxUuTAypvYM+80i+Moh09aAq3/NmNCtq1a8KYJ31Odl1ij83MBtpeXfUadwe7WuiUolciJnppRGnQWGeW7cfRITF27GifM38ck38ORgvAyZkfqHSshcpz7c4icwaptyMyFgbQQYmnl7z05cWrMczy9dCBpelZK5UThPenRoxLe06aSq19hlGDN3g6Eft7UF5Bpr4m46mqah1gBAR62ubjT6BSf3/RX/q1QIri5RF3d/6NRVnLl8B33GL8ebd4FZAR2dXZC8eGkkzp0PORr/ZprRSytCwIIIMETzzp6dqh7uk7On8OF1YMh0jOiu6NikEqqVyYsMqT1hzzeyCe31Wy/UbDMaB09dZav0+zDLWzNr2uw1LdGonTzm2enDUrrMvUMf/sTeTdQmLv37UW2fPvlhx6FzWLr+AJZvOhjUnKtHPKQoXlpF/qQq/UNUd0PuLwR0T4B++6cXzuHopNF4des6Xt/+78Bsk1olUb5oDpVgLUb0oLRZJh/TnqMXUaPNaHgHnt5/rlXuspqkXVGviKaZsp+0fDsM07H3iO2uDmT9WDoPnBxNu9F658EzXL75ED93mgAv78BMgfaOTnD39ETyIiWRpW4DeGTMbBoq0ooQ0BkBn5cvsL1be7x//FBl0zRYjowp0KxOKVQskQuJ4sWCfYhcO6YeBt22q7cdReNuUwxN0+XDOo7zTN2XqGjPGoS/CoARAFhIxZ6RO+P+bIQfimaP0Gk+Y0DmIa8L1+7h6NnraNOfOaACzdHFVfn801WsqqJ/oidMbIzm5B5CwCIIbPn9N7y4fkWlW+Cq32C/VCuG7r9VQ6L4saPUJRteSK/eemHY9DXqdC8AdpgRgoz0CQr4D+899fJ6Sxf+PABGAihB0U8cP7Za6fNgh6lX+l+b0A8fP+HCtfuYungb/vpn738fAK6uiOYeE9nqNULW+k3gHEMOf+nlDSH9MD6BXf264e7eXXj/5DH8fYPKIQY1RJdO+4YV0bZBeaPH50dmNAzdPnjyKqq0GG7I10XB7wtgdGTuq4drLVn4Gaf/O4DeFH3m7aBPv2b5/F+kZDUnaD48/Np44OQV9Ju4AkdOXwvqjr2jI+ydnFCgQzeV/kEOf5lzpqRtYxPYM6Anrm36Bx/evkGAX2DEm2aPATBshknRlHGhljltUozt2fCLnFnG7ld47ufv74/1/55QKVs0m65pjkWf6rVU4afjvhqAlZwM52iOGNmtAZrVKR2eOTXLa5es34+h09ao2H/mCA/M/BNoeVp1QN6Wv8POwR72DuFPOmWWAUmjQkARCIC/nx8C/PxxeNwwnFuyACx8Hsy41OcvGOFwWPs9AzFYCYtnboIe+H+mdUGZQllNEpQRlsk7cOIyGnefinuPWLtFGRecQZ8EYbmH3l5jicLPPjPBzh7CdHWOhl5taqJjFJ7oi4pJm7ZkG2Yu34k7D5/By/tjUMZBh2jOyFijDvK26QwnFxdEc4+h6gGICQE9EuBK/qPXe7x//Ain503HxZWsZf6ZvdYEnwEYu0MZA3PhM2KGPk8VjbF+ejeUyP9fFS1jj52Zd7nqcnBwCNPba9mGA2jac7rhfco9RRZvsdjKXZaoKEyj+SeALjzK/Uu14hja+WfEjmnc3B3GftBCux8Pf81YtgM37j4JEn++li6glCXKIG+bTnCJFRuuHvGlBoCpJkXa+S4Bf19fvH14H2/v3cWZv2bj1s6tIa9hXVsG5vcCsA7Al879z6/gN/huAHjqXsVxUvxLFshk9Agfxunz7A1dsLmzpFKZeQ1lGkMb+I6D59Bh8Hxcv0MvlfrmwoSPTOZmkWZpws+kayyVqALlkyX2QK9WNfFL9WIWB58ZPhn6+eGTLxgzTPeP4eRvyMEkypkHWX5uhDip0yFW8hRwjvn1FNIWB0E6bHEEvJ8/w6tbN+D98jn2D+uPt/fvBh8DxZ1B+cy3wHq2m1jyNhyDpOh3B1AZQHReR7dP2ULZjHpwd+Gaveg+erHKxslUEH+2qoHUyRJ807VEt+ykv7agx+glhuFwf2IBgM82L8IxVrO+1NKEnw8Dk3I34gEtHvYY3Z2ps79tTLq0bf9ZxI7hhiJ5GPVpPuOK4drtR6qyF/39z14Gppv9itH9z5+g4qFu8RIgy88NES9jZsRKlhKxU6UBN4jFhEBUEvD79BFPz58FY/DvHdirVvgh7B0ABuUz38J8AEFFbSPQrxTaN/qfWSeJ16+Y0BGVSvIzwTi2bf8Z9ByzDOevBn5otW9YAX/8+iPixfl2YSW6ZrsM/8uQxG285u55ZJxemfYulib8LKbCr5DIkjYpRvf4BcXzZfousdl//4t2A+cidbKEmD6wOYrkTv/da4z9gut3H6uIHkYIbNp9Cj4fv/jmy/PhrABk+CSg6HM1kRRAPgAewfuUrHBxpC5XEY6ubkhaqBiiJ0ho7C7L/WyZQEAAXly/ihdXL8Hr+TOcX7YQr25c+yz+XnPl7ADAZ5eBFseMhIwp1Ado7hRXR0cHzBnSUiVZNJat3XEM/Sb8rQ5b0nq3qaky97IiX2i248BZ9ByzFGevqA8MfrNhipgDxuqTKe9jacLP3f9l9O1XLpkby8Zxc/3bRvdJosIt1NHrhPFioW/b2mhck2H/pjG6dLjC2LrvLFZtOwJfLZGb1jqFnm4rLwBHANBRGhQ6oL2Gp5GrA+BxX6YW5f8HzRtDQDPVqY84qdLALUFC9SHAPQExIRB+AgF4+/ABmAvf+9lTPDh2CPcO7cen91zQf2YntI1aOrxnaSkNwt/ct6/gIo/uIm4KOzBcmwcz6Zoxls1fvQdDpq3G3YfPVTjp3sX9kC1D8lBdPi9evcOAySvVnpxmzBFNd5bFmSUJP/t6nJs/HrFjqGIMYcnNzcRpzJ1P40bO1rl/qsLqUW30CbJYy/Sl27Fu5/GQLh0KPEPaKPqMdKDwf8+o5qwzR19VXgBlDF+FeSHzEUVP5IkUJcogevyEiJs2PZIUKAxn+RD4Hlfb/ntAALxePMOtf7fh7f17ymd/79A+eD0NTIsczLgg+QsAUxUfArDNBOD4rNO1y2dd1dMY1a0BqpfjF+DIG8stth0wF2u3H4Ofv7/6UJnct+k3Tw8Pnroa/BHhjzz/sN6Bwq/OeWdNnwyrJnVG0kRxv3ntlVsPkbtad/gHBID5e+gaqluxUFjbi/Dr+C1j6PQ1OHz6Gv49dD74fXh8dy0A1vXkal9VfIiAcfXP7710SjK6IHfwe9DvHzNZCiTIllOdCo6fNTtSlCgL1zjf5hWBfsglFkrg9Z1buLphNbyePoXP61d4cPQQvJ6qiJXgZshMyeeWvmweujJ1CCODOZYBSOlgb49cmVNiRNf6RjvkxcCKTkMXqhQrtBNrhiJj6iShzqoIv+kf+CDhZ8nE3Yt4cjp044nZ/3UYr3zqXA1ztf/vwt5wNEFpxF+6TMaWvafxzsvH0MFbABZqYW2nwhDaFla63Pjld9/kWjF5+r747//Mzg4xPJPCI31GOEWPjjhp0iNj9TpwZ54gOR8QVs4W/zrmxrm7fw9ubNuIT97v4f38uUqFbKhlG2yA3Fvit9HlAB4AOKf58MMTnWNsXnSprOCxHaZXr142HwZ2qKu+ARjD6neepL6VM7a/dKEsKow0NBPhNwbx8N0jXMLfbsBcLFy7V+3Ac8Nm46zuyJs1dfhaDOer9x2/hDFzN2LzHmq7Mr6J6A9tD+BiFK+WGPGUEwBdQtm1/OFfDJiun7hp0sHJLboS/ky1f0bqshWkXGQ451r3Lw8IwMub13H5nxWquAlP1b57cB+v79wEY/BDGIMI+NV0BgDmFOHqnhu2YXFBmgKFoXY2T4fZMzqvdf0f0O23qnAyQlTbuSt30aDLJFzRNnqfH52lDoaGNO4TsjrX2HlMz69MfPwmmP0wC/+5q3dRq+0YtWlDmze8NepWLBilXfxzzFJs2HUSV28/MhzE4o7YWACLAFyO0sY/vzk58QRkMgA81cZvBG20OgVfdMM9sSfc4sVXwk/3UKZaP8EzX0FJGWHCCTNKUwEBeP/sCS7+vVit7BmC+cnLS6U/ZsETBARPDhLUIncpmXqAoS2MJrujI7EPiYVFsllDWx0Npuu2a/OqKrGbMeptlG00SBVeUZ6CSoUwdxiL+H1urLXdc8wSlXgRwBsANSIZumqUqY/ITSxtc1f5+L/l6uHE1W43VkXS+Pr5I0nCuDi3YZTK5xMVxvYad5uqSjB6+XwwvL94so9+d35V5gNiTqP4MxTUWetTF+2bwRdAHJyiqc1gJ7fAU9Bx02ZA+mq1wdDRaO4qpFpMRwQenz6BiyuW4P6RwIhCruRZxYopFEIRevoeuarnD4tFcHHCzdqI7jWZmgafYUb28eCUyuQ54Pe6aF438jm6Dpy4gvp/TMTjZ6/BM0Ivjn5xVkEFavwx/C+VYwvAOC2O/4uNEVNDiUh7Fin83ODZMqfnV2Nuf+s1U1XAoouHdm/vFMSNFTWixcx9v/45HSu3fBamyTcUq0JzE+yry6yITJSRrqHYU9W5eqKxTCUdml/9VGSoqIOzi0ofwVWVg4sL0vxQGZnr1FMfCmKmI8CY+msb1+L65nXwfhH4TZZC7/vBB/6fQs2GwOePOa0GATitnQvhooQfAHp7NsMKk99muRxnrhwVoTf2z0ZgTv/IGKN6slXuopInstTjsdVDPtvkvXj9viqtym/1mjXUopwskqOlCT+f+DisyclP+UEd//fZXDMHBytf7TocWLB5/fSuKF0oa2Seh1CvffnmPbiPsGorw++DjBUbmHPEnBth4R0vnwH+cFOYpSt5KMXwwfD1ewXbFGYSuZSlyiJDtTrwzFcIDk7fvjS8nbO11/v6+ODegT24umEN7uzbpVIaB9nX3TXBEdFXf1Y7/MT8OIZ0AhYpTt+Ye55l4YcZY/zhHt1FHfCqUuqz4LZwPzpMvbxh1wm1oucp3ju7GUkaaEuZpK3HNMP/bmeuMABBm3nhbszMF1iS8BNVKYNP7Yci2bF6Sucg/x5dLr/2nK4miMaiLMdWDUWcWCrlh9GMoZrcxB04eZVK9KQZvzIzcRy/QgeF8hitUfPciMebmY+EftV4Whe448Wv29/1m8VIkkztFSQvVgqeeQvC0SXYiUg7O7WHYO/ooP5rxzJ7VhZhFODvp6Up9lMr8+AVp8jyzf27eHD4IO4e2KOE3t8vTN4WCjm/UXJhYRBzhgbTTx9a5kvzPD1R3ypj+7mHxpWdHd/vMwe3CMzoGYmyjYmLtAQXkNxDuLZ9gkrexlO+DbtMNuzd8f3dAQDz8lusWZrw01dNn5pDgRzpMGdIC6RKlkDBv33/KdoPnIdtB86qbH6n1g5D2hQ8/Gc8e+/9Aau2HMawGWtx815QHQZGQHCVvMtSEzaFkRDFnsmzGmtRQ7yM0RZ0HdGX5hr8RHGo97SzUyeL42fJhoTZciF+1hyIlSIlHJ2/PCpvKFTDmsXq3/yQcOCHhYP6r0ksQMsz7++violQoCnkrCTl/8k3ULBDrMQp8jwIxZqyTy6cwZOzp/H23p2vRdOENgQ6kSkwXFAwssZQp5ChlUyNwLMgTHds61ZHc/mkUuKfII7ShKJ5Mn4322Zo4LJW7oIbdx+rqJ4/mlVB5jRJUa/zxOCiz4p/wy29/KKlCT/9e4ylKkI/XJ2KBTFtQHO1cdt1xCJMWbRVHdbKnz0tFo9pZ7Q4X7VCe+eNWX/vRN8Jfxs2d/hr5uugEKraADZoVGvmv6igHSgz+Hn4rYBzxUBrfigEJZoLDyNGGzHSKIZnMsTw9IRrvARwjR0HrnE94BzbODHc3+sPxZ4+dca787+MkmHu+XePHuDNg3sqtcFXwiO/d1vD37lyZzQNRTz4nhD98Dylzmedp2RDzeQX1oas+HX8Vsoi6MxpZcfYfubjKlkgc4RW/v/sOBa82lZwbJwTpgBgDiF+AFu0WZrws788tcodFidu8vZvXweFcqbHn2OXBuXQ2PVXX+TPTjdg5I0upOev3mHeqt1qc0czvmGZjfAPEx1dj/xATHsHZozjufoi2nwFX87z3/zmxvMG/DGuL8604/xea9x1ZU56g7BTwIP7dBhRQz8xk5vxdGyY/D3fa9QG/95aC1Kg+Nuzhu/sIS1RuWSuCIV6uudsDAZuBDPOH3Py0KWmUsJbulma8JM3fTvcZWEMLQrkSKtO8jGccu+xSyoUi/l4jHFYizv9x8/dwD87j2PMHJ5WV8aVGd+kLLhsqyv9yDz33C/IAoBpVbmPkPgrN+OHA78p8FsDiw8wNQV/6FYykY/nq0OkMNP9Yvhh8W3uvlLcg/vdDRfz71wgXNf+yxPcn9UjjAxIufYzAr9pCzEeWlTPCGPxC+ZIixRJmOzz+8Zv9TsPnlNlFg1RgQDo052p+fR5zsEqzBKFn+C5nJ+qJS37bCKYx2fBiNbfzLcRtpkLwPSlO7Bs48Hgm7jMx8rUCzyUFRg6JBYVBCjy/IDghwJ/+A2CH/j075gzbIgbq1ylG34oCtxzYqIX+uKtLXomKuY2Ku/JEMsm2qHFaAxBrv9jERXZx3z+MaNzG+pL4+p+897TOHH+JkbP2YAPgSnTuZHO0/bztE3kz74CROUgTHFvSxV++oy5ahwI4MfgPuSMqT3x1+h2yJwm9ERL3wN779FzLFl/AAMmrVRZ+zSjP5/+vVU6OJT1vSHI34WArRLgSXVGorUDoPIuxIkZHQ1rFFeRfmmSJ0LaFAmV///Bk5e4cP0+Xr5+h0X/7FMBG3Ttah/gLLXFU8IMi7U6s1Th50Sw7xm1jUX+m64fFmHHr7VLof/vdSJwcCsAU5dsVyv8FZsPGx4CQ2w044YZUSEmBISAvgnQRcistQy7DMpX5RzNSZVYTJU0gYr6efT0FS7ffKACN4IZXXY9ATD38g19DzPivbNk4Q85ah7l5jeA9AzFYkWdVvXKgZMdFuORbcbr8hzAs5dvDBF6fAhGAGBOE4ZrigkBIWA5BCpqbmHW8f2eC4ALPL7XuSdDd65Vu+2sSfi5CcijdjzO65gkYRzUKJcfw7vU++bOPmvgshLP9gNncOnGA/h8CDr+zg081v3kibCQVbEs59GXngoB2yZAdw89AdwjYuFehh6n1QIFuDfDA3CsEcz3+H7tv1Yt+gZ3iTU9FpxQJnBS1VaYjjlHphQqvUPwAixMr8oCDFzdU+xv3nsS8use89fss9R6mtY0oTIWIWAkAoz0YXAAgwUYPMADidyQ5+Y8fywpzUqkkVjTit8AI4Xmi2fiDjW+hB6x4BGHcx1o3MWnX+/Zy7fBw7b4J+baYfIn5tCXQzORfrzkBkJACOiRgDUKPzkzFLAtgK5aKoHvsafQM9cOM64xJtuqQre+N3j5uxAQArZFwFqFn7PIr3Lc2e2sbfqGnFn69GYBmKJVHKJzXwTftp5/Ga0QsEkC/wd36LGeLOgy3wAAAABJRU5ErkJggg==;" parent="1" vertex="1">
                    <mxGeometry x="390" y="120.86" width="28.12" height="38.28" as="geometry"/>
                </mxCell>
                <mxCell id="23" value="" style="shape=image;verticalLabelPosition=bottom;labelBackgroundColor=#ffffff;verticalAlign=top;aspect=fixed;imageAspect=0;image=data:image/png,iVBORw0KGgoAAAANSUhEUgAAAX4AAAIICAYAAABpSYW9AAAgAElEQVR4XuxdBXgUVxc9IQEiSAJBAwSCu7sUKV68tEiRIm2x8kOhFCqU0lKsBVqgSJECRYq1uLu7uwcIEIMYxP/v3N0NSUjIbjKz2WzmfF9aICNv7szcee/KOTbQoFnAsi1gAyCD/scWAP8eH/kBVAZQAUBVAKUBFALA7ZXAKwBPAQQBeAzAH4AXgLv6f/fV//s9AFGJnDAaAH/4e8MP/65Bs4DZLZDQS2T2QWgnTNcWoFPPHOvHLp41iuideQ0A/CmWRq31HMAFAFcAXNT/eAIIj3U9/BCEAQjV//B32schjd5wSx625vgt+e5Y19gcAGTT/9DRG5AdQHUAdQDUAuCmn92bdPU2GWxhmykjbDPbwy5zZthmygxbe3vY2CTvEY8K1/njqIgIREdHISoiEtFR/H84oiMjEcWf8DDd76MSm+SbdAncOBLAOQBHARwDcFX/IZChAAgB8AJAgH5bk0+g7aBZgBZI3luh2U6zQOIWcASQW/9DB294xhh+aQCgPoCCphgwg11GZMqSBZmcsiBT1mzI6OgImwxcKLxGRqcscMqTF86FPZDd3QPZChRE9sIesMsU+xtj/FlDvJ+JQw/x8xUHH/riOSJevUSItzfCgoMQFhiA4GdPEOLrjcjQUCA64Yk5jxER+grhISHyE/EyBOHBwYiKjDB+MLotX+pXCXsBHNCHnQwfhCcA+MNQlAbNAklaQHP8SZpI2yARC/DZcQbAUEw+ABn129Gp08HXA5DHmMlFhowZkTlbdjjkyAmHHK7I6OgUx7HT6bt4FIdz4SJwKV4S2dwKyow+LSAyLAwh3k8R8OghAj0fIPCxJ1543pePQGxwBfHquR9e+fnipZ8vwoICjb08fkF2AtgF4I5+Jx6c+QaGkvjB0KBZII4FNMevPRDGWiArgBL6xCmdPJ+dwgAa6WPwDOW8FfbOLsiSzw1Z87khc3Z+M3TI6OCAbAXd4VKsBHIUKwFH19zIYBc/1J/U0dP27/mBeH7vNvxu3YD/7RsI8mLuWIfI8FC89PVF4OOHCPJ6BG6bBJhs3g/gCAA/fbiIH4Xz+nBRUvtrv7dyC2iO38pvcAouj7N4JlNZHUNHn1Mfg6+rT8Qmemh7lxxwKVIUzkWKIVPWrDFxdqc8+ZCjOJ17KTjl5mJAgzEWiHj5UlYKvjeuwe/WdfDvug9COPzv3ILfzWtgaOotYFXSGf2qgDkCrhL4UThlzPm1bazPAprjt757mpwr4nNAT9wEQCn9bJ5JViZcGcoxhHHiHNvG1hZZ8uZD7nKV4OJRDLaZdeEXhmxciupm74zJJzfBmpwLSU/70PHzQ+B77YrkGwjmD55dPg/vyxclL5EImLlmnoAJZCaUb+vDRa+XGenJkOnwWjXHnw5vuv6SWePeTu/s+ecc+uoa98Ti8o6uuZCvak3kr14TGWztgAwZ4JjTVZx8VrcCsM2YKf1a00KunAlo/9s34X/3NsKDAiUs5HP1Mu4f2C25gwTAaqGHAI4D8NF/BP7V/99CrkobhtIW0By/0ha17OOVAdBdH5tnEJ0NTyUTc/Q5ipVE4cbNdLP5jBmRMUtWZC/kjuyFirxRVWPZl51+R8dy0+CnXvC7eR3hIcGIiorGvb3bcWvrxsQqkbz1/QaG/y/VfxjSrxGt8Mo1x2+FNzXWJbHmsTaAXgA4k+esnglaJmrj3HvO4J09iqLEex2Qq0x5wMZGErDZChSSipv45ZPWbTYrvrroaAQ88sSLB/ekXPX53du4svpv+TAkAK4AbujLRP8DsBAA8wUa0rgFNMefxm9gAsNnoJ0J2IH6mT3LZ0hp8EbVjZ2DIyr27IciTZqDDVB2jg5wypUHmbLwu6AhPViAZaVBTx9LbiDA8wEu/r0IXqcZ9XkDzB4zJMTE8DB9cjg9mMgqr1Fz/NZxW3kfywKYog/dsImKs/s3krIFatdDtQHDJCnLWXxmZxdpjNKgWYDdyq/YqPYyBM8uX8CZeb9LfiABMJPMMtFVAH7QLJf2LKA5/rR3z2KPmNnURQBa6gnJnOITk7E5qnjLdqj08afIkt9N6uPt7B200E3avu+qj56dxRGvXgk9xZ0dm3Fs2sT4yWEDrxCbxQ7qVwGGBjLVx6edIGUW0Bx/yuxn7r0N96sfgPH6Esy4Y7CxQSYnJxRr3R5VP/1cmqU0aBZQwgLMCWwb2h93d2/XHe5NmopDAL7Sh4E0cjkljK7SMTTHr5JhFTwsq284k2cjFZ19mzgkZuLos0gNfb5qNVF35LfI6mYSFY6CQ9UOlR4sIKuAXduw//tRwjnEPAH/LRbIPjpCXyJK7gnFWOzSg33NcY2a4zeHlZN3Dsbp8+q7Z0frSy9jjsRKG1bdkNem0fipyF2+YvLOou2lWSAFFvC9cRVHJo+X3gFyDTE8FAukoB4M4CaARxrFdAoMrfCumuNX2KAKHM5QclkNwET9bF8Oy1l91vwFhamyZNtOKN2pK+wckqTIUWBI2iE0C7zdAv53buLi34vx+ORRBD1+JAym8VYAn+kZRLU8gAU8TJrjt4CboB8C4zPl9LTFjJPG3Bty3zgXLgqXosVQvtvHyFmqjEaDYDn3TRtJLAsEeN7H5X+W4cmZk/C5fhXhcT8AZBDlZOaafgWg2S6VLKA5/lQyfKzTFgVQBUBzAH0N/05+G6e8+ZG3YhVpqGKyNmt+LVGb+rdLG4ExFgh64oVLyxfj2cVz8Dp9ApHhMYyirAJaBmA9ACaDNQ0BYwyq8Daa41fYoCYcjhKC7KptAaAjAHvuy0Yq5yJFUaBWXbiWKosSbTvBNpPGgWOCXbVNLcgCpJq+umYFnpw/A69TcRrDHgBYoKePJoW0BjNaQHP8ZjS2/lSkO24KoDWAZnoxE/lVrrIVULhRU3H47KbVoFnAWizw9PwZ3N2zA3d3b5NEsB4s+SQ19FwAu/XiMdZyyRZ9HZrjN9/tod4sZ/dkxKRCVQHDqXOXr4RiLdrAtUw5FKhF4SoNmgWszwLRUZF4cHAfHp86hgt//Rk7/PNU3wQ2Q98DYM7yT1KaML/G95HvKHUn6Bc5BtKZkqqCX6rH1lSVpDl+9d8v2piCJsMBVNKTpOlm+GXKSygnd7mKyFu5mtZNq/690M5gARYIDXghfQCPjh/GjQ1rY4+IsaANABbrHa3So6Vj58yqIV8//cHZI+OqpzhhCTX5S/jOcjXCHgQK1xgoKvhvoXpRm40A0qx+geb4lX604h6P5Ghj9dKEVQ2/IuNl2S494VajNnKWKB0jYKLuULSjaxawHAtw9h/4+DFubv4XV9euAKuB9OAs+wIAdqcrUfrJemcWTTC8SgJDzu4pGUonnxyQpI4fAgNr6TkAv+u1DJJzvFTZR3P86pidwibvAxipJ0+TxG1GR0dx+KQ+zlaosEaOpo7ttaOmIQuEBQbixYO7OLdornwEYoEO9Q89FTSdralgOPVHAOx890iQ3kR/RMqDZsmTD5QGpSQoK+qio6LByiT/u7dEz+AtoMwZQ0FcCXyjT1abOlazb685fnVMzo5FNmLFCMt6NG2FGp+PgFPuvMJvr0GzgGYBvQWioxHi54Nr61YJLXTwU52MpH4WzY5fhkiNxSf61QK73t/gLnHMlQfFWraFR5PmcMjJcL6uki5DpkywtcsIkhoaEBUehojQUPD/BEVtnl44h4vLF8H3+tWEuIo8AVDAZgKAODEsYwdvru00x6+spb8GwA7FmMStc2EP1B75Ddyq1xb9WQ2aBdSwADlzgh49RMDjR3jlH1dikdrIbALMmr+A0HGLbKYFgnQP1Ane9r9P8PTcacMIGVdn6SfV49gDkBgYGhqi14g2xOllW4ecuVDny29RsHZ9yaOx2z1ZDLXR0SJwL0pm1Du+eQ2Hfh4rVUrRrwnrON4AfbiKHyE2q1kcNMevzC1haIdlaeUNtMjUn/Vo3hpNJkyDjZ0tbGwohqVBs0DyLUDnwo7YG5vW4/bWDQh/GdcPivN5kzFTf0IbSVnGFr6nE6S8Zun3u8GjWSs4uHCRmvqIigjH1sF94Xlov5DA6UE1MBZIUAoyNuoD+EnfE8P3MMansXCi4bjJsLHNIB87pVXkaO/oiAhx+nu/G4kb/62JPS5+AEhc9DcAfgAsiq00LTh+Tk/YwWQYK7/mzMqzUqYIANbFsySLRvYHcFf/tT0A4FYsZkA+QeEKMwUyWfQxgG/1KleQ2VU2Z3TfcVhTskp9H5IGRxCNqIhImVGy2/XhsUM4Pec3+Fy9lOS1ZMiQQRx7bOfOncRBRUcjKirpKknSeJf/6GMUb91BQpIMfWSwi+NPkxyHUhvc27sDu0cPk1WAHoyjr9OHcpicJQPoKMMvqTWRwS4jqg8ejoo9+8cJ2yg1pqSOs/ebEZKriAh9FfsjzAa1MQBO6BXMkjqM6r+3VMdP7T/+8InrrBd5iAmfJMMqdPj8HM8DcBsAg3Ys00qufijHxY8Nk08cn4DxwyJNmuGdsaQj0aBZwHgLcJb70s9Pwgh3dmzBuUVz8Oo55zFxYWdnB0dHRzg5OYF/NoB/LlSokPy4urI68TX8/f3x4MED3L9/H2FhMdQJ8jF4+fIlgoOD8Souq6bszJBIlX6DULRFG9g7O8PeOYfis2ZjLLSkUTWJ+8cKpzCUwlJL4TDh6jpTtmwo16UnyvfoC/vsfDVTD0wGbx7QG4GPPRH6gm5GwPFSrYw+Izj1Rqc7syU5fla+GGbvPfQC4QmuPSVOZ28P20yZRVGKs2xERSMyIhyRYWGIZEImgr4+UVwF8KueL9zQpGFs5QAD9ZX1ghNsyJKxMH7aduEqOOVhTkmDZgHjLPDS1wchvj5S2bL/+6/Av8dG5syZkStXLmTPnh22trZwd3dHy5Yt8d5776FAgQIpIuuLiIjArl27sG7dOhw/flwca1BQEJ4+fYqQkLhhJHaV1xszDpmzZoNL0eKSEDUXuPpZ160dSP8QFhSX2sfRNRcK1K6Pyv0GIWeJUuYaUpLniQwLxb29O3FkynipDoqlV8DowGx9dCLVwj+W4PjZQEHeGta5MxZWM45VSVaWOy+yuhUQJy+ONrO98NlkcysIe2cXZHTKIstivjRBT71ENJrc4FQMIl76+QpVLGdT8cANuHRkHI5JGIaJuJxMDGz6YBJpkGG2kb2gO/LXrIuaQ78EH8LUBh+w0KBAhAUGCDNiWHCwVCMkBhsb0j3bS7Irc7ZssrzP6ODIYHBqX4r1nj86Gi887yPE+ymurvtHmphiT1Ts7e1RrFgxmbkXLFgQXbp0QcOGDWWmryYiIyNx9uxZLFy4EFevXoWvry9u374d5yNAavDmM+bDwdkFuStUMlvuiu/uqVnTcGvbRgQ+pua7DlU/G4pqnw212F4YrzMncXz6JPhevwI2runxs975sxs46fibCjc9Nd9uxu0NNMSMk8coiXBGz1kFG51IUFaofmMUa/keMjomTxTc6+wp3N25FQEP74takN+t67FLxgxm3QdguT5JSwWh2N6SduJU/gv9jyyWcpUtj2oDh6Fg3QbyMTI3WGHAxpcXD+5JTJiIDH0Fv9s34X/nFgIe3BUHEx6c+MqS8WCHnK7CBJqzWAnkKFla5BoNMzqhhHYvDIccrrqVlYYUWeD53dvwv3sbV1b/jYdHD8rq1IBSpUqhTJkyyJMnDz7++GNUr149RedK6c6nTp3CkiVLJEx04sQJPHnyOtzikCMn6n83QVa6ecqbUm2Z/FFFvHyJO7u24vziefC+wlcUKFCnASr3HYh8latZrDbFi/t3cWX1con9Bz2hrxf8BuAXACwBNfvMP7UcP4OQ3QF00vPPiyX4MJG3Jkve/EJSlr96bQmjKAmuCu7s3IJnF8/L8tr78sX41RFMCq8CsEe/CuAygx+oPvpyMUna5q5QGTUGDUfeKuZ7OaOjo/Di3l1J9LGigx+xR8cOw/PYQUTEW5orZTOurPhhy1G0hCTLshcqIvQShtWXUuex9uPwhX924RxubFonfDURr17KJTN8w9ANnX2bNm3Qrh2pnCwL4eHhmDNnDi5evIgdO3ZIroDgRIC0I1X6D9a/t4zUqguuXp+cO41j036WCieCz2OFnv3gXr+RrP4tEVyB39j8L84tnBO7S3mmPu7P2n+zIjUcP+P3DOsMNVypY67ccKtRB3krVYX7O02QraC7+kaIjsazyxfheWgfnl44C6/Tx2MvxXh+hoAO6/k4PgLQiv/IsZFQrUSbjshRvKTq42Rru9+tm3hy5oSEcLwvnYfnkYMSykkIjAkzDswfNzc3ODs7I2OsppSE9mGs99mzZ3j06BHu3r2Lx48fgy97QmCs16NpS9hlzgyXYiV1tdHaSiDR54AfaDJT3ty4Hvf274qJ4TOc06lTJ0nGfvLJJyhcmCwClo/Fixfj/PnzWLlypawACIY43d95FyXbd0b+anEjtWpcEXMRzy6cxdFfJ+DxiaNyipwly6By3wEo0qSFdMhbIvjR4of/5MxfEfiIE33BdH1l0uusuxkGb07Hz6k7laU+1YdNRC/WrWZdqSEm/zxn+qkBhkUoGed5+AAeHNqHiNf10VSQ5vSGLd/Cq1Nt4P8kmaR29y0rOu7v3w2/m9elUeTx6RPx1Yxktli3bl35yZqVRVAAHT+dCH8YH3ZxcYlT/ZGQfRnb5UtMx8+YLh2/ofrj1q1b2Lt3ryz3uZ0BUgNeohQK1W0Ipzx5ULhRMwnNaXhtAcaiLyz9E16nTuDZpfPyC1bf0OHXqFFDYvf58uVLUYI2NezNicKyZcvAUNCsWbNihsCJW8Xen5jl/eBJOWE79ssEPDpxRMaQo3gpVOk3UPpnUiP0asy9oPO/ueU/HJ82MXbYhyEflqaaDeZy/FSYYhyfTl96otlBWPN/X8lS0RwzZ2Msyg8AZxIX/l4E78sX4jTDMOdQ/+vx8lCrCVZ4nJ03EyG+3nhy9lScRBbPW7ZsWbz//vviMOj4y5cvj3Llykl5nxp4+PChJPxY6UHH/99//2Hr1q1xTkXR93xVqouegMe7LWT2lZ7BRC1XZVdWLZNZvqGigwna9u3bo1WrVpK8jV9vn9Zs5u3tjUWLFmHTpk04ePCgDJ+d6u4N30W5rj0lLKg2qPDFypnHJ4/JqfieVv10CIq1bGex4Ug6/2vrVuLY9El45e9nMBFpHtj5bxaYw/Gzzp3VOiRNysSHvWS791H8vQ4oWPcds1ykKSfhMnJVuyYy0yY4s6Ujqzd6HPJXr2XKoUza9pW/Pw6MHy0i1Q+PHIpT5cGkX/fu3VGiRAnkzZsXlSpVQrZsqUP/cOnSJVy5cgWhoaGYN28eDh2iep4OzH1wVeRWs47c4+zu6r/4JhnZDBszNHfgh6/hdfYk/G7ouvUZcuvatav88MPNVZm1gH0Aly9fxty5c/Hnn3/KZTHOTqrxBt/+CJeiJVS/VObpDv70jUyUDB+fOl9+J6JGlgpWKZ2c9atwE+kT/OxS6wJguznGrLbjJ3fGQH25ptRitpy5ELnKlEOWfJanH8vyz73fjsCNjeukSoaxa4Yyav5vFFxLl1XlfvDrv/urobLsozapAYwBM+k3YMAACdcUL15carktBZz9s+Tv3r17kvDjkt/QGUpOIs78SnXsguKt20ntd3oAe0g2f9pDnL6hWqdWrVqYMmUKSpYsKfX41gquDGfPni3OnysBgivA5tPnmiUE6HvjGvaM/l9MtQ+fvxa/L0COYup/eJJ7T4OfPcWm/t3AsevLOjmLoirf20rKk3u6OPup6fjJq8G4FRkqMzDm1mbBCkngWmIyUJz+N19I/M3w0pbv/jEq9Rmgmsg563s9jxyAz7XLMeWYDg4O6NOnD/r16yd13GzSsWTQ2bPem5Ueq1evxvTp02PyAywTZeKPdd8sCbWsfkFlrRrw8AF2jhwcQy7G0Btn+F999RU8PDzSfFjHGGv5+flh8+bNmDx5MrgyJBh6ab9krVTsqQ2WTW4Z2FtKmWPOvXSdxXAQJXT9LO9d0aaRIRzIBC9ZPbupbSu1HD9n+t8ZZMwcXXOj5ayFyF2+otkaPkwxnG6mPxI3N60HO+6ImsNGo3zXnqowarLK49Ts6Xh86ijCX76MySUMHToUw4YNk0ocS5rdG2vLgIAASRD/9NNPWLFiRcwKgA14Zbv2RLVPP7fKxjAm4Y9O/TGGpZErtPXr16NixYpyL9MTSP3A0M+QIUNw9Kiu4oZFG923H5aeHLXBWfTaD1tLtyzBlXqnlRuly99S4X31ElZ3jNHYvqcPje9Uc7xqOP5eAKYYpM2cPYqh6ZSZcgMskaGSTn//D6Nxbe3KmA7XxhOmoXjr9qo8qCd+n4rzi+YKzzfjwUSzZs2kSoKVOQzxpGUwR8KX/8iRIxg+fDguXKCYEsSWmbM5o/fBs2n58t4Y+6Xli3Fm/kwEkUM+OlpKZ318fJAlSxaQNC09gqtALy8vdOzYURq/COZ/+p00D0MxO9YXv1NVquCYU2TIqdM/myzS/9A2fGf+7dEBXqelL4GdvKyeeE/NZ0dpx99YX5dKemLJ6jed8rs0O1ki6PQPT/weF5YukOHxIWk4fgpKtH0ftknUvpt0PdHRCPR6hJMzf8G19f/EnItJPnKkVKhQwaTDpaWNO3fujI0bN0oy2OAAum7eB6dcedL27D86GhdX/oXTf/wm1Asyu3R1jYlvp6V7pNZYGfpp0KCBrAAIfvj7HL1oFqI3lkMvqlshhraFTV4dlq03y7mTY09yEC2oUcpAREf+MJZ4ktpBFSjp+Kl2Q+kxVvBIuWajH3+xyModjo+0qeT+4GyNYIcwKwFKtf9A0dZvJokZCqBgg4FjhDP7//3vf/j888/fYFJU5S6n8kH37NkjOQs2hxGM95InvVCDRha9BE/MbEzIX123CqfnzECQ1yMpq2XylrNbtcpqU/kWJvv07AN59913JQfECjlW2rSYMd8seb67u7dhx7ABwuNFjiFKnjYY+7OweXJ1xvvIhDzLbznrFiWujHY6kRYzc1VxDBeXLcbhSd8bbM0GUjaO6lq8FYZSjp9F5BQ0niEvtmsu1B8zHsVatlF4uMocjktAanyynIrI6OQkfB/luvVWlNKVD9WtbRuwe5SuSZkzfM4Kp02bBs6E0xPYCcyVzY0bNyT2z8Rvlf6DULpjF1XyKGrZNioyEp6H9wvxFqkz6PTr1auHf/75B7lz51brtGn6uAxj9u/fX0KAJFVsPn2elPyqDa7o9333Ja6tXyUzf3bdV+43EAVq1hWH//TiOTw4uBc+1y6BPEAsRGBYqEzn7lKJRp4qtRs1Y9uAk4jVnVripU5BjaVR5HfXOSmFoYTjZ8aGwuJkuJQXutaw0SjdiSWplgfWz7Kx5sjUnyTGzvZulh3S8XOVohQ4y7i9dSN2jfpcDpkjRw40adJEZvp16qj/0Ct1HUofhzZg0o/135z5l+3aCxU+6iMOweIRHQ2fG1el65KrODp9lmuSyIyVOxoSt0CHDh3w7786MfXshQqj1exFZqnxJyPmlgG9QJZMwqDExffzbeAKoVzXXijd8UMZp9LqXQmdm9WE1zeskY+VHksADNZz+Sv6eCnh+Fkoy2VJWTsHR1Ts2Q9VBwy1yJZpfuXv79+FQxPGSt08SceKNG6G6oNHKFrvy05N9gLsHv0/uVlsuho8eLDU5PMDkJ5Bh087sAP4+fPnQrldoVc/lO3c3eJn/oGPHoLJ+ev/rZZQQO3ataVxiZ3TGpK2QIsWLbB9u64/iWXdreYsUXSFndgI+K7vGPaZkLuZCvYDNPxhCvJUqqILEakM1vRv6NMFL32lF4K6IVTu0n0xFURKHT/ZkCh9xtJNaduv8+VY5KloeclcMlv637qJgxO+FUZLvrhM+NQaPhr5qipLLHV17QpQgo0g6+KYMWMknq9BZwE6/HHjxgnvO0tAXTyKCb01yd8stewu2Pspzsz9DRf/XizXwJn+jBkzhHNHg3EWYKiHFCOM+/ODX23QcJT9gCS96oOd+DtHDoLvdfpS0+DiUVzE2gvVb6T6zJ9J6bN/zsbZBdRqETDBy9yporz9KXH83JecxMc5uqxuBVHj8xEo2ZZRH8sDOTGOTZsoPOiEa6my4vR5M5XEpRV/4cAP/Ejrqjy+++47qWnWENcCJIWj8yfbIx2CfISHjdaxO5o5sZbUvWH8l0vww5PGSSyYlBm//PILGjdmEZsGYy3Abu8FCxbg009J2cXO3vKoN2a8TBjVRsSrV7i5eT0OTxyHsCCqIJoGcorVGfkt3GrVNW3HZGxNneVN/bsbystZBjgawJ1kHCrRXVLi+EnBwEF14BKoWOv2aPTjVGSwQIpexs5I5EReDIKkcLW/+FoooJXE+cVzdbmDyEjh0pk4caKENTQkbAFWevDDyOQfE74F6zRA7RHfqEaPkdz74HvzGvZ9M0LYIPkx/+abb8R5pfWei+TaIyX7cYU3atQo4fenpkPZD3ug3tfjzVJFw6o6UiJf+/efOASMxl4PyefqjvwW7E1SE363buDg+DF4pKOcfgZgJADG+xVDShw/GdaoWiVLdcbB8lW1zGUvRRvOzNOVbTKxRKdPKmglcXbBHzg161cRSMmUKRP++OMPoV7Q8HYL3Lx5Uxwpq2IIkrvVGDJCVpCWgBAfbynFvbXlP3FOpFSeNGmSlsxNwc2hoEvlypWF7ZVcOmTppfCSOeB/5yaOT5skSl6mgiy0NT8fKdV/aoKrk6trluPgT5TnFVD5T9HqnpQ4fvKg1mT9O8M774ybpKYt5Ngh3s+EvZIygNSHNQbM5m/s10049tk9WK5LT1QfMkLRrlzy7TCmz3IsguGLXr3YwKzBGAuQ9pmcNiR7Yxldwx8mi6AGk++piajICHge2o8tgz6WVVz9+vXx66+/olq1aqk5rDR/buZ4pk6dKtQeRKWPP0PtEV+rHj83GM5AscGZtalglIAhYrLQqolbWxZY5OwAACAASURBVDdgx/CYaAGdPo0Vw+Gc0nMn1/FTzl6yJKyNfW/eMmFjVBq8MWfnz8QrvUgx5QVZhmXn4BCTBCQPCNWwhPwtXos8q3jWdW0D7yuX5Hekim02bY7ohCoFOoedXwzC3T3bhWiN8XwSlaXXdv3k2JU1/oz9fv/998L7z5eq6dRZqa7TwLwQKyxIopczZ0588cUX8oEyd3NPcmxq6fuQv7958+ZS1pvdvTBqD1d+FZ6YDahed2LmLxL6NWglGGsvUk6Tol3tcnXG+VnWSU1tvQ44SS91ogcKILmOnwndGozRuTdsipa/63i4lQK7ao9O/QmPjh/B83u3Y5grEzo+VxykeLbP7oz8NeugXJdeMfX4G/t3F2lFwilPPrT5c7miZZs8Lsm5Lq1cKrwg7Nq8du2axTNqKnWflDwO+W1GjBiBv/76Sw5LZtTqg79Itfp+9nhcXrkUB8brtDHYfbp06VIpzdWQcgsEBgZKOJTxfibzmdhnQ5+5QBK3wz+Pxe0dm00+Za3hY1Cxd39VyztZgnpy9jRcXb2c4yPfST8Ay0webCI7JNfxMy2ehQ04H6zfCafcZF5WBv53b0usnDNoVlCYAn6NOSbKOdpksMH1/9YIxTI7czuu2ICcxblQUQ6XVy3DqT+mI/ipjgmQoiRsztJmhMmzMcv8Bg0aJCEf3svOa7aqspI0ZnRkaf3rnWp49dxP1LJ+//13sA5dg3IWYEMXO9gp5UjNbSb2yeBrLkjI55cJIm1qCqgyR/Ze5jbVAlciF5cvxqEJUilPMGGoq05RAMlx/D0BzCMDAR1+r/1nFBiG7hDBT5/g2PSJuLn537fO8pM6oTRa2EDasolSHT9E4x9/UbRMUNcOPhLX1q0Sno+dO3eiUaNG0s2pIXkWYGUPaamp7MUST9cy5dFu4UowqWZukLjP8NKRkoF8Q0mJ1pt7jGn9fCEhIZg5c6bM+hk9IH8T31VzgaHZPV8PF3/D99lYUFukycQZKNpCVQJNXF65BPvHsZLTMhw/mbYKU0yl3pgfUF6hDDcJk8heeWbe7waGOmPvw1u3Ix3wJ2duKU4KdfSXn3Bu4Rx5YKh/u3//flHJ0pAyC7DSo127diLowRBAr32npNnH3PijbEG5txStX7VqldaopdINoGIXeXyI+t/+JOWd5iwJ58x60ycfiSCSKXh3ykwhfVMT8Rw/udA4449W4pymzvg5nWUjQSFWXHx2gZoBKQdnzBf+mi8NMkqCY/z03B3FqwVCAwNxdOp4XPnnb5kF7t27F3Xrqt/YoaRtLPlYrO1naIXVH86Fi6LLxj1mFc5+cHg/NvXrJiE7NmudOaPcqtaS7Z4aY+NKmfxV1HEmP06zX+cIjYo5QYZeTuLYNWsMWCjy7uTfRbNDTcRz/Iz5kAQzQIlzmur4WfzORoKcSgorMHNNDhTy2ygGGxtUH/QFqg/8n6IhHtK5np73u7AzEmzkGTt2rMz6NShngXfeeQes/OCk4OPDF8wi3WcY/fxqJRAeHCwqaOTi+fBD84UflLNg2jkSpRolyQug+Yx5KNqstdkHv+nTHsK6akyVD7t42XSmdsfx1bUrhQVArwo4Xc/WqRN/SCFMdfyrAbQjk3HpTl2lUzel4HKa4iTUu1USOUqUEuEFpYW+2dDDkNTlVUtFVm/lypVSlqZBWQtQvYux/uDgYJRs3xlNfuZzrz5e+vpg6bs1wSYahnkMGgLqnzn9noG9EXT8TPKSwqHM+10V1cQwxrJBT72wvnsHBD7yTHJzklCSzTeTU5Ykt03JBixOOfjj16BIC4BZACYAeJySYxr2NdXxUzevEnfuunm/IlltNmWdFvIrxRLW0qjVee026dJVGrGXX5zts+vU0gXRlbaBOY7H+m52d16/fl1O9+mFu6qWzxmuid2S5FuiaGLv3r3BGHRKwBULP17sTyBdAf/Ozm7q8pK/X0sYA9u2bRPHT5lOirO/O3kmcpUxP+PpvrGjcG3dawnWhO57RkcnXR3/+11T8lgYta9FOv6BV3VdqikFkyrbP+8vHblKgQmimsO+UpzylbN9Jp9Z8UGeFjqF7t3Nwy6olG3S0nFat24tpZ2cCZLCt7DC3EoJ2WJJo2oi1E3RHM72kxvC44eLspre3t7w9PTEgQMHcOfOHbBZjU6/bNmykheiNm+ZMmXkJz1j9OjRwm1FtFu82ixCLQnZe2mTmjFKeQn93r1BY13nbkn17xcrBg+MHyOrT72kLQ1k9lAPVcDZuCUCsUo5/vv7dmHzAOXoDdjB2/jnaZIUVBrk8t/91f8kCUSBdHK2MPmnQR0L7Nq1S+q8meSlMhLr+tVEkNdjrPmgNUJ8niVbP5czes5gyUczf/58oSBOCm3btkWbNm3QtGlTuLu7J7W5Vf6ejp/vE+3XduFKFKhVT9ncnJFWI+cWmzITgnORoqg17Ct4NFWW5yuxoVlKcpecDFvIo8Uyu4FXHhppyrdvpqTjp2YmnT4lH5UWTeADSaKunSN03YXkGmELvwZ1LcBOWYZJ2ITX99gVVat7Tvw2BecWz5XGQWoE03GbAq5MpkyZgkWLFoHkc6aAFUTkd6Lz79atmym7WsW25O3hD1dK9b/5UZSvKOyUGljeqgGe370d59RZ8uVHlU+GiFQoS8TNgXiOn46HD2S4Euc2JcZfX1/RU5gNNX2PXVbi/FDS8bOutsbQL5GtQCFFxhb7IAGPPEVyj80eRYoUASsR3n9fGe0B0hPfvn1bqIlJ+8vjs6JEA9CqVSuZQbPUr/UfS1TlQ+ds/9ml80LZS+oNCqgbCzqs8ePH4+efqZuRPND5M19E4Z7PPvsseQdJo3sdO3ZMKDsOHz4M1zLl0GL6POEBSw3c2bUN24awbF4H0r1U7NUPJdt1Nmt1maU0cLXVZ5YLOBcphm5b9ityT5Ry/CRuazxhGoq1UEfgndzYmz/tgYhXL/Hxxx/LC051reQgKCgIK1askPpwNixxRvv48WNx/HT4jCuT94fJv/bt26drNkg2xpEnJzIqCoXqNULruYrSkse5favaN4Xv9Svyb1zhGQvO9EeOHIlZs2ZJDD+l4P3/+uuvhb4ivYDvwSeffCKqbASpYFxLqR9HT8i+vPcbenc28OFLvoEC8ebUhSZf2YUlC3DsVxbyCFKNsqEjgN8AuOUoURpd/tulyDOplONnQrfagP/BKY86XZ5MQm/sq8vkc0ZmoJQ1xQh8uCk6snbtWpw7dw6PHj0SZ58YmPijnitl/phETo90wHSqjo6O4lDJqtpjtwi+KQ7ShWzo8yH879ySjy4/zsaCIT8Ki5CCQClQvJ1spT169FDqkBZ/HDp+Q3gtNR0/DfX45DH827OT2KxA7fpoOXMBWNFjLpCZmE7/3t6dPCW50djevEqp85sS6lHF8XMmTS3MkGfJT1bzS1z3q+9FxEMNkNODLH6M77MUjyWc334bI5Jg1CnPnz+P2bNnY+vWrVLlYQroiIoWLSpShUwEpjfKZ9pcbcd/e/sm4eYJfvZUbEwxeGMwbdo0TJgwAWQXVRLkfKLoC1cRDP+lB8Rx/Ot2pKoS26sXz7G8RX0h6bN3yYnKfQfIj7lAksrdoz431PCzqoGkPeeVOr8pjp/itCy2d+esutc+0xXrExo0mxMuLluI4zOSL+RCCt8an49E5mzqxMVJDb1tSH/43bqO9957D3zZydhoLEjpMHDgQDCWz1hwcsH4Lz84Xbt2RdasWZN7mDS3X8OGDYULydE1F1rPWSparUpj79df4Mbm9cLmStZI8gUlBc7wO3ToAFYfvW3lltRxEvs95Tu//PJLCfukB/AdYac0bdlp1WZh6kwtpltyh93bswPbhvaX6qKSbTsJMZu5EE+IhbPMyQB0rJMKwBTHT8kZToOKk6tiwGXTZq1vGyuTKfvHfomXfr4mXxIZQmt8/qWqwggUclnTuaWQdnFWQh5xY2fdrOXu2LEjvLy8TIobJ2YIdgvz5aBjYq15egA5+tlMxaU2Z13VBg5T/LIZ5nl49LBwYPn7+0tXdlIYOnSo9HIoGeKJf05W+bBSqGJF89EVJ3Xdav3+888/l5AZV3es5c9fvZbiPFumjJ2VPazwIUj1zmojSkWqDa46T8+ZIY2EeqSq9CKbGclWJU+gUnX8PBZVrM4vnifiK6aiXNdewhJKWle14H3lIlZ30nGxs9qCjt8YsFKHdeiUFlQSbB4jj03VqlVTbUak5PUkdSzG+Q0drlRRe381q4qVxX9M5h0/Igdlpy3zCknhgw8+wOrVZDFRDwz5MMSXHmb9TOzyWh88eCCiLFU/G2rWuHr8u8h+jj1jhuHBwX3C7luxRz/UGRXDj6/aTaf61qb+3cFVBwCGVkhktFvJE5oy4+d5YygblHT8PDC588mBc3bBbKO5se2dc6DKp0NQqfcnStrkjWM9u3wBa95vKU6Wjp+x+qTARO7u3btV5fFhZyn5ZNIDDEt+19Ll8MG67YpfsqmOnzkAyjCy7FNtkASQP6kV9lD7+gzHZ5UbK5lY2ulaqqwo5jnkTN38xtPzZ7C2i65SsGyXnjLJtFVRC5okcXf37cS2wTHlpJwNf6P0PTDV8XPGX5mD6Ln3VIzEoVKDYmvy8ekTcWnlEom1vhWMu7XpiCaTWGikHlja9fTcaazr1k5mnXwwGeNPCmzgKVFC3WUh6WzZ7cjkp7XD0hz/gAEDJCxhDlSoUEHCPewWt2aQ3oJVTNu3b0fmrNmFjlutKj1j7cjVPqv52K3PvgJ27hZrycp2deBz7Qo4CQl98ZwnYGnZeH18X9ETmur41wMgZ2pGj3dbooXCWru8MmqdHpk8HqQkFf6eROqpKbFYqc9nwpKnJhiG8jy0H5s/6yl19Wwtp8N9GxijZBKWTlltsP4/uXwyao9NyeOnZ8fP0N6MGTMkv2TtYFMky52JnntPIkve/Kl6yfRB1F420Dgwv1R98HDY2DDyrSwiw8NwZ8eWGHYAfcPsEKU4+GOP1lTHz+5d3pVcSgqxJGQ+Cg3f3bVNKmlYThkHNjZwb9AErefEJD+UvQOxjhYaGIDj037GpRVLUL16dXkBa9eu/dbzMUbMGnxzgKWl7Bi1djCRHRYWBgn1rN2mOI+LKaEe5hw4408pc6cp9+y3337DkCH0AdYNS3P8tPaDg3uxZWBvibmzZLzm0FEghYOiiI6Gz/UrWPvhewbJWFa6cOY4RdHz6A9mquPnbvdFgcsuI7pu3qcK9bHhQtnEcHb+THgeOSjEWQawbLNir/6qVHfENzJpozf26wrfG9eESGvJkiVJVnyQYqBly5Zq3K8Ej2lKl6nZBqXwidjHQHZLsiJ2WrUR1D1VEqY4/mfPnoEVKJRkVAo5c+YUnWFOGhJCenD8fI7p+Net0wkyWcKMn+PwuXpJtG8Z7yflO2mZldYGZo6TCoSXli/mKSP1zVr9ACS//vstD2dyHP9GAK1sMmTIUKINa1vVF8i4uHQBrm9Yq+NR4XKjbAW0X7IWGY2ovEjpixnk9Qgr2zVBWGAgWMVhzMvO0MuTJ09Semqj92eXKZu8rBmGWn7ytbf5c4Xi+SVTHD/7MRjuY71/SsF+kBo1akiHNstIb9y4kWDzWHpw/GRhZYf6li1bQD6wLht2p4recvx7yogDQ8/7x30lv6o98htU7Nlf0UrCq+tWgr0kelDTdgyAFSl9vhLbPzmOn3EOlhY5MOPebctBZM6WTa3xxRx365B+uLtrq5B1Ueuy8U+/qn5OnoCKPEvfrSXnMtbxm7v6Yvny5dLUZc0gZxEraZwLe6DFzIXIUVRZYfvUcPwMX9Ghk/vJUK7KCQMLCAyzXsM9TQ+On9U8XEmdPHkSBes2QNOps83Kj/O29+fWto3YM3qYcHUVbtxcOPmVegbv7duF7UM/MUgs+gH4Ra+2pdornRzHz8Hwi+RuZ++AKp8MFo4cNREeEoz5VXUVMmTKazVrocz6zYG04PjZ3EPuH2uGJTn+wMBAcc5Lly5Nkcn79u0r1ToUZjGA4Q72aFBzODbSg+OnBCMLIhhKY/VMhR79zC7BmNgN9bt9Q9h57+7eDtvM9hLpUIIQklVDu0YOFo4oPeUya5V7AzC9m9WEpzG5jp+yU8t4nuzuRUQ4gQRaauHYtJ9xZt5MSejlKl1OZBXNhbTg+FnOGZpU+au5DKbSecifs3HjRouY8dM5M7nLDuqUgKpcVOGK3wV++vRp6f/w9dW9+/w9Hb+1s3UOHjxYbMrkedsFK4UVk41TlgBWG55f8ieOTPpBhtNg7M/CFpAS3Y8XD+4JP9T9A3sM1YsUOaEYw0G1rzm5jp+1TEzyFsjo4IjSnbtJwkMtLG5QGUyysmW/yeTf4NFE10VrDpC1cV23tgh8/MjsoR7Wb5O/xBC/37Nnj4Q7/Py4GnyN9OD4GzRoIDNhS4jx0/JK1PEzpJEQ4ypXbywkePhQJ3bEMmL2jli7QAs1rMnOKUne1VuQm6t6m+S6KOW9w5XVy3Ho57GIeBmCgnXfEZ/H5zE58LlyCafn/y4rCH3VIpO4HwJgDlV1pMSqJG3bwxGyyaLGkBEo3Un5OLP/nZtS4kQyN7Jw9j54TtGkSlIWJn/Qri8Hw/PwAanUWbx4sbyIb4MSMf5SpUoJM2P9+vVj4r9sZeeHgFVD7Aw2ID04fkNVDznaO/2zRfHuya2D+uDe/l1g5+S+ffveCLXEv99UYGNYIiWsnAbNZtbpxwb5nRjqMaziGBJiya6192vEpWXeId27loQX9+/i2LSJIJOrnb09Ws5ahIJ1dFw+psDz8H6cWzQXj08eNZRucvfmAHaYcpyUbJsSx881GNtmB1LykMmYhuMmK17furFfNzw8elBoHArUaYC2C1RLdCdox/DgYKGROPXHdFSpUgWMQ8aPv8bfUQnHT4fPGb5dPA4i8v8wkcvZogGMEcdfBaTkobDEfePU8atA2XB17Qp5qV/6+khJYVIcPKTW7tOnjzBzJhfU1+UqpmDBgjGHYPMfq4VYSGAAefm/++47q6dssCQ+/oTuKcM9J2f+Kr5APPWM+fBo0tykcNSlFYulJ+j5vTux+5P49VA9vBP7mlLi+HkcZlypwWjHLyDFUOp8+Z2ijHrLmtVBgOd9WfKRCppsnOYEZ4CeRw8KaRJ50UmTS7Wlt0EJx8+PC2eeCYGKVOQBMoDEVnQM1gy1O3dDA15gfff2YO+Ig4NDkoybDEfQOa9ZsyZFZq9cuTIY62fDH1dxvOcfffRRTDkwPw4//vij/Js1gz0arOjZvHmzrOg7r9mGnCVJCGxZOPvnbJyYOVUoZTyatkTdr8Yha363JAfJievpub/h/F/zERYQgOjoGAEmVklSXch4ybckz5b0Bil1/Iz11zF8rVhqSQoFhn2UAGf6u74cghAfb3H8Sgm8mzK22Fw9nH0zwTZ9+tt7F8zt+FkCmFwZSFNskZrbqu34+d6tat/MJOnFy5cvo2fPniKhmVwwcZsjR46Y2Ty7k1+8eBFzOJIC8nmzdgru2GLr9UZ/j9LvdzdLn46p98378gUcmfIjHh0/DLIXdPz7X+QuX+mth2H/0alZ0/Dw2EGQj0wPbz39Ddk3E5fhM3WARm6fUsfP05AhrAOAlfwLufpr/m8UqvQfbOQQEt+Msf2nF3SUxuW69ECDsRNTfMzkHMBUdk7W1bMRJSUwZcafHjp31Xf8wH+9OuPxqWMSVmT8nbH1pNC6dWvJuaghxFK2bFnRdmai19pBDqyJE3Xvd9tFq1CgVl16Ewu87Ggc/Ok7EY8iOq3ahDwVhLfyDZB75/r6f3DghzG65+M17xg5zzg7vpNaF6iUZcmdyrYz/mTk7LzuqLEo3623fBWTA4ZYSIdq6NZVmgbalDGZysevBFcP+YDYwRhbEITxXyZ3WT9uSPzlz59ftHutGQx/NGrUSJr3qITU8AdV6EvgdeYktg7ug1f+fqD6VeyZd2L25QvNfMzRo0cVEdoxnIcz/P79++P333+35lsr18ZVDh0/82ckP2u7eBXcajCQYJk4PPF7XFi6QCYI1QcNR8XenyKTgZsrOhphIcHwvXZF+H0YQtSDs3pO96kiRJKxJOiH1b12pRw/R+kBgBJhLEly4D/UJadFhw+E38LU8AeJkciPwTp6OwdHfHLmprqWeMvRTXX8VGQqWbJkTDlecgdO9SVS/xoSvDt27JBKklu3pNlDQGWvvHnVEZhP7riV3o/yhkx4kpG16dRZIn6tFpY0qo6gJ4/BShs2EhkjcUmaBaqsXblyRRHnT6fP0k0Kk6QHLFq0CKNGjQJpmcnFRIlDVm9ZKljVc3z6JEnQss+g2+b9yOpWEMHPniAsKBCbPvkILAOPhQC9iNUEAKKentpQ0vHzWkoC+JIrIPZ28R9InVyy7ftS72qKStbG/t3heUiX3Kz08aeSNE4tkKDt356dhCObSbaZM2cie/a36/uy6qNIkSJxyi6TO34D0yc5eWKjTJkyUt1jjFpUcs9tCfu9Flt3w0c7j4JVZGrhv48/xOPjR5Ahg42oXjFxbgxY3TN8+HBcvHjRmM0T3YYfHCaN6fSpvmXtYJiS3ct0/ETTX2ZLRyxDxpYMdtve2MSIDdBy5kLY2GbAzi8GgSwDscC/MJzzt56GQSS1LAFKO35ekzv7WwD0AiBTUdfSZUVGrXDDprA1QjQkIjQUWwb0xMOjh8RGfY9fUU1I3ZibQBEGdg6fWzRHFK9++OEHEYx4G1jfzReYQutqgAlBOn0PDy60rBcUp+dHlmGubAUKieNXE343r2N155ZStcEwGnsnjHXAnPGTOpn3PDl5F1aNMZ6fXmb6vI9sUmO56oIFC+Qdf3fKTLg3aKzmLVbk2Hu+Ho7r/65OTC2QYRxm/E/pOXfMx9ho5NWp4fh56qwA+uhj/lKkzFBPg+8nwsWjOPJXq/nW4T04tA+Hfx4r/BUME/XYcwKZs6pPBJfYoPgSc/XBJRyvY8yYMVJilxTu3buHXr16SbmekmAlCNkh+cIYE4pQ8tzmPhbJyvgBjYoGCjdpjpa/zVd9CH83rwu207M/YuXKlSYpX/EDxUkBGTxJOmYMuGJr1aqVdPEaZr7G7GcN2/Ajx/p9lrKS6776kBHI5va6r8FSr5Ex/jPzftdVHL4GZ/hswnoKgA7CYpNvajl+8fUAyCf9sV6uUdoTcxQviYq9PkGeilUSVawnPen1/1YjKjIS5br3Rp2R3yrOv27qA8XS0g19ushuXNJPmDAhyRI7fjAuXLggOr3GOgFjxtWuXTsJNxUooB4/kjHjMMc2tWrVwokTJ4QYq/3StaDYutpga/6+70YKRw6T7IcO6VaexoJOjCWenMUGBATIM0B9ZOZ+DMiVK5dQMXPFxk5wriLjN+sZe760uh0/jgylMcbPWHnDcZNU6f5Xwz6ka985YpAUBOjBhC0dPVWRYmo21Ti3EsdU0/Ebxse6rKb6bLZM21npw+Uc253dataNw3fBap6dIwfj1tYNsj91N3MULZHqnB3+d28JoRJlGOmMmGQlf0xSYMXCkSNHpOWenbgpAR0DnT7PTQoDawedJvnqmfTL6JQF/U9dN9slkw2W8VqGe5hgT25JJTuq2Z3Lmv/YORo3NzfUqVNHnL+BktlsF2chJyLvFFdzfEcK1KqH2iO+NhvrrhImYASARSh6sNvsmhLHNccxzOH4eR12DNUDYPAuphc9k1MW5K9eW2b/BerUl3pYhncOjBuNRyeOSD6g6+b9EttNbXD1cWPjOuwZ/T+ZCTIhxZm/MSDb4NmzZyU0wxLN5KB48eIgQyWJrPjn9AB+4DgT5ky5RNv38e6kGWa77PN/zcPhieMkvt+iRQts2LDhDRZNsw3GCk/ETl12wDOUx/Ap+e1FP9uCSNmSMvvur4bi1pYNYL0+ADYhjE5qH0v5vbkcv+F66bFINN4TQExNHhk+XcuUg3ORogh+9hTPzp/Fqxf+woDXZNJvcMzJNoHUB8UYdgz7TAbC5h46clPCLVzy0/GvWLFClv/GgPXknG2ymogxYCYA0wvIjUSmSobMum87JBTg5kLEy5cgKyzL8zg7573u14+RSw0ptQBDYdu3b5fnmn0Qheo3Qu0vvrZIioa3Xeu9/btxcPzXUnIOgAlcCvGalXohuffC3I6f4+Q52epGJRXG/xONlzSfMQ9FGjcD9X0tAYFej3Bq1q8iw8ba+T/++AMUCDEFbO46f/68cLFs2rRJuF4o7BEbXPqza/PDDz8EqZnJ1Gnt1Tvxbcj4+FdffSXsl6yR7rHLuESpKffibduyOefGxrXY/ZVuhcdZP5lZGZvXkDILMN9BokGykGbKmk0q/ir3+dRCO3UTv1ZODtb37AjvSzGTONagao4/iceD3rwYgFJ68YH342///j9bkLu8+sk8ox/j6GhcWrlEWrAJOn52Vxpb7hf/PCxlY4KLlSCxQUfDjl2WjnLGnx5BR8vaeM4OOyxbh3xV314JpoaNXvr7YfMnH0n3OO/HsGHDrJ4MTw07xj4mcx6kMyHNBVHk3RZo8O1PFqGtm5xrj00rA4ARjdfdlck5oJn2SY0Zf/xLY/yfBPecSpHghrGUrPY5coqyl2tJy+rgI0nT0V9+kh4D0ukuWbIEFALXoJwFWLHEctmnT59KUrfP0YspUjpK7shYaPDw+GFs7KvTmeCqizmHlPIwJXc8aX0/huxY3UYeKk528lauhne+n4icJSyPhdNYW7MQ5c72zYY4/58A+hu7b2puZwmOP/b1f6+nfchQsVd/VPl0CBxccqamfd44d1REhNCrnpxJPWQIbzvb9ePL51nUoNPYYDp16iQUDYz/dvj7X+SrXC3Vkn7UY+Aq7+jUH+Ues0afxGnWLoqixiPDZjyuYkmFwcKNEm06Cu+SpXfpvs0Wj04clbLOEG+W7oMqWo5q2E7pY1qa42d/vHAztJ67FO71G6XaC/82Q3O2f+yXn0DWTjbf5Rt56QAAIABJREFUMCTBem8NKbfAF198ISE0OgnG9juv3gJ7lxwpP3AKjsBV3vbhAxDw4J7U2pNCmLoMGkyzAKlHmOMi8lWrKbq6xnTym3YW827NXNDyVg1AdS49LM2nJmgQSxokg9nsdhvCkbb5c7lU9Vgqjk79CecW/iEVJ3/99ZckYq2dM13te0HKA4pxUGSGfDzs4XDxYBoo9XFv7w5sG9IfUZERMvMnayYb87SVXtL3hnX6pN14RS56GxvkKlMenddsTXrHNLLF8pb1hbBND6qyPLb0oVuS42egfBKAGo65cqP5tLnIV7WGxdrP5+plEV6mbiZx+PBhaezSHEHybhlngpztz507Vw5Qqe8AVP1kSKpyNMW+EsruXf9vLQ6MHwNWczDZO3v2bJFpTK8NWMbcaV9fX4npG5hLWZLLZL2j69t1q405tqVss7FfVzw8ehh8RvQklerwhit4wZbk+P8HYBqvrUznbqg2cDiy5M2n4KUqfyhqtFKQgR2eLLtkyEcr9zPdzmzQYkMchTg4K+R9bzlrMXKVKWf6wVTcg2R9FMm+sGS+KCkxXv3bb7+hefPmIIOohrgWIENt586dhUyQ+RqHnK5o8N3PKNqslVWZ6vp/a4RCPuKlUHI8A2BefdhkWNMiHT8514u3Nq0+PhnXnuJdyOC4Y8RA3NuzQ1j6tESv6SZlVzObeSjEQUpjR9dcaDJxOgrUaSCiHJYGn2uXcXLWr3hwYA8iw8JQokQJTJs2DdRO0Gb+r+/W1atXJRTGlTBLcjNnd0b1gcNQoad1NsEtrF0OnBgA4H9SNyllxEtjKY4/s16KTCgv04rj51hZ8XFq9jSEePNDD6xfv97kpi4j7pPVbkIRk2+//Rb//PMPbDNlFv2Gij37KZfQjY7Gy+f+CH3uLyszOmsDqA9BkR8yv1LkxVi1uIfHDuHkzF/x9PxpsMqLzp+VPuRRSm5PhzXdYHZbDxgwIIaYkGLkpTt1RbWBFJ+yTsRy/M8BkF40rniGhV22pTh+Crj8RAEXvojkZPFomnaWg6fmzMC5hXMQFhggsz52JFaunLAOp4Xd/1QdDiUjWRc/b948GQf5muqM+AaupZMf4mH5JWflAY88wTp86pyS/4nJN5bchQa97pLOaO8gDj9rgULIWbykfAQIp9x5kLdSNWR0ckrUPvf27sTpOTPgfeUSoiLCpZOb1T59+pCNPH2CIbtTp07Jh9xARZ6jeClU6NEHpTt1UVVAJ7Ut/neLunhx/x6HwbIl8pElj5TLTBdiKY6/HQBm9fLkr15L9HpzlSWjQ9oACdxI3kYun6jwcOFWZ2NXzpyW1YNgSdZkc9bYsWNjkrkk6CNfS/4appfFRoaFwuvsKfjfuiH86J6H98OHDjkyeYJH5Iwq2vw9iUlTOa5gIlKP9/btwoUlf8LrzAkRbmGcf/LkyTLbTW8xf5KukW3z77//xunTp+VRI/tu2a694P5O41RpwDPn886k/6XlZGYGHzpKc8WQUZpzHMaey1IcP0nbxGoUL+ZyP6Nj4rMtYy/OnNvR0VCom3w+rPU2cPZrS/8374K/v78wM5KPhyDHfq0vxgg1rykggdqjY4fhdfYk2EhDgWvOvpUCOeLZVVqkSXNZhZA3Kj74wbm6+m+hEWfCl1VdFOp57733ULOm+WkmlLp2Y4/D+D1DO0zOM1fz/DkjHZAcHdk2qb9hiuSqsee1tO24yvynY3NZYQK4raejsbRhxozH4hx//W9+RPnu5G5LeyBF665RQyTuy2YVNvnQCWjO//W9fPHiBQYPHoxly5bJP1JUmzN9SeYaqbPKsrlnF8/j8qqleHr+LPzv3FT1YeEHwKVIURR/rwMKN24uYaHYoFrX3d3bcXz6RMkhMNxHrn2KxA8dOlTVsaXmwdmBy/JbSk0aJEY5YSvWqh2qfjrEIujUzWmf2WUKaI7fBIM76DV6hQMhLTt+jp/Of8cXlByG1HqzIYkfAKe3xItNsFWa3pRSlFwJMQFOuBQtgXpjxsGtZh1ksCVlU9J45e8HKmTd3bNdnL45yRDJJJm7XAVRkHN/p0mcwXK2f2/fTgn58c9Enjx5pLGPtf7168ewkCd9kRa+BSuxyKPPjzdFZgyz/LyVq6NUh84oVK8RsuQjQ3H6QizHz2B/dQA+lmoBS5jxUy2c1Txdqa9bb8wPKNXBosNjSd5Lzv4Y9jE4f3L3U0s1Pdf4s7uZSVyqkRHZCxWWss08FaqI7J4xIFsmHevTC2fBD0BqgKsS58IeqDNqbIKi4J6HD+DKmuW4vW2jDM/BwUFUxEjfTT7/QoVSX1QoJXZjeSYT8rdu3QLj+oRdZnth2azSfxCyFy4Ku8ws0kt/WNKoOoKeSNMuhXhJ1vafpVrBEhz/uwDW0BdQiav2iG+SFGO3VGMaxsWa/vv7d2PLwN7yT6RWZpMPaX3TI6cPP3yM/7KKh8iSzw3vzV0Kl2IlRH3JGAj3+Ucd4HP9iq5aJ5WRvVARNPxhsqxW4iIaQU+8JNm8e9Tnkuw3TADI5kpmT1b+pLVJwMaNG/Hrr7+CVOJ0+ga4liqLumPGwblQYTjlseyGS7UfGdK1X1ohqUredH75O6l9zuQe37i3LrlHN26/9/RGkmRQ9cHDYWfP6E/aBitKHhzchy0DesmFkMeHal1UcqKaVnoAQzuM55N7R3haGNMvXR4tZ/6JrPlNE4r/p0MzKdO0GNjYIF+VGkIrnKNYiTeGFRkejud3buHGpvU4++esmN+Ts8bFxUUYXRkCZDjIUkEeqhkzZmDp0qXi8CmKww5ceZ6zZUedkd+iUP2GcMyVx+j8jKVeqxLj4gd/SaNqhkOdAGCx2X2Lcvw1hoywqiYPzkypHbz36y+k2oezW7J5stOzd+/eVt3pyQ/c/PnzhVOflR8EdVXLde0FhvRMwaEJY3Fh2QJD4syUXVXdliGq9+Yuk/6DBFcu0dGICAuF9+WLOP3HdDw4tC9mPJwI8FmglOby5ctFVtNScPToUQnnkGqBtfn8aPMjYECdUd+hdIcPpfLO2KY3S7k2VccRHQ2J8+twkrxjqp4vBQfXHH8KjGfsrs/v38Xx6ZNi4r50EpUqVRIpP3L8WBPoLDiT3bfvtZPj9fXcewpZ8uY1WV6PFVLzKhdTtExTSXuTiqD90rXIWZxCcm9BdDSenDstvP5eZ+gTXsPw0eCzMGvWLNStW1fJISZ5LENJJu+boTontqM3HKDJxBko0aaDVTdiJWmsJDaYXZrknIJTANiUkrxmkpQOJIn9U9vxZwFA8o5ppGuVGf8AcrVZH9jkdeGv+TgxcyoiY82gGDel/mju3LnTJLMnHURoaChIyMWVDLn0Dcjo6IjCjZqh3uhx0gyVHCxv/Y6ETCwZ7/+zWXoR+Awbg8DHD3Fg/Nd4eu40Il69jKkCir0vm/8oSPPxxx+jZEld+Sg/ECwNZp8If/jnxNhgeV8YlqFTZxUOfwwrLx6Lus9z5szBqlWr3hwyz5Mpk1BouBQphkY/TUWOYnFLWI25zvS4zdyKHmBDIYBrACgna0Hxydd3xLgnVb07yHXRREousnW+5tBRKPMB1RetFzc3/4vzS+bD7+Z1ofc1gGVxbm5ukgdIC2RfdCws42Psd8WKFcJVYwBDOfbOLnhn3CQUqJ1IGMSIWxwa8ALkOn/p52vE1qm3CZXiqvYf8laKh8RGd+Wfv3H+r3lS/x8aGABes74J6I1dWBJcvnx5VK1aVUJDZAdNrEooKChIPsZMxNLJk0aEfyY3fkJg2IqcRZS6zJQlC0p1+BCl2ncWcjUNxltgfY+O8Dp1nDuwlJO+TSfVZ2FIbcdfVc9pkTtXmQqo/cVoaeSxdrC9/9i0n6Xyh5wyhsoPOnw6UZb/sQIkRw7LI/njrPH69evi9BcuXBjTfct7lskpC5zy5kPpjl1QqlMX2KfAaTDEw7AISfBoL0uGs0cxtF+8GtSRSDaio3F13SpcXbdSrpcfgpe+PggNeC4NgUqDjp6TLYccrrDNmFE+1JRC9GjWyiqKK5S2l7HHu7xqCfZ/P9qw+XYALYzd15zbpbbjZy3cYV5wibadhKOHD2N6AZN+nO09u3QBL+7djkmg0eGT0rZRo0aS/CtevHiqNoAxTHD79m2Z3bPzlj0JsUv6mOSjUpZbzbqipUCxjZTipZ8P1nVrH1vSLqWHVG1/Os0P1u9UTD+CqykSyt3ZuRVep0/oVgGAfAxIBMi/k2k0sTARt6VjZ3Wcnb29zOTZfMYPs6FnggR07g2aoEiTFrB31mb1Sj0cXJ0uqhuTt9McfyKGjXH85OlmLDg94sHBvbixcR38bt2Az9VLMSZgDJcsn8wB5M+fXwS+K1asKB3BasPPzw+XLl3CkydPpLJjzZo1IjTDeL4BDAnkr14HLh5FJTRAQjOlEPz0Cf7t2QmkQ7B0sDS144r/4JSbyWv1QKf//N5doahgo9BLX2+E+CYcBmMTFfMqVLrKXsgd2d09hEIhrWvcqmddZY7Mj/KCmmW0GX8S5tQcfywDkef99rZNCH72FJ5H9r8R4ihbtqx0gDIXQPBDQC54/jDZlxxwdsl4MLswyY3PWm3i/v372Lx5M65duyaJwdjIXb6SUBc45MyFCj36qiKPGPDwATb0+RABng+Sc1lm3adg1Zp497d5EjbRkL4tEM/x7wbQFoBIc1kSUjPUQ3mlxgB20iDpecYf+4GIjo5C4MOHuLnlX4nxkp7A+/KFBOO87u7uUhbKn/gJYf6ddeKx68s5W+ePoQnHcF7G6y9fviwsi15eXgk+n66ly0ooh+35brXroUBNdUoOgx95wu/CGQR5PsDxxfMR4m/ZiV0ay6NcBXi0aoeshT2Qr9GbDJ6W9MJrY1HXAqEBAVjSuDrCg0WHhXW7ZB5mhY9FITUdPwk9PiQds00GW1Ts3V86ATW8tkD4yxB4X7ogHav8s8+Vi3h47DBCX+iob98GOn57e/s4jp8VHXT8CdVoxz8WQwT5q9UUWmJbe3vkLFEK+avVgq0KPCzUKvU9fQLPr11CyKOH8L98AeEBL+D5+BHC9JQHSV1vav3ePrM9cru6IqOdHRxy50Ge+o3hUqEycqv0YUyt69TOa5wFwoKD8G+PToaQ7X0A3wFYYtze5tsqNR0/A9WjAHzFErIq/Qai6mfWS2Gb0lvKyo4Az/vwvXEVVJkimBN4dumcJIf1Qs8mn4YrAgfXXMhVpjwYwsmaTxdGykxqgaIlhFpBrbgwr8n/0nk83LYBgbdvIvjhgziljA+9HiM0kfJDky9UhR0c7TOh3bs1cf2eD14E6ktzbWyQxb0IXKvUQIFW7eBUIG2TsqlgNqs+JCuyTvw+FWcXzOZ1MiFG0YlBlnbRqen46WFWkIk5S958qDZoOMq8383S7GPR42EFAZOgwc+epKCz1QZstHLMnQdZcueV6g9z4JXPM9xZuQTPL19E4N24DVq1KxdFywblERERjiE/LERA0Ot+B3OMzZhz2NpmwMi+bdC9bX089Q3AqUv3sHjdYYRH6OgpMmTKjOwlSiNXzToo0tm6e1OMsVd62YahWtKFr+vK0L5gOfuULO36U9Pxk9mKhOqOuStURt0vv0O+qhZLbWFp9y1NjyfU1wdnvh+F4Af3EBmqI29zyeaID1pWR61KRZErR1bkz+0sjbDv9Z+Eg6evGxWeMpdRnBwzY0iPFhjUvRlyOut4h54HhuCOpzfW7TyD/3bxsdYhY3Zn5K5VDwVbd0D2EknQOpjrArTzqGqBF5738XezGNZWzfHHszbfgqv8N49mrdFo/BRVqkNUvcPawU22wCs/H5waORhM4hIMNbWoVw6fdmmI3DmzIquTfZxjenr5om6X7+Dj/1ok3eSTKrhDjQpFMbR3KzSuWRbZs+rE2WPD73kw7j/2wZdT1+CJt67+nrN/e9dc8OjSE27NWis4Gu1QlmgBzfG//a7EOP6SbTuBBFDGcp1Y4s3WxpS0BSJCgnGobxeE6kVU8rhmQ59O9dCmUaU3HH7soz31eYEeI2fi0OnrSZ9EpS2cHDKjZ4cGGPNZe2TL4oiMdomLx0RFR8PbNxAHTt3AD7M2xIzIztEJRXv0RcFW7WCbOe4HTqVha4dNBQvEc/xrAZCbXZeYsxCkZqjnteNv977O8WuwagvsatckJrRTpIArfhn1ITwK5YKtEVq7r0LDcfrSbTT9eIJZbUSH36tDA/w4rAsY13+bw48/sMioKJy8cBff/f4fvJ7pKrHYOctZf9FuH8M+JRQPZrWCdjJTLMAelJVtGhnI93YB+EwvwG7KYVTdVnP8qppXOzgtQC6ifd3bSYkmUShfDiyZ3A85nUnOahr4AVi/8wRGTFyGkFdhiIiMRGSkThwkpeAHyM7OFhlsbOCS3QkLJ3yKBjViujCTfXhvv0DMX30A/2w9GTNWl3IVUXboKF3Vj5GsnskegLajWS0Q9NQLG/t1g/+tGzzvRX314lazDiKJk6Wm4y8N4ArHV1Kb8VvSM6HoWChDeXbsl/A5fRz8s6tLFiz46WN4FMyV4vMwlj5/1W5s3HsawSG6/oSw8AiEhkVIdU38jwIdegbO2m1tkTGjLTJnsoOdrW1Mr0Pz+hUxtGcLFC+cz2hJSGMvgrP/RWsPYd4/B/DylY4h08m9CCqO/gFZyW2kOX9jTWnx21EPmrTbt7ZKmC8AwFQA4y1p4Knl+Nm1S1kyUd7WHL8lPRLKjuXFzWs498NovPJ+Jr5tVL+W6N6W+hTK42VoGM5dvY+TF27j2p1HePTED4+e+cuJ6PSzOGaGa45sKFIgN8qVKIiqZYugaKE8yJwpo/KDSeSIf64+gMXrD0uJKkWtnAp7oMrYiXDU90+YbSDaiVSzAGv5r29ci33fjjScYyaAIaqdMBkHTi3HT2KZlgA2sKqjZPsP0HjCr8kYvraLJVsg8tVLnBz1OV5cl4UdqpUrjEU/97HkIZtlbAvWHMRf/x6B/wtdvi/PO01QftgY6ZDWYB0WeHbxPNZ80Epz/PFuZyYAXQEspspP2Q+6o97XFrUSso6nL5WvwmvfLtxYMEtm+85ZHbBr8UgJr2gA5q7chyX/HY1pTis1YBjc21GwSYM1WEBz/AnfRU5thgGYQGrf8h/1Rc2hX1rD/dauIZYFznw3Et4nJJondfqDujVSPHaelg3+x4q9EvYJeRkmMf5K3/yIPHUbpuVL0saut4Dm+BN+FFjOwbhXL3uXHKjcZwAq9xuoPTRWZIEXN67hym+TEXDrupRB7vlrJHJkd7KiK0z5pTAZ/fPczVi9/TQiIiKlvLPenytVIcJL+Wi1I5higXiOfx6Az/XcPaYcRrVtUyvGT4K2bUzwZs3vhuqDvkCpjiTq1GAtFrg+fyY8N62Xuv3WDSvgu0FtQVIzDXEtQJ6fTkNm40VgiHT4FvuoD4p88JFmpjRuAVKpr+3S1sChRU4yRjieWsplpZbjp2IFmbmy5yhWAnVGjUWhetoS11IeCiXGcXHKeDzezW87sGRSP1QsXVAqazS8aYG120/j+5n/yS+yFCqMuvP+1syUxi3ge/0qNvTtKippACjBOALAa3m9VL6+1HoTqUotX79cZcvjnbEThRJYg/VYILbj3zjncxR209SpEru7bECr2nEcIqOikTFbdpToMwAFWrSxnochHV7J87u3sWP4ANHSAHABABXYt1iKKVLd8eerUkPoGrIV1HjLLeWhSOk4Qv18cXnGJHgfPyyH0hx/0hb9a/1hTF24HTYZMiBHpWqoNmFa0jtpW1isBaiJfGTSD7i1bSPHyCau7wFYzE1NdcdfqEFjtJq5EBkymq+JxmKfFisZmP+lc7g+byZe3LiKnC5ZsGxyPxTIm8NKrk6dywgKCUXtD3+SgzuXLoea0+aqcyLtqGaxAJW4Lq9ciqNTf+T5ogH8oHf+Zjl/UidJdcfv3vBdtP7jr6TGqf0+DVnA++RR3Fj4B4Lu3oZbHhcs+Km3/F9D4hYgo2fFtmM1x28lDwkrth7s343NA0jMKaDj191gC4Dm+C3gJljbEJ5fuYRr837Di2uXkSGDDf6bPUSL8SdxkzXHb21vAeB5aB829o8R39IcP4CY5K4247e+Bz7sub/E+J8dPSgXp8X4k77HmuNP2kZpbQvN8b95xzTHn9aeYhPHG7uqZ8Mfn4P8+xoStwDZRKt0GKeFeqzoIdEcv+b4rehxNu5SLk79UVfHHx2N2WM/Qp0qxYwSXDHu6Na31c7DVzB84kqhbiBXf40ps6zvItPZFcVz/MzyfqdP9Ka6JbQYf6rfAuscwO3li3B/3SqEBwWiZJG8wsoZX083Na48KioaDKvY2ZIZ3DIQFRWF6u//KFoClGd079hFOng1pG0LxHP8lBj8FoBFiEdrjj9tP1sWO/pXPs9wYdI4+F88J2NcNqU/KpYqaNbxPvUJwAMvX3GoBoSGRSI8IkK4+WODgiy5c2ZDwbwuosJlTlCbd9C4ZXJKp4LuqDtnqUg0akjbFvA8cgCbPvkI0ZGRvJBFAL4G4GUJV6U5fku4C1Y6hiuzfsHjHVuEr6dmRQ/M+b6Hqk6VilvX7z7Bwyf+InF44sJd7DxyJYb6+G1mdnTIhKplCqNx7VLCKURCucpl3FWnkb7z0BsfjZiPwOBX0stSqE0nlPzEojQ7rPTpVP+yHp84iq1D+iJUJzn6r75795r6Z076DJrjT9pG2hbJtAAbuJjkDfa8L0cY2bcFeravk8yjJbwbnf2t+89w7c4TITrbd+I6Llz3RFi4zLKSDeoCd2haRT4ApYvmR+mi+ZJ9rMR2pLMnO+fWAxcRERklKlx15i4FNSo0pH0LPDl3GjtHDELgI09eDNvYR+n/n+oXpzn+VL8F1j2Ae2uW4/bKvxARFCQX+tUnrdC9Ta0UXTSbYx4/e4EjZ2+B7JaXbjzC2av3dbz28VC5SmV4eBTFnwv+jPlN5cqV0br1ezF/DwsNxc2bN3Hq1CkEBcYNwVI4pmrZwqhazh0eBXKhTuVi4OogpWCn7opNx7Bw7SHwz0zqlv38SxRo2Talh9b2txAL+Fy9JPKLzy6Tqgd39URt6yxheJrjt4S7YMVjiAgJkVm/94nDEut0csiEPp3qo/8HDUwSZaE+rd+LIOw4dBkPvPzA+P3JS3fxPCAkjvWcsmRB02ZNUapUadja2qJc+XLInj07SpYqFbNd//79MW8eKdJ1CAsLw907d3D+3HkEBwfD2/sZVi5fgYAAUqzoQIlQ9/w5RT6yVNF8eKd6CeR1zZ6sO/fMNwBrtp/Gik3H8TxQN/5Snw2Fe/sPknU8bSfLtMCL+3dxZMqPuKtjqeWNHg7AIrg4NMdvmc+MVY0q4MY1XJg8DsEPH8h1ccbcqkEFVCvnjhb1y4tQS0JgtcuZKw+w++gViYEHBofi/DVP+D7XrR4McHBwQOMmTVCjZk04uzijQsWKcHNzQ4YMuuN6enqiUKHXJIDxHX/8c9PhHz54CC8CXuDQgYPYtnVrnE1y5ciKMsXywy23M9o2roRSHvkSvYb4xz585hY27j2HQ6dvSWiKKNl/MAp3ohKpBmuyQIivN87Mm4kLS2JWm+Tkn24J16g5fku4C+lgDP6XzuPOyiXwOXVMrpbOPp9rdhQtlDvRmT9DOk98XuDuQ584lTnc387ODlWqVkHb9u2RL18+FC5SRJw9/z0+THX8hv2jIiPxwNMTN2/cwNUrV/D30mXw9fWNOXxGO1uUKJIXrs5ZUDBfDrR/t7KUrsYHr+PqHS9s2H0Ox8/fwX0vX4TrcxClBg5DgebvwTazJrRuba9B+MsQXF6xFEemkK1BoDl+Ax+/RtlgbY974tcT8vgh/K9cxCUdY6HJ4Ay+RIkS6N23Dzw8PODi4oL8bm7InPntydDkOn7DAOm4AwMCcP/+fVy+dBnL/16GK5evxBm/g30muOVxTrRXISDoFR4/e46Xr3R5CBs7O5QdMhJ5G76rOX2Tn4S0sUN0VBRubFyH3V8N1Ry/3gIaZUPaeHYVH2VUeJhU+ficOYFbSxYgKiz0reegs2/Trh169e4FRycn2NvbI1euXEk6+9gHTanjj32sV69ewdfHB2PGjMH2rVvh5OhkUq6Cx8pTryEKte0E51LlkCFTyhPFit8k7YCKWeDmpvXYOXKw5vg1x6/YM5V2DxQdjcjwMEQEBwlTeURQIF4+fYLLq5bg7p4dCA8Px8xZs9C6VStkypQJDo6OcHIy3cEaDKSk4zccc8CAAZIgZtK36c/T8PzUcficPArO8hKEjQ1y166PIp27i7yirYOjiK5osG4LaI4/7v3VZvzW/bybfnXR0Tg8aRzO/zVf9j148CDq1atn+nHi7cEwzbFjx1Cnzuv+gaSSu8aclI5/zpw5smnntdvgWrI0oqOotxEtzp+dy4RtJntkcnZmcAc2GfhjK6WbGtKHBTTHrzn+9PGkp+AqD0+k49eVWR46dAh169ZNwdF0u0ZGRmLNmjXo0qWL/J2lncOGDcPYsSnTxIjt+D9Ytx2upculeKzaAazPAprj1xy/9T3VCl4RKyCoUXp51VJFHX9ERAQmT56Mr78mTQr+395ZQEd1fGH8ixEhaNDg7u7uRYvDvwWKFYpTpGhxd3eXokWLa3F3d3fXJEDkf77J2zQEApHN7tvde8/JKU32vZn5zdtvZ+/cuRfJkiVD7969wVV/ZEyEPzL0bOdaEX4Rftt52iMw0hfXr+DgyEG4vXuHCsncs2cPChUqFIE7fX4JD2e1bNkSc+cyRxaQJUsW9UFQqVKlSN07uPDXWrYeCbPlFBdOpIha58VfEX5m6aRP0KxmLmej+PjNOu36a/zRyWM4OHowHh4/ouLy169fj9y5c0e6ox8+fECVKlWwfft2da/8+fNj0qRJyJcvX6TuHVz4y46YiDQVqsDBSSJ0IgXVCi8OIfzdAYwB8MncQxXhN/cMSPuKQHDhT5o0KdauXWsU4WexJygyAAAgAElEQVT4Zd68eXH+/HnVTqlSpTB79mykSpUqUuS5TzB58mQVgZS7eVvkadEOTtHdI3VPudj6CIQQfp7kGgng86PnZhi2CL8ZoEuTXxKIKuH39vZWJ3pfvnypGuXqf/HixYgRI0akpmHMmDEYNmwYnj59itRlK6LkwJFwiR0nUveUi62PwNUNa1SGTs3GAhgC4Jm5R2p+4S9RBpWmzoOdncQ0m/thMGf7TGGrXD3HDsPT0xPr1q0zyorfy8tLnQEwWM2aNVWUD+PvI2MrV65Uh7iuXLmCBFlzoNLU+XCLFz8yt5RrrZDAtU3rsL1bO/h/Ut6dKQAG8guuuYcauac/4r0P8vEnLVQM5cdNh3PMiGU6jHgX5Eo9EXh+9ZLa3L2z91+4u7srn3yBAgUi3cWQwl+rVi0l/JG1/fv3o0OHDiqVc4zESVBz6T+InuDLPD2RbUeut2wCN3dswc6eHQ3FWOYB6AcgsECFGc3swp8oZx6UGjwGcVKnNSMGadrcBFilaP+IAbi0cqnqirHi+KNK+M+dOwdu8LKf0dxj4Kd1O+GeyNPcGKV9nRG4tWs7/u3VGd7PlXdnmVZ396q5u2l24Y+fJTtK9B2KBAyHE7NZAjztypO7hhS2ehf+W7duoVmzZtixY4eqj9tg60HE8Exis/MnA/86gTv7dmF33654++A+X8D83ozsUZVZzGnmEn4PAKcBJOFKv1CXXkhZspw5OUjbOiCgUjbMM+7J3aha8b948QINGzbEhg0bFLlfdhxGDM+kOqAoXdATgXsH92JXv254c0d5dw5rxVgOmLuP5hJ+hj9sBZCXX4/ztu6IzHXqmZuFtG9mAsGFf82aNahcufJX8+uHp5tRJfws1tKgQQO1CS3CH54Zsa3XPjh6EHsG/okXVy9z4FzpM0fzLnNTMJfwcyeXztwKjITI/Vs7ZP/lV3OzkPbNTODYlLE4MWsyfL291cYpUyvEjRs3Ur0S4Y8UPrk4kgQenTyKvYP74Glg3d17AFoCCPyaaEYzl/Azvm4ogHYusWIjR+PfkKdlULECM+KQps1J4Pau7Tg4ZiheXL2k0jGfPn0aGYPVyo1I30T4I0JNrjEWgWeXLuDgqEG4u383b/kYQAsAa411/4jex1zCz5JJXOJPdnJzQ9Z6jVGoc2ASLTHbJrCjRwdcXvO3gnDhwgVkypQpUkB4gCtDhgyq7i6NB7iWLFmiQkYjY+LqiQw927n2+ZVLODRmiMpBBYDl15oAWGxuAuYSficAzJO7wN7RCZnr/IziffgFQMzWCez8sxMur14O5tFnagX60bn6j6gxV0/58uWxe7dacaFEiRKYNWsW0qaNXPjwnTt38OuvvwbmALKzwy/bD8nmbkQnyYqve/vgHo5OGoNLqxnJqawRdc/cQzaX8LMidlUAK1mFKGP1OiqWX0wIMJzzxMxJ8Hr2FLFjx1YnY1lqMaLG7JyMt58zZ466Ra5cucB0CyVLlozoLdV1Z8+eRevWrVUcv3Os2Pjfmu1wT5Q4UveUi62PwLtHD3B0ylhc/DtokW/Twu/AfFkAtnGqM1SrjTLDmK1UzNYJ+Pp4Y3P75uoEL+3IkSMqyVpEUyxwZV6hQgVcvHhR3Y+ZP5lqoW3boDqoEUK+c+dOdO7cGadOnULcdBlRdfYSuMXngXQxIfAfgY9v3+DkrCk4PmOi4Zc2Lfz8ppEHwFERfnmbhCSwu38PXF6zHL4+PihXrhw2btwYobBOJmbr0aMHpk+f/lkTdevWVZk148WLF2H4Y8eOxdChQ1WStlRlK6DUwFGSpC3CNK33wk/v3+HUnGlq1a+ZTQs/GWQEoJZhsuK33gc/IiN7cu4UdnTvgJfXA0+2M0Vz1ar0DIbd3r59q1w6/foxNQpUrnzn2HHg9fQxUqZMqX7/yy+/wD6CBc/p5mHNXe5FFO05AJnr1Ieji0vYOyivtAkC/n5+OLtwtjqVLsIfSECE3yYe/YgNct/Qvrjw92L4enuB+fnp8qGbJiz28OFDzJs3D3369AFLLzq5RUfWnxvCztEJJ6ZPULegj3/48OGqMEt4jf59unm2bVOeStRcug4Js+eKsDsqvO3L6y2LwNlFc7F3UC8Rfo2ACL9lPb8m7e2r2zexsVUjvLp5Q1Wq4wbt6NGj4erq+s1+cLN16dKlajOXoZz2jo7I374rcv3aCm/u3cH+4QNwa+cWdQ+6keiuYaWvsO4h0Kc/ZMgQ5X56//49YqdKjUqT5yF2qjQm5SONWQ4BEf7P50qE33KeXbP09OrGtdjdpys+vn8HJycntSHbtGlTZM2a9Yv+UOTnz5+PhQsX4vjx42AYJ61I977IVr+p+gBgIrjHZ06q9M8PTxxRfy9dujRatGihQj5jxQo9NTh9+SwHySIu/HBhZS+HaNFQsHNPZK5VD07Bcv6bBZY0qlsCIvwi/Lp9OPXasctrV4Cx/QF+fnB2dkbhwoWRJ08esKBKunTpwKgdCjIPe+3duxcPHjxQQ2GYcMkBI5ChWh0l+gZj1ND9Q/tVlAWrftHSp0+P7NmzqzQRrAHAYu80P/pnz55V5wnu3buHkydP4vbtwFTqTq5uyFq/sTp17uYR8XBTvXKXfhmPgAh/KMKfvkoNlB467rM3qPGwy50smYC/ny9ubt+MLR140j3QWFGLYh0nThzwBO3169eDSivy7x4ZMiHPb+2QpsKP6gMgpFH8n108j+PTJuD2HnWiUlnOnDlV9S+WakydOrX6IOFK/8yZM0HfIPg6+vMz1f4ZqUqXh6tHxCODLHlepO9hJyDCH4rwpyhZFiX6DpMDMGF/lmzqlVztPzh6CDt7dcbb+4GpF75mDvxG0KU3kuQvhNip08Le4b+VfsjX857MkX5yzhRcXb8GH9+9DXqJi4uL+nB5/vz5Z5fFSpFKbRInL1Za5d53dPn2foNNTZIMNlQCIvyfo0mvpSl15gqqcNc+SJwn/BEW8rzZBoGAAH+8vX8P7x8/xKl5M3Bnz7/w+/hBia9nvoLI+lNDJfbuCRPD8TsbwMGJ+bx6Ce+Xz3Fsyjjc3L5JnR0Ibvww4cIk96+t4RLXA65xPZSbR0wIhJWACP/npJID+AdAjpjJUiB/+y6gy0dMCHyLADdoP3m9h9+HDwhAAOxgpzZZHd3cvrnC/x5VbiD7+fjg/dMnOL90Aa5v3YhivQYiaYEioPg7RXcPc+TP99qSv9sWARH+z+ebO2KjWbyIftK8Ldojm+Tkt613hC5HG6CifwL8A1RJxbCGeepyKNIpXRAQ4f98GpgXtzWA4SxWnatZa+Rp0V4XEyWdEAJCQAgYi4AI/+ckuTP2C4DpDk5OyNGkJQp2ZB1iMSEgBISA9RAQ4f98LplkvRqA5fx19obNULRHUD4L65l1GYkQEAI2TUCE//PpZ4A1k6KrQGoRfpt+b8jghYDVEhDh/3JqCwPYL8Jvtc+8DEwI2DwBEX4Rfpt/EwgAIWBrBET4Rfht7ZmX8QoBmycgwi/Cb/NvAgEgBGyNgAj/N4Q/c+16KoUuT0iKCQEhIASshYAI/zeEP0WJMijcpRfipGEKHzEhIASEgHUQEOH/ch5zAlgNIGXcdBlRsFMPpCxZ1jpmW0YhBISAEAAgwv/lY5ASAMvPV3dPlBgFOnRThTPEhIAQEALWQkCE/8uZ9ADwB4DuzjFjIf/vXZGtXmNrmW8ZhxAQAkJAVvxfeQa4k9scwBhWSmJqZknUJu8UISAErImArPi/nE0nAHUB/MU/5W/3B/K27mhNcy5jEQJCwMYJiPB//QGoAmCdCL+Nvztk+ELASgmI8IvwW+mjLcMSAkIgNAIi/CL88u4QAkLAxgiI8Ivw29gjL8MVAkJAhP87wp+7eVvka9sJDtGc5WkRAkJACFgFARH+7wh/uio11CGumEmSWcWEyyCEgBAQAiL8X38GSgNYCiB+gmw5UfiPXvDMX0ieFiEgBISAVRAQ4f/6NGYDMA5AafdEnijSvR/SlK9sFRMugxACQkAIiPB//RlICqAPT/AybUPRngOQoVpteVqEgBAQAlZBQIT/69MYBwCP6/a2c3BAsV6DkPWnhlYx4TIIISAEhIAI/9efARcAvwEYzz9T+LPVbyJPixAQAkLAKgiI8H99Gu0ANAIwV4TfKp5zGYQQEALBCIjwh/440LczX4Rf3i9CQAhYGwERfhF+a3umZTxCQAh8h4AIvwi/vEmEgBCwMQIhhJ+VppR3w5xG/7oeLMjVU7RHf2Rr0BQszCImBISAELB0AiGEvz2AGQA+mHNcuhP+HA2bI3eLdnCNy6qMYkJACAgByyYgwh/6/P0EYA4A12RFS6q0DR4ZMln2bEvvhYAQEAJAyJq7suIP9lSU0OL4c8ROmRol+g5DkoJF5KERAkJACFg8AVnxhz6FGQEMBlDTLV58lBo0GilKlLH4CZcBCAEhIARE+EN/BhIzZQOAVo6ubig7fDxSl6skT4wQEAJCwOIJiPCHPoWxAXQD0J3RPOVGTkLaStUsfsJlAEJACAgBEf7QnwEnAJ0ADONLyo2ajHSVq8sTIwSEgBCweAIhhJ8L3MkA3ptzYHoJ5ySDDgDGivCb83GQtoWAEDA2gRDCT5f2BABvjN1OeO4nwh8eWvJaISAEhEA4CYjwfxuYrPjD+UDJy4WAENA/ARF+EX79P6XSQyEgBIxKQIRfhN+oD5TcTAgIAf0TuLBiMfYN7g1fHx92tp92WPWVOXuuSx9/wY49kLVeY0RzdzcnG2lbCAgBIRBpAhdXLMbewX3g6+PNe43Ufp5G+saRuIGehJ85LBjVY5+5Tj3kbd0J7ol4rktMCAgBIWC5BET4vz13PwMYDSBxkvyFUKzXYMRNl8FyZ1t6LgSEgBAAcHHFEuwd0hu+3rLi/9oDURbACAC5YiVPibIjJiJhjtzy4AgBISAELJrApTV/Y9+Q3vj49i3HQa/GcACPzTkoPbl6sgMYCqASE7WVHzcdifMUMCcbaVsICAEhEGkCV9atwr6hfeHz8gXvNRPAAAD3In3jSNxAT8KfXMvQ2cDJzQ2VJs+T1MyRmFi5VAgIAX0QEOH/9jzEAzAIQAs7ewdUmbEQyYowTb+YEBACQsByCVzbuBb7hvWD19MnHMRcLaTzjjlHpKcVf3QAAwF0JJAfZy4Cq3GJCQEhIAQsmcCNrRuxf1g/vH14n8NYAaAHgGvmHJOehN9B8331FOE35yMhbQsBIWBMAiGEfz2ALgAuGbON8N5LT8LPvvcH0EeEP7zTKK8XAkJArwRu/bsN+4f3x+vbN9nFrVoK+vPm7K8IvznpS9tCQAhYPYHbe3bgwPABeHlDeXcOA2gN4IQ5By7Cb0760rYQEAJWTyCE8B8H0BLAMXMOXITfnPSlbSEgBKyewKOTR3Fw1GA8PHGUY70LoAGAPeYcuAi/OelL20JACFg9gcenT+Dg6MF4cPQQx/oQQD0Au8w5cBF+c9KXtoWAELB6Ai+vX8GhscNwc8cWjpXpmOsA2G7OgetW+KtMX4jkxUoBdnrrojmnS9oWAkLA0ggwmufQuOG4vnmdoes/AmBYp9lMb6oaFM5ZtOcAZKr1M5i+QUwICAEhYKkE3j16gMPjR+Dymr9F+EOZRAo/q9Db5WjUHLl/awfXuB6WOt/SbyEgBIQAPrx+hSMTR4ElGDWTFX+I54JHmfsCcM5Yoy4KdOyO6PETyqMjBISAELBYAr4ffHB00hicnDVZhD+UWWyi5etJkrRwcZTsPxwxkzJpp5gQEAJCwHIJHJsyVq36ZcX/9TmsoaVmzuSRPhN+GDsNcVKntdzZlp4LASEgBHhaS4T/m89BOQDDAOSm4FeYMAtx0qSTB0cICAEhYNEERPi/PX0FtfKLxWImS4FKU+Yiblqpu2vRT7x0XggIgZAr/qkATmox/Q8A8EdlcDOV6S2cM5NWcL1i9ISJUGXGInikz2gqFtKOEBACQiBKCIRY8b8E4AXgPQDWY+RP8Bq8bwDs1tI6PI+KDplD+J0AUOAZrsOfOMEG5g6gFoA8rvHioeqsJfDIkDkqxi33FAJCQAiYjEAI4f9eux8A3AJwW/uAuApgIQCmcvb/3sVh+XtUCj8Lq7BaOoWchdSjaR2yBxATgAsA12C/N/SXf3ONFiMmqs//G/EyZQ3LOOQ1QkAICAHdEggu/KUKZkHsmNHx5Nlr3Lz3BA+e8AvAN+2t5gp6DWCf5hWJ1DcBYwt/CgCtAJQHwJU9V/A8gcWyiuFqy9HNDTUWrkb8zCL833sq5O9CQAjom0Bw4Z8ztCVKFsiMT5/88OHjJ3z85BvU+TfvvLFm+zGs3X4Utx88+9qg+CHAGo50B9XVvhWEe/DhEuNQ7s4VOvNLtwfgCCCGtpIP9d729vZIntgDyRJ7IL5HrKDbPn/5Bueu3MXzV+/g6OqGGn+tQvzM2cI9KLlACAgBIaAnAsGFf+WkTqhYPOdXu+fvHwAvnw/w8v4AXz9/XLv9COPnb8L2g+fwKdgHBIAAAKzezg+CUgDuhWe8kRF+ZwBMN0d3DgWfP5+Zk6MDKhTPieZ1SyN/9rRwcqL3J9Ds7exgx59gV7x4/R7dRy3Gso0HYWdvj1rL1iNB1hzhGY+8VggIASGgOwLBhX/hyDaoXjYfHBzo9f62BQQE4JOvH/z8/XHgxBV0HLJAfRiEMG8ALPBSBsDH792Tfw+v8NNPT9/8EQBBcZYUcEcHezg6OCB7xuTo1aoG6Mfiyj489urNe3QZ/hcWrduvLqu9fCMSZBPhDw9Dea0QEAL6IxBc+GcMbI66lQohmtMXa+Uwdfy99wdUbTECpy7dhs+HT+CHg2ZPAYzRfr75ARBW4efqPjYAxp9W0fz3sLe3g0fsGPBMEAdt6v+ABtWKhanjob1IhD9S+ORiISAEdErg2NRxgSkbAgIwomt9NKlZEtHdKKsRN19fPxSv3w/3Hr3As5f0+AQZ04B21FxBn77WQliEPzGAigD+BJDacJM0yRMiYbxYmNi7MTKlSRrx3ge7UoTfKBjlJkJACOiMwOkFM3Fk/Eh88nqPni2ro02D8ogTkzEvkTOu9i9cu4f6nSfh0bNX4OawZiztOBjAXgBBvzT88VvCz+8hqQAMBVAdgHLQp02eCIkSxMLMgb8hRZL4ket1iKtF+I2KU24mBISATghcWLEEh8cPh/ezp2het4wSfy6cjWXPX73FlMXbsHLLYVy5yeqOys4AGKIVfeFhsSALTfjpx8+j5cZnaKb6WsIN2o6NKyn/vUM4/fdhGaAIf1goyWuEgBCwNALXNq5V5Rff3LujAl7GdP8FKZMad+Hs7++P/SeuoOuIRTh9iWe/lJ3WdHwbAJ9vrfgp+sU11w7/i+wZU6Bkvkzo2KSyUT+lQk6eCL+lPc7SXyEgBMJC4Nau7Tg0ZiheXL2ELOmSYv7w1sic1jgu8pDt7zt+CT1GL8WJ8ze4pUDbCaATgLOGk78hV/x07+TXvh6U4BU8aNChcSUUy5MRri6Gw7dhGWr4XyPCH35mcoUQEAL6J/Do5DEcHD0YD48fUad2103vijxZ6EmPGtt99CJ6j12GY+duGBpYAKCrISdQSOFPD2CctpmL0oWyon/7OsidOaWKuY9qE+GPasJyfyEgBMxB4NWtGzgwciBu7dyqtHTngt4okCNqa43sPHQevcYuw6mLTPujbIRW6OpdcDX3BMDaYNzIVX78gR3qIlcm04g+2xThN8cjKW0KASEQ1QR8Xr/CgWH9cWnNctUUhb9gzqitNcJTwH/9sxdDpq3BncD0D0zzwAO3lw3C76bFfQ7koS5+BRnU8X8oni+TSVb6BuhM1dBlxF9Yuv6A+pUc4Irqx1HuLwSEgCkI+Pv5Yf/QvkEF100h/BzXi1fv0KLPLGzacwrc/AWwGUA1g/BztX8MQOK4sdzRtkF5dGxSCc7RmGfNdHbv8Qt0G7EIq7cdhb2DI2ouXYcEWZnYU0wICAEhYNkE9g3tizMLZplsxW+gxQif5n/OwLmrd/krbvd6UPi5Y7sKQGX+tkyhrGD2uPhxmXvNtHbi/E30HLMUe45ehKOLK2osYnZOSdJm2lmQ1oSAEIgKAuYSfh7yqt56NHYcPAu6fwBMp/AzJz7zPDtlSpMEU/s3Q/7saaJi3N+954ZdJ9Bn/N+4eP2+ZOf8Li15gRAQApZEwFzCT0Z7j11Csz+n4+5Dlcbfm8L/uxbJg6J5MmDz7B7hTq5mLPjTl27HwCmrlF/KJU5cVJ2zDPEySgUuY/GV+wgBIWA+AuYUfj8/fxSs0wvnrwVmb6bwM4ubE107/drVRpNaJc1GZuDkVRg6fY1qX0ovmm0apGEhIASigEBUCT9F/f7j53jzzgdZ0icLNeVyvlo9cf7qf8KvnD48TXZ0JdM6fN0MqT+jMp4/uPC7eyZBlWkLEDedFFuPgmdQbikEhICJCQQX/tVTOqNsoWxhysn/rW76BwTg4MkrKNd4MGK5u6FpnVL4s1UNuIU4bMvCLsXq9VNudMOKP0j4j6wY/NXwTV5099EL+Pr6IoVnfLhHZ1YH41tw4Y+VPCUqTp6LuGl5pkxMCAgBIWDZBPYP64fTjOoJCMCMQc1Rp0LBSEdOcrX/9+ZDaNZzOvgh4OIcDQ2qFkXnppURJ5Y7YkR3wdv3Pug1bhkWr9uvKnsBeERXjx8LYqVJlhCrJndGupSJPqPLPM+rthzGqDkbcO/Rc0zp+ysaVC+mCq8Y24ILv0eGzCg/dipip4ra023GHoPcTwgIASHwNQKHxw3HqbnT4PfxI4Z0/gnN65SJdE5+tvP0xRvUbjdWndBltS5a3NjuaFqrJCqWyIXNe05h7spdhpz9DOavQOFn3uZirAbzQ9HsGNuzIZIkjKs2WK/efoQ1249iyfr9ePKch76A3m1q4Y9fq4BlFY1p3h8+YsCklaq+JC1RrnwoM2wcuPIXEwJCQAhYOoGTs6fixIyJ+PDmNdo3rIjuv1VVeXuMYYzW6TZqscrKefMuS/GGakEHuLIAOMWauXFiRUeNcvlRLG9G5Qtavukgbt1jNS8oF1C5Itkwe0hLeMR2N0Zfg+7B/YMDJ6+g97jlOHTqqvp9+qq1UKhzT0RP8Pk3EKM2LDcTAkJACJiIwIXlf+HolLF4//gRCudKj4bVi6PGD/mVO8YY9s7LB1v2ncbKLUdw+cYDXLn1EHQFafZKW+Q3BvCSK34ez50IoEVojafwjIfCuTNgwO911LcBYxlX+acv3lafUrsOX8DaHTw8HGh5W3dEjkbN4RzTeMUKjNVvuY8QEAJCILwErm/ZoIqxvLp5XV3KbMfMkEA3+89VioT3dqG+3svnA/49dB7DZ/6DY2eDsnMyD1s/ACppjyFlA4/pMqTnfwDiGe6YNkUilMifCUVyZ1BuIKZzMIb5fPyEvzcdUp9IrBx/+NRVtTER3Ir3GYKM1evC0ZXny8SEgBAQApZN4OGJozgwvD8enzn52UBYgpG1TupWLIjknkHyG6nB0ovy59hlGDdvo+E+jNPfbfif4Nk5WUydyfp7848l8mdWBdQL5UqnCqoby1ZsOYx9xy5h3c7jePiU3z6CzKD8qk8Vxs9EqjLlYedg3L0EY41D7iMEhIAQCA+BN3fvYM+AHrizb5fhMnWGigtwR0cHVCuTB8XyZkLzuqUjnRyTLnpG8qzaeoRt0d9TSnP1qLZDJtln8RXVq9b1ymFQx5/g4mycRG3ePh/QbeQS7DpyAdduPwrO6wWAtdqnUQ1mjuMff5y5CMmKmu8wWXgmVF4rBISAEPgeAd8PPvi3Zydc3Ui5U8bCKHEAdGNkJfdRE3rEQs3y+VG5ZC6UKsDt14jZwjV70Xv8MkNQDtMdNwdwwXC3kMJfCADDamJx82Fgh/+pFX9kbf7qPdi464RKDer732YDfU0jAfB7z2UAdwD0B9BHhD+yxOV6ISAE9EhgR/ffcXntCkPXMjEaE0BhALMBqCK8zIqcNkVClMyfGfV+LIpcmcMX2fj6rReGzVgbFCEJoA2AuczRE5rwswjkAABNuPEw8Pe6aF3/hwjzO3PpDiYs2KRW+Y+evTJkhqNLZz6AKZrgB8aJBpoIf4Rpy4VCQAjoncBXhP+S1meWvC0KYLRhDNFdnZXPn7V56YEpkDMdvxZ8c4iM4lm59Qi6j1ysNJcRPADqaXn4g64NeRc61LnBu4ivaFyzBHq1rgnPBPw2EnZjtZfRc9Zjy74zePzsNT58/GS4mL6mXAAeap90IW8qwh92zPJKISAELIzAN4SfI2H0DPWRK3TqsDKesUrgERPubi4oWzgrfm9USWlyyPQ5FPrJf21VVbeou5r1BDABwPvgqL728UHHOr8WpHR1joYR3eqjUY3icAzDJisTAA2fuVaFZvKYcDDBZ5us5TtWc+mENl0i/Bb2IEt3hYAQCDuB7wg/b8SUCIymYSGS7oY6KYYWuOcaI7orHOy/zJzg5+8PxvJ7+3DPWNl0zYvChfZn9jXh5x25ETCNr6TgN6tbCl2bVUWi+Az8+dzevPPGjGXbMWbuBrz3/gg/Pz+DS8fwwuMAGmluHd/vIBLhD/szJK8UAkLAwgiEQfgNI6I2OwJIpRVIrwUgPCGOLPXVwxC3Hxbh52v4icMdZ37isPEg41cM5um5E5jQ/2vGZBH07ZwD0AHA/jDODQP2WfO3M18vUT1hpCYvEwJCwGIIhBB+Fhu5GI7OlwEwiMmUtW8G/HAw/NCNzv1Tng7jAppVFUO1b+0U8FAXhZ8nenl89lufNhT7twDeATgKYKj233CMCTwSzEG1gp1doPAXYXSpmBAQAkLAOgiEEH4K3D4tzj4iA2SiH+atp5fmZmir+6/d+NtbxIFXMLa+JfOmAXDTavQaCrgYNgwYiz8HwFJttR+RQSQBMJhuISe36Kg0ZS6SFDDeMeaIdEiuEQJCQAgYk8DOnh1xec3f0Oqb1AHAylPfc4EbswvqXmER/uCNZgCQTNs39N8AACAASURBVFv9PwBw1og94icX00bUcIsXH+XHTUfiPAWMeHu5lRAQAkLAvASYk//80oXgYS6ek9UWzCpJviktvMIflX1jNNFwAPljJkuBciMnIWGO3FHZntxbCAgBIWBSAkcnj8WZBTNVambNtc3FbtDBKlN1Rk/C/7N2eCFxwhx5UKLfMCm0bqqnQNoRAkLAJATOLJytcvJ7PVPp7uka/03bHzVJ+4ZG9CT8bQGMYdKiTLV+Qr62neGeyNOkMKQxISAEhEBUEriyfjWOjB+BN/eYoQbMQ8/UCDxda1LTk/Az9JMHvFC4ax9k+d8vcHLjXrKYEBACQsA6CDw4egh7B/fG88sqXxpzKjAZmsqRb0rTpfCXHT4B6X6sGenUpKYEKW0JASEgBL5H4PWdW9jRowMenWDUu7KEAL5ZK/F794zI33Up/OVGTUa6ytUjMh65RggIASGgWwKM5tnc9tfgOflF+A2uHhF+3T630jEhIAQiSWBDq0a4vWu7rPg1AkE+fhH+SD5ZcrkQEAK6JSDC//nUiPDr9lGVjgkBIWAsAiL8/5F01pKzMWUDZMVvrEdM7iMEhIDeCIjw/zcjzPfMhHCsPSnCr7cnVfojBISA0QiI8P+HkiUfWWu3ORO0lRk2HqnLVTQaaLmREBACQkAvBET4/5uJnACGASgfPUFClBw4CimKl9bLPEk/hIAQEAJGIxBC+Jme4IsKWUZrLJQb6SWOnyrPupBZ4qZNj+J9hsAzX6GoHrvcXwgIASFgcgIhhJ+ZKE+auhN6EX7mpZ7Nyl8pSpZFoU49ETcdM0CLCQEhIASsi8Cmdr/i1o4thpz89Glv0apnmWygehH+hgDmc9Q5m7ZE7uZt4RI7jskgSENCQAgIAVMR2NmjA65uWAu/T6ooOuuRL7R54S/aoz+yNWgKu69UkTfVxEg7QkAICIGoIrC7fw9cXrMcvj6qGEsnAOMjUX4xQt3U3Yq/WK9ByFa/SYQGIxcJASEgBPRO4OCowTi/dAE+vmeJclWfvJcIvwi/3p9b6Z8QEAKRIHBi5iScmjMNPq9UGv4lABqI8IvwR+KRkkuFgBDQO4FLq5bh8PgReP/kEbt6guVmAfiZst96cfVwg2MeBy6uHlNOv7QlBISAqQlc37oRB4b3x9sH99j0fQApAfiash96EH7m6WHdScbxi/CbcvalLSEgBExO4MGxQ9jVuwte3brBtj8BYKlBmxN+5ulhZs6+9g4OSviz/MToTjEhIASEgPUReHPvLja3a4pnl1T5RZqTLQo/K9AwOVvHaDFioGjPAchYva71zbaMSAgIASEAqE3ddc3r4em5MzYt/DyiOxLAj27xEqBoj35IW6maPCBCQAgIAaslsKpeNTw6ecymhb+wtrGbLnaqtCjSrQ9SlChjtRMuAxMCQkAIiPADVQCs46PAPD0FO/aAR/qM8mQIASEgBKyWgAh/MOHP3qAp8rX7A84xY1nthMvAhIAQEAIi/MGEP3+7P5C3dUd5KoSAEBACVk1AhF+E36ofcBmcEBACXxIQ4Rfhl/eFEBACNkZAhF+E38YeeRmuEBACti78TBnxI4C1fBTExy9vCCEgBGyBgK0LP48qs+ziIhF+W3jcZYxCQAiQgK0LP5MTNQUwkRW3uOLP0/J3eTKEgBAQAlZNwNaFnwnaqPT9nFzdkP/3rsjRqLlVT7gMTggIASEQQvhdmcLHlFTMnZbZE8AAAL+6xYuPAh26IVOtn005fmlLCAgBIWByAiGEPzEAVZXFVGZu4U8HYBqA0jGTJkfBjt0lQZupZl7aEQJCwGwEQgh/MgCqKoupzNzCnwPAagCpEmTLgYKdeiJpwaKmGru0IwSEgBAwC4EQws8F8DVTdsTcws/MnPs54OTFS6Nwl16Im5ZZmsWEgBAQAtZLIITw5wVw3JSj1Y3wZ6hWG0W69YVLnLimHL+0JQSEgBAwOQERfm3Fn71hMxTt0d/kEyANCgEhIARMTUCEX4Tf1M+ctCcEhICZCaz5pRYeHD8MBASwJ4UAHDJll3Tj6pEVvymnXdoSAkLAnAQ2tmqEO3v/hb+fH7tRGcBGU/ZHhN+UtKUtISAEhABVXoQ/MKpHVvzyfhACQsBWCNi68DNof68Iv6087jJOISAESMCWhd8eQBkAW0X45c0gBISALRGwZeFnSuZqAP4W4belR17GKgSEgC0LvwuA+gBm2Ts6ImfjFijYuac8EUJACAgBqydgy8LvDqAFgFFO0aMjV7M2yCu5+K3+gZcBCgEhYNs+fuZmYErmNq5x4iJPy/bI3lBy8cubQggIAesnYMsr/kRaSuZq0eMnQJ5WHZH154bWP+MyQiEgBGyegC0Lf1IASwAUdU/siXxtOkkRFpt/OwgAIWAbBNY0rIUHx2wzZUMqADsBpPTIkAmFOvdE8mKlbWPWZZRCQAjYNAFbTtKWEcBFzr5nvoIo2nMA4mXMYtMPgwxeCAgB2yAgwg8gWdGSKN57CGIlT2Ebsy6jFAJCwKYJhBD+nABOmxKIOZO0Ba34U5eriFIDRsI5dhxTjl3aEgJCQAiYhYAt19wNEn5W3yozbLxZJkAaFQJCQAiYmoAIPwARflM/dtKeEBAC5iQQQvg9ALwwZX904eoR4TfllEtbQkAImJtACOFn3jJfU/ZJhN+UtKUtISAEhAAAEX5x9cgbQQgIARsjIMIvwm9jj7wMVwgIARF+EX55FwgBIWBjBET4Rfht7JGX4QoBISDCL8Iv7wIhIARsjIAIvwi/jT3yMlwhIARE+EX45V0gBISAjREQ4Rfht7FHXoYrBGybwIc3r7Hu15/x5FxQXjY5wGXbj4SMXggIAWsn8OLaZWzt1Aovrl42DFWE39onXcYnBISAbRO4u3839gzoidd3bhGEN4CYkrLBtp8JGb0QEAJWTuDiisU4MnEU3j95zJGeBJAPgJ8phy25ekxJW9oSAkLA5gkcnTIGZ+bPAn39ABYCaAzA35RgRPhNSVvaEgJCwOYJ0M1zafVy+PrQy4PuAEaK8Nv8YyEAhIAQsGYCWzq0wI1tmxDgr7w7dQCsBBBgyjHLit+UtKUtISAEbJ7AhlaNcHvXdgOHggCOiPDb/GMhAISAELBmAiGEPwWAO6Yer6z4TU1c2hMCQsCmCYQQ/oQAnpgaiAi/qYlLe0JACNg0ARF+4CKfAKm5a9PvAxm8ELApAiL8Ivw29cDLYIWArRPw9/PDptZNcHvPDgMKcfXY+kMh4xcCQsC6CTy/egm7ev2Bx2d4YFeZCL91T7mMTggIAVsncG3jPzg0bhje3L1NFFcBMJzzham5yOauqYlLe0JACNgsgRMzJ+HUnGnwefWSDOYBaAfgnamBiPCbmri0JwSEgM0S2Du4Fy4sXwS/jx/JoDWAOQA+mBqICL+piUt7QkAI2CyBHd1/x+W1KwzjLwtgl6kzc7JxEX6bfQRl4EJACJiaQAjhzwTgkqn7IMJvDuLSphAQAjZLQIQfyAgtjj9tpWooPXgMHF1cbPaBkIELASFg3QSYjXNH9w64sm6VYaC2veJPWbIsSvQbjugJE1n3zMvohIAQsFkCb+7fxZ7+PXBn778i/CTgma8givYcgHgZs9jsQyEDFwJCwLoJ3Ni+GYfHDcPL6wzfxzUAPwC4aY5Rm3NzNw2A/Ty55pEhMwp17onkxUqZg4G0KQSEgBCIcgInZ0/BiRmTDCUXpwLoDeB5lDf8lQbMKfxJASwBUDSGZ1Lka9MJGWv+zxwMpE0hIASEQJQTODBiIE7Pn4EAf1Ve91cAiwH4RHnDOhP+eACGEYBLnLjI06IdcjT6zRwMpE0hIASEQJQT2De0L84smGVopySAPaauvGVo3JwrfncArQCMcHR1Ra6mrZCvbecohy8NCAEhIATMQSCE8BcBcMAc/WCb5hR+ZwB1ASxgR3I0bI4iPfqZi4O0KwSEgBCIMgL+vp+wb2g/nFvM9DzKbFb4HbRd7Y2kkL1hMxTt0T/KwMuNhYAQEALmIvDk7CkcHDUI948cZBfo5C8KQP2POcycK36Ot7AW2SPCb47ZlzaFgBAwCYGLK5fi8Ljh8HqmyuuuA/C7uUI52QERfpNMuzQiBISALRM4NnUcjkwcBQQEEAM3M2eYIx2zYQ5E+G35aZSxCwEhYBICx6aMDRT+QKsO4B9zRfToasWfrX4TFOneD/aOjiaZCGlECAgBIWAKAgF+fjg6ZSwo/pr9CGC9KdoOrQ3drPiZqK1I1z6Sr8ecT4O0LQSEgNEJvHt4H4fHjzDk4fcFUA2ACmoxl5lb+HNrABImyJZTpW1IUoBRTmJCQAgIAesgcOvfrdg/vD9e377FAZ0D0AzAYXOOztzCnxLAGAA1oidIhAIduiFjDYb2iwkBISAErIMASy2y5KJWbnGclrHgsTlHZ27hjw2gPYD+Ds7OKNC+K3I2bWlOHtK2EBACQsCoBM4umou9g3oZ7slsBbMBfDJqI+G8mbmFPxqAn7Vq88jfvgvytuoQziHIy4WAEBAC+iQQEBCAs3/Nwb4hfQwdbGTIVmDOHptb+Nl+VQBrCCF/uz+Qt3VHc/KQtoWAEBACRiPw6tZ1dXDr+pYNvCc3dhsDWGS0BiJ4I3MLP7tdRTvJJsIfwUmUy4SAENAngdu7d+Df3n/A66k6sctsnH8AOGru3upK+HO3aId8rTvBIRo9QGJCQAgIAcsmcHXDWmzv2taQg59p6Pnz2tyj0pXwJy1cXIV0xs+czdxcpH0hIASEQKQJXF2/Gtu6tDXcpxMARvWovA3mND0IP1WeMEq7ecRHkR79ka4yzzeICQEhIAQsl4DPq5c4NW8GTkyfYBgEI1fG62FEehD+uAD4SfinnYMDivUahKw/NdQDG+mDEBACQiDCBB6dPoHtXdrizd3bvMcNzb+/OsI3NOKFehB+5uVvAmAmx0XhZ94eMSEgBISAJRO4u28X1jWvbxjCHC5uATzSw5j0IPzkwCX+fBF+PTwS0gchIAQiS4Dx+4zo2diKYfvKBgDoG9n7Gut63Qk/6+7mbNICTm7RjTVGuY8QEAJCwKQEPrx5jTMLZ+HoJGakUad0WV5wsEk78Y3G9CL8zE/NwgTxE+XOh6Ld+4FJ28SEgBAQApZI4PmVS9jQ4he8e/SA3b8AoCeAtXoZi16EP6P2aVgzmrs7ygwdj1RlK+iFkfRDCAgBIRAuAk/OnsaKupUM1yzQSi2+CtdNovDFehF+NwBdAPTjWMuNmox0lfklQEwICAEhYFkE/H19cWvXdmxu96uh45MAtNPTKPQi/GTCGFdVokaEX0+PiPRFCAiB8BDwfvEcu/t2w43tm3jZSwDDtZ/w3CZKX6tL4WeGzhyNmsM5FrM2iwkBISAELIfAm3t3sKxaGXzy8mKn92qp50/paQR6Ev4aAFiNOHW8TFlQatBoSd2gpydF+iIEhECYCLy+exuLfihseO1yAL8A+Bimi030Ij0JP6txMdypnr2TE6pMX4ikhYqZCIM0IwSEgBCIPAHfDz44NGYoziyYxZsxJ89f2jmlyN/ciHfQk/DzBC8POTDsCT/OXIRkRUsacahyKyEgBIRA1BL48OYNFpTOi0/v37MhhnH+DmB71LYa/rvrSfjZex5yUKVqfhgzFanLVYK9o2P4RyVXCAEhIATMQIAHt2YXyGxoeRuAyuYus/g1DHoTfkb2MKQzVtx0GVB+3AzESZ3WDNMnTQoBISAEwk/g+IwJODyWQTzKtgDQ5YEkvQl/Ei2ksw6p1V6+EQmy5Qg/fblCCAgBIWAGAtOzp4TfJ1VH/Z6WdfhvM3Tju03qTfjZ4YkAVOWCWkvXIWH2XICdHrv5XbbyAiEgBGyIgK+3N2bkDvJQHANQEICfHhHoUVGZ1ag9AIfifQYjY42f4Ojiokd20ichIASEQBCBEzMnqYgeTez/5VlUveLRo/CzCj39/CmiJ0qMmovXIkZieoDEhIAQEAL6JTAjV1r4+nizg880r8UyvfZWj8IfB8BcAKr+Yv2tBxArWQq98pN+CQEhIATw6tYNLK5UHAhQ5XRZbSu9Xt087KAehZ/9WgzgZ/6jwsRZSFnqB9g7MMxfTAgIASGgPwLbu7XHlX9WsmO+ANYBqKm/Xv7XI70KPw9xsQ6vR8KceVB11hI4RZfCLHp+kKRvQsCWCcwpnA0+L18QwVvNt39Yzzz0KvypASzirridvT2aHjwH55ix9MxR+iYEhICNEri5YzO2d22PT17qtC6zccbVOwq9Cj/7tZkHeAmw6pxlSFqoqN5ZSv+EgBCwQQJrGtXGw2OHEeDvz9EP0Yqq65qEXoWf0BgX1RpATM98BVF9gfKfiQkBISAEdEPgw+tX+Lt2RTAVs2YJADzVTQdD6YiehT+NVqMyC/P1tDx7W+8spX9CQAjYGIH9Q/vi/N+LwMNbAG4BSGUJCPQs/OzbEQB5CbLKjL+QvFgpS2AqfRQCQsBGCKyqVw2PTvKQrrJCAA5ZwtD1LPzkN1AryejunjgJGu7k54CYEBACQsD8BM4tXYBjk8fA61mQZ4ephHWZoiEkLb0LvzuAM/z6ZGdnh1YXmPdITAgIASFgfgIbWzXGrd3bDYe2WgCYYf5eha0Hehd+juIKgHT8R9b6TVC816CwjUxeJQSEgBCIIgLPr17Cv392xpOzqpQuj+vGB/A8ipoz+m0tQfhLa5u87i6x46DpgbOSrdPoj4HcUAgIgTATCAjAju6/48q6VQgITNGwEcD/ALwL8z3M/EJLEH4iohMtXrQYMVF72QbETsXzXWJCQAgIAdMTeP/kMXb16YLbu3cYVvssuXXJ9D2JeIuWIvwM4q9JP3/8rDlQe/mGiI9YrhQCQkAIRIIAUy+fmj8D/h8/8i7cg2R5RYvagLQU4Y8J4DUpM7qn6uwliJ2KYf5iQkAICAHTEXj74B72D++PG1vp3VFWHgCX/hYRzWPotKUIP/u7G0Bxh2jOSFe5OkoPYb0WMSEgBISA6QicmjsdRyaOgq+3Fxs9CuAXAJdN1wPjtGRJws/iu2oL3SNDZlSevgDuCRMbh4LcRQgIASHwHQKvb9/E4XHDcW0zsy4rawiAxVaUz8eSzJKEn32lPy2rc6zYyNm4BfK0ZIVGMSEgBIRA1BO4tGoZ9g3ti4/vmHkZB7RcYqejvmXjt2BJws/R1wKwgv9IUqCIKtLiHIPufzEhIASEQNQReHXzulrtX98aFFjSEcB0ACpJj6WZpQk/yzLyQFc8V4/4yN28DXI0am5pzKW/QkAIWBgBCv7Onp3w6b0K1d8GoAsAi1ztcwCWJvxOAOoBmMfOpy5XEaUGj5FVv4W9iaS7QsCSCLy4dgXMwnn3wB5Dt3sAGAvggyWNI3hfLU342XfGcR4HEIu+/ty/tUWupq0slb/0WwgIAZ0TuLtvFza2aQK/wLh97uyyNOw5nXf7m92zROGPphUyXsKRMbSzcLe+iB6f9Q/EhIAQEALGI/Di6mVs+f03vLx5zXDTwQD6aUXVjdeQie9kicJPRDkBbAKQiHH9+dt1Rq5mbUyMTpoTAkLAmgkE+Pnh7v7d2NCyoSEnz1IAnQE8sPRxW6rws99VAPzDCUherDQKdeoBj4xMmSEmBISAEIg8AcbtL65SEgG+vrwZC+qOB9Ap8nc2/x0sVfhJLrcWTqUqdBXu2hvZGzaHvYOD+alKD4SAELBoAiyluH9YP5xf/hfHwRSciwA0sXQXj2FSLFn4OQbG9TPCx909kSdK9B+OFMWZxVlMCAgBIRBxAs8vX8Sy6mUNN2Al9b6GaMKI31U/V1q68DNnQ28AKqynYMfuqlhLtOgs3CUmBISAEAg/gY/v32FhmQL48PoVL/YBsBDAb+G/k36vsHThN6z6mbEtub2jI8oOn4jUP1QC/y0mBISAEAgvgdMLZqm4fc1OAPjRGjZ0g3OwBuFneOefAHiowil12Yoo0qMfYngmDe98y+uFgBCwcQKM4lnXjGdElb3RDmoxfNOqzBqEnxNSBsAwAGqjN1+bTsjRuAWiuYvLx6qeVhmMEIhCAl5Pn2DF/6rg3cP7bIWntejiYU4YVV/RmsxahJ9z0gDAAACpHJxd8OOsRUicOz/s7O2tab5kLEJACEQRgYOjB+PM/Jnw+/SJLTzhtiGAm1HUnFlva03CH0sL76wDwD5FiTL4YfQUOMlGr1kfMGlcCFgCgfNLF+LQ2KH48EYV+uMKvzWAaZbQ94j00ZqEn+MvBmASgOz8n0y1f0bJASPBWr1iQkAICIGvEbi1c6vKs//mHqM2lXFnl94DqzVrVMTqAMYBSGHn4IDivQYhy08slCMmBISAEPicgM/LF/i3Txfc3rUD/r7KxXMWQFFtY9dqcVmj8LtomzJVAUSLniAhft6wG9HcY1jtJMrAhIAQiBiBw+NH4OyiOfj4VlXVotFrsC9id7Ocq6xR+Ek/uVacPSX/J1HOPKi5RKX1ERMCQkAIKAInZk7CyVlTDH59/qoaAJbY8rN2RNYq/Jy3FABOAojDyB6Waqw6h8n1xISAELB1AucWz8eRSaNAV49mPP0/31JLKYZ3Pq1Z+MmikPa1zZ4hnul/rIlSA0eGl5G8XggIASsicHv3dhwYORgvr7OKq7JlWinFu1Y0zG8OxdqFn4OfC6Ax/0F/f8GOPZChWm1AIn1s5RmXcQqBIAIsmn5kwkhc28xCWsruAfgJwH5bwmQLws/5vMGDXfxH/Kw5UHrwGHikz2hL8yxjFQI2T8Dn1Uucnj8Tx6cxrb4y7ug2ArDa1uDYivAzpOcU67NzgpMXK4WSA0fBPWEiW5tvGa8QsEkCH9+9w/nlC3Fw5CDD+J8B+B3AYlsEYivCz7lNBmAjgKz8n9TlKqFoj35wT5zEFuddxiwEbIYAi6pcXLUMewcxl6OyRwB6AZhjjXl4wjKxtiT8HGs2zefP6l1IW6mayuEfMymjP8WEgBCwNgJ+Hz/i0qql2N2fyXuVPQQwVEvHoE5s2aLZkvBzflmXsTCACVrBdqSrUgMF2ndBzGSM/hQTAkLAWggEBATg3OJ52DuIi3tljwGwdgfTunhZyzgjMg5bE34ycgVQQcvHkYO/YJhnfoq/rPwj8gzJNUJAlwS4kcu6uZoxYH+yJvyqtJYtmy0KP+ebifqZ06cnc7nxF+kqV0Ohzn+Kz9+W3w0ydqsg4O/np07kHh7HEh3KmHKTos+VPl09Nm+2Kvyc+DhasfZOBvFP80NlFOs9GG7x4tv8gyEAhIAlEvD18cbxaRNwcs5U+Afm1acxbHMWgCEAGM1j82bLwm8Q/5raqb0M/EXKUuVQeuhYuMTi54KYEBAClkKAaZXp3rm4cgkYyRPCXgLgqS3mbdlkKWOKqn7auvCTKwu4lNPybyu3D/P6lBo0GjGTMgJUTAgIAb0TeHDsMM4snIU7e/8NEv2Zg37Dhev3MHYuo7iVsZzidS1t+wy9jykq+yfCH0iXG775tApe6kivR4ZMyN/uD6Qqw31gMSEgBPRK4Mq6VTizYBaeX7kEv48fVDdXT+6MUgWz4O17b/x76AKa9pwKX19/wxDo5+8PYDYAX72OKyr7JcIfSJeFebkCqA+A+fyVucVPiFRlK6BEH7oGxYSAENAbgTMLZ+PEjInwfvECAf6B2ZQ3zuyGYnkzwcEhsN72x0++2H3kInqPX4Yzl4KqbDHKZ5QWz083kE2ZCD+QX3PzlGLhlpCz7xAtGhLnLYSqs23yZLdNvRlksJZF4NyS+TgwcmCQa8fRwQHrpndB0bwZ4WAfKPoG8/Pzx637TzFh4SbMXLbT8GtuBPD0LsN/mKzNZszWhf8PAAMBOANQLKqVyYOp/Zsjbdn28PKhS5B/sUPSgkVRefpCODg52czDIQMVAnok4PXsKU7MmISzf80GD2nRsqZLhmkDmiFX5lTfTLzL1f/4+RvRd8IKw9B4g20AWgK4qcfxRkWfbFH4eXqX2dk6AKDwq2Lsbi7RsHhMe5QumCXoK2LtdmOw89B5+HwIDAuLnzkrCnbuCc+8hcBvAmJCQAiYjkCAvz8enz6OnX92BtMr05yjOaHej0XQtXlVpPCMF+bOjJj5D4ZOX4MPH4Nc/LsANAVwyxby99ia8HNlX17z7aXjU+Lu5oJUSeNjfK/GKJhT/SrIfP38sGzDQfQevxyPngYe9nN0dUX2Bk2Ru3k7RIshdXzD/E6TFwqBSBD4+P4dHp8+gfXN6gWt8mO6u6JHi+poVa8cojk5hvvug6euwoQFm/H2vY/h2jNa+UWKv1WbrQg/x8lVfkVtJ19NaqJ4sdH8f6XRtHYpJPRgVOeXxq+SF6/fx08dJ+DG3cfw9w/8apmtQVNkq98UMRJ7wsGZnydiQkAIRAWBZxfP4+rGtTg5i4dvAScnR3jGj412v1RA6/qMxI64jA2cvApTl2zDqzfvDV3/F8AvAO5HxVj0cs+IE9PLCMLWj5JaFS4WXYCbqzPSJk+oHpz6VYuG6Q5nL99BlxGL1IfA0xdvAj84cuRB5rr1kapsRTjHjBmm+8iLhIAQCBuBT+/f48m5U9jU9ld8fMfDt0AMd1fljm1cowTKF1OptiJtAyatxPRl2/HydZD4/w2gDYCnkb65Tm9g7cLPrf1aWp4OlYchftyYqPlDfuUXzJctTbim5eGTl1i26SAWrd2H89e0IAA7O+Rv2xmpypRHnLQZYO/ALQQxISAEIkPg4fEjeHz6JA6NG6pSL7BSatzYMdCkZkl0bloZsWK4Reb2X1w7aMoqTFy4RcX9az5+xnAPttbi69Ys/My5wHQMMwP3b+3gmSCOWuX/9r8ycHGOWHQOXT9b953BqNnrcfLCzaDIn2RFSiBlybLIWq8R7OxF/I36rpSb2QwB7xfP8eDoQRybMg4vrl0GN3Tt7e1QtnA2lMyfGR0aV4oyFnT7jJ6zXsX9a2mbO2vne4JOfkVZ4ya+sbUKfy4AdbXIHRdHB3uULJAFtSsUQMPqxY2Cx3fWHwAAFflJREFU+NjZ69i05xSWrD+g4oMNxvTOCbLmUOUdxYSAEAg7AaZbuL17B65v2QCvZ0/UhTyE1blpFfxUuTAypvYM+80i+Moh09aAq3/NmNCtq1a8KYJ31Odl1ij83MBtpeXfUadwe7WuiUolciJnppRGnQWGeW7cfRITF27GifM38ck38ORgvAyZkfqHSshcpz7c4icwaptyMyFgbQQYmnl7z05cWrMczy9dCBpelZK5UThPenRoxLe06aSq19hlGDN3g6Eft7UF5Bpr4m46mqah1gBAR62ubjT6BSf3/RX/q1QIri5RF3d/6NRVnLl8B33GL8ebd4FZAR2dXZC8eGkkzp0PORr/ZprRSytCwIIIMETzzp6dqh7uk7On8OF1YMh0jOiu6NikEqqVyYsMqT1hzzeyCe31Wy/UbDMaB09dZav0+zDLWzNr2uw1LdGonTzm2enDUrrMvUMf/sTeTdQmLv37UW2fPvlhx6FzWLr+AJZvOhjUnKtHPKQoXlpF/qQq/UNUd0PuLwR0T4B++6cXzuHopNF4des6Xt/+78Bsk1olUb5oDpVgLUb0oLRZJh/TnqMXUaPNaHgHnt5/rlXuspqkXVGviKaZsp+0fDsM07H3iO2uDmT9WDoPnBxNu9F658EzXL75ED93mgAv78BMgfaOTnD39ETyIiWRpW4DeGTMbBoq0ooQ0BkBn5cvsL1be7x//FBl0zRYjowp0KxOKVQskQuJ4sWCfYhcO6YeBt22q7cdReNuUwxN0+XDOo7zTN2XqGjPGoS/CoARAFhIxZ6RO+P+bIQfimaP0Gk+Y0DmIa8L1+7h6NnraNOfOaACzdHFVfn801WsqqJ/oidMbIzm5B5CwCIIbPn9N7y4fkWlW+Cq32C/VCuG7r9VQ6L4saPUJRteSK/eemHY9DXqdC8AdpgRgoz0CQr4D+899fJ6Sxf+PABGAihB0U8cP7Za6fNgh6lX+l+b0A8fP+HCtfuYungb/vpn738fAK6uiOYeE9nqNULW+k3gHEMOf+nlDSH9MD6BXf264e7eXXj/5DH8fYPKIQY1RJdO+4YV0bZBeaPH50dmNAzdPnjyKqq0GG7I10XB7wtgdGTuq4drLVn4Gaf/O4DeFH3m7aBPv2b5/F+kZDUnaD48/Np44OQV9Ju4AkdOXwvqjr2jI+ydnFCgQzeV/kEOf5lzpqRtYxPYM6Anrm36Bx/evkGAX2DEm2aPATBshknRlHGhljltUozt2fCLnFnG7ld47ufv74/1/55QKVs0m65pjkWf6rVU4afjvhqAlZwM52iOGNmtAZrVKR2eOTXLa5es34+h09ao2H/mCA/M/BNoeVp1QN6Wv8POwR72DuFPOmWWAUmjQkARCIC/nx8C/PxxeNwwnFuyACx8Hsy41OcvGOFwWPs9AzFYCYtnboIe+H+mdUGZQllNEpQRlsk7cOIyGnefinuPWLtFGRecQZ8EYbmH3l5jicLPPjPBzh7CdHWOhl5taqJjFJ7oi4pJm7ZkG2Yu34k7D5/By/tjUMZBh2jOyFijDvK26QwnFxdEc4+h6gGICQE9EuBK/qPXe7x//Ain503HxZWsZf6ZvdYEnwEYu0MZA3PhM2KGPk8VjbF+ejeUyP9fFS1jj52Zd7nqcnBwCNPba9mGA2jac7rhfco9RRZvsdjKXZaoKEyj+SeALjzK/Uu14hja+WfEjmnc3B3GftBCux8Pf81YtgM37j4JEn++li6glCXKIG+bTnCJFRuuHvGlBoCpJkXa+S4Bf19fvH14H2/v3cWZv2bj1s6tIa9hXVsG5vcCsA7Al879z6/gN/huAHjqXsVxUvxLFshk9Agfxunz7A1dsLmzpFKZeQ1lGkMb+I6D59Bh8Hxcv0MvlfrmwoSPTOZmkWZpws+kayyVqALlkyX2QK9WNfFL9WIWB58ZPhn6+eGTLxgzTPeP4eRvyMEkypkHWX5uhDip0yFW8hRwjvn1FNIWB0E6bHEEvJ8/w6tbN+D98jn2D+uPt/fvBh8DxZ1B+cy3wHq2m1jyNhyDpOh3B1AZQHReR7dP2ULZjHpwd+Gaveg+erHKxslUEH+2qoHUyRJ807VEt+ykv7agx+glhuFwf2IBgM82L8IxVrO+1NKEnw8Dk3I34gEtHvYY3Z2ps79tTLq0bf9ZxI7hhiJ5GPVpPuOK4drtR6qyF/39z14Gppv9itH9z5+g4qFu8RIgy88NES9jZsRKlhKxU6UBN4jFhEBUEvD79BFPz58FY/DvHdirVvgh7B0ABuUz38J8AEFFbSPQrxTaN/qfWSeJ16+Y0BGVSvIzwTi2bf8Z9ByzDOevBn5otW9YAX/8+iPixfl2YSW6ZrsM/8uQxG285u55ZJxemfYulib8LKbCr5DIkjYpRvf4BcXzZfousdl//4t2A+cidbKEmD6wOYrkTv/da4z9gut3H6uIHkYIbNp9Cj4fv/jmy/PhrABk+CSg6HM1kRRAPgAewfuUrHBxpC5XEY6ubkhaqBiiJ0ho7C7L/WyZQEAAXly/ihdXL8Hr+TOcX7YQr25c+yz+XnPl7ADAZ5eBFseMhIwp1Ado7hRXR0cHzBnSUiVZNJat3XEM/Sb8rQ5b0nq3qaky97IiX2i248BZ9ByzFGevqA8MfrNhipgDxuqTKe9jacLP3f9l9O1XLpkby8Zxc/3bRvdJosIt1NHrhPFioW/b2mhck2H/pjG6dLjC2LrvLFZtOwJfLZGb1jqFnm4rLwBHANBRGhQ6oL2Gp5GrA+BxX6YW5f8HzRtDQDPVqY84qdLALUFC9SHAPQExIRB+AgF4+/ABmAvf+9lTPDh2CPcO7cen91zQf2YntI1aOrxnaSkNwt/ct6/gIo/uIm4KOzBcmwcz6Zoxls1fvQdDpq3G3YfPVTjp3sX9kC1D8lBdPi9evcOAySvVnpxmzBFNd5bFmSUJP/t6nJs/HrFjqGIMYcnNzcRpzJ1P40bO1rl/qsLqUW30CbJYy/Sl27Fu5/GQLh0KPEPaKPqMdKDwf8+o5qwzR19VXgBlDF+FeSHzEUVP5IkUJcogevyEiJs2PZIUKAxn+RD4Hlfb/ntAALxePMOtf7fh7f17ymd/79A+eD0NTIsczLgg+QsAUxUfArDNBOD4rNO1y2dd1dMY1a0BqpfjF+DIG8stth0wF2u3H4Ofv7/6UJnct+k3Tw8Pnroa/BHhjzz/sN6Bwq/OeWdNnwyrJnVG0kRxv3ntlVsPkbtad/gHBID5e+gaqluxUFjbi/Dr+C1j6PQ1OHz6Gv49dD74fXh8dy0A1vXkal9VfIiAcfXP7710SjK6IHfwe9DvHzNZCiTIllOdCo6fNTtSlCgL1zjf5hWBfsglFkrg9Z1buLphNbyePoXP61d4cPQQvJ6qiJXgZshMyeeWvmweujJ1CCODOZYBSOlgb49cmVNiRNf6RjvkxcCKTkMXqhQrtBNrhiJj6iShzqoIv+kf+CDhZ8nE3Yt4cjp044nZ/3UYr3zqXA1ztf/vwt5wNEFpxF+6TMaWvafxzsvH0MFbABZqYW2nwhDaFla63Pjld9/kWjF5+r747//Mzg4xPJPCI31GOEWPjjhp0iNj9TpwZ54gOR8QVs4W/zrmxrm7fw9ubNuIT97v4f38uUqFbKhlG2yA3Fvit9HlAB4AOKf58MMTnWNsXnSprOCxHaZXr142HwZ2qKu+ARjD6neepL6VM7a/dKEsKow0NBPhNwbx8N0jXMLfbsBcLFy7V+3Ac8Nm46zuyJs1dfhaDOer9x2/hDFzN2LzHmq7Mr6J6A9tD+BiFK+WGPGUEwBdQtm1/OFfDJiun7hp0sHJLboS/ky1f0bqshWkXGQ451r3Lw8IwMub13H5nxWquAlP1b57cB+v79wEY/BDGIMI+NV0BgDmFOHqnhu2YXFBmgKFoXY2T4fZMzqvdf0f0O23qnAyQlTbuSt30aDLJFzRNnqfH52lDoaGNO4TsjrX2HlMz69MfPwmmP0wC/+5q3dRq+0YtWlDmze8NepWLBilXfxzzFJs2HUSV28/MhzE4o7YWACLAFyO0sY/vzk58QRkMgA81cZvBG20OgVfdMM9sSfc4sVXwk/3UKZaP8EzX0FJGWHCCTNKUwEBeP/sCS7+vVit7BmC+cnLS6U/ZsETBARPDhLUIncpmXqAoS2MJrujI7EPiYVFsllDWx0Npuu2a/OqKrGbMeptlG00SBVeUZ6CSoUwdxiL+H1urLXdc8wSlXgRwBsANSIZumqUqY/ITSxtc1f5+L/l6uHE1W43VkXS+Pr5I0nCuDi3YZTK5xMVxvYad5uqSjB6+XwwvL94so9+d35V5gNiTqP4MxTUWetTF+2bwRdAHJyiqc1gJ7fAU9Bx02ZA+mq1wdDRaO4qpFpMRwQenz6BiyuW4P6RwIhCruRZxYopFEIRevoeuarnD4tFcHHCzdqI7jWZmgafYUb28eCUyuQ54Pe6aF438jm6Dpy4gvp/TMTjZ6/BM0Ivjn5xVkEFavwx/C+VYwvAOC2O/4uNEVNDiUh7Fin83ODZMqfnV2Nuf+s1U1XAoouHdm/vFMSNFTWixcx9v/45HSu3fBamyTcUq0JzE+yry6yITJSRrqHYU9W5eqKxTCUdml/9VGSoqIOzi0ofwVWVg4sL0vxQGZnr1FMfCmKmI8CY+msb1+L65nXwfhH4TZZC7/vBB/6fQs2GwOePOa0GATitnQvhooQfAHp7NsMKk99muRxnrhwVoTf2z0ZgTv/IGKN6slXuopInstTjsdVDPtvkvXj9viqtym/1mjXUopwskqOlCT+f+DisyclP+UEd//fZXDMHBytf7TocWLB5/fSuKF0oa2Seh1CvffnmPbiPsGorw++DjBUbmHPEnBth4R0vnwH+cFOYpSt5KMXwwfD1ewXbFGYSuZSlyiJDtTrwzFcIDk7fvjS8nbO11/v6+ODegT24umEN7uzbpVIaB9nX3TXBEdFXf1Y7/MT8OIZ0AhYpTt+Ye55l4YcZY/zhHt1FHfCqUuqz4LZwPzpMvbxh1wm1oucp3ju7GUkaaEuZpK3HNMP/bmeuMABBm3nhbszMF1iS8BNVKYNP7Yci2bF6Sucg/x5dLr/2nK4miMaiLMdWDUWcWCrlh9GMoZrcxB04eZVK9KQZvzIzcRy/QgeF8hitUfPciMebmY+EftV4Whe448Wv29/1m8VIkkztFSQvVgqeeQvC0SXYiUg7O7WHYO/ooP5rxzJ7VhZhFODvp6Up9lMr8+AVp8jyzf27eHD4IO4e2KOE3t8vTN4WCjm/UXJhYRBzhgbTTx9a5kvzPD1R3ypj+7mHxpWdHd/vMwe3CMzoGYmyjYmLtAQXkNxDuLZ9gkrexlO+DbtMNuzd8f3dAQDz8lusWZrw01dNn5pDgRzpMGdIC6RKlkDBv33/KdoPnIdtB86qbH6n1g5D2hQ8/Gc8e+/9Aau2HMawGWtx815QHQZGQHCVvMtSEzaFkRDFnsmzGmtRQ7yM0RZ0HdGX5hr8RHGo97SzUyeL42fJhoTZciF+1hyIlSIlHJ2/PCpvKFTDmsXq3/yQcOCHhYP6r0ksQMsz7++violQoCnkrCTl/8k3ULBDrMQp8jwIxZqyTy6cwZOzp/H23p2vRdOENgQ6kSkwXFAwssZQp5ChlUyNwLMgTHds61ZHc/mkUuKfII7ShKJ5Mn4322Zo4LJW7oIbdx+rqJ4/mlVB5jRJUa/zxOCiz4p/wy29/KKlCT/9e4ylKkI/XJ2KBTFtQHO1cdt1xCJMWbRVHdbKnz0tFo9pZ7Q4X7VCe+eNWX/vRN8Jfxs2d/hr5uugEKraADZoVGvmv6igHSgz+Hn4rYBzxUBrfigEJZoLDyNGGzHSKIZnMsTw9IRrvARwjR0HrnE94BzbODHc3+sPxZ4+dca787+MkmHu+XePHuDNg3sqtcFXwiO/d1vD37lyZzQNRTz4nhD98Dylzmedp2RDzeQX1oas+HX8Vsoi6MxpZcfYfubjKlkgc4RW/v/sOBa82lZwbJwTpgBgDiF+AFu0WZrws788tcodFidu8vZvXweFcqbHn2OXBuXQ2PVXX+TPTjdg5I0upOev3mHeqt1qc0czvmGZjfAPEx1dj/xATHsHZozjufoi2nwFX87z3/zmxvMG/DGuL8604/xea9x1ZU56g7BTwIP7dBhRQz8xk5vxdGyY/D3fa9QG/95aC1Kg+Nuzhu/sIS1RuWSuCIV6uudsDAZuBDPOH3Py0KWmUsJbulma8JM3fTvcZWEMLQrkSKtO8jGccu+xSyoUi/l4jHFYizv9x8/dwD87j2PMHJ5WV8aVGd+kLLhsqyv9yDz33C/IAoBpVbmPkPgrN+OHA78p8FsDiw8wNQV/6FYykY/nq0OkMNP9Yvhh8W3uvlLcg/vdDRfz71wgXNf+yxPcn9UjjAxIufYzAr9pCzEeWlTPCGPxC+ZIixRJmOzz+8Zv9TsPnlNlFg1RgQDo052p+fR5zsEqzBKFn+C5nJ+qJS37bCKYx2fBiNbfzLcRtpkLwPSlO7Bs48Hgm7jMx8rUCzyUFRg6JBYVBCjy/IDghwJ/+A2CH/j075gzbIgbq1ylG34oCtxzYqIX+uKtLXomKuY2Ku/JEMsm2qHFaAxBrv9jERXZx3z+MaNzG+pL4+p+897TOHH+JkbP2YAPgSnTuZHO0/bztE3kz74CROUgTHFvSxV++oy5ahwI4MfgPuSMqT3x1+h2yJwm9ERL3wN779FzLFl/AAMmrVRZ+zSjP5/+vVU6OJT1vSHI34WArRLgSXVGorUDoPIuxIkZHQ1rFFeRfmmSJ0LaFAmV///Bk5e4cP0+Xr5+h0X/7FMBG3Ttah/gLLXFU8IMi7U6s1Th50Sw7xm1jUX+m64fFmHHr7VLof/vdSJwcCsAU5dsVyv8FZsPGx4CQ2w044YZUSEmBISAvgnQRcistQy7DMpX5RzNSZVYTJU0gYr6efT0FS7ffKACN4IZXXY9ATD38g19DzPivbNk4Q85ah7l5jeA9AzFYkWdVvXKgZMdFuORbcbr8hzAs5dvDBF6fAhGAGBOE4ZrigkBIWA5BCpqbmHW8f2eC4ALPL7XuSdDd65Vu+2sSfi5CcijdjzO65gkYRzUKJcfw7vU++bOPmvgshLP9gNncOnGA/h8CDr+zg081v3kibCQVbEs59GXngoB2yZAdw89AdwjYuFehh6n1QIFuDfDA3CsEcz3+H7tv1Yt+gZ3iTU9FpxQJnBS1VaYjjlHphQqvUPwAixMr8oCDFzdU+xv3nsS8use89fss9R6mtY0oTIWIWAkAoz0YXAAgwUYPMADidyQ5+Y8fywpzUqkkVjTit8AI4Xmi2fiDjW+hB6x4BGHcx1o3MWnX+/Zy7fBw7b4J+baYfIn5tCXQzORfrzkBkJACOiRgDUKPzkzFLAtgK5aKoHvsafQM9cOM64xJtuqQre+N3j5uxAQArZFwFqFn7PIr3Lc2e2sbfqGnFn69GYBmKJVHKJzXwTftp5/Ga0QsEkC/wd36LGeLOgy3wAAAABJRU5ErkJggg==;" parent="1" vertex="1">
                    <mxGeometry x="390" y="330.86" width="28.12" height="38.28" as="geometry"/>
                </mxCell>
                <mxCell id="24" value="" style="shape=image;verticalLabelPosition=bottom;labelBackgroundColor=#ffffff;verticalAlign=top;aspect=fixed;imageAspect=0;image=data:image/png,iVBORw0KGgoAAAANSUhEUgAAAX4AAAIICAYAAABpSYW9AAAgAElEQVR4XuxdBXgUVxc9IQEiSAJBAwSCu7sUKV68tEiRIm2x8kOhFCqU0lKsBVqgSJECRYq1uLu7uwcIEIMYxP/v3N0NSUjIbjKz2WzmfF9aICNv7szcee/KOTbQoFnAsi1gAyCD/scWAP8eH/kBVAZQAUBVAKUBFALA7ZXAKwBPAQQBeAzAH4AXgLv6f/fV//s9AFGJnDAaAH/4e8MP/65Bs4DZLZDQS2T2QWgnTNcWoFPPHOvHLp41iuideQ0A/CmWRq31HMAFAFcAXNT/eAIIj3U9/BCEAQjV//B32schjd5wSx625vgt+e5Y19gcAGTT/9DRG5AdQHUAdQDUAuCmn92bdPU2GWxhmykjbDPbwy5zZthmygxbe3vY2CTvEY8K1/njqIgIREdHISoiEtFR/H84oiMjEcWf8DDd76MSm+SbdAncOBLAOQBHARwDcFX/IZChAAgB8AJAgH5bk0+g7aBZgBZI3luh2U6zQOIWcASQW/9DB294xhh+aQCgPoCCphgwg11GZMqSBZmcsiBT1mzI6OgImwxcKLxGRqcscMqTF86FPZDd3QPZChRE9sIesMsU+xtj/FlDvJ+JQw/x8xUHH/riOSJevUSItzfCgoMQFhiA4GdPEOLrjcjQUCA64Yk5jxER+grhISHyE/EyBOHBwYiKjDB+MLotX+pXCXsBHNCHnQwfhCcA+MNQlAbNAklaQHP8SZpI2yARC/DZcQbAUEw+ABn129Gp08HXA5DHmMlFhowZkTlbdjjkyAmHHK7I6OgUx7HT6bt4FIdz4SJwKV4S2dwKyow+LSAyLAwh3k8R8OghAj0fIPCxJ1543pePQGxwBfHquR9e+fnipZ8vwoICjb08fkF2AtgF4I5+Jx6c+QaGkvjB0KBZII4FNMevPRDGWiArgBL6xCmdPJ+dwgAa6WPwDOW8FfbOLsiSzw1Z87khc3Z+M3TI6OCAbAXd4VKsBHIUKwFH19zIYBc/1J/U0dP27/mBeH7vNvxu3YD/7RsI8mLuWIfI8FC89PVF4OOHCPJ6BG6bBJhs3g/gCAA/fbiIH4Xz+nBRUvtrv7dyC2iO38pvcAouj7N4JlNZHUNHn1Mfg6+rT8Qmemh7lxxwKVIUzkWKIVPWrDFxdqc8+ZCjOJ17KTjl5mJAgzEWiHj5UlYKvjeuwe/WdfDvug9COPzv3ILfzWtgaOotYFXSGf2qgDkCrhL4UThlzPm1bazPAprjt757mpwr4nNAT9wEQCn9bJ5JViZcGcoxhHHiHNvG1hZZ8uZD7nKV4OJRDLaZdeEXhmxciupm74zJJzfBmpwLSU/70PHzQ+B77YrkGwjmD55dPg/vyxclL5EImLlmnoAJZCaUb+vDRa+XGenJkOnwWjXHnw5vuv6SWePeTu/s+ecc+uoa98Ti8o6uuZCvak3kr14TGWztgAwZ4JjTVZx8VrcCsM2YKf1a00KunAlo/9s34X/3NsKDAiUs5HP1Mu4f2C25gwTAaqGHAI4D8NF/BP7V/99CrkobhtIW0By/0ha17OOVAdBdH5tnEJ0NTyUTc/Q5ipVE4cbNdLP5jBmRMUtWZC/kjuyFirxRVWPZl51+R8dy0+CnXvC7eR3hIcGIiorGvb3bcWvrxsQqkbz1/QaG/y/VfxjSrxGt8Mo1x2+FNzXWJbHmsTaAXgA4k+esnglaJmrj3HvO4J09iqLEex2Qq0x5wMZGErDZChSSipv45ZPWbTYrvrroaAQ88sSLB/ekXPX53du4svpv+TAkAK4AbujLRP8DsBAA8wUa0rgFNMefxm9gAsNnoJ0J2IH6mT3LZ0hp8EbVjZ2DIyr27IciTZqDDVB2jg5wypUHmbLwu6AhPViAZaVBTx9LbiDA8wEu/r0IXqcZ9XkDzB4zJMTE8DB9cjg9mMgqr1Fz/NZxW3kfywKYog/dsImKs/s3krIFatdDtQHDJCnLWXxmZxdpjNKgWYDdyq/YqPYyBM8uX8CZeb9LfiABMJPMMtFVAH7QLJf2LKA5/rR3z2KPmNnURQBa6gnJnOITk7E5qnjLdqj08afIkt9N6uPt7B200E3avu+qj56dxRGvXgk9xZ0dm3Fs2sT4yWEDrxCbxQ7qVwGGBjLVx6edIGUW0Bx/yuxn7r0N96sfgPH6Esy4Y7CxQSYnJxRr3R5VP/1cmqU0aBZQwgLMCWwb2h93d2/XHe5NmopDAL7Sh4E0cjkljK7SMTTHr5JhFTwsq284k2cjFZ19mzgkZuLos0gNfb5qNVF35LfI6mYSFY6CQ9UOlR4sIKuAXduw//tRwjnEPAH/LRbIPjpCXyJK7gnFWOzSg33NcY2a4zeHlZN3Dsbp8+q7Z0frSy9jjsRKG1bdkNem0fipyF2+YvLOou2lWSAFFvC9cRVHJo+X3gFyDTE8FAukoB4M4CaARxrFdAoMrfCumuNX2KAKHM5QclkNwET9bF8Oy1l91vwFhamyZNtOKN2pK+wckqTIUWBI2iE0C7zdAv53buLi34vx+ORRBD1+JAym8VYAn+kZRLU8gAU8TJrjt4CboB8C4zPl9LTFjJPG3Bty3zgXLgqXosVQvtvHyFmqjEaDYDn3TRtJLAsEeN7H5X+W4cmZk/C5fhXhcT8AZBDlZOaafgWg2S6VLKA5/lQyfKzTFgVQBUBzAH0N/05+G6e8+ZG3YhVpqGKyNmt+LVGb+rdLG4ExFgh64oVLyxfj2cVz8Dp9ApHhMYyirAJaBmA9ACaDNQ0BYwyq8Daa41fYoCYcjhKC7KptAaAjAHvuy0Yq5yJFUaBWXbiWKosSbTvBNpPGgWOCXbVNLcgCpJq+umYFnpw/A69TcRrDHgBYoKePJoW0BjNaQHP8ZjS2/lSkO24KoDWAZnoxE/lVrrIVULhRU3H47KbVoFnAWizw9PwZ3N2zA3d3b5NEsB4s+SQ19FwAu/XiMdZyyRZ9HZrjN9/tod4sZ/dkxKRCVQHDqXOXr4RiLdrAtUw5FKhF4SoNmgWszwLRUZF4cHAfHp86hgt//Rk7/PNU3wQ2Q98DYM7yT1KaML/G95HvKHUn6Bc5BtKZkqqCX6rH1lSVpDl+9d8v2piCJsMBVNKTpOlm+GXKSygnd7mKyFu5mtZNq/690M5gARYIDXghfQCPjh/GjQ1rY4+IsaANABbrHa3So6Vj58yqIV8//cHZI+OqpzhhCTX5S/jOcjXCHgQK1xgoKvhvoXpRm40A0qx+geb4lX604h6P5Ghj9dKEVQ2/IuNl2S494VajNnKWKB0jYKLuULSjaxawHAtw9h/4+DFubv4XV9euAKuB9OAs+wIAdqcrUfrJemcWTTC8SgJDzu4pGUonnxyQpI4fAgNr6TkAv+u1DJJzvFTZR3P86pidwibvAxipJ0+TxG1GR0dx+KQ+zlaosEaOpo7ttaOmIQuEBQbixYO7OLdornwEYoEO9Q89FTSdralgOPVHAOx890iQ3kR/RMqDZsmTD5QGpSQoK+qio6LByiT/u7dEz+AtoMwZQ0FcCXyjT1abOlazb685fnVMzo5FNmLFCMt6NG2FGp+PgFPuvMJvr0GzgGYBvQWioxHi54Nr61YJLXTwU52MpH4WzY5fhkiNxSf61QK73t/gLnHMlQfFWraFR5PmcMjJcL6uki5DpkywtcsIkhoaEBUehojQUPD/BEVtnl44h4vLF8H3+tWEuIo8AVDAZgKAODEsYwdvru00x6+spb8GwA7FmMStc2EP1B75Ddyq1xb9WQ2aBdSwADlzgh49RMDjR3jlH1dikdrIbALMmr+A0HGLbKYFgnQP1Ane9r9P8PTcacMIGVdn6SfV49gDkBgYGhqi14g2xOllW4ecuVDny29RsHZ9yaOx2z1ZDLXR0SJwL0pm1Du+eQ2Hfh4rVUrRrwnrON4AfbiKHyE2q1kcNMevzC1haIdlaeUNtMjUn/Vo3hpNJkyDjZ0tbGwohqVBs0DyLUDnwo7YG5vW4/bWDQh/GdcPivN5kzFTf0IbSVnGFr6nE6S8Zun3u8GjWSs4uHCRmvqIigjH1sF94Xlov5DA6UE1MBZIUAoyNuoD+EnfE8P3MMansXCi4bjJsLHNIB87pVXkaO/oiAhx+nu/G4kb/62JPS5+AEhc9DcAfgAsiq00LTh+Tk/YwWQYK7/mzMqzUqYIANbFsySLRvYHcFf/tT0A4FYsZkA+QeEKMwUyWfQxgG/1KleQ2VU2Z3TfcVhTskp9H5IGRxCNqIhImVGy2/XhsUM4Pec3+Fy9lOS1ZMiQQRx7bOfOncRBRUcjKirpKknSeJf/6GMUb91BQpIMfWSwi+NPkxyHUhvc27sDu0cPk1WAHoyjr9OHcpicJQPoKMMvqTWRwS4jqg8ejoo9+8cJ2yg1pqSOs/ebEZKriAh9FfsjzAa1MQBO6BXMkjqM6r+3VMdP7T/+8InrrBd5iAmfJMMqdPj8HM8DcBsAg3Ys00qufijHxY8Nk08cn4DxwyJNmuGdsaQj0aBZwHgLcJb70s9Pwgh3dmzBuUVz8Oo55zFxYWdnB0dHRzg5OYF/NoB/LlSokPy4urI68TX8/f3x4MED3L9/H2FhMdQJ8jF4+fIlgoOD8Souq6bszJBIlX6DULRFG9g7O8PeOYfis2ZjLLSkUTWJ+8cKpzCUwlJL4TDh6jpTtmwo16UnyvfoC/vsfDVTD0wGbx7QG4GPPRH6gm5GwPFSrYw+Izj1Rqc7syU5fla+GGbvPfQC4QmuPSVOZ28P20yZRVGKs2xERSMyIhyRYWGIZEImgr4+UVwF8KueL9zQpGFs5QAD9ZX1ghNsyJKxMH7aduEqOOVhTkmDZgHjLPDS1wchvj5S2bL/+6/Av8dG5syZkStXLmTPnh22trZwd3dHy5Yt8d5776FAgQIpIuuLiIjArl27sG7dOhw/flwca1BQEJ4+fYqQkLhhJHaV1xszDpmzZoNL0eKSEDUXuPpZ160dSP8QFhSX2sfRNRcK1K6Pyv0GIWeJUuYaUpLniQwLxb29O3FkynipDoqlV8DowGx9dCLVwj+W4PjZQEHeGta5MxZWM45VSVaWOy+yuhUQJy+ONrO98NlkcysIe2cXZHTKIstivjRBT71ENJrc4FQMIl76+QpVLGdT8cANuHRkHI5JGIaJuJxMDGz6YBJpkGG2kb2gO/LXrIuaQ78EH8LUBh+w0KBAhAUGCDNiWHCwVCMkBhsb0j3bS7Irc7ZssrzP6ODIYHBqX4r1nj86Gi887yPE+ymurvtHmphiT1Ts7e1RrFgxmbkXLFgQXbp0QcOGDWWmryYiIyNx9uxZLFy4EFevXoWvry9u374d5yNAavDmM+bDwdkFuStUMlvuiu/uqVnTcGvbRgQ+pua7DlU/G4pqnw212F4YrzMncXz6JPhevwI2runxs975sxs46fibCjc9Nd9uxu0NNMSMk8coiXBGz1kFG51IUFaofmMUa/keMjomTxTc6+wp3N25FQEP74takN+t67FLxgxm3QdguT5JSwWh2N6SduJU/gv9jyyWcpUtj2oDh6Fg3QbyMTI3WGHAxpcXD+5JTJiIDH0Fv9s34X/nFgIe3BUHEx6c+MqS8WCHnK7CBJqzWAnkKFla5BoNMzqhhHYvDIccrrqVlYYUWeD53dvwv3sbV1b/jYdHD8rq1IBSpUqhTJkyyJMnDz7++GNUr149RedK6c6nTp3CkiVLJEx04sQJPHnyOtzikCMn6n83QVa6ecqbUm2Z/FFFvHyJO7u24vziefC+wlcUKFCnASr3HYh8latZrDbFi/t3cWX1con9Bz2hrxf8BuAXACwBNfvMP7UcP4OQ3QF00vPPiyX4MJG3Jkve/EJSlr96bQmjKAmuCu7s3IJnF8/L8tr78sX41RFMCq8CsEe/CuAygx+oPvpyMUna5q5QGTUGDUfeKuZ7OaOjo/Di3l1J9LGigx+xR8cOw/PYQUTEW5orZTOurPhhy1G0hCTLshcqIvQShtWXUuex9uPwhX924RxubFonfDURr17KJTN8w9ANnX2bNm3Qrh2pnCwL4eHhmDNnDi5evIgdO3ZIroDgRIC0I1X6D9a/t4zUqguuXp+cO41j036WCieCz2OFnv3gXr+RrP4tEVyB39j8L84tnBO7S3mmPu7P2n+zIjUcP+P3DOsMNVypY67ccKtRB3krVYX7O02QraC7+kaIjsazyxfheWgfnl44C6/Tx2MvxXh+hoAO6/k4PgLQiv/IsZFQrUSbjshRvKTq42Rru9+tm3hy5oSEcLwvnYfnkYMSykkIjAkzDswfNzc3ODs7I2OsppSE9mGs99mzZ3j06BHu3r2Lx48fgy97QmCs16NpS9hlzgyXYiV1tdHaSiDR54AfaDJT3ty4Hvf274qJ4TOc06lTJ0nGfvLJJyhcmCwClo/Fixfj/PnzWLlypawACIY43d95FyXbd0b+anEjtWpcEXMRzy6cxdFfJ+DxiaNyipwly6By3wEo0qSFdMhbIvjR4of/5MxfEfiIE33BdH1l0uusuxkGb07Hz6k7laU+1YdNRC/WrWZdqSEm/zxn+qkBhkUoGed5+AAeHNqHiNf10VSQ5vSGLd/Cq1Nt4P8kmaR29y0rOu7v3w2/m9elUeTx6RPx1Yxktli3bl35yZqVRVAAHT+dCH8YH3ZxcYlT/ZGQfRnb5UtMx8+YLh2/ofrj1q1b2Lt3ryz3uZ0BUgNeohQK1W0Ipzx5ULhRMwnNaXhtAcaiLyz9E16nTuDZpfPyC1bf0OHXqFFDYvf58uVLUYI2NezNicKyZcvAUNCsWbNihsCJW8Xen5jl/eBJOWE79ssEPDpxRMaQo3gpVOk3UPpnUiP0asy9oPO/ueU/HJ82MXbYhyEflqaaDeZy/FSYYhyfTl96otlBWPN/X8lS0RwzZ2Msyg8AZxIX/l4E78sX4jTDMOdQ/+vx8lCrCVZ4nJ03EyG+3nhy9lScRBbPW7ZsWbz//vviMOj4y5cvj3Llykl5nxp4+PChJPxY6UHH/99//2Hr1q1xTkXR93xVqouegMe7LWT2lZ7BRC1XZVdWLZNZvqGigwna9u3bo1WrVpK8jV9vn9Zs5u3tjUWLFmHTpk04ePCgDJ+d6u4N30W5rj0lLKg2qPDFypnHJ4/JqfieVv10CIq1bGex4Ug6/2vrVuLY9El45e9nMBFpHtj5bxaYw/Gzzp3VOiRNysSHvWS791H8vQ4oWPcds1ykKSfhMnJVuyYy0yY4s6Ujqzd6HPJXr2XKoUza9pW/Pw6MHy0i1Q+PHIpT5cGkX/fu3VGiRAnkzZsXlSpVQrZsqUP/cOnSJVy5cgWhoaGYN28eDh2iep4OzH1wVeRWs47c4+zu6r/4JhnZDBszNHfgh6/hdfYk/G7ouvUZcuvatav88MPNVZm1gH0Aly9fxty5c/Hnn3/KZTHOTqrxBt/+CJeiJVS/VObpDv70jUyUDB+fOl9+J6JGlgpWKZ2c9atwE+kT/OxS6wJguznGrLbjJ3fGQH25ptRitpy5ELnKlEOWfJanH8vyz73fjsCNjeukSoaxa4Yyav5vFFxLl1XlfvDrv/urobLsozapAYwBM+k3YMAACdcUL15carktBZz9s+Tv3r17kvDjkt/QGUpOIs78SnXsguKt20ntd3oAe0g2f9pDnL6hWqdWrVqYMmUKSpYsKfX41gquDGfPni3OnysBgivA5tPnmiUE6HvjGvaM/l9MtQ+fvxa/L0COYup/eJJ7T4OfPcWm/t3AsevLOjmLoirf20rKk3u6OPup6fjJq8G4FRkqMzDm1mbBCkngWmIyUJz+N19I/M3w0pbv/jEq9Rmgmsg563s9jxyAz7XLMeWYDg4O6NOnD/r16yd13GzSsWTQ2bPem5Ueq1evxvTp02PyAywTZeKPdd8sCbWsfkFlrRrw8AF2jhwcQy7G0Btn+F999RU8PDzSfFjHGGv5+flh8+bNmDx5MrgyJBh6ab9krVTsqQ2WTW4Z2FtKmWPOvXSdxXAQJXT9LO9d0aaRIRzIBC9ZPbupbSu1HD9n+t8ZZMwcXXOj5ayFyF2+otkaPkwxnG6mPxI3N60HO+6ImsNGo3zXnqowarLK49Ts6Xh86ijCX76MySUMHToUw4YNk0ocS5rdG2vLgIAASRD/9NNPWLFiRcwKgA14Zbv2RLVPP7fKxjAm4Y9O/TGGpZErtPXr16NixYpyL9MTSP3A0M+QIUNw9Kiu4oZFG923H5aeHLXBWfTaD1tLtyzBlXqnlRuly99S4X31ElZ3jNHYvqcPje9Uc7xqOP5eAKYYpM2cPYqh6ZSZcgMskaGSTn//D6Nxbe3KmA7XxhOmoXjr9qo8qCd+n4rzi+YKzzfjwUSzZs2kSoKVOQzxpGUwR8KX/8iRIxg+fDguXKCYEsSWmbM5o/fBs2n58t4Y+6Xli3Fm/kwEkUM+OlpKZ318fJAlSxaQNC09gqtALy8vdOzYURq/COZ/+p00D0MxO9YXv1NVquCYU2TIqdM/myzS/9A2fGf+7dEBXqelL4GdvKyeeE/NZ0dpx99YX5dKemLJ6jed8rs0O1ki6PQPT/weF5YukOHxIWk4fgpKtH0ftknUvpt0PdHRCPR6hJMzf8G19f/EnItJPnKkVKhQwaTDpaWNO3fujI0bN0oy2OAAum7eB6dcedL27D86GhdX/oXTf/wm1Asyu3R1jYlvp6V7pNZYGfpp0KCBrAAIfvj7HL1oFqI3lkMvqlshhraFTV4dlq03y7mTY09yEC2oUcpAREf+MJZ4ktpBFSjp+Kl2Q+kxVvBIuWajH3+xyModjo+0qeT+4GyNYIcwKwFKtf9A0dZvJokZCqBgg4FjhDP7//3vf/j888/fYFJU5S6n8kH37NkjOQs2hxGM95InvVCDRha9BE/MbEzIX123CqfnzECQ1yMpq2XylrNbtcpqU/kWJvv07AN59913JQfECjlW2rSYMd8seb67u7dhx7ABwuNFjiFKnjYY+7OweXJ1xvvIhDzLbznrFiWujHY6kRYzc1VxDBeXLcbhSd8bbM0GUjaO6lq8FYZSjp9F5BQ0niEvtmsu1B8zHsVatlF4uMocjktAanyynIrI6OQkfB/luvVWlNKVD9WtbRuwe5SuSZkzfM4Kp02bBs6E0xPYCcyVzY0bNyT2z8Rvlf6DULpjF1XyKGrZNioyEp6H9wvxFqkz6PTr1auHf/75B7lz51brtGn6uAxj9u/fX0KAJFVsPn2elPyqDa7o9333Ja6tXyUzf3bdV+43EAVq1hWH//TiOTw4uBc+1y6BPEAsRGBYqEzn7lKJRp4qtRs1Y9uAk4jVnVripU5BjaVR5HfXOSmFoYTjZ8aGwuJkuJQXutaw0SjdiSWplgfWz7Kx5sjUnyTGzvZulh3S8XOVohQ4y7i9dSN2jfpcDpkjRw40adJEZvp16qj/0Ct1HUofhzZg0o/135z5l+3aCxU+6iMOweIRHQ2fG1el65KrODp9lmuSyIyVOxoSt0CHDh3w7786MfXshQqj1exFZqnxJyPmlgG9QJZMwqDExffzbeAKoVzXXijd8UMZp9LqXQmdm9WE1zeskY+VHksADNZz+Sv6eCnh+Fkoy2VJWTsHR1Ts2Q9VBwy1yJZpfuXv79+FQxPGSt08SceKNG6G6oNHKFrvy05N9gLsHv0/uVlsuho8eLDU5PMDkJ5Bh087sAP4+fPnQrldoVc/lO3c3eJn/oGPHoLJ+ev/rZZQQO3ataVxiZ3TGpK2QIsWLbB9u64/iWXdreYsUXSFndgI+K7vGPaZkLuZCvYDNPxhCvJUqqILEakM1vRv6NMFL32lF4K6IVTu0n0xFURKHT/ZkCh9xtJNaduv8+VY5KloeclcMlv637qJgxO+FUZLvrhM+NQaPhr5qipLLHV17QpQgo0g6+KYMWMknq9BZwE6/HHjxgnvO0tAXTyKCb01yd8stewu2Pspzsz9DRf/XizXwJn+jBkzhHNHg3EWYKiHFCOM+/ODX23QcJT9gCS96oOd+DtHDoLvdfpS0+DiUVzE2gvVb6T6zJ9J6bN/zsbZBdRqETDBy9yporz9KXH83JecxMc5uqxuBVHj8xEo2ZZRH8sDOTGOTZsoPOiEa6my4vR5M5XEpRV/4cAP/Ejrqjy+++47qWnWENcCJIWj8yfbIx2CfISHjdaxO5o5sZbUvWH8l0vww5PGSSyYlBm//PILGjdmEZsGYy3Abu8FCxbg009J2cXO3vKoN2a8TBjVRsSrV7i5eT0OTxyHsCCqIJoGcorVGfkt3GrVNW3HZGxNneVN/bsbystZBjgawJ1kHCrRXVLi+EnBwEF14BKoWOv2aPTjVGSwQIpexs5I5EReDIKkcLW/+FoooJXE+cVzdbmDyEjh0pk4caKENTQkbAFWevDDyOQfE74F6zRA7RHfqEaPkdz74HvzGvZ9M0LYIPkx/+abb8R5pfWei+TaIyX7cYU3atQo4fenpkPZD3ug3tfjzVJFw6o6UiJf+/efOASMxl4PyefqjvwW7E1SE363buDg+DF4pKOcfgZgJADG+xVDShw/GdaoWiVLdcbB8lW1zGUvRRvOzNOVbTKxRKdPKmglcXbBHzg161cRSMmUKRP++OMPoV7Q8HYL3Lx5Uxwpq2IIkrvVGDJCVpCWgBAfbynFvbXlP3FOpFSeNGmSlsxNwc2hoEvlypWF7ZVcOmTppfCSOeB/5yaOT5skSl6mgiy0NT8fKdV/aoKrk6trluPgT5TnFVD5T9HqnpQ4fvKg1mT9O8M774ybpKYt5Ngh3s+EvZIygNSHNQbM5m/s10049tk9WK5LT1QfMkLRrlzy7TCmz3IsguGLXr3YwKzBGAuQ9pmcNiR7Yxldwx8mi6AGk++piajICHge2o8tgz6WVVz9+vXx66+/olq1aqk5rDR/buZ4pk6dKtQeRKWPP0PtEV+rHj83GM5AscGZtalglIAhYrLQqolbWxZY5OwAACAASURBVDdgx/CYaAGdPo0Vw+Gc0nMn1/FTzl6yJKyNfW/eMmFjVBq8MWfnz8QrvUgx5QVZhmXn4BCTBCQPCNWwhPwtXos8q3jWdW0D7yuX5Hekim02bY7ohCoFOoedXwzC3T3bhWiN8XwSlaXXdv3k2JU1/oz9fv/998L7z5eq6dRZqa7TwLwQKyxIopczZ0588cUX8oEyd3NPcmxq6fuQv7958+ZS1pvdvTBqD1d+FZ6YDahed2LmLxL6NWglGGsvUk6Tol3tcnXG+VnWSU1tvQ44SS91ogcKILmOnwndGozRuTdsipa/63i4lQK7ao9O/QmPjh/B83u3Y5grEzo+VxykeLbP7oz8NeugXJdeMfX4G/t3F2lFwilPPrT5c7miZZs8Lsm5Lq1cKrwg7Nq8du2axTNqKnWflDwO+W1GjBiBv/76Sw5LZtTqg79Itfp+9nhcXrkUB8brtDHYfbp06VIpzdWQcgsEBgZKOJTxfibzmdhnQ5+5QBK3wz+Pxe0dm00+Za3hY1Cxd39VyztZgnpy9jRcXb2c4yPfST8Ay0webCI7JNfxMy2ehQ04H6zfCafcZF5WBv53b0usnDNoVlCYAn6NOSbKOdpksMH1/9YIxTI7czuu2ICcxblQUQ6XVy3DqT+mI/ipjgmQoiRsztJmhMmzMcv8Bg0aJCEf3svOa7aqspI0ZnRkaf3rnWp49dxP1LJ+//13sA5dg3IWYEMXO9gp5UjNbSb2yeBrLkjI55cJIm1qCqgyR/Ze5jbVAlciF5cvxqEJUilPMGGoq05RAMlx/D0BzCMDAR1+r/1nFBiG7hDBT5/g2PSJuLn537fO8pM6oTRa2EDasolSHT9E4x9/UbRMUNcOPhLX1q0Sno+dO3eiUaNG0s2pIXkWYGUPaamp7MUST9cy5dFu4UowqWZukLjP8NKRkoF8Q0mJ1pt7jGn9fCEhIZg5c6bM+hk9IH8T31VzgaHZPV8PF3/D99lYUFukycQZKNpCVQJNXF65BPvHsZLTMhw/mbYKU0yl3pgfUF6hDDcJk8heeWbe7waGOmPvw1u3Ix3wJ2duKU4KdfSXn3Bu4Rx5YKh/u3//flHJ0pAyC7DSo127diLowRBAr32npNnH3PijbEG5txStX7VqldaopdINoGIXeXyI+t/+JOWd5iwJ58x60ycfiSCSKXh3ykwhfVMT8Rw/udA4449W4pymzvg5nWUjQSFWXHx2gZoBKQdnzBf+mi8NMkqCY/z03B3FqwVCAwNxdOp4XPnnb5kF7t27F3Xrqt/YoaRtLPlYrO1naIXVH86Fi6LLxj1mFc5+cHg/NvXrJiE7NmudOaPcqtaS7Z4aY+NKmfxV1HEmP06zX+cIjYo5QYZeTuLYNWsMWCjy7uTfRbNDTcRz/Iz5kAQzQIlzmur4WfzORoKcSgorMHNNDhTy2ygGGxtUH/QFqg/8n6IhHtK5np73u7AzEmzkGTt2rMz6NShngXfeeQes/OCk4OPDF8wi3WcY/fxqJRAeHCwqaOTi+fBD84UflLNg2jkSpRolyQug+Yx5KNqstdkHv+nTHsK6akyVD7t42XSmdsfx1bUrhQVArwo4Xc/WqRN/SCFMdfyrAbQjk3HpTl2lUzel4HKa4iTUu1USOUqUEuEFpYW+2dDDkNTlVUtFVm/lypVSlqZBWQtQvYux/uDgYJRs3xlNfuZzrz5e+vpg6bs1wSYahnkMGgLqnzn9noG9EXT8TPKSwqHM+10V1cQwxrJBT72wvnsHBD7yTHJzklCSzTeTU5Ykt03JBixOOfjj16BIC4BZACYAeJySYxr2NdXxUzevEnfuunm/IlltNmWdFvIrxRLW0qjVee026dJVGrGXX5zts+vU0gXRlbaBOY7H+m52d16/fl1O9+mFu6qWzxmuid2S5FuiaGLv3r3BGHRKwBULP17sTyBdAf/Ozm7q8pK/X0sYA9u2bRPHT5lOirO/O3kmcpUxP+PpvrGjcG3dawnWhO57RkcnXR3/+11T8lgYta9FOv6BV3VdqikFkyrbP+8vHblKgQmimsO+UpzylbN9Jp9Z8UGeFjqF7t3Nwy6olG3S0nFat24tpZ2cCZLCt7DC3EoJ2WJJo2oi1E3RHM72kxvC44eLspre3t7w9PTEgQMHcOfOHbBZjU6/bNmykheiNm+ZMmXkJz1j9OjRwm1FtFu82ixCLQnZe2mTmjFKeQn93r1BY13nbkn17xcrBg+MHyOrT72kLQ1k9lAPVcDZuCUCsUo5/vv7dmHzAOXoDdjB2/jnaZIUVBrk8t/91f8kCUSBdHK2MPmnQR0L7Nq1S+q8meSlMhLr+tVEkNdjrPmgNUJ8niVbP5czes5gyUczf/58oSBOCm3btkWbNm3QtGlTuLu7J7W5Vf6ejp/vE+3XduFKFKhVT9ncnJFWI+cWmzITgnORoqg17Ct4NFWW5yuxoVlKcpecDFvIo8Uyu4FXHhppyrdvpqTjp2YmnT4lH5UWTeADSaKunSN03YXkGmELvwZ1LcBOWYZJ2ITX99gVVat7Tvw2BecWz5XGQWoE03GbAq5MpkyZgkWLFoHkc6aAFUTkd6Lz79atmym7WsW25O3hD1dK9b/5UZSvKOyUGljeqgGe370d59RZ8uVHlU+GiFQoS8TNgXiOn46HD2S4Euc2JcZfX1/RU5gNNX2PXVbi/FDS8bOutsbQL5GtQCFFxhb7IAGPPEVyj80eRYoUASsR3n9fGe0B0hPfvn1bqIlJ+8vjs6JEA9CqVSuZQbPUr/UfS1TlQ+ds/9ml80LZS+oNCqgbCzqs8ePH4+efqZuRPND5M19E4Z7PPvsseQdJo3sdO3ZMKDsOHz4M1zLl0GL6POEBSw3c2bUN24awbF4H0r1U7NUPJdt1Nmt1maU0cLXVZ5YLOBcphm5b9ityT5Ry/CRuazxhGoq1UEfgndzYmz/tgYhXL/Hxxx/LC051reQgKCgIK1askPpwNixxRvv48WNx/HT4jCuT94fJv/bt26drNkg2xpEnJzIqCoXqNULruYrSkse5favaN4Xv9Svyb1zhGQvO9EeOHIlZs2ZJDD+l4P3/+uuvhb4ivYDvwSeffCKqbASpYFxLqR9HT8i+vPcbenc28OFLvoEC8ebUhSZf2YUlC3DsVxbyCFKNsqEjgN8AuOUoURpd/tulyDOplONnQrfagP/BKY86XZ5MQm/sq8vkc0ZmoJQ1xQh8uCk6snbtWpw7dw6PHj0SZ58YmPijnitl/phETo90wHSqjo6O4lDJqtpjtwi+KQ7ShWzo8yH879ySjy4/zsaCIT8Ki5CCQClQvJ1spT169FDqkBZ/HDp+Q3gtNR0/DfX45DH827OT2KxA7fpoOXMBWNFjLpCZmE7/3t6dPCW50djevEqp85sS6lHF8XMmTS3MkGfJT1bzS1z3q+9FxEMNkNODLH6M77MUjyWc334bI5Jg1CnPnz+P2bNnY+vWrVLlYQroiIoWLSpShUwEpjfKZ9pcbcd/e/sm4eYJfvZUbEwxeGMwbdo0TJgwAWQXVRLkfKLoC1cRDP+lB8Rx/Ot2pKoS26sXz7G8RX0h6bN3yYnKfQfIj7lAksrdoz431PCzqoGkPeeVOr8pjp/itCy2d+esutc+0xXrExo0mxMuLluI4zOSL+RCCt8an49E5mzqxMVJDb1tSH/43bqO9957D3zZydhoLEjpMHDgQDCWz1hwcsH4Lz84Xbt2RdasWZN7mDS3X8OGDYULydE1F1rPWSparUpj79df4Mbm9cLmStZI8gUlBc7wO3ToAFYfvW3lltRxEvs95Tu//PJLCfukB/AdYac0bdlp1WZh6kwtpltyh93bswPbhvaX6qKSbTsJMZu5EE+IhbPMyQB0rJMKwBTHT8kZToOKk6tiwGXTZq1vGyuTKfvHfomXfr4mXxIZQmt8/qWqwggUclnTuaWQdnFWQh5xY2fdrOXu2LEjvLy8TIobJ2YIdgvz5aBjYq15egA5+tlMxaU2Z13VBg5T/LIZ5nl49LBwYPn7+0tXdlIYOnSo9HIoGeKJf05W+bBSqGJF89EVJ3Xdav3+888/l5AZV3es5c9fvZbiPFumjJ2VPazwIUj1zmojSkWqDa46T8+ZIY2EeqSq9CKbGclWJU+gUnX8PBZVrM4vnifiK6aiXNdewhJKWle14H3lIlZ30nGxs9qCjt8YsFKHdeiUFlQSbB4jj03VqlVTbUak5PUkdSzG+Q0drlRRe381q4qVxX9M5h0/Igdlpy3zCknhgw8+wOrVZDFRDwz5MMSXHmb9TOzyWh88eCCiLFU/G2rWuHr8u8h+jj1jhuHBwX3C7luxRz/UGRXDj6/aTaf61qb+3cFVBwCGVkhktFvJE5oy4+d5YygblHT8PDC588mBc3bBbKO5se2dc6DKp0NQqfcnStrkjWM9u3wBa95vKU6Wjp+x+qTARO7u3btV5fFhZyn5ZNIDDEt+19Ll8MG67YpfsqmOnzkAyjCy7FNtkASQP6kV9lD7+gzHZ5UbK5lY2ulaqqwo5jnkTN38xtPzZ7C2i65SsGyXnjLJtFVRC5okcXf37cS2wTHlpJwNf6P0PTDV8XPGX5mD6Ln3VIzEoVKDYmvy8ekTcWnlEom1vhWMu7XpiCaTWGikHlja9fTcaazr1k5mnXwwGeNPCmzgKVFC3WUh6WzZ7cjkp7XD0hz/gAEDJCxhDlSoUEHCPewWt2aQ3oJVTNu3b0fmrNmFjlutKj1j7cjVPqv52K3PvgJ27hZrycp2deBz7Qo4CQl98ZwnYGnZeH18X9ETmur41wMgZ2pGj3dbooXCWru8MmqdHpk8HqQkFf6eROqpKbFYqc9nwpKnJhiG8jy0H5s/6yl19Wwtp8N9GxijZBKWTlltsP4/uXwyao9NyeOnZ8fP0N6MGTMkv2TtYFMky52JnntPIkve/Kl6yfRB1F420Dgwv1R98HDY2DDyrSwiw8NwZ8eWGHYAfcPsEKU4+GOP1lTHz+5d3pVcSgqxJGQ+Cg3f3bVNKmlYThkHNjZwb9AErefEJD+UvQOxjhYaGIDj037GpRVLUL16dXkBa9eu/dbzMUbMGnxzgKWl7Bi1djCRHRYWBgn1rN2mOI+LKaEe5hw4408pc6cp9+y3337DkCH0AdYNS3P8tPaDg3uxZWBvibmzZLzm0FEghYOiiI6Gz/UrWPvhewbJWFa6cOY4RdHz6A9mquPnbvdFgcsuI7pu3qcK9bHhQtnEcHb+THgeOSjEWQawbLNir/6qVHfENzJpozf26wrfG9eESGvJkiVJVnyQYqBly5Zq3K8Ej2lKl6nZBqXwidjHQHZLsiJ2WrUR1D1VEqY4/mfPnoEVKJRkVAo5c+YUnWFOGhJCenD8fI7p+Net0wkyWcKMn+PwuXpJtG8Z7yflO2mZldYGZo6TCoSXli/mKSP1zVr9ACS//vstD2dyHP9GAK1sMmTIUKINa1vVF8i4uHQBrm9Yq+NR4XKjbAW0X7IWGY2ovEjpixnk9Qgr2zVBWGAgWMVhzMvO0MuTJ09Semqj92eXKZu8rBmGWn7ytbf5c4Xi+SVTHD/7MRjuY71/SsF+kBo1akiHNstIb9y4kWDzWHpw/GRhZYf6li1bQD6wLht2p4recvx7yogDQ8/7x30lv6o98htU7Nlf0UrCq+tWgr0kelDTdgyAFSl9vhLbPzmOn3EOlhY5MOPebctBZM6WTa3xxRx365B+uLtrq5B1Ueuy8U+/qn5OnoCKPEvfrSXnMtbxm7v6Yvny5dLUZc0gZxEraZwLe6DFzIXIUVRZYfvUcPwMX9Ghk/vJUK7KCQMLCAyzXsM9TQ+On9U8XEmdPHkSBes2QNOps83Kj/O29+fWto3YM3qYcHUVbtxcOPmVegbv7duF7UM/MUgs+gH4Ra+2pdornRzHz8Hwi+RuZ++AKp8MFo4cNREeEoz5VXUVMmTKazVrocz6zYG04PjZ3EPuH2uGJTn+wMBAcc5Lly5Nkcn79u0r1ToUZjGA4Q72aFBzODbSg+OnBCMLIhhKY/VMhR79zC7BmNgN9bt9Q9h57+7eDtvM9hLpUIIQklVDu0YOFo4oPeUya5V7AzC9m9WEpzG5jp+yU8t4nuzuRUQ4gQRaauHYtJ9xZt5MSejlKl1OZBXNhbTg+FnOGZpU+au5DKbSecifs3HjRouY8dM5M7nLDuqUgKpcVOGK3wV++vRp6f/w9dW9+/w9Hb+1s3UOHjxYbMrkedsFK4UVk41TlgBWG55f8ieOTPpBhtNg7M/CFpAS3Y8XD+4JP9T9A3sM1YsUOaEYw0G1rzm5jp+1TEzyFsjo4IjSnbtJwkMtLG5QGUyysmW/yeTf4NFE10VrDpC1cV23tgh8/MjsoR7Wb5O/xBC/37Nnj4Q7/Py4GnyN9OD4GzRoIDNhS4jx0/JK1PEzpJEQ4ypXbywkePhQJ3bEMmL2jli7QAs1rMnOKUne1VuQm6t6m+S6KOW9w5XVy3Ho57GIeBmCgnXfEZ/H5zE58LlyCafn/y4rCH3VIpO4HwJgDlV1pMSqJG3bwxGyyaLGkBEo3Un5OLP/nZtS4kQyN7Jw9j54TtGkSlIWJn/Qri8Hw/PwAanUWbx4sbyIb4MSMf5SpUoJM2P9+vVj4r9sZeeHgFVD7Aw2ID04fkNVDznaO/2zRfHuya2D+uDe/l1g5+S+ffveCLXEv99UYGNYIiWsnAbNZtbpxwb5nRjqMaziGBJiya6192vEpWXeId27loQX9+/i2LSJIJOrnb09Ws5ahIJ1dFw+psDz8H6cWzQXj08eNZRucvfmAHaYcpyUbJsSx881GNtmB1LykMmYhuMmK17furFfNzw8elBoHArUaYC2C1RLdCdox/DgYKGROPXHdFSpUgWMQ8aPv8bfUQnHT4fPGb5dPA4i8v8wkcvZogGMEcdfBaTkobDEfePU8atA2XB17Qp5qV/6+khJYVIcPKTW7tOnjzBzJhfU1+UqpmDBgjGHYPMfq4VYSGAAefm/++47q6dssCQ+/oTuKcM9J2f+Kr5APPWM+fBo0tykcNSlFYulJ+j5vTux+5P49VA9vBP7mlLi+HkcZlypwWjHLyDFUOp8+Z2ijHrLmtVBgOd9WfKRCppsnOYEZ4CeRw8KaRJ50UmTS7Wlt0EJx8+PC2eeCYGKVOQBMoDEVnQM1gy1O3dDA15gfff2YO+Ig4NDkoybDEfQOa9ZsyZFZq9cuTIY62fDH1dxvOcfffRRTDkwPw4//vij/Js1gz0arOjZvHmzrOg7r9mGnCVJCGxZOPvnbJyYOVUoZTyatkTdr8Yha363JAfJievpub/h/F/zERYQgOjoGAEmVklSXch4ybckz5b0Bil1/Iz11zF8rVhqSQoFhn2UAGf6u74cghAfb3H8Sgm8mzK22Fw9nH0zwTZ9+tt7F8zt+FkCmFwZSFNskZrbqu34+d6tat/MJOnFy5cvo2fPniKhmVwwcZsjR46Y2Ty7k1+8eBFzOJIC8nmzdgru2GLr9UZ/j9LvdzdLn46p98378gUcmfIjHh0/DLIXdPz7X+QuX+mth2H/0alZ0/Dw2EGQj0wPbz39Ddk3E5fhM3WARm6fUsfP05AhrAOAlfwLufpr/m8UqvQfbOQQEt+Msf2nF3SUxuW69ECDsRNTfMzkHMBUdk7W1bMRJSUwZcafHjp31Xf8wH+9OuPxqWMSVmT8nbH1pNC6dWvJuaghxFK2bFnRdmai19pBDqyJE3Xvd9tFq1CgVl16Ewu87Ggc/Ok7EY8iOq3ahDwVhLfyDZB75/r6f3DghzG65+M17xg5zzg7vpNaF6iUZcmdyrYz/mTk7LzuqLEo3623fBWTA4ZYSIdq6NZVmgbalDGZysevBFcP+YDYwRhbEITxXyZ3WT9uSPzlz59ftHutGQx/NGrUSJr3qITU8AdV6EvgdeYktg7ug1f+fqD6VeyZd2L25QvNfMzRo0cVEdoxnIcz/P79++P333+35lsr18ZVDh0/82ckP2u7eBXcajCQYJk4PPF7XFi6QCYI1QcNR8XenyKTgZsrOhphIcHwvXZF+H0YQtSDs3pO96kiRJKxJOiH1b12pRw/R+kBgBJhLEly4D/UJadFhw+E38LU8AeJkciPwTp6OwdHfHLmprqWeMvRTXX8VGQqWbJkTDlecgdO9SVS/xoSvDt27JBKklu3pNlDQGWvvHnVEZhP7riV3o/yhkx4kpG16dRZIn6tFpY0qo6gJ4/BShs2EhkjcUmaBaqsXblyRRHnT6fP0k0Kk6QHLFq0CKNGjQJpmcnFRIlDVm9ZKljVc3z6JEnQss+g2+b9yOpWEMHPniAsKBCbPvkILAOPhQC9iNUEAKKentpQ0vHzWkoC+JIrIPZ28R9InVyy7ftS72qKStbG/t3heUiX3Kz08aeSNE4tkKDt356dhCObSbaZM2cie/a36/uy6qNIkSJxyi6TO34D0yc5eWKjTJkyUt1jjFpUcs9tCfu9Flt3w0c7j4JVZGrhv48/xOPjR5Ahg42oXjFxbgxY3TN8+HBcvHjRmM0T3YYfHCaN6fSpvmXtYJiS3ct0/ETTX2ZLRyxDxpYMdtve2MSIDdBy5kLY2GbAzi8GgSwDscC/MJzzt56GQSS1LAFKO35ekzv7WwD0AiBTUdfSZUVGrXDDprA1QjQkIjQUWwb0xMOjh8RGfY9fUU1I3ZibQBEGdg6fWzRHFK9++OEHEYx4G1jfzReYQutqgAlBOn0PDy60rBcUp+dHlmGubAUKieNXE343r2N155ZStcEwGnsnjHXAnPGTOpn3PDl5F1aNMZ6fXmb6vI9sUmO56oIFC+Qdf3fKTLg3aKzmLVbk2Hu+Ho7r/65OTC2QYRxm/E/pOXfMx9ho5NWp4fh56qwA+uhj/lKkzFBPg+8nwsWjOPJXq/nW4T04tA+Hfx4r/BUME/XYcwKZs6pPBJfYoPgSc/XBJRyvY8yYMVJilxTu3buHXr16SbmekmAlCNkh+cIYE4pQ8tzmPhbJyvgBjYoGCjdpjpa/zVd9CH83rwu207M/YuXKlSYpX/EDxUkBGTxJOmYMuGJr1aqVdPEaZr7G7GcN2/Ajx/p9lrKS6776kBHI5va6r8FSr5Ex/jPzftdVHL4GZ/hswnoKgA7CYpNvajl+8fUAyCf9sV6uUdoTcxQviYq9PkGeilUSVawnPen1/1YjKjIS5br3Rp2R3yrOv27qA8XS0g19ushuXNJPmDAhyRI7fjAuXLggOr3GOgFjxtWuXTsJNxUooB4/kjHjMMc2tWrVwokTJ4QYq/3StaDYutpga/6+70YKRw6T7IcO6VaexoJOjCWenMUGBATIM0B9ZOZ+DMiVK5dQMXPFxk5wriLjN+sZe760uh0/jgylMcbPWHnDcZNU6f5Xwz6ka985YpAUBOjBhC0dPVWRYmo21Ti3EsdU0/Ebxse6rKb6bLZM21npw+Uc253dataNw3fBap6dIwfj1tYNsj91N3MULZHqnB3+d28JoRJlGOmMmGQlf0xSYMXCkSNHpOWenbgpAR0DnT7PTQoDawedJvnqmfTL6JQF/U9dN9slkw2W8VqGe5hgT25JJTuq2Z3Lmv/YORo3NzfUqVNHnL+BktlsF2chJyLvFFdzfEcK1KqH2iO+NhvrrhImYASARSh6sNvsmhLHNccxzOH4eR12DNUDYPAuphc9k1MW5K9eW2b/BerUl3pYhncOjBuNRyeOSD6g6+b9EttNbXD1cWPjOuwZ/T+ZCTIhxZm/MSDb4NmzZyU0wxLN5KB48eIgQyWJrPjn9AB+4DgT5ky5RNv38e6kGWa77PN/zcPhieMkvt+iRQts2LDhDRZNsw3GCk/ETl12wDOUx/Ap+e1FP9uCSNmSMvvur4bi1pYNYL0+ADYhjE5qH0v5vbkcv+F66bFINN4TQExNHhk+XcuUg3ORogh+9hTPzp/Fqxf+woDXZNJvcMzJNoHUB8UYdgz7TAbC5h46clPCLVzy0/GvWLFClv/GgPXknG2ymogxYCYA0wvIjUSmSobMum87JBTg5kLEy5cgKyzL8zg7573u14+RSw0ptQBDYdu3b5fnmn0Qheo3Qu0vvrZIioa3Xeu9/btxcPzXUnIOgAlcCvGalXohuffC3I6f4+Q52epGJRXG/xONlzSfMQ9FGjcD9X0tAYFej3Bq1q8iw8ba+T/++AMUCDEFbO46f/68cLFs2rRJuF4o7BEbXPqza/PDDz8EqZnJ1Gnt1Tvxbcj4+FdffSXsl6yR7rHLuESpKffibduyOefGxrXY/ZVuhcdZP5lZGZvXkDILMN9BokGykGbKmk0q/ir3+dRCO3UTv1ZODtb37AjvSzGTONagao4/iceD3rwYgFJ68YH342///j9bkLu8+sk8ox/j6GhcWrlEWrAJOn52Vxpb7hf/PCxlY4KLlSCxQUfDjl2WjnLGnx5BR8vaeM4OOyxbh3xV314JpoaNXvr7YfMnH0n3OO/HsGHDrJ4MTw07xj4mcx6kMyHNBVHk3RZo8O1PFqGtm5xrj00rA4ARjdfdlck5oJn2SY0Zf/xLY/yfBPecSpHghrGUrPY5coqyl2tJy+rgI0nT0V9+kh4D0ukuWbIEFALXoJwFWLHEctmnT59KUrfP0YspUjpK7shYaPDw+GFs7KvTmeCqizmHlPIwJXc8aX0/huxY3UYeKk528lauhne+n4icJSyPhdNYW7MQ5c72zYY4/58A+hu7b2puZwmOP/b1f6+nfchQsVd/VPl0CBxccqamfd44d1REhNCrnpxJPWQIbzvb9ePL51nUoNPYYDp16iQUDYz/dvj7X+SrXC3Vkn7UY+Aq7+jUH+Ues0afxGnWLoqixiPDZjyuYkmFwcKNEm06Cu+SpXfpvs0Wj04clbLOEG+W7oMqWo5q2E7pY1qa42d/vHAztJ67FO71G6XaC/82Q3O2f+yXn0DWTjbf5Rt56QAAIABJREFUMCTBem8NKbfAF198ISE0OgnG9juv3gJ7lxwpP3AKjsBV3vbhAxDw4J7U2pNCmLoMGkyzAKlHmOMi8lWrKbq6xnTym3YW827NXNDyVg1AdS49LM2nJmgQSxokg9nsdhvCkbb5c7lU9Vgqjk79CecW/iEVJ3/99ZckYq2dM13te0HKA4pxUGSGfDzs4XDxYBoo9XFv7w5sG9IfUZERMvMnayYb87SVXtL3hnX6pN14RS56GxvkKlMenddsTXrHNLLF8pb1hbBND6qyPLb0oVuS42egfBKAGo65cqP5tLnIV7WGxdrP5+plEV6mbiZx+PBhaezSHEHybhlngpztz507Vw5Qqe8AVP1kSKpyNMW+EsruXf9vLQ6MHwNWczDZO3v2bJFpTK8NWMbcaV9fX4npG5hLWZLLZL2j69t1q405tqVss7FfVzw8ehh8RvQklerwhit4wZbk+P8HYBqvrUznbqg2cDiy5M2n4KUqfyhqtFKQgR2eLLtkyEcr9zPdzmzQYkMchTg4K+R9bzlrMXKVKWf6wVTcg2R9FMm+sGS+KCkxXv3bb7+hefPmIIOohrgWIENt586dhUyQ+RqHnK5o8N3PKNqslVWZ6vp/a4RCPuKlUHI8A2BefdhkWNMiHT8514u3Nq0+PhnXnuJdyOC4Y8RA3NuzQ1j6tESv6SZlVzObeSjEQUpjR9dcaDJxOgrUaSCiHJYGn2uXcXLWr3hwYA8iw8JQokQJTJs2DdRO0Gb+r+/W1atXJRTGlTBLcjNnd0b1gcNQoad1NsEtrF0OnBgA4H9SNyllxEtjKY4/s16KTCgv04rj51hZ8XFq9jSEePNDD6xfv97kpi4j7pPVbkIRk2+//Rb//PMPbDNlFv2Gij37KZfQjY7Gy+f+CH3uLyszOmsDqA9BkR8yv1LkxVi1uIfHDuHkzF/x9PxpsMqLzp+VPuRRSm5PhzXdYHZbDxgwIIaYkGLkpTt1RbWBFJ+yTsRy/M8BkF40rniGhV22pTh+Crj8RAEXvojkZPFomnaWg6fmzMC5hXMQFhggsz52JFaunLAOp4Xd/1QdDiUjWRc/b948GQf5muqM+AaupZMf4mH5JWflAY88wTp86pyS/4nJN5bchQa97pLOaO8gDj9rgULIWbykfAQIp9x5kLdSNWR0ckrUPvf27sTpOTPgfeUSoiLCpZOb1T59+pCNPH2CIbtTp07Jh9xARZ6jeClU6NEHpTt1UVVAJ7Ut/neLunhx/x6HwbIl8pElj5TLTBdiKY6/HQBm9fLkr15L9HpzlSWjQ9oACdxI3kYun6jwcOFWZ2NXzpyW1YNgSdZkc9bYsWNjkrkk6CNfS/4appfFRoaFwuvsKfjfuiH86J6H98OHDjkyeYJH5Iwq2vw9iUlTOa5gIlKP9/btwoUlf8LrzAkRbmGcf/LkyTLbTW8xf5KukW3z77//xunTp+VRI/tu2a694P5O41RpwDPn886k/6XlZGYGHzpKc8WQUZpzHMaey1IcP0nbxGoUL+ZyP6Nj4rMtYy/OnNvR0VCom3w+rPU2cPZrS/8374K/v78wM5KPhyDHfq0vxgg1rykggdqjY4fhdfYk2EhDgWvOvpUCOeLZVVqkSXNZhZA3Kj74wbm6+m+hEWfCl1VdFOp57733ULOm+WkmlLp2Y4/D+D1DO0zOM1fz/DkjHZAcHdk2qb9hiuSqsee1tO24yvynY3NZYQK4raejsbRhxozH4hx//W9+RPnu5G5LeyBF665RQyTuy2YVNvnQCWjO//W9fPHiBQYPHoxly5bJP1JUmzN9SeYaqbPKsrlnF8/j8qqleHr+LPzv3FT1YeEHwKVIURR/rwMKN24uYaHYoFrX3d3bcXz6RMkhMNxHrn2KxA8dOlTVsaXmwdmBy/JbSk0aJEY5YSvWqh2qfjrEIujUzWmf2WUKaI7fBIM76DV6hQMhLTt+jp/Of8cXlByG1HqzIYkfAKe3xItNsFWa3pRSlFwJMQFOuBQtgXpjxsGtZh1ksCVlU9J45e8HKmTd3bNdnL45yRDJJJm7XAVRkHN/p0mcwXK2f2/fTgn58c9Enjx5pLGPtf7168ewkCd9kRa+BSuxyKPPjzdFZgyz/LyVq6NUh84oVK8RsuQjQ3H6QizHz2B/dQA+lmoBS5jxUy2c1Txdqa9bb8wPKNXBosNjSd5Lzv4Y9jE4f3L3U0s1Pdf4s7uZSVyqkRHZCxWWss08FaqI7J4xIFsmHevTC2fBD0BqgKsS58IeqDNqbIKi4J6HD+DKmuW4vW2jDM/BwUFUxEjfTT7/QoVSX1QoJXZjeSYT8rdu3QLj+oRdZnth2azSfxCyFy4Ku8ws0kt/WNKoOoKeSNMuhXhJ1vafpVrBEhz/uwDW0BdQiav2iG+SFGO3VGMaxsWa/vv7d2PLwN7yT6RWZpMPaX3TI6cPP3yM/7KKh8iSzw3vzV0Kl2IlRH3JGAj3+Ucd4HP9iq5aJ5WRvVARNPxhsqxW4iIaQU+8JNm8e9Tnkuw3TADI5kpmT1b+pLVJwMaNG/Hrr7+CVOJ0+ga4liqLumPGwblQYTjlseyGS7UfGdK1X1ohqUredH75O6l9zuQe37i3LrlHN26/9/RGkmRQ9cHDYWfP6E/aBitKHhzchy0DesmFkMeHal1UcqKaVnoAQzuM55N7R3haGNMvXR4tZ/6JrPlNE4r/p0MzKdO0GNjYIF+VGkIrnKNYiTeGFRkejud3buHGpvU4++esmN+Ts8bFxUUYXRkCZDjIUkEeqhkzZmDp0qXi8CmKww5ceZ6zZUedkd+iUP2GcMyVx+j8jKVeqxLj4gd/SaNqhkOdAGCx2X2Lcvw1hoywqiYPzkypHbz36y+k2oezW7J5stOzd+/eVt3pyQ/c/PnzhVOflR8EdVXLde0FhvRMwaEJY3Fh2QJD4syUXVXdliGq9+Yuk/6DBFcu0dGICAuF9+WLOP3HdDw4tC9mPJwI8FmglOby5ctFVtNScPToUQnnkGqBtfn8aPMjYECdUd+hdIcPpfLO2KY3S7k2VccRHQ2J8+twkrxjqp4vBQfXHH8KjGfsrs/v38Xx6ZNi4r50EpUqVRIpP3L8WBPoLDiT3bfvtZPj9fXcewpZ8uY1WV6PFVLzKhdTtExTSXuTiqD90rXIWZxCcm9BdDSenDstvP5eZ+gTXsPw0eCzMGvWLNStW1fJISZ5LENJJu+boTontqM3HKDJxBko0aaDVTdiJWmsJDaYXZrknIJTANiUkrxmkpQOJIn9U9vxZwFA8o5ppGuVGf8AcrVZH9jkdeGv+TgxcyoiY82gGDel/mju3LnTJLMnHURoaChIyMWVDLn0Dcjo6IjCjZqh3uhx0gyVHCxv/Y6ETCwZ7/+zWXoR+Awbg8DHD3Fg/Nd4eu40Il69jKkCir0vm/8oSPPxxx+jZEld+Sg/ECwNZp8If/jnxNhgeV8YlqFTZxUOfwwrLx6Lus9z5szBqlWr3hwyz5Mpk1BouBQphkY/TUWOYnFLWI25zvS4zdyKHmBDIYBrACgna0Hxydd3xLgnVb07yHXRREousnW+5tBRKPMB1RetFzc3/4vzS+bD7+Z1ofc1gGVxbm5ukgdIC2RfdCws42Psd8WKFcJVYwBDOfbOLnhn3CQUqJ1IGMSIWxwa8ALkOn/p52vE1qm3CZXiqvYf8laKh8RGd+Wfv3H+r3lS/x8aGABes74J6I1dWBJcvnx5VK1aVUJDZAdNrEooKChIPsZMxNLJk0aEfyY3fkJg2IqcRZS6zJQlC0p1+BCl2ncWcjUNxltgfY+O8Dp1nDuwlJO+TSfVZ2FIbcdfVc9pkTtXmQqo/cVoaeSxdrC9/9i0n6Xyh5wyhsoPOnw6UZb/sQIkRw7LI/njrPH69evi9BcuXBjTfct7lskpC5zy5kPpjl1QqlMX2KfAaTDEw7AISfBoL0uGs0cxtF+8GtSRSDaio3F13SpcXbdSrpcfgpe+PggNeC4NgUqDjp6TLYccrrDNmFE+1JRC9GjWyiqKK5S2l7HHu7xqCfZ/P9qw+XYALYzd15zbpbbjZy3cYV5wibadhKOHD2N6AZN+nO09u3QBL+7djkmg0eGT0rZRo0aS/CtevHiqNoAxTHD79m2Z3bPzlj0JsUv6mOSjUpZbzbqipUCxjZTipZ8P1nVrH1vSLqWHVG1/Os0P1u9UTD+CqykSyt3ZuRVep0/oVgGAfAxIBMi/k2k0sTARt6VjZ3Wcnb29zOTZfMYPs6FnggR07g2aoEiTFrB31mb1Sj0cXJ0uqhuTt9McfyKGjXH85OlmLDg94sHBvbixcR38bt2Az9VLMSZgDJcsn8wB5M+fXwS+K1asKB3BasPPzw+XLl3CkydPpLJjzZo1IjTDeL4BDAnkr14HLh5FJTRAQjOlEPz0Cf7t2QmkQ7B0sDS144r/4JSbyWv1QKf//N5doahgo9BLX2+E+CYcBmMTFfMqVLrKXsgd2d09hEIhrWvcqmddZY7Mj/KCmmW0GX8S5tQcfywDkef99rZNCH72FJ5H9r8R4ihbtqx0gDIXQPBDQC54/jDZlxxwdsl4MLswyY3PWm3i/v372Lx5M65duyaJwdjIXb6SUBc45MyFCj36qiKPGPDwATb0+RABng+Sc1lm3adg1Zp497d5EjbRkL4tEM/x7wbQFoBIc1kSUjPUQ3mlxgB20iDpecYf+4GIjo5C4MOHuLnlX4nxkp7A+/KFBOO87u7uUhbKn/gJYf6ddeKx68s5W+ePoQnHcF7G6y9fviwsi15eXgk+n66ly0ooh+35brXroUBNdUoOgx95wu/CGQR5PsDxxfMR4m/ZiV0ay6NcBXi0aoeshT2Qr9GbDJ6W9MJrY1HXAqEBAVjSuDrCg0WHhXW7ZB5mhY9FITUdPwk9PiQds00GW1Ts3V86ATW8tkD4yxB4X7ogHav8s8+Vi3h47DBCX+iob98GOn57e/s4jp8VHXT8CdVoxz8WQwT5q9UUWmJbe3vkLFEK+avVgq0KPCzUKvU9fQLPr11CyKOH8L98AeEBL+D5+BHC9JQHSV1vav3ePrM9cru6IqOdHRxy50Ge+o3hUqEycqv0YUyt69TOa5wFwoKD8G+PToaQ7X0A3wFYYtze5tsqNR0/A9WjAHzFErIq/Qai6mfWS2Gb0lvKyo4Az/vwvXEVVJkimBN4dumcJIf1Qs8mn4YrAgfXXMhVpjwYwsmaTxdGykxqgaIlhFpBrbgwr8n/0nk83LYBgbdvIvjhgziljA+9HiM0kfJDky9UhR0c7TOh3bs1cf2eD14E6ktzbWyQxb0IXKvUQIFW7eBUIG2TsqlgNqs+JCuyTvw+FWcXzOZ1MiFG0YlBlnbRqen46WFWkIk5S958qDZoOMq8383S7GPR42EFAZOgwc+epKCz1QZstHLMnQdZcueV6g9z4JXPM9xZuQTPL19E4N24DVq1KxdFywblERERjiE/LERA0Ot+B3OMzZhz2NpmwMi+bdC9bX089Q3AqUv3sHjdYYRH6OgpMmTKjOwlSiNXzToo0tm6e1OMsVd62YahWtKFr+vK0L5gOfuULO36U9Pxk9mKhOqOuStURt0vv0O+qhZLbWFp9y1NjyfU1wdnvh+F4Af3EBmqI29zyeaID1pWR61KRZErR1bkz+0sjbDv9Z+Eg6evGxWeMpdRnBwzY0iPFhjUvRlyOut4h54HhuCOpzfW7TyD/3bxsdYhY3Zn5K5VDwVbd0D2EknQOpjrArTzqGqBF5738XezGNZWzfHHszbfgqv8N49mrdFo/BRVqkNUvcPawU22wCs/H5waORhM4hIMNbWoVw6fdmmI3DmzIquTfZxjenr5om6X7+Dj/1ok3eSTKrhDjQpFMbR3KzSuWRbZs+rE2WPD73kw7j/2wZdT1+CJt67+nrN/e9dc8OjSE27NWis4Gu1QlmgBzfG//a7EOP6SbTuBBFDGcp1Y4s3WxpS0BSJCgnGobxeE6kVU8rhmQ59O9dCmUaU3HH7soz31eYEeI2fi0OnrSZ9EpS2cHDKjZ4cGGPNZe2TL4oiMdomLx0RFR8PbNxAHTt3AD7M2xIzIztEJRXv0RcFW7WCbOe4HTqVha4dNBQvEc/xrAZCbXZeYsxCkZqjnteNv977O8WuwagvsatckJrRTpIArfhn1ITwK5YKtEVq7r0LDcfrSbTT9eIJZbUSH36tDA/w4rAsY13+bw48/sMioKJy8cBff/f4fvJ7pKrHYOctZf9FuH8M+JRQPZrWCdjJTLMAelJVtGhnI93YB+EwvwG7KYVTdVnP8qppXOzgtQC6ifd3bSYkmUShfDiyZ3A85nUnOahr4AVi/8wRGTFyGkFdhiIiMRGSkThwkpeAHyM7OFhlsbOCS3QkLJ3yKBjViujCTfXhvv0DMX30A/2w9GTNWl3IVUXboKF3Vj5GsnskegLajWS0Q9NQLG/t1g/+tGzzvRX314lazDiKJk6Wm4y8N4ArHV1Kb8VvSM6HoWChDeXbsl/A5fRz8s6tLFiz46WN4FMyV4vMwlj5/1W5s3HsawSG6/oSw8AiEhkVIdU38jwIdegbO2m1tkTGjLTJnsoOdrW1Mr0Pz+hUxtGcLFC+cz2hJSGMvgrP/RWsPYd4/B/DylY4h08m9CCqO/gFZyW2kOX9jTWnx21EPmrTbt7ZKmC8AwFQA4y1p4Knl+Nm1S1kyUd7WHL8lPRLKjuXFzWs498NovPJ+Jr5tVL+W6N6W+hTK42VoGM5dvY+TF27j2p1HePTED4+e+cuJ6PSzOGaGa45sKFIgN8qVKIiqZYugaKE8yJwpo/KDSeSIf64+gMXrD0uJKkWtnAp7oMrYiXDU90+YbSDaiVSzAGv5r29ci33fjjScYyaAIaqdMBkHTi3HT2KZlgA2sKqjZPsP0HjCr8kYvraLJVsg8tVLnBz1OV5cl4UdqpUrjEU/97HkIZtlbAvWHMRf/x6B/wtdvi/PO01QftgY6ZDWYB0WeHbxPNZ80Epz/PFuZyYAXQEspspP2Q+6o97XFrUSso6nL5WvwmvfLtxYMEtm+85ZHbBr8UgJr2gA5q7chyX/HY1pTis1YBjc21GwSYM1WEBz/AnfRU5thgGYQGrf8h/1Rc2hX1rD/dauIZYFznw3Et4nJJondfqDujVSPHaelg3+x4q9EvYJeRkmMf5K3/yIPHUbpuVL0saut4Dm+BN+FFjOwbhXL3uXHKjcZwAq9xuoPTRWZIEXN67hym+TEXDrupRB7vlrJHJkd7KiK0z5pTAZ/fPczVi9/TQiIiKlvLPenytVIcJL+Wi1I5higXiOfx6Az/XcPaYcRrVtUyvGT4K2bUzwZs3vhuqDvkCpjiTq1GAtFrg+fyY8N62Xuv3WDSvgu0FtQVIzDXEtQJ6fTkNm40VgiHT4FvuoD4p88JFmpjRuAVKpr+3S1sChRU4yRjieWsplpZbjp2IFmbmy5yhWAnVGjUWhetoS11IeCiXGcXHKeDzezW87sGRSP1QsXVAqazS8aYG120/j+5n/yS+yFCqMuvP+1syUxi3ge/0qNvTtKippACjBOALAa3m9VL6+1HoTqUotX79cZcvjnbEThRJYg/VYILbj3zjncxR209SpEru7bECr2nEcIqOikTFbdpToMwAFWrSxnochHV7J87u3sWP4ANHSAHABABXYt1iKKVLd8eerUkPoGrIV1HjLLeWhSOk4Qv18cXnGJHgfPyyH0hx/0hb9a/1hTF24HTYZMiBHpWqoNmFa0jtpW1isBaiJfGTSD7i1bSPHyCau7wFYzE1NdcdfqEFjtJq5EBkymq+JxmKfFisZmP+lc7g+byZe3LiKnC5ZsGxyPxTIm8NKrk6dywgKCUXtD3+SgzuXLoea0+aqcyLtqGaxAJW4Lq9ciqNTf+T5ogH8oHf+Zjl/UidJdcfv3vBdtP7jr6TGqf0+DVnA++RR3Fj4B4Lu3oZbHhcs+Km3/F9D4hYgo2fFtmM1x28lDwkrth7s343NA0jMKaDj191gC4Dm+C3gJljbEJ5fuYRr837Di2uXkSGDDf6bPUSL8SdxkzXHb21vAeB5aB829o8R39IcP4CY5K4247e+Bz7sub/E+J8dPSgXp8X4k77HmuNP2kZpbQvN8b95xzTHn9aeYhPHG7uqZ8Mfn4P8+xoStwDZRKt0GKeFeqzoIdEcv+b4rehxNu5SLk79UVfHHx2N2WM/Qp0qxYwSXDHu6Na31c7DVzB84kqhbiBXf40ps6zvItPZFcVz/MzyfqdP9Ka6JbQYf6rfAuscwO3li3B/3SqEBwWiZJG8wsoZX083Na48KioaDKvY2ZIZ3DIQFRWF6u//KFoClGd079hFOng1pG0LxHP8lBj8FoBFiEdrjj9tP1sWO/pXPs9wYdI4+F88J2NcNqU/KpYqaNbxPvUJwAMvX3GoBoSGRSI8IkK4+WODgiy5c2ZDwbwuosJlTlCbd9C4ZXJKp4LuqDtnqUg0akjbFvA8cgCbPvkI0ZGRvJBFAL4G4GUJV6U5fku4C1Y6hiuzfsHjHVuEr6dmRQ/M+b6Hqk6VilvX7z7Bwyf+InF44sJd7DxyJYb6+G1mdnTIhKplCqNx7VLCKURCucpl3FWnkb7z0BsfjZiPwOBX0stSqE0nlPzEojQ7rPTpVP+yHp84iq1D+iJUJzn6r75795r6Z076DJrjT9pG2hbJtAAbuJjkDfa8L0cY2bcFeravk8yjJbwbnf2t+89w7c4TITrbd+I6Llz3RFi4zLKSDeoCd2haRT4ApYvmR+mi+ZJ9rMR2pLMnO+fWAxcRERklKlx15i4FNSo0pH0LPDl3GjtHDELgI09eDNvYR+n/n+oXpzn+VL8F1j2Ae2uW4/bKvxARFCQX+tUnrdC9Ta0UXTSbYx4/e4EjZ2+B7JaXbjzC2av3dbz28VC5SmV4eBTFnwv+jPlN5cqV0br1ezF/DwsNxc2bN3Hq1CkEBcYNwVI4pmrZwqhazh0eBXKhTuVi4OogpWCn7opNx7Bw7SHwz0zqlv38SxRo2Talh9b2txAL+Fy9JPKLzy6Tqgd39URt6yxheJrjt4S7YMVjiAgJkVm/94nDEut0csiEPp3qo/8HDUwSZaE+rd+LIOw4dBkPvPzA+P3JS3fxPCAkjvWcsmRB02ZNUapUadja2qJc+XLInj07SpYqFbNd//79MW8eKdJ1CAsLw907d3D+3HkEBwfD2/sZVi5fgYAAUqzoQIlQ9/w5RT6yVNF8eKd6CeR1zZ6sO/fMNwBrtp/Gik3H8TxQN/5Snw2Fe/sPknU8bSfLtMCL+3dxZMqPuKtjqeWNHg7AIrg4NMdvmc+MVY0q4MY1XJg8DsEPH8h1ccbcqkEFVCvnjhb1y4tQS0JgtcuZKw+w++gViYEHBofi/DVP+D7XrR4McHBwQOMmTVCjZk04uzijQsWKcHNzQ4YMuuN6enqiUKHXJIDxHX/8c9PhHz54CC8CXuDQgYPYtnVrnE1y5ciKMsXywy23M9o2roRSHvkSvYb4xz585hY27j2HQ6dvSWiKKNl/MAp3ohKpBmuyQIivN87Mm4kLS2JWm+Tkn24J16g5fku4C+lgDP6XzuPOyiXwOXVMrpbOPp9rdhQtlDvRmT9DOk98XuDuQ584lTnc387ODlWqVkHb9u2RL18+FC5SRJw9/z0+THX8hv2jIiPxwNMTN2/cwNUrV/D30mXw9fWNOXxGO1uUKJIXrs5ZUDBfDrR/t7KUrsYHr+PqHS9s2H0Ox8/fwX0vX4TrcxClBg5DgebvwTazJrRuba9B+MsQXF6xFEemkK1BoDl+Ax+/RtlgbY974tcT8vgh/K9cxCUdY6HJ4Ay+RIkS6N23Dzw8PODi4oL8bm7InPntydDkOn7DAOm4AwMCcP/+fVy+dBnL/16GK5evxBm/g30muOVxTrRXISDoFR4/e46Xr3R5CBs7O5QdMhJ5G76rOX2Tn4S0sUN0VBRubFyH3V8N1Ry/3gIaZUPaeHYVH2VUeJhU+ficOYFbSxYgKiz0reegs2/Trh169e4FRycn2NvbI1euXEk6+9gHTanjj32sV69ewdfHB2PGjMH2rVvh5OhkUq6Cx8pTryEKte0E51LlkCFTyhPFit8k7YCKWeDmpvXYOXKw5vg1x6/YM5V2DxQdjcjwMEQEBwlTeURQIF4+fYLLq5bg7p4dCA8Px8xZs9C6VStkypQJDo6OcHIy3cEaDKSk4zccc8CAAZIgZtK36c/T8PzUcficPArO8hKEjQ1y166PIp27i7yirYOjiK5osG4LaI4/7v3VZvzW/bybfnXR0Tg8aRzO/zVf9j148CDq1atn+nHi7cEwzbFjx1Cnzuv+gaSSu8aclI5/zpw5smnntdvgWrI0oqOotxEtzp+dy4RtJntkcnZmcAc2GfhjK6WbGtKHBTTHrzn+9PGkp+AqD0+k49eVWR46dAh169ZNwdF0u0ZGRmLNmjXo0qWL/J2lncOGDcPYsSnTxIjt+D9Ytx2upculeKzaAazPAprj1xy/9T3VCl4RKyCoUXp51VJFHX9ERAQmT56Mr78mTQr+395ZQEd1fGH8ixEhaNDg7u7uRYvDvwWKFYpTpGhxd3eXokWLa3F3d3fXJEDkf77J2zQEApHN7tvde8/JKU32vZn5zdtvZ+/cuRfJkiVD7969wVV/ZEyEPzL0bOdaEX4Rftt52iMw0hfXr+DgyEG4vXuHCsncs2cPChUqFIE7fX4JD2e1bNkSc+cyRxaQJUsW9UFQqVKlSN07uPDXWrYeCbPlFBdOpIha58VfEX5m6aRP0KxmLmej+PjNOu36a/zRyWM4OHowHh4/ouLy169fj9y5c0e6ox8+fECVKlWwfft2da/8+fNj0qRJyJcvX6TuHVz4y46YiDQVqsDBSSJ0IgXVCi8OIfzdAYwB8MncQxXhN/cMSPuKQHDhT5o0KdauXWsU4WexJygyAAAgAElEQVT4Zd68eXH+/HnVTqlSpTB79mykSpUqUuS5TzB58mQVgZS7eVvkadEOTtHdI3VPudj6CIQQfp7kGgng86PnZhi2CL8ZoEuTXxKIKuH39vZWJ3pfvnypGuXqf/HixYgRI0akpmHMmDEYNmwYnj59itRlK6LkwJFwiR0nUveUi62PwNUNa1SGTs3GAhgC4Jm5R2p+4S9RBpWmzoOdncQ0m/thMGf7TGGrXD3HDsPT0xPr1q0zyorfy8tLnQEwWM2aNVWUD+PvI2MrV65Uh7iuXLmCBFlzoNLU+XCLFz8yt5RrrZDAtU3rsL1bO/h/Ut6dKQAG8guuuYcauac/4r0P8vEnLVQM5cdNh3PMiGU6jHgX5Eo9EXh+9ZLa3L2z91+4u7srn3yBAgUi3cWQwl+rVi0l/JG1/fv3o0OHDiqVc4zESVBz6T+InuDLPD2RbUeut2wCN3dswc6eHQ3FWOYB6AcgsECFGc3swp8oZx6UGjwGcVKnNSMGadrcBFilaP+IAbi0cqnqirHi+KNK+M+dOwdu8LKf0dxj4Kd1O+GeyNPcGKV9nRG4tWs7/u3VGd7PlXdnmVZ396q5u2l24Y+fJTtK9B2KBAyHE7NZAjztypO7hhS2ehf+W7duoVmzZtixY4eqj9tg60HE8Exis/MnA/86gTv7dmF33654++A+X8D83ozsUZVZzGnmEn4PAKcBJOFKv1CXXkhZspw5OUjbOiCgUjbMM+7J3aha8b948QINGzbEhg0bFLlfdhxGDM+kOqAoXdATgXsH92JXv254c0d5dw5rxVgOmLuP5hJ+hj9sBZCXX4/ztu6IzHXqmZuFtG9mAsGFf82aNahcufJX8+uHp5tRJfws1tKgQQO1CS3CH54Zsa3XPjh6EHsG/okXVy9z4FzpM0fzLnNTMJfwcyeXztwKjITI/Vs7ZP/lV3OzkPbNTODYlLE4MWsyfL291cYpUyvEjRs3Ur0S4Y8UPrk4kgQenTyKvYP74Glg3d17AFoCCPyaaEYzl/Azvm4ogHYusWIjR+PfkKdlULECM+KQps1J4Pau7Tg4ZiheXL2k0jGfPn0aGYPVyo1I30T4I0JNrjEWgWeXLuDgqEG4u383b/kYQAsAa411/4jex1zCz5JJXOJPdnJzQ9Z6jVGoc2ASLTHbJrCjRwdcXvO3gnDhwgVkypQpUkB4gCtDhgyq7i6NB7iWLFmiQkYjY+LqiQw927n2+ZVLODRmiMpBBYDl15oAWGxuAuYSficAzJO7wN7RCZnr/IziffgFQMzWCez8sxMur14O5tFnagX60bn6j6gxV0/58uWxe7dacaFEiRKYNWsW0qaNXPjwnTt38OuvvwbmALKzwy/bD8nmbkQnyYqve/vgHo5OGoNLqxnJqawRdc/cQzaX8LMidlUAK1mFKGP1OiqWX0wIMJzzxMxJ8Hr2FLFjx1YnY1lqMaLG7JyMt58zZ466Ra5cucB0CyVLlozoLdV1Z8+eRevWrVUcv3Os2Pjfmu1wT5Q4UveUi62PwLtHD3B0ylhc/DtokW/Twu/AfFkAtnGqM1SrjTLDmK1UzNYJ+Pp4Y3P75uoEL+3IkSMqyVpEUyxwZV6hQgVcvHhR3Y+ZP5lqoW3boDqoEUK+c+dOdO7cGadOnULcdBlRdfYSuMXngXQxIfAfgY9v3+DkrCk4PmOi4Zc2Lfz8ppEHwFERfnmbhCSwu38PXF6zHL4+PihXrhw2btwYobBOJmbr0aMHpk+f/lkTdevWVZk148WLF2H4Y8eOxdChQ1WStlRlK6DUwFGSpC3CNK33wk/v3+HUnGlq1a+ZTQs/GWQEoJZhsuK33gc/IiN7cu4UdnTvgJfXA0+2M0Vz1ar0DIbd3r59q1w6/foxNQpUrnzn2HHg9fQxUqZMqX7/yy+/wD6CBc/p5mHNXe5FFO05AJnr1Ieji0vYOyivtAkC/n5+OLtwtjqVLsIfSECE3yYe/YgNct/Qvrjw92L4enuB+fnp8qGbJiz28OFDzJs3D3369AFLLzq5RUfWnxvCztEJJ6ZPULegj3/48OGqMEt4jf59unm2bVOeStRcug4Js+eKsDsqvO3L6y2LwNlFc7F3UC8Rfo2ACL9lPb8m7e2r2zexsVUjvLp5Q1Wq4wbt6NGj4erq+s1+cLN16dKlajOXoZz2jo7I374rcv3aCm/u3cH+4QNwa+cWdQ+6keiuYaWvsO4h0Kc/ZMgQ5X56//49YqdKjUqT5yF2qjQm5SONWQ4BEf7P50qE33KeXbP09OrGtdjdpys+vn8HJycntSHbtGlTZM2a9Yv+UOTnz5+PhQsX4vjx42AYJ61I977IVr+p+gBgIrjHZ06q9M8PTxxRfy9dujRatGihQj5jxQo9NTh9+SwHySIu/HBhZS+HaNFQsHNPZK5VD07Bcv6bBZY0qlsCIvwi/Lp9OPXasctrV4Cx/QF+fnB2dkbhwoWRJ08esKBKunTpwKgdCjIPe+3duxcPHjxQQ2GYcMkBI5ChWh0l+gZj1ND9Q/tVlAWrftHSp0+P7NmzqzQRrAHAYu80P/pnz55V5wnu3buHkydP4vbtwFTqTq5uyFq/sTp17uYR8XBTvXKXfhmPgAh/KMKfvkoNlB467rM3qPGwy50smYC/ny9ubt+MLR140j3QWFGLYh0nThzwBO3169eDSivy7x4ZMiHPb+2QpsKP6gMgpFH8n108j+PTJuD2HnWiUlnOnDlV9S+WakydOrX6IOFK/8yZM0HfIPg6+vMz1f4ZqUqXh6tHxCODLHlepO9hJyDCH4rwpyhZFiX6DpMDMGF/lmzqlVztPzh6CDt7dcbb+4GpF75mDvxG0KU3kuQvhNip08Le4b+VfsjX857MkX5yzhRcXb8GH9+9DXqJi4uL+nB5/vz5Z5fFSpFKbRInL1Za5d53dPn2foNNTZIMNlQCIvyfo0mvpSl15gqqcNc+SJwn/BEW8rzZBoGAAH+8vX8P7x8/xKl5M3Bnz7/w+/hBia9nvoLI+lNDJfbuCRPD8TsbwMGJ+bx6Ce+Xz3Fsyjjc3L5JnR0Ibvww4cIk96+t4RLXA65xPZSbR0wIhJWACP/npJID+AdAjpjJUiB/+y6gy0dMCHyLADdoP3m9h9+HDwhAAOxgpzZZHd3cvrnC/x5VbiD7+fjg/dMnOL90Aa5v3YhivQYiaYEioPg7RXcPc+TP99qSv9sWARH+z+ebO2KjWbyIftK8Ldojm+Tkt613hC5HG6CifwL8A1RJxbCGeepyKNIpXRAQ4f98GpgXtzWA4SxWnatZa+Rp0V4XEyWdEAJCQAgYi4AI/+ckuTP2C4DpDk5OyNGkJQp2ZB1iMSEgBISA9RAQ4f98LplkvRqA5fx19obNULRHUD4L65l1GYkQEAI2TUCE//PpZ4A1k6KrQGoRfpt+b8jghYDVEhDh/3JqCwPYL8Jvtc+8DEwI2DwBEX4Rfpt/EwgAIWBrBET4Rfht7ZmX8QoBmycgwi/Cb/NvAgEgBGyNgAj/N4Q/c+16KoUuT0iKCQEhIASshYAI/zeEP0WJMijcpRfipGEKHzEhIASEgHUQEOH/ch5zAlgNIGXcdBlRsFMPpCxZ1jpmW0YhBISAEAAgwv/lY5ASAMvPV3dPlBgFOnRThTPEhIAQEALWQkCE/8uZ9ADwB4DuzjFjIf/vXZGtXmNrmW8ZhxAQAkJAVvxfeQa4k9scwBhWSmJqZknUJu8UISAErImArPi/nE0nAHUB/MU/5W/3B/K27mhNcy5jEQJCwMYJiPB//QGoAmCdCL+Nvztk+ELASgmI8IvwW+mjLcMSAkIgNAIi/CL88u4QAkLAxgiI8Ivw29gjL8MVAkJAhP87wp+7eVvka9sJDtGc5WkRAkJACFgFARH+7wh/uio11CGumEmSWcWEyyCEgBAQAiL8X38GSgNYCiB+gmw5UfiPXvDMX0ieFiEgBISAVRAQ4f/6NGYDMA5AafdEnijSvR/SlK9sFRMugxACQkAIiPB//RlICqAPT/AybUPRngOQoVpteVqEgBAQAlZBQIT/69MYBwCP6/a2c3BAsV6DkPWnhlYx4TIIISAEhIAI/9efARcAvwEYzz9T+LPVbyJPixAQAkLAKgiI8H99Gu0ANAIwV4TfKp5zGYQQEALBCIjwh/440LczX4Rf3i9CQAhYGwERfhF+a3umZTxCQAh8h4AIvwi/vEmEgBCwMQIhhJ+VppR3w5xG/7oeLMjVU7RHf2Rr0BQszCImBISAELB0AiGEvz2AGQA+mHNcuhP+HA2bI3eLdnCNy6qMYkJACAgByyYgwh/6/P0EYA4A12RFS6q0DR4ZMln2bEvvhYAQEAJAyJq7suIP9lSU0OL4c8ROmRol+g5DkoJF5KERAkJACFg8AVnxhz6FGQEMBlDTLV58lBo0GilKlLH4CZcBCAEhIARE+EN/BhIzZQOAVo6ubig7fDxSl6skT4wQEAJCwOIJiPCHPoWxAXQD0J3RPOVGTkLaStUsfsJlAEJACAgBEf7QnwEnAJ0ADONLyo2ajHSVq8sTIwSEgBCweAIhhJ8L3MkA3ptzYHoJ5ySDDgDGivCb83GQtoWAEDA2gRDCT5f2BABvjN1OeO4nwh8eWvJaISAEhEA4CYjwfxuYrPjD+UDJy4WAENA/ARF+EX79P6XSQyEgBIxKQIRfhN+oD5TcTAgIAf0TuLBiMfYN7g1fHx92tp92WPWVOXuuSx9/wY49kLVeY0RzdzcnG2lbCAgBIRBpAhdXLMbewX3g6+PNe43Ufp5G+saRuIGehJ85LBjVY5+5Tj3kbd0J7ol4rktMCAgBIWC5BET4vz13PwMYDSBxkvyFUKzXYMRNl8FyZ1t6LgSEgBAAcHHFEuwd0hu+3rLi/9oDURbACAC5YiVPibIjJiJhjtzy4AgBISAELJrApTV/Y9+Q3vj49i3HQa/GcACPzTkoPbl6sgMYCqASE7WVHzcdifMUMCcbaVsICAEhEGkCV9atwr6hfeHz8gXvNRPAAAD3In3jSNxAT8KfXMvQ2cDJzQ2VJs+T1MyRmFi5VAgIAX0QEOH/9jzEAzAIQAs7ewdUmbEQyYowTb+YEBACQsByCVzbuBb7hvWD19MnHMRcLaTzjjlHpKcVf3QAAwF0JJAfZy4Cq3GJCQEhIAQsmcCNrRuxf1g/vH14n8NYAaAHgGvmHJOehN9B8331FOE35yMhbQsBIWBMAiGEfz2ALgAuGbON8N5LT8LPvvcH0EeEP7zTKK8XAkJArwRu/bsN+4f3x+vbN9nFrVoK+vPm7K8IvznpS9tCQAhYPYHbe3bgwPABeHlDeXcOA2gN4IQ5By7Cb0760rYQEAJWTyCE8B8H0BLAMXMOXITfnPSlbSEgBKyewKOTR3Fw1GA8PHGUY70LoAGAPeYcuAi/OelL20JACFg9gcenT+Dg6MF4cPQQx/oQQD0Au8w5cBF+c9KXtoWAELB6Ai+vX8GhscNwc8cWjpXpmOsA2G7OgetW+KtMX4jkxUoBdnrrojmnS9oWAkLA0ggwmufQuOG4vnmdoes/AmBYp9lMb6oaFM5ZtOcAZKr1M5i+QUwICAEhYKkE3j16gMPjR+Dymr9F+EOZRAo/q9Db5WjUHLl/awfXuB6WOt/SbyEgBIQAPrx+hSMTR4ElGDWTFX+I54JHmfsCcM5Yoy4KdOyO6PETyqMjBISAELBYAr4ffHB00hicnDVZhD+UWWyi5etJkrRwcZTsPxwxkzJpp5gQEAJCwHIJHJsyVq36ZcX/9TmsoaVmzuSRPhN+GDsNcVKntdzZlp4LASEgBHhaS4T/m89BOQDDAOSm4FeYMAtx0qSTB0cICAEhYNEERPi/PX0FtfKLxWImS4FKU+Yiblqpu2vRT7x0XggIgZAr/qkATmox/Q8A8EdlcDOV6S2cM5NWcL1i9ISJUGXGInikz2gqFtKOEBACQiBKCIRY8b8E4AXgPQDWY+RP8Bq8bwDs1tI6PI+KDplD+J0AUOAZrsOfOMEG5g6gFoA8rvHioeqsJfDIkDkqxi33FAJCQAiYjEAI4f9eux8A3AJwW/uAuApgIQCmcvb/3sVh+XtUCj8Lq7BaOoWchdSjaR2yBxATgAsA12C/N/SXf3ONFiMmqs//G/EyZQ3LOOQ1QkAICAHdEggu/KUKZkHsmNHx5Nlr3Lz3BA+e8AvAN+2t5gp6DWCf5hWJ1DcBYwt/CgCtAJQHwJU9V/A8gcWyiuFqy9HNDTUWrkb8zCL833sq5O9CQAjom0Bw4Z8ztCVKFsiMT5/88OHjJ3z85BvU+TfvvLFm+zGs3X4Utx88+9qg+CHAGo50B9XVvhWEe/DhEuNQ7s4VOvNLtwfgCCCGtpIP9d729vZIntgDyRJ7IL5HrKDbPn/5Bueu3MXzV+/g6OqGGn+tQvzM2cI9KLlACAgBIaAnAsGFf+WkTqhYPOdXu+fvHwAvnw/w8v4AXz9/XLv9COPnb8L2g+fwKdgHBIAAAKzezg+CUgDuhWe8kRF+ZwBMN0d3DgWfP5+Zk6MDKhTPieZ1SyN/9rRwcqL3J9Ds7exgx59gV7x4/R7dRy3Gso0HYWdvj1rL1iNB1hzhGY+8VggIASGgOwLBhX/hyDaoXjYfHBzo9f62BQQE4JOvH/z8/XHgxBV0HLJAfRiEMG8ALPBSBsDH792Tfw+v8NNPT9/8EQBBcZYUcEcHezg6OCB7xuTo1aoG6Mfiyj489urNe3QZ/hcWrduvLqu9fCMSZBPhDw9Dea0QEAL6IxBc+GcMbI66lQohmtMXa+Uwdfy99wdUbTECpy7dhs+HT+CHg2ZPAYzRfr75ARBW4efqPjYAxp9W0fz3sLe3g0fsGPBMEAdt6v+ABtWKhanjob1IhD9S+ORiISAEdErg2NRxgSkbAgIwomt9NKlZEtHdKKsRN19fPxSv3w/3Hr3As5f0+AQZ04B21FxBn77WQliEPzGAigD+BJDacJM0yRMiYbxYmNi7MTKlSRrx3ge7UoTfKBjlJkJACOiMwOkFM3Fk/Eh88nqPni2ro02D8ogTkzEvkTOu9i9cu4f6nSfh0bNX4OawZiztOBjAXgBBvzT88VvCz+8hqQAMBVAdgHLQp02eCIkSxMLMgb8hRZL4ket1iKtF+I2KU24mBISATghcWLEEh8cPh/ezp2het4wSfy6cjWXPX73FlMXbsHLLYVy5yeqOys4AGKIVfeFhsSALTfjpx8+j5cZnaKb6WsIN2o6NKyn/vUM4/fdhGaAIf1goyWuEgBCwNALXNq5V5Rff3LujAl7GdP8FKZMad+Hs7++P/SeuoOuIRTh9iWe/lJ3WdHwbAJ9vrfgp+sU11w7/i+wZU6Bkvkzo2KSyUT+lQk6eCL+lPc7SXyEgBMJC4Nau7Tg0ZiheXL2ELOmSYv7w1sic1jgu8pDt7zt+CT1GL8WJ8ze4pUDbCaATgLOGk78hV/x07+TXvh6U4BU8aNChcSUUy5MRri6Gw7dhGWr4XyPCH35mcoUQEAL6J/Do5DEcHD0YD48fUad2103vijxZ6EmPGtt99CJ6j12GY+duGBpYAKCrISdQSOFPD2CctpmL0oWyon/7OsidOaWKuY9qE+GPasJyfyEgBMxB4NWtGzgwciBu7dyqtHTngt4okCNqa43sPHQevcYuw6mLTPujbIRW6OpdcDX3BMDaYNzIVX78gR3qIlcm04g+2xThN8cjKW0KASEQ1QR8Xr/CgWH9cWnNctUUhb9gzqitNcJTwH/9sxdDpq3BncD0D0zzwAO3lw3C76bFfQ7koS5+BRnU8X8oni+TSVb6BuhM1dBlxF9Yuv6A+pUc4Irqx1HuLwSEgCkI+Pv5Yf/QvkEF100h/BzXi1fv0KLPLGzacwrc/AWwGUA1g/BztX8MQOK4sdzRtkF5dGxSCc7RmGfNdHbv8Qt0G7EIq7cdhb2DI2ouXYcEWZnYU0wICAEhYNkE9g3tizMLZplsxW+gxQif5n/OwLmrd/krbvd6UPi5Y7sKQGX+tkyhrGD2uPhxmXvNtHbi/E30HLMUe45ehKOLK2osYnZOSdJm2lmQ1oSAEIgKAuYSfh7yqt56NHYcPAu6fwBMp/AzJz7zPDtlSpMEU/s3Q/7saaJi3N+954ZdJ9Bn/N+4eP2+ZOf8Li15gRAQApZEwFzCT0Z7j11Csz+n4+5Dlcbfm8L/uxbJg6J5MmDz7B7hTq5mLPjTl27HwCmrlF/KJU5cVJ2zDPEySgUuY/GV+wgBIWA+AuYUfj8/fxSs0wvnrwVmb6bwM4ubE107/drVRpNaJc1GZuDkVRg6fY1qX0ovmm0apGEhIASigEBUCT9F/f7j53jzzgdZ0icLNeVyvlo9cf7qf8KvnD48TXZ0JdM6fN0MqT+jMp4/uPC7eyZBlWkLEDedFFuPgmdQbikEhICJCQQX/tVTOqNsoWxhysn/rW76BwTg4MkrKNd4MGK5u6FpnVL4s1UNuIU4bMvCLsXq9VNudMOKP0j4j6wY/NXwTV5099EL+Pr6IoVnfLhHZ1YH41tw4Y+VPCUqTp6LuGl5pkxMCAgBIWDZBPYP64fTjOoJCMCMQc1Rp0LBSEdOcrX/9+ZDaNZzOvgh4OIcDQ2qFkXnppURJ5Y7YkR3wdv3Pug1bhkWr9uvKnsBeERXjx8LYqVJlhCrJndGupSJPqPLPM+rthzGqDkbcO/Rc0zp+ysaVC+mCq8Y24ILv0eGzCg/dipip4ra023GHoPcTwgIASHwNQKHxw3HqbnT4PfxI4Z0/gnN65SJdE5+tvP0xRvUbjdWndBltS5a3NjuaFqrJCqWyIXNe05h7spdhpz9DOavQOFn3uZirAbzQ9HsGNuzIZIkjKs2WK/efoQ1249iyfr9ePKch76A3m1q4Y9fq4BlFY1p3h8+YsCklaq+JC1RrnwoM2wcuPIXEwJCQAhYOoGTs6fixIyJ+PDmNdo3rIjuv1VVeXuMYYzW6TZqscrKefMuS/GGakEHuLIAOMWauXFiRUeNcvlRLG9G5Qtavukgbt1jNS8oF1C5Itkwe0hLeMR2N0Zfg+7B/YMDJ6+g97jlOHTqqvp9+qq1UKhzT0RP8Pk3EKM2LDcTAkJACJiIwIXlf+HolLF4//gRCudKj4bVi6PGD/mVO8YY9s7LB1v2ncbKLUdw+cYDXLn1EHQFafZKW+Q3BvCSK34ez50IoEVojafwjIfCuTNgwO911LcBYxlX+acv3lafUrsOX8DaHTw8HGh5W3dEjkbN4RzTeMUKjNVvuY8QEAJCILwErm/ZoIqxvLp5XV3KbMfMkEA3+89VioT3dqG+3svnA/49dB7DZ/6DY2eDsnMyD1s/ACppjyFlA4/pMqTnfwDiGe6YNkUilMifCUVyZ1BuIKZzMIb5fPyEvzcdUp9IrBx/+NRVtTER3Ir3GYKM1evC0ZXny8SEgBAQApZN4OGJozgwvD8enzn52UBYgpG1TupWLIjknkHyG6nB0ovy59hlGDdvo+E+jNPfbfif4Nk5WUydyfp7848l8mdWBdQL5UqnCqoby1ZsOYx9xy5h3c7jePiU3z6CzKD8qk8Vxs9EqjLlYedg3L0EY41D7iMEhIAQCA+BN3fvYM+AHrizb5fhMnWGigtwR0cHVCuTB8XyZkLzuqUjnRyTLnpG8qzaeoRt0d9TSnP1qLZDJtln8RXVq9b1ymFQx5/g4mycRG3ePh/QbeQS7DpyAdduPwrO6wWAtdqnUQ1mjuMff5y5CMmKmu8wWXgmVF4rBISAEPgeAd8PPvi3Zydc3Ui5U8bCKHEAdGNkJfdRE3rEQs3y+VG5ZC6UKsDt14jZwjV70Xv8MkNQDtMdNwdwwXC3kMJfCADDamJx82Fgh/+pFX9kbf7qPdi464RKDer732YDfU0jAfB7z2UAdwD0B9BHhD+yxOV6ISAE9EhgR/ffcXntCkPXMjEaE0BhALMBqCK8zIqcNkVClMyfGfV+LIpcmcMX2fj6rReGzVgbFCEJoA2AuczRE5rwswjkAABNuPEw8Pe6aF3/hwjzO3PpDiYs2KRW+Y+evTJkhqNLZz6AKZrgB8aJBpoIf4Rpy4VCQAjoncBXhP+S1meWvC0KYLRhDNFdnZXPn7V56YEpkDMdvxZ8c4iM4lm59Qi6j1ysNJcRPADqaXn4g64NeRc61LnBu4ivaFyzBHq1rgnPBPw2EnZjtZfRc9Zjy74zePzsNT58/GS4mL6mXAAeap90IW8qwh92zPJKISAELIzAN4SfI2H0DPWRK3TqsDKesUrgERPubi4oWzgrfm9USWlyyPQ5FPrJf21VVbeou5r1BDABwPvgqL728UHHOr8WpHR1joYR3eqjUY3icAzDJisTAA2fuVaFZvKYcDDBZ5us5TtWc+mENl0i/Bb2IEt3hYAQCDuB7wg/b8SUCIymYSGS7oY6KYYWuOcaI7orHOy/zJzg5+8PxvJ7+3DPWNl0zYvChfZn9jXh5x25ETCNr6TgN6tbCl2bVUWi+Az8+dzevPPGjGXbMWbuBrz3/gg/Pz+DS8fwwuMAGmluHd/vIBLhD/szJK8UAkLAwgiEQfgNI6I2OwJIpRVIrwUgPCGOLPXVwxC3Hxbh52v4icMdZ37isPEg41cM5um5E5jQ/2vGZBH07ZwD0AHA/jDODQP2WfO3M18vUT1hpCYvEwJCwGIIhBB+Fhu5GI7OlwEwiMmUtW8G/HAw/NCNzv1Tng7jAppVFUO1b+0U8FAXhZ8nenl89lufNhT7twDeATgKYKj233CMCTwSzEG1gp1doPAXYXSpmBAQAkLAOgiEEH4K3D4tzj4iA2SiH+atp5fmZmir+6/d+NtbxIFXMLa+JfOmAXDTavQaCrgYNgwYiz8HwFJttR+RQSQBMJhuISe36Kg0ZS6SFDDeMeaIdEiuEQJCQAgYk8DOnh1xec3f0Oqb1AHAylPfc4EbswvqXmER/uCNZgCQTNs39N8AACAASURBVFv9PwBw1og94icX00bUcIsXH+XHTUfiPAWMeHu5lRAQAkLAvASYk//80oXgYS6ek9UWzCpJviktvMIflX1jNNFwAPljJkuBciMnIWGO3FHZntxbCAgBIWBSAkcnj8WZBTNVambNtc3FbtDBKlN1Rk/C/7N2eCFxwhx5UKLfMCm0bqqnQNoRAkLAJATOLJytcvJ7PVPp7uka/03bHzVJ+4ZG9CT8bQGMYdKiTLV+Qr62neGeyNOkMKQxISAEhEBUEriyfjWOjB+BN/eYoQbMQ8/UCDxda1LTk/Az9JMHvFC4ax9k+d8vcHLjXrKYEBACQsA6CDw4egh7B/fG88sqXxpzKjAZmsqRb0rTpfCXHT4B6X6sGenUpKYEKW0JASEgBL5H4PWdW9jRowMenWDUu7KEAL5ZK/F794zI33Up/OVGTUa6ytUjMh65RggIASGgWwKM5tnc9tfgOflF+A2uHhF+3T630jEhIAQiSWBDq0a4vWu7rPg1AkE+fhH+SD5ZcrkQEAK6JSDC//nUiPDr9lGVjgkBIWAsAiL8/5F01pKzMWUDZMVvrEdM7iMEhIDeCIjw/zcjzPfMhHCsPSnCr7cnVfojBISA0QiI8P+HkiUfWWu3ORO0lRk2HqnLVTQaaLmREBACQkAvBET4/5uJnACGASgfPUFClBw4CimKl9bLPEk/hIAQEAJGIxBC+Jme4IsKWUZrLJQb6SWOnyrPupBZ4qZNj+J9hsAzX6GoHrvcXwgIASFgcgIhhJ+ZKE+auhN6EX7mpZ7Nyl8pSpZFoU49ETcdM0CLCQEhIASsi8Cmdr/i1o4thpz89Glv0apnmWygehH+hgDmc9Q5m7ZE7uZt4RI7jskgSENCQAgIAVMR2NmjA65uWAu/T6ooOuuRL7R54S/aoz+yNWgKu69UkTfVxEg7QkAICIGoIrC7fw9cXrMcvj6qGEsnAOMjUX4xQt3U3Yq/WK9ByFa/SYQGIxcJASEgBPRO4OCowTi/dAE+vmeJclWfvJcIvwi/3p9b6Z8QEAKRIHBi5iScmjMNPq9UGv4lABqI8IvwR+KRkkuFgBDQO4FLq5bh8PgReP/kEbt6guVmAfiZst96cfVwg2MeBy6uHlNOv7QlBISAqQlc37oRB4b3x9sH99j0fQApAfiash96EH7m6WHdScbxi/CbcvalLSEgBExO4MGxQ9jVuwte3brBtj8BYKlBmxN+5ulhZs6+9g4OSviz/MToTjEhIASEgPUReHPvLja3a4pnl1T5RZqTLQo/K9AwOVvHaDFioGjPAchYva71zbaMSAgIASEAqE3ddc3r4em5MzYt/DyiOxLAj27xEqBoj35IW6maPCBCQAgIAaslsKpeNTw6ecymhb+wtrGbLnaqtCjSrQ9SlChjtRMuAxMCQkAIiPADVQCs46PAPD0FO/aAR/qM8mQIASEgBKyWgAh/MOHP3qAp8rX7A84xY1nthMvAhIAQEAIi/MGEP3+7P5C3dUd5KoSAEBACVk1AhF+E36ofcBmcEBACXxIQ4Rfhl/eFEBACNkZAhF+E38YeeRmuEBACti78TBnxI4C1fBTExy9vCCEgBGyBgK0LP48qs+ziIhF+W3jcZYxCQAiQgK0LP5MTNQUwkRW3uOLP0/J3eTKEgBAQAlZNwNaFnwnaqPT9nFzdkP/3rsjRqLlVT7gMTggIASEQQvhdmcLHlFTMnZbZE8AAAL+6xYuPAh26IVOtn005fmlLCAgBIWByAiGEPzEAVZXFVGZu4U8HYBqA0jGTJkfBjt0lQZupZl7aEQJCwGwEQgh/MgCqKoupzNzCnwPAagCpEmTLgYKdeiJpwaKmGru0IwSEgBAwC4EQws8F8DVTdsTcws/MnPs54OTFS6Nwl16Im5ZZmsWEgBAQAtZLIITw5wVw3JSj1Y3wZ6hWG0W69YVLnLimHL+0JQSEgBAwOQERfm3Fn71hMxTt0d/kEyANCgEhIARMTUCEX4Tf1M+ctCcEhICZCaz5pRYeHD8MBASwJ4UAHDJll3Tj6pEVvymnXdoSAkLAnAQ2tmqEO3v/hb+fH7tRGcBGU/ZHhN+UtKUtISAEhABVXoQ/MKpHVvzyfhACQsBWCNi68DNof68Iv6087jJOISAESMCWhd8eQBkAW0X45c0gBISALRGwZeFnSuZqAP4W4belR17GKgSEgC0LvwuA+gBm2Ts6ImfjFijYuac8EUJACAgBqydgy8LvDqAFgFFO0aMjV7M2yCu5+K3+gZcBCgEhYNs+fuZmYErmNq5x4iJPy/bI3lBy8cubQggIAesnYMsr/kRaSuZq0eMnQJ5WHZH154bWP+MyQiEgBGyegC0Lf1IASwAUdU/siXxtOkkRFpt/OwgAIWAbBNY0rIUHx2wzZUMqADsBpPTIkAmFOvdE8mKlbWPWZZRCQAjYNAFbTtKWEcBFzr5nvoIo2nMA4mXMYtMPgwxeCAgB2yAgwg8gWdGSKN57CGIlT2Ebsy6jFAJCwKYJhBD+nABOmxKIOZO0Ba34U5eriFIDRsI5dhxTjl3aEgJCQAiYhYAt19wNEn5W3yozbLxZJkAaFQJCQAiYmoAIPwARflM/dtKeEBAC5iQQQvg9ALwwZX904eoR4TfllEtbQkAImJtACOFn3jJfU/ZJhN+UtKUtISAEhAAAEX5x9cgbQQgIARsjIMIvwm9jj7wMVwgIARF+EX55FwgBIWBjBET4Rfht7JGX4QoBISDCL8Iv7wIhIARsjIAIvwi/jT3yMlwhIARE+EX45V0gBISAjREQ4Rfht7FHXoYrBGybwIc3r7Hu15/x5FxQXjY5wGXbj4SMXggIAWsn8OLaZWzt1Aovrl42DFWE39onXcYnBISAbRO4u3839gzoidd3bhGEN4CYkrLBtp8JGb0QEAJWTuDiisU4MnEU3j95zJGeBJAPgJ8phy25ekxJW9oSAkLA5gkcnTIGZ+bPAn39ABYCaAzA35RgRPhNSVvaEgJCwOYJ0M1zafVy+PrQy4PuAEaK8Nv8YyEAhIAQsGYCWzq0wI1tmxDgr7w7dQCsBBBgyjHLit+UtKUtISAEbJ7AhlaNcHvXdgOHggCOiPDb/GMhAISAELBmAiGEPwWAO6Yer6z4TU1c2hMCQsCmCYQQ/oQAnpgaiAi/qYlLe0JACNg0ARF+4CKfAKm5a9PvAxm8ELApAiL8Ivw29cDLYIWArRPw9/PDptZNcHvPDgMKcfXY+kMh4xcCQsC6CTy/egm7ev2Bx2d4YFeZCL91T7mMTggIAVsncG3jPzg0bhje3L1NFFcBMJzzham5yOauqYlLe0JACNgsgRMzJ+HUnGnwefWSDOYBaAfgnamBiPCbmri0JwSEgM0S2Du4Fy4sXwS/jx/JoDWAOQA+mBqICL+piUt7QkAI2CyBHd1/x+W1KwzjLwtgl6kzc7JxEX6bfQRl4EJACJiaQAjhzwTgkqn7IMJvDuLSphAQAjZLQIQfyAgtjj9tpWooPXgMHF1cbPaBkIELASFg3QSYjXNH9w64sm6VYaC2veJPWbIsSvQbjugJE1n3zMvohIAQsFkCb+7fxZ7+PXBn778i/CTgma8givYcgHgZs9jsQyEDFwJCwLoJ3Ni+GYfHDcPL6wzfxzUAPwC4aY5Rm3NzNw2A/Ty55pEhMwp17onkxUqZg4G0KQSEgBCIcgInZ0/BiRmTDCUXpwLoDeB5lDf8lQbMKfxJASwBUDSGZ1Lka9MJGWv+zxwMpE0hIASEQJQTODBiIE7Pn4EAf1Ve91cAiwH4RHnDOhP+eACGEYBLnLjI06IdcjT6zRwMpE0hIASEQJQT2De0L84smGVopySAPaauvGVo3JwrfncArQCMcHR1Ra6mrZCvbecohy8NCAEhIATMQSCE8BcBcMAc/WCb5hR+ZwB1ASxgR3I0bI4iPfqZi4O0KwSEgBCIMgL+vp+wb2g/nFvM9DzKbFb4HbRd7Y2kkL1hMxTt0T/KwMuNhYAQEALmIvDk7CkcHDUI948cZBfo5C8KQP2POcycK36Ot7AW2SPCb47ZlzaFgBAwCYGLK5fi8Ljh8HqmyuuuA/C7uUI52QERfpNMuzQiBISALRM4NnUcjkwcBQQEEAM3M2eYIx2zYQ5E+G35aZSxCwEhYBICx6aMDRT+QKsO4B9zRfToasWfrX4TFOneD/aOjiaZCGlECAgBIWAKAgF+fjg6ZSwo/pr9CGC9KdoOrQ3drPiZqK1I1z6Sr8ecT4O0LQSEgNEJvHt4H4fHjzDk4fcFUA2ACmoxl5lb+HNrABImyJZTpW1IUoBRTmJCQAgIAesgcOvfrdg/vD9e377FAZ0D0AzAYXOOztzCnxLAGAA1oidIhAIduiFjDYb2iwkBISAErIMASy2y5KJWbnGclrHgsTlHZ27hjw2gPYD+Ds7OKNC+K3I2bWlOHtK2EBACQsCoBM4umou9g3oZ7slsBbMBfDJqI+G8mbmFPxqAn7Vq88jfvgvytuoQziHIy4WAEBAC+iQQEBCAs3/Nwb4hfQwdbGTIVmDOHptb+Nl+VQBrCCF/uz+Qt3VHc/KQtoWAEBACRiPw6tZ1dXDr+pYNvCc3dhsDWGS0BiJ4I3MLP7tdRTvJJsIfwUmUy4SAENAngdu7d+Df3n/A66k6sctsnH8AOGru3upK+HO3aId8rTvBIRo9QGJCQAgIAcsmcHXDWmzv2taQg59p6Pnz2tyj0pXwJy1cXIV0xs+czdxcpH0hIASEQKQJXF2/Gtu6tDXcpxMARvWovA3mND0IP1WeMEq7ecRHkR79ka4yzzeICQEhIAQsl4DPq5c4NW8GTkyfYBgEI1fG62FEehD+uAD4SfinnYMDivUahKw/NdQDG+mDEBACQiDCBB6dPoHtXdrizd3bvMcNzb+/OsI3NOKFehB+5uVvAmAmx0XhZ94eMSEgBISAJRO4u28X1jWvbxjCHC5uATzSw5j0IPzkwCX+fBF+PTwS0gchIAQiS4Dx+4zo2diKYfvKBgDoG9n7Gut63Qk/6+7mbNICTm7RjTVGuY8QEAJCwKQEPrx5jTMLZ+HoJGakUad0WV5wsEk78Y3G9CL8zE/NwgTxE+XOh6Ld+4FJ28SEgBAQApZI4PmVS9jQ4he8e/SA3b8AoCeAtXoZi16EP6P2aVgzmrs7ygwdj1RlK+iFkfRDCAgBIRAuAk/OnsaKupUM1yzQSi2+CtdNovDFehF+NwBdAPTjWMuNmox0lfklQEwICAEhYFkE/H19cWvXdmxu96uh45MAtNPTKPQi/GTCGFdVokaEX0+PiPRFCAiB8BDwfvEcu/t2w43tm3jZSwDDtZ/w3CZKX6tL4WeGzhyNmsM5FrM2iwkBISAELIfAm3t3sKxaGXzy8mKn92qp50/paQR6Ev4aAFiNOHW8TFlQatBoSd2gpydF+iIEhECYCLy+exuLfihseO1yAL8A+Bimi030Ij0JP6txMdypnr2TE6pMX4ikhYqZCIM0IwSEgBCIPAHfDz44NGYoziyYxZsxJ89f2jmlyN/ciHfQk/DzBC8POTDsCT/OXIRkRUsacahyKyEgBIRA1BL48OYNFpTOi0/v37MhhnH+DmB71LYa/rvrSfjZex5yUKVqfhgzFanLVYK9o2P4RyVXCAEhIATMQIAHt2YXyGxoeRuAyuYus/g1DHoTfkb2MKQzVtx0GVB+3AzESZ3WDNMnTQoBISAEwk/g+IwJODyWQTzKtgDQ5YEkvQl/Ei2ksw6p1V6+EQmy5Qg/fblCCAgBIWAGAtOzp4TfJ1VH/Z6WdfhvM3Tju03qTfjZ4YkAVOWCWkvXIWH2XICdHrv5XbbyAiEgBGyIgK+3N2bkDvJQHANQEICfHhHoUVGZ1ag9AIfifQYjY42f4Ojiokd20ichIASEQBCBEzMnqYgeTez/5VlUveLRo/CzCj39/CmiJ0qMmovXIkZieoDEhIAQEAL6JTAjV1r4+nizg880r8UyvfZWj8IfB8BcAKr+Yv2tBxArWQq98pN+CQEhIATw6tYNLK5UHAhQ5XRZbSu9Xt087KAehZ/9WgzgZ/6jwsRZSFnqB9g7MMxfTAgIASGgPwLbu7XHlX9WsmO+ANYBqKm/Xv7XI70KPw9xsQ6vR8KceVB11hI4RZfCLHp+kKRvQsCWCcwpnA0+L18QwVvNt39Yzzz0KvypASzirridvT2aHjwH55ix9MxR+iYEhICNEri5YzO2d22PT17qtC6zccbVOwq9Cj/7tZkHeAmw6pxlSFqoqN5ZSv+EgBCwQQJrGtXGw2OHEeDvz9EP0Yqq65qEXoWf0BgX1RpATM98BVF9gfKfiQkBISAEdEPgw+tX+Lt2RTAVs2YJADzVTQdD6YiehT+NVqMyC/P1tDx7W+8spX9CQAjYGIH9Q/vi/N+LwMNbAG4BSGUJCPQs/OzbEQB5CbLKjL+QvFgpS2AqfRQCQsBGCKyqVw2PTvKQrrJCAA5ZwtD1LPzkN1AryejunjgJGu7k54CYEBACQsD8BM4tXYBjk8fA61mQZ4ephHWZoiEkLb0LvzuAM/z6ZGdnh1YXmPdITAgIASFgfgIbWzXGrd3bDYe2WgCYYf5eha0Hehd+juIKgHT8R9b6TVC816CwjUxeJQSEgBCIIgLPr17Cv392xpOzqpQuj+vGB/A8ipoz+m0tQfhLa5u87i6x46DpgbOSrdPoj4HcUAgIgTATCAjAju6/48q6VQgITNGwEcD/ALwL8z3M/EJLEH4iohMtXrQYMVF72QbETsXzXWJCQAgIAdMTeP/kMXb16YLbu3cYVvssuXXJ9D2JeIuWIvwM4q9JP3/8rDlQe/mGiI9YrhQCQkAIRIIAUy+fmj8D/h8/8i7cg2R5RYvagLQU4Y8J4DUpM7qn6uwliJ2KYf5iQkAICAHTEXj74B72D++PG1vp3VFWHgCX/hYRzWPotKUIP/u7G0Bxh2jOSFe5OkoPYb0WMSEgBISA6QicmjsdRyaOgq+3Fxs9CuAXAJdN1wPjtGRJws/iu2oL3SNDZlSevgDuCRMbh4LcRQgIASHwHQKvb9/E4XHDcW0zsy4rawiAxVaUz8eSzJKEn32lPy2rc6zYyNm4BfK0ZIVGMSEgBIRA1BO4tGoZ9g3ti4/vmHkZB7RcYqejvmXjt2BJws/R1wKwgv9IUqCIKtLiHIPufzEhIASEQNQReHXzulrtX98aFFjSEcB0ACpJj6WZpQk/yzLyQFc8V4/4yN28DXI0am5pzKW/QkAIWBgBCv7Onp3w6b0K1d8GoAsAi1ztcwCWJvxOAOoBmMfOpy5XEaUGj5FVv4W9iaS7QsCSCLy4dgXMwnn3wB5Dt3sAGAvggyWNI3hfLU342XfGcR4HEIu+/ty/tUWupq0slb/0WwgIAZ0TuLtvFza2aQK/wLh97uyyNOw5nXf7m92zROGPphUyXsKRMbSzcLe+iB6f9Q/EhIAQEALGI/Di6mVs+f03vLx5zXDTwQD6aUXVjdeQie9kicJPRDkBbAKQiHH9+dt1Rq5mbUyMTpoTAkLAmgkE+Pnh7v7d2NCyoSEnz1IAnQE8sPRxW6rws99VAPzDCUherDQKdeoBj4xMmSEmBISAEIg8AcbtL65SEgG+vrwZC+qOB9Ap8nc2/x0sVfhJLrcWTqUqdBXu2hvZGzaHvYOD+alKD4SAELBoAiyluH9YP5xf/hfHwRSciwA0sXQXj2FSLFn4OQbG9TPCx909kSdK9B+OFMWZxVlMCAgBIRBxAs8vX8Sy6mUNN2Al9b6GaMKI31U/V1q68DNnQ28AKqynYMfuqlhLtOgs3CUmBISAEAg/gY/v32FhmQL48PoVL/YBsBDAb+G/k36vsHThN6z6mbEtub2jI8oOn4jUP1QC/y0mBISAEAgvgdMLZqm4fc1OAPjRGjZ0g3OwBuFneOefAHiowil12Yoo0qMfYngmDe98y+uFgBCwcQKM4lnXjGdElb3RDmoxfNOqzBqEnxNSBsAwAGqjN1+bTsjRuAWiuYvLx6qeVhmMEIhCAl5Pn2DF/6rg3cP7bIWntejiYU4YVV/RmsxahJ9z0gDAAACpHJxd8OOsRUicOz/s7O2tab5kLEJACEQRgYOjB+PM/Jnw+/SJLTzhtiGAm1HUnFlva03CH0sL76wDwD5FiTL4YfQUOMlGr1kfMGlcCFgCgfNLF+LQ2KH48EYV+uMKvzWAaZbQ94j00ZqEn+MvBmASgOz8n0y1f0bJASPBWr1iQkAICIGvEbi1c6vKs//mHqM2lXFnl94DqzVrVMTqAMYBSGHn4IDivQYhy08slCMmBISAEPicgM/LF/i3Txfc3rUD/r7KxXMWQFFtY9dqcVmj8LtomzJVAUSLniAhft6wG9HcY1jtJMrAhIAQiBiBw+NH4OyiOfj4VlXVotFrsC9id7Ocq6xR+Ek/uVacPSX/J1HOPKi5RKX1ERMCQkAIKAInZk7CyVlTDH59/qoaAJbY8rN2RNYq/Jy3FABOAojDyB6Waqw6h8n1xISAELB1AucWz8eRSaNAV49mPP0/31JLKYZ3Pq1Z+MmikPa1zZ4hnul/rIlSA0eGl5G8XggIASsicHv3dhwYORgvr7OKq7JlWinFu1Y0zG8OxdqFn4OfC6Ax/0F/f8GOPZChWm1AIn1s5RmXcQqBIAIsmn5kwkhc28xCWsruAfgJwH5bwmQLws/5vMGDXfxH/Kw5UHrwGHikz2hL8yxjFQI2T8Dn1Uucnj8Tx6cxrb4y7ug2ArDa1uDYivAzpOcU67NzgpMXK4WSA0fBPWEiW5tvGa8QsEkCH9+9w/nlC3Fw5CDD+J8B+B3AYlsEYivCz7lNBmAjgKz8n9TlKqFoj35wT5zEFuddxiwEbIYAi6pcXLUMewcxl6OyRwB6AZhjjXl4wjKxtiT8HGs2zefP6l1IW6mayuEfMymjP8WEgBCwNgJ+Hz/i0qql2N2fyXuVPQQwVEvHoE5s2aLZkvBzflmXsTCACVrBdqSrUgMF2ndBzGSM/hQTAkLAWggEBATg3OJ52DuIi3tljwGwdgfTunhZyzgjMg5bE34ycgVQQcvHkYO/YJhnfoq/rPwj8gzJNUJAlwS4kcu6uZoxYH+yJvyqtJYtmy0KP+ebifqZ06cnc7nxF+kqV0Ohzn+Kz9+W3w0ydqsg4O/np07kHh7HEh3KmHKTos+VPl09Nm+2Kvyc+DhasfZOBvFP80NlFOs9GG7x4tv8gyEAhIAlEvD18cbxaRNwcs5U+Afm1acxbHMWgCEAGM1j82bLwm8Q/5raqb0M/EXKUuVQeuhYuMTi54KYEBAClkKAaZXp3rm4cgkYyRPCXgLgqS3mbdlkKWOKqn7auvCTKwu4lNPybyu3D/P6lBo0GjGTMgJUTAgIAb0TeHDsMM4snIU7e/8NEv2Zg37Dhev3MHYuo7iVsZzidS1t+wy9jykq+yfCH0iXG775tApe6kivR4ZMyN/uD6Qqw31gMSEgBPRK4Mq6VTizYBaeX7kEv48fVDdXT+6MUgWz4O17b/x76AKa9pwKX19/wxDo5+8PYDYAX72OKyr7JcIfSJeFebkCqA+A+fyVucVPiFRlK6BEH7oGxYSAENAbgTMLZ+PEjInwfvECAf6B2ZQ3zuyGYnkzwcEhsN72x0++2H3kInqPX4Yzl4KqbDHKZ5QWz083kE2ZCD+QX3PzlGLhlpCz7xAtGhLnLYSqs23yZLdNvRlksJZF4NyS+TgwcmCQa8fRwQHrpndB0bwZ4WAfKPoG8/Pzx637TzFh4SbMXLbT8GtuBPD0LsN/mKzNZszWhf8PAAMBOANQLKqVyYOp/Zsjbdn28PKhS5B/sUPSgkVRefpCODg52czDIQMVAnok4PXsKU7MmISzf80GD2nRsqZLhmkDmiFX5lTfTLzL1f/4+RvRd8IKw9B4g20AWgK4qcfxRkWfbFH4eXqX2dk6AKDwq2Lsbi7RsHhMe5QumCXoK2LtdmOw89B5+HwIDAuLnzkrCnbuCc+8hcBvAmJCQAiYjkCAvz8enz6OnX92BtMr05yjOaHej0XQtXlVpPCMF+bOjJj5D4ZOX4MPH4Nc/LsANAVwyxby99ia8HNlX17z7aXjU+Lu5oJUSeNjfK/GKJhT/SrIfP38sGzDQfQevxyPngYe9nN0dUX2Bk2Ru3k7RIshdXzD/E6TFwqBSBD4+P4dHp8+gfXN6gWt8mO6u6JHi+poVa8cojk5hvvug6euwoQFm/H2vY/h2jNa+UWKv1WbrQg/x8lVfkVtJ19NaqJ4sdH8f6XRtHYpJPRgVOeXxq+SF6/fx08dJ+DG3cfw9w/8apmtQVNkq98UMRJ7wsGZnydiQkAIRAWBZxfP4+rGtTg5i4dvAScnR3jGj412v1RA6/qMxI64jA2cvApTl2zDqzfvDV3/F8AvAO5HxVj0cs+IE9PLCMLWj5JaFS4WXYCbqzPSJk+oHpz6VYuG6Q5nL99BlxGL1IfA0xdvAj84cuRB5rr1kapsRTjHjBmm+8iLhIAQCBuBT+/f48m5U9jU9ld8fMfDt0AMd1fljm1cowTKF1OptiJtAyatxPRl2/HydZD4/w2gDYCnkb65Tm9g7cLPrf1aWp4OlYchftyYqPlDfuUXzJctTbim5eGTl1i26SAWrd2H89e0IAA7O+Rv2xmpypRHnLQZYO/ALQQxISAEIkPg4fEjeHz6JA6NG6pSL7BSatzYMdCkZkl0bloZsWK4Reb2X1w7aMoqTFy4RcX9az5+xnAPttbi69Ys/My5wHQMMwP3b+3gmSCOWuX/9r8ycHGOWHQOXT9b953BqNnrcfLCzaDIn2RFSiBlybLIWq8R7OxF/I36rpSb2QwB7xfP8eDoQRybMg4vrl0GN3Tt7e1QtnA2lMyfGR0aV4oyFnT7jJ6zXsX9a2mbO2vne4JOfkVZ4ya+sbUKfy4AdbXIHRdHB3uULJAFtSsUQMPqxY2Cx3fWHwAAFflJREFU+NjZ69i05xSWrD+g4oMNxvTOCbLmUOUdxYSAEAg7AaZbuL17B65v2QCvZ0/UhTyE1blpFfxUuTAypvYM+80i+Moh09aAq3/NmNCtq1a8KYJ31Odl1ij83MBtpeXfUadwe7WuiUolciJnppRGnQWGeW7cfRITF27GifM38ck38ORgvAyZkfqHSshcpz7c4icwaptyMyFgbQQYmnl7z05cWrMczy9dCBpelZK5UThPenRoxLe06aSq19hlGDN3g6Eft7UF5Bpr4m46mqah1gBAR62ubjT6BSf3/RX/q1QIri5RF3d/6NRVnLl8B33GL8ebd4FZAR2dXZC8eGkkzp0PORr/ZprRSytCwIIIMETzzp6dqh7uk7On8OF1YMh0jOiu6NikEqqVyYsMqT1hzzeyCe31Wy/UbDMaB09dZav0+zDLWzNr2uw1LdGonTzm2enDUrrMvUMf/sTeTdQmLv37UW2fPvlhx6FzWLr+AJZvOhjUnKtHPKQoXlpF/qQq/UNUd0PuLwR0T4B++6cXzuHopNF4des6Xt/+78Bsk1olUb5oDpVgLUb0oLRZJh/TnqMXUaPNaHgHnt5/rlXuspqkXVGviKaZsp+0fDsM07H3iO2uDmT9WDoPnBxNu9F658EzXL75ED93mgAv78BMgfaOTnD39ETyIiWRpW4DeGTMbBoq0ooQ0BkBn5cvsL1be7x//FBl0zRYjowp0KxOKVQskQuJ4sWCfYhcO6YeBt22q7cdReNuUwxN0+XDOo7zTN2XqGjPGoS/CoARAFhIxZ6RO+P+bIQfimaP0Gk+Y0DmIa8L1+7h6NnraNOfOaACzdHFVfn801WsqqJ/oidMbIzm5B5CwCIIbPn9N7y4fkWlW+Cq32C/VCuG7r9VQ6L4saPUJRteSK/eemHY9DXqdC8AdpgRgoz0CQr4D+899fJ6Sxf+PABGAihB0U8cP7Za6fNgh6lX+l+b0A8fP+HCtfuYungb/vpn738fAK6uiOYeE9nqNULW+k3gHEMOf+nlDSH9MD6BXf264e7eXXj/5DH8fYPKIQY1RJdO+4YV0bZBeaPH50dmNAzdPnjyKqq0GG7I10XB7wtgdGTuq4drLVn4Gaf/O4DeFH3m7aBPv2b5/F+kZDUnaD48/Np44OQV9Ju4AkdOXwvqjr2jI+ydnFCgQzeV/kEOf5lzpqRtYxPYM6Anrm36Bx/evkGAX2DEm2aPATBshknRlHGhljltUozt2fCLnFnG7ld47ufv74/1/55QKVs0m65pjkWf6rVU4afjvhqAlZwM52iOGNmtAZrVKR2eOTXLa5es34+h09ao2H/mCA/M/BNoeVp1QN6Wv8POwR72DuFPOmWWAUmjQkARCIC/nx8C/PxxeNwwnFuyACx8Hsy41OcvGOFwWPs9AzFYCYtnboIe+H+mdUGZQllNEpQRlsk7cOIyGnefinuPWLtFGRecQZ8EYbmH3l5jicLPPjPBzh7CdHWOhl5taqJjFJ7oi4pJm7ZkG2Yu34k7D5/By/tjUMZBh2jOyFijDvK26QwnFxdEc4+h6gGICQE9EuBK/qPXe7x//Ain503HxZWsZf6ZvdYEnwEYu0MZA3PhM2KGPk8VjbF+ejeUyP9fFS1jj52Zd7nqcnBwCNPba9mGA2jac7rhfco9RRZvsdjKXZaoKEyj+SeALjzK/Uu14hja+WfEjmnc3B3GftBCux8Pf81YtgM37j4JEn++li6glCXKIG+bTnCJFRuuHvGlBoCpJkXa+S4Bf19fvH14H2/v3cWZv2bj1s6tIa9hXVsG5vcCsA7Al879z6/gN/huAHjqXsVxUvxLFshk9Agfxunz7A1dsLmzpFKZeQ1lGkMb+I6D59Bh8Hxcv0MvlfrmwoSPTOZmkWZpws+kayyVqALlkyX2QK9WNfFL9WIWB58ZPhn6+eGTLxgzTPeP4eRvyMEkypkHWX5uhDip0yFW8hRwjvn1FNIWB0E6bHEEvJ8/w6tbN+D98jn2D+uPt/fvBh8DxZ1B+cy3wHq2m1jyNhyDpOh3B1AZQHReR7dP2ULZjHpwd+Gaveg+erHKxslUEH+2qoHUyRJ807VEt+ykv7agx+glhuFwf2IBgM82L8IxVrO+1NKEnw8Dk3I34gEtHvYY3Z2ps79tTLq0bf9ZxI7hhiJ5GPVpPuOK4drtR6qyF/39z14Gppv9itH9z5+g4qFu8RIgy88NES9jZsRKlhKxU6UBN4jFhEBUEvD79BFPz58FY/DvHdirVvgh7B0ABuUz38J8AEFFbSPQrxTaN/qfWSeJ16+Y0BGVSvIzwTi2bf8Z9ByzDOevBn5otW9YAX/8+iPixfl2YSW6ZrsM/8uQxG285u55ZJxemfYulib8LKbCr5DIkjYpRvf4BcXzZfousdl//4t2A+cidbKEmD6wOYrkTv/da4z9gut3H6uIHkYIbNp9Cj4fv/jmy/PhrABk+CSg6HM1kRRAPgAewfuUrHBxpC5XEY6ubkhaqBiiJ0ho7C7L/WyZQEAAXly/ihdXL8Hr+TOcX7YQr25c+yz+XnPl7ADAZ5eBFseMhIwp1Ado7hRXR0cHzBnSUiVZNJat3XEM/Sb8rQ5b0nq3qaky97IiX2i248BZ9ByzFGevqA8MfrNhipgDxuqTKe9jacLP3f9l9O1XLpkby8Zxc/3bRvdJosIt1NHrhPFioW/b2mhck2H/pjG6dLjC2LrvLFZtOwJfLZGb1jqFnm4rLwBHANBRGhQ6oL2Gp5GrA+BxX6YW5f8HzRtDQDPVqY84qdLALUFC9SHAPQExIRB+AgF4+/ABmAvf+9lTPDh2CPcO7cen91zQf2YntI1aOrxnaSkNwt/ct6/gIo/uIm4KOzBcmwcz6Zoxls1fvQdDpq3G3YfPVTjp3sX9kC1D8lBdPi9evcOAySvVnpxmzBFNd5bFmSUJP/t6nJs/HrFjqGIMYcnNzcRpzJ1P40bO1rl/qsLqUW30CbJYy/Sl27Fu5/GQLh0KPEPaKPqMdKDwf8+o5qwzR19VXgBlDF+FeSHzEUVP5IkUJcogevyEiJs2PZIUKAxn+RD4Hlfb/ntAALxePMOtf7fh7f17ymd/79A+eD0NTIsczLgg+QsAUxUfArDNBOD4rNO1y2dd1dMY1a0BqpfjF+DIG8stth0wF2u3H4Ofv7/6UJnct+k3Tw8Pnroa/BHhjzz/sN6Bwq/OeWdNnwyrJnVG0kRxv3ntlVsPkbtad/gHBID5e+gaqluxUFjbi/Dr+C1j6PQ1OHz6Gv49dD74fXh8dy0A1vXkal9VfIiAcfXP7710SjK6IHfwe9DvHzNZCiTIllOdCo6fNTtSlCgL1zjf5hWBfsglFkrg9Z1buLphNbyePoXP61d4cPQQvJ6qiJXgZshMyeeWvmweujJ1CCODOZYBSOlgb49cmVNiRNf6RjvkxcCKTkMXqhQrtBNrhiJj6iShzqoIv+kf+CDhZ8nE3Yt4cjp044nZ/3UYr3zqXA1ztf/vwt5wNEFpxF+6TMaWvafxzsvH0MFbABZqYW2nwhDaFla63Pjld9/kWjF5+r747//Mzg4xPJPCI31GOEWPjjhp0iNj9TpwZ54gOR8QVs4W/zrmxrm7fw9ubNuIT97v4f38uUqFbKhlG2yA3Fvit9HlAB4AOKf58MMTnWNsXnSprOCxHaZXr142HwZ2qKu+ARjD6neepL6VM7a/dKEsKow0NBPhNwbx8N0jXMLfbsBcLFy7V+3Ac8Nm46zuyJs1dfhaDOer9x2/hDFzN2LzHmq7Mr6J6A9tD+BiFK+WGPGUEwBdQtm1/OFfDJiun7hp0sHJLboS/ky1f0bqshWkXGQ451r3Lw8IwMub13H5nxWquAlP1b57cB+v79wEY/BDGIMI+NV0BgDmFOHqnhu2YXFBmgKFoXY2T4fZMzqvdf0f0O23qnAyQlTbuSt30aDLJFzRNnqfH52lDoaGNO4TsjrX2HlMz69MfPwmmP0wC/+5q3dRq+0YtWlDmze8NepWLBilXfxzzFJs2HUSV28/MhzE4o7YWACLAFyO0sY/vzk58QRkMgA81cZvBG20OgVfdMM9sSfc4sVXwk/3UKZaP8EzX0FJGWHCCTNKUwEBeP/sCS7+vVit7BmC+cnLS6U/ZsETBARPDhLUIncpmXqAoS2MJrujI7EPiYVFsllDWx0Npuu2a/OqKrGbMeptlG00SBVeUZ6CSoUwdxiL+H1urLXdc8wSlXgRwBsANSIZumqUqY/ITSxtc1f5+L/l6uHE1W43VkXS+Pr5I0nCuDi3YZTK5xMVxvYad5uqSjB6+XwwvL94so9+d35V5gNiTqP4MxTUWetTF+2bwRdAHJyiqc1gJ7fAU9Bx02ZA+mq1wdDRaO4qpFpMRwQenz6BiyuW4P6RwIhCruRZxYopFEIRevoeuarnD4tFcHHCzdqI7jWZmgafYUb28eCUyuQ54Pe6aF438jm6Dpy4gvp/TMTjZ6/BM0Ivjn5xVkEFavwx/C+VYwvAOC2O/4uNEVNDiUh7Fin83ODZMqfnV2Nuf+s1U1XAoouHdm/vFMSNFTWixcx9v/45HSu3fBamyTcUq0JzE+yry6yITJSRrqHYU9W5eqKxTCUdml/9VGSoqIOzi0ofwVWVg4sL0vxQGZnr1FMfCmKmI8CY+msb1+L65nXwfhH4TZZC7/vBB/6fQs2GwOePOa0GATitnQvhooQfAHp7NsMKk99muRxnrhwVoTf2z0ZgTv/IGKN6slXuopInstTjsdVDPtvkvXj9viqtym/1mjXUopwskqOlCT+f+DisyclP+UEd//fZXDMHBytf7TocWLB5/fSuKF0oa2Seh1CvffnmPbiPsGorw++DjBUbmHPEnBth4R0vnwH+cFOYpSt5KMXwwfD1ewXbFGYSuZSlyiJDtTrwzFcIDk7fvjS8nbO11/v6+ODegT24umEN7uzbpVIaB9nX3TXBEdFXf1Y7/MT8OIZ0AhYpTt+Ye55l4YcZY/zhHt1FHfCqUuqz4LZwPzpMvbxh1wm1oucp3ju7GUkaaEuZpK3HNMP/bmeuMABBm3nhbszMF1iS8BNVKYNP7Yci2bF6Sucg/x5dLr/2nK4miMaiLMdWDUWcWCrlh9GMoZrcxB04eZVK9KQZvzIzcRy/QgeF8hitUfPciMebmY+EftV4Whe448Wv29/1m8VIkkztFSQvVgqeeQvC0SXYiUg7O7WHYO/ooP5rxzJ7VhZhFODvp6Up9lMr8+AVp8jyzf27eHD4IO4e2KOE3t8vTN4WCjm/UXJhYRBzhgbTTx9a5kvzPD1R3ypj+7mHxpWdHd/vMwe3CMzoGYmyjYmLtAQXkNxDuLZ9gkrexlO+DbtMNuzd8f3dAQDz8lusWZrw01dNn5pDgRzpMGdIC6RKlkDBv33/KdoPnIdtB86qbH6n1g5D2hQ8/Gc8e+/9Aau2HMawGWtx815QHQZGQHCVvMtSEzaFkRDFnsmzGmtRQ7yM0RZ0HdGX5hr8RHGo97SzUyeL42fJhoTZciF+1hyIlSIlHJ2/PCpvKFTDmsXq3/yQcOCHhYP6r0ksQMsz7++violQoCnkrCTl/8k3ULBDrMQp8jwIxZqyTy6cwZOzp/H23p2vRdOENgQ6kSkwXFAwssZQp5ChlUyNwLMgTHds61ZHc/mkUuKfII7ShKJ5Mn4322Zo4LJW7oIbdx+rqJ4/mlVB5jRJUa/zxOCiz4p/wy29/KKlCT/9e4ylKkI/XJ2KBTFtQHO1cdt1xCJMWbRVHdbKnz0tFo9pZ7Q4X7VCe+eNWX/vRN8Jfxs2d/hr5uugEKraADZoVGvmv6igHSgz+Hn4rYBzxUBrfigEJZoLDyNGGzHSKIZnMsTw9IRrvARwjR0HrnE94BzbODHc3+sPxZ4+dca787+MkmHu+XePHuDNg3sqtcFXwiO/d1vD37lyZzQNRTz4nhD98Dylzmedp2RDzeQX1oas+HX8Vsoi6MxpZcfYfubjKlkgc4RW/v/sOBa82lZwbJwTpgBgDiF+AFu0WZrws788tcodFidu8vZvXweFcqbHn2OXBuXQ2PVXX+TPTjdg5I0upOev3mHeqt1qc0czvmGZjfAPEx1dj/xATHsHZozjufoi2nwFX87z3/zmxvMG/DGuL8604/xea9x1ZU56g7BTwIP7dBhRQz8xk5vxdGyY/D3fa9QG/95aC1Kg+Nuzhu/sIS1RuWSuCIV6uudsDAZuBDPOH3Py0KWmUsJbulma8JM3fTvcZWEMLQrkSKtO8jGccu+xSyoUi/l4jHFYizv9x8/dwD87j2PMHJ5WV8aVGd+kLLhsqyv9yDz33C/IAoBpVbmPkPgrN+OHA78p8FsDiw8wNQV/6FYykY/nq0OkMNP9Yvhh8W3uvlLcg/vdDRfz71wgXNf+yxPcn9UjjAxIufYzAr9pCzEeWlTPCGPxC+ZIixRJmOzz+8Zv9TsPnlNlFg1RgQDo052p+fR5zsEqzBKFn+C5nJ+qJS37bCKYx2fBiNbfzLcRtpkLwPSlO7Bs48Hgm7jMx8rUCzyUFRg6JBYVBCjy/IDghwJ/+A2CH/j075gzbIgbq1ylG34oCtxzYqIX+uKtLXomKuY2Ku/JEMsm2qHFaAxBrv9jERXZx3z+MaNzG+pL4+p+897TOHH+JkbP2YAPgSnTuZHO0/bztE3kz74CROUgTHFvSxV++oy5ahwI4MfgPuSMqT3x1+h2yJwm9ERL3wN779FzLFl/AAMmrVRZ+zSjP5/+vVU6OJT1vSHI34WArRLgSXVGorUDoPIuxIkZHQ1rFFeRfmmSJ0LaFAmV///Bk5e4cP0+Xr5+h0X/7FMBG3Ttah/gLLXFU8IMi7U6s1Th50Sw7xm1jUX+m64fFmHHr7VLof/vdSJwcCsAU5dsVyv8FZsPGx4CQ2w044YZUSEmBISAvgnQRcistQy7DMpX5RzNSZVYTJU0gYr6efT0FS7ffKACN4IZXXY9ATD38g19DzPivbNk4Q85ah7l5jeA9AzFYkWdVvXKgZMdFuORbcbr8hzAs5dvDBF6fAhGAGBOE4ZrigkBIWA5BCpqbmHW8f2eC4ALPL7XuSdDd65Vu+2sSfi5CcijdjzO65gkYRzUKJcfw7vU++bOPmvgshLP9gNncOnGA/h8CDr+zg081v3kibCQVbEs59GXngoB2yZAdw89AdwjYuFehh6n1QIFuDfDA3CsEcz3+H7tv1Yt+gZ3iTU9FpxQJnBS1VaYjjlHphQqvUPwAixMr8oCDFzdU+xv3nsS8use89fss9R6mtY0oTIWIWAkAoz0YXAAgwUYPMADidyQ5+Y8fywpzUqkkVjTit8AI4Xmi2fiDjW+hB6x4BGHcx1o3MWnX+/Zy7fBw7b4J+baYfIn5tCXQzORfrzkBkJACOiRgDUKPzkzFLAtgK5aKoHvsafQM9cOM64xJtuqQre+N3j5uxAQArZFwFqFn7PIr3Lc2e2sbfqGnFn69GYBmKJVHKJzXwTftp5/Ga0QsEkC/wd36LGeLOgy3wAAAABJRU5ErkJggg==;" parent="1" vertex="1">
                    <mxGeometry x="670" y="360.86" width="28.12" height="38.28" as="geometry"/>
                </mxCell>
            </root>
        </mxGraphModel>
    </diagram>
</mxfile>